<?xml version="1.0" encoding="utf-8" ?>
<svg baseProfile="full" height="2160" version="1.1" width="4096" xmlns="http://www.w3.org/2000/svg" xmlns:ev="http://www.w3.org/2001/xml-events" xmlns:xlink="http://www.w3.org/1999/xlink"><defs /><g fill="none" id="shape_group" stroke="url(#id2) none" stroke-width="1"><rect fill="#000" height="2160" stroke="#000" width="4096" x="0" y="0" /><circle cx="2048.0" cy="1540.0" fill-opacity="0.0" r="432.0" /><circle cx="2055.8535828967774" cy="1529.931462820376" fill-opacity="0.0" r="432.0" /><circle cx="2063.3557785491003" cy="1519.731963888402" fill-opacity="0.0" r="432.0" /><circle cx="2070.504461184466" cy="1509.4106999444666" fill-opacity="0.0" r="432.0" /><circle cx="2077.2977189725325" cy="1498.9769011091262" fill-opacity="0.0" r="432.0" /><circle cx="2083.7338545265397" cy="1488.4398262176157" fill-opacity="0.0" r="432.0" /><circle cx="2089.8113853070613" cy="1477.8087581473094" fill-opacity="0.0" r="432.0" /><circle cx="2095.5290439280075" cy="1467.0929991401156" fill-opacity="0.0" r="432.0" /><circle cx="2100.885778364825" cy="1456.3018661217968" fill-opacity="0.0" r="432.0" /><circle cx="2105.880752064885" cy="1445.444686020201" fill-opacity="0.0" r="432.0" /><circle cx="2110.513343960095" cy="1434.5307910843949" fill-opacity="0.0" r="432.0" /><circle cx="2118.5993282893214" cy="1443.2020578756355" fill-opacity="0.0" r="432.0" /><circle cx="2127.0064425107485" cy="1451.6960882788462" fill-opacity="0.0" r="432.0" /><circle cx="2135.730911194107" cy="1460.0043252662417" fill-opacity="0.0" r="432.0" /><circle cx="2144.768758239867" cy="1468.1182905103985" fill-opacity="0.0" r="432.0" /><circle cx="2154.1158084920335" cy="1476.029588778518" fill-opacity="0.0" r="432.0" /><circle cx="2163.7676894431397" cy="1483.729912294094" fill-opacity="0.0" r="432.0" /><circle cx="2173.719833030777" cy="1491.2110450641053" fill-opacity="0.0" r="432.0" /><circle cx="2183.967477524977" cy="1498.4648671698676" fill-opacity="0.0" r="432.0" /><circle cx="2194.5056695057206" cy="1505.4833590196927" fill-opacity="0.0" r="432.0" /><circle cx="2205.3292659298077" cy="1512.258605561518" fill-opacity="0.0" r="432.0" /><circle cx="2209.265577295385" cy="1500.1111919237408" fill-opacity="0.0" r="432.0" /><circle cx="2212.826901103001" cy="1487.9608960093865" fill-opacity="0.0" r="432.0" /><circle cx="2216.014385250388" cy="1475.8170869845494" fill-opacity="0.0" r="432.0" /><circle cx="2218.829390091836" cy="1463.6890922098924" fill-opacity="0.0" r="432.0" /><circle cx="2221.273487313687" cy="1451.5861926850264" fill-opacity="0.0" r="432.0" /><circle cx="2223.348458715631" cy="1439.517618519667" fill-opacity="0.0" r="432.0" /><circle cx="2225.0562948984234" cy="1427.4925444334635" fill-opacity="0.0" r="432.0" /><circle cx="2226.3991938586387" cy="1415.5200852863923" fill-opacity="0.0" r="432.0" /><circle cx="2227.379559491145" cy="1403.6092916415764" fill-opacity="0.0" r="432.0" /><circle cx="2228.0" cy="1391.769145362398" fill-opacity="0.0" r="432.0" /><circle cx="2238.56408771672" cy="1397.1519012597814" fill-opacity="0.0" r="432.0" /><circle cx="2249.369320408618" cy="1402.2582765394418" fill-opacity="0.0" r="432.0" /><circle cx="2260.4092236558604" cy="1407.0815214987153" fill-opacity="0.0" r="432.0" /><circle cx="2271.677161388299" cy="1411.6150290220166" fill-opacity="0.0" r="432.0" /><circle cx="2283.166338903929" cy="1415.8523381584866" fill-opacity="0.0" r="432.0" /><circle cx="2294.8698059628387" cy="1419.7871376374778" fill-opacity="0.0" r="432.0" /><circle cx="2306.7804599553806" cy="1423.413269320336" fill-opacity="0.0" r="432.0" /><circle cx="2318.89104914329" cy="1426.7247315869577" fill-opacity="0.0" r="432.0" /><circle cx="2331.194175972427" cy="1429.715682655637" fill-opacity="0.0" r="432.0" /><circle cx="2343.682300455808" cy="1432.38044383473" fill-opacity="0.0" r="432.0" /><circle cx="2343.226563045728" cy="1419.6193111002474" fill-opacity="0.0" r="432.0" /><circle cx="2342.4174667978978" cy="1406.9837232100535" fill-opacity="0.0" r="432.0" /><circle cx="2341.2592948268743" cy="1394.4820916962433" fill-opacity="0.0" r="432.0" /><circle cx="2339.7565155927787" cy="1382.1227161422335" fill-opacity="0.0" r="432.0" /><circle cx="2337.9137802864843" cy="1369.9137802864846" fill-opacity="0.0" r="432.0" /><circle cx="2335.7359201354607" cy="1357.8633481835989" fill-opacity="0.0" r="432.0" /><circle cx="2333.2279436314766" cy="1345.9793604243744" fill-opacity="0.0" r="432.0" /><circle cx="2330.3950336814096" cy="1334.2696304163662" fill-opacity="0.0" r="432.0" /><circle cx="2327.2425446824254" cy="1322.7418407264877" fill-opacity="0.0" r="432.0" /><circle cx="2323.775999522832" cy="1311.4035394871541" fill-opacity="0.0" r="432.0" /><circle cx="2335.5440057390792" cy="1312.84854468844" fill-opacity="0.0" r="432.0" /><circle cx="2347.4440863705545" cy="1313.9513606237501" fill-opacity="0.0" r="432.0" /><circle cx="2359.4678489184444" cy="1314.7078590292988" fill-opacity="0.0" r="432.0" /><circle cx="2371.606797749979" cy="1315.1141009169892" fill-opacity="0.0" r="432.0" /><circle cx="2383.8523381584864" cy="1315.1663389039288" fill-opacity="0.0" r="432.0" /><circle cx="2396.1957804731173" cy="1314.8610194577136" fill-opacity="0.0" r="432.0" /><circle cx="2408.6283442165322" cy="1314.1947850564616" fill-opacity="0.0" r="432.0" /><circle cx="2421.1411623088275" cy="1313.1644762626102" fill-opacity="0.0" r="432.0" /><circle cx="2433.7252853159507" cy="1311.7671337095244" fill-opacity="0.0" r="432.0" /><circle cx="2446.3716857408417" cy="1310.0" fill-opacity="0.0" r="432.0" /><circle cx="2441.578868212728" cy="1298.1643291108517" fill-opacity="0.0" r="432.0" /><circle cx="2436.4969408579277" cy="1286.567487625792" fill-opacity="0.0" r="432.0" /><circle cx="2431.132805400998" cy="1275.215914888005" fill-opacity="0.0" r="432.0" /><circle cx="2425.4934994456503" cy="1264.1158816514126" fill-opacity="0.0" r="432.0" /><circle cx="2419.5861926850266" cy="1253.2734873136867" fill-opacity="0.0" r="432.0" /><circle cx="2413.4181830570406" cy="1242.69465723032" fill-opacity="0.0" r="432.0" /><circle cx="2406.996892846452" cy="1232.3851401108168" fill-opacity="0.0" r="432.0" /><circle cx="2400.329864735379" cy="1222.3505054980465" fill-opacity="0.0" r="432.0" /><circle cx="2393.424757803965" cy="1212.5961413317611" fill-opacity="0.0" r="432.0" /><circle cx="2386.289343482927" cy="1203.1272515972407" fill-opacity="0.0" r="432.0" /><circle cx="2397.8418729717473" cy="1200.460217149148" fill-opacity="0.0" r="432.0" /><circle cx="2409.4014761921585" cy="1197.42645786248" fill-opacity="0.0" r="432.0" /><circle cx="2420.958854825584" cy="1194.0249648418674" fill-opacity="0.0" r="432.0" /><circle cx="2432.504678375328" cy="1190.2549423267997" fill-opacity="0.0" r="432.0" /><circle cx="2444.029588778518" cy="1186.1158084920335" fill-opacity="0.0" r="432.0" /><circle cx="2455.5242050359184" cy="1181.6071961518605" fill-opacity="0.0" r="432.0" /><circle cx="2466.9791278576513" cy="1176.728953367862" fill-opacity="0.0" r="432.0" /><circle cx="2478.3849443228746" cy="1171.481143959814" fill-opacity="0.0" r="432.0" /><circle cx="2489.7322325514488" cy="1165.8640479194453" fill-opacity="0.0" r="432.0" /><circle cx="2501.011566385616" cy="1159.878161726788" fill-opacity="0.0" r="432.0" /><circle cx="2492.459753267812" cy="1150.395509268104" fill-opacity="0.0" r="432.0" /><circle cx="2483.717950246291" cy="1141.2361644224288" fill-opacity="0.0" r="432.0" /><circle cx="2474.7948452057685" cy="1132.4038176642134" fill-opacity="0.0" r="432.0" /><circle cx="2465.6991960546748" cy="1123.9019545724145" fill-opacity="0.0" r="432.0" /><circle cx="2456.4398262176155" cy="1115.7338545265397" fill-opacity="0.0" r="432.0" /><circle cx="2447.0256201039297" cy="1107.90258949765" fill-opacity="0.0" r="432.0" /><circle cx="2437.465518554284" cy="1100.4110229347482" fill-opacity="0.0" r="432.0" /><circle cx="2427.7685142672563" cy="1093.2618087469505" fill-opacity="0.0" r="432.0" /><circle cx="2417.9436472078646" cy="1086.457390381795" fill-opacity="0.0" r="432.0" /><circle cx="2408.0" cy="1080.0" fill-opacity="0.0" r="432.0" /><circle cx="2417.9436472078646" cy="1073.542609618205" fill-opacity="0.0" r="432.0" /><circle cx="2427.7685142672563" cy="1066.7381912530495" fill-opacity="0.0" r="432.0" /><circle cx="2437.465518554284" cy="1059.5889770652518" fill-opacity="0.0" r="432.0" /><circle cx="2447.0256201039297" cy="1052.09741050235" fill-opacity="0.0" r="432.0" /><circle cx="2456.4398262176155" cy="1044.26614547346" fill-opacity="0.0" r="432.0" /><circle cx="2465.6991960546748" cy="1036.0980454275855" fill-opacity="0.0" r="432.0" /><circle cx="2474.7948452057685" cy="1027.5961823357866" fill-opacity="0.0" r="432.0" /><circle cx="2483.717950246291" cy="1018.7638355775713" fill-opacity="0.0" r="432.0" /><circle cx="2492.459753267812" cy="1009.6044907318961" fill-opacity="0.0" r="432.0" /><circle cx="2501.011566385616" cy="1000.121838273212" fill-opacity="0.0" r="432.0" /><circle cx="2489.7322325514488" cy="994.1359520805548" fill-opacity="0.0" r="432.0" /><circle cx="2478.3849443228746" cy="988.5188560401859" fill-opacity="0.0" r="432.0" /><circle cx="2466.9791278576513" cy="983.271046632138" fill-opacity="0.0" r="432.0" /><circle cx="2455.5242050359184" cy="978.3928038481396" fill-opacity="0.0" r="432.0" /><circle cx="2444.029588778518" cy="973.8841915079664" fill-opacity="0.0" r="432.0" /><circle cx="2432.504678375328" cy="969.7450576732003" fill-opacity="0.0" r="432.0" /><circle cx="2420.958854825584" cy="965.9750351581326" fill-opacity="0.0" r="432.0" /><circle cx="2409.4014761921585" cy="962.57354213752" fill-opacity="0.0" r="432.0" /><circle cx="2397.8418729717473" cy="959.539782850852" fill-opacity="0.0" r="432.0" /><circle cx="2386.289343482927" cy="956.8727484027593" fill-opacity="0.0" r="432.0" /><circle cx="2393.424757803965" cy="947.4038586682389" fill-opacity="0.0" r="432.0" /><circle cx="2400.329864735379" cy="937.6494945019534" fill-opacity="0.0" r="432.0" /><circle cx="2406.996892846452" cy="927.6148598891832" fill-opacity="0.0" r="432.0" /><circle cx="2413.4181830570406" cy="917.3053427696799" fill-opacity="0.0" r="432.0" /><circle cx="2419.5861926850266" cy="906.7265126863133" fill-opacity="0.0" r="432.0" /><circle cx="2425.4934994456503" cy="895.8841183485874" fill-opacity="0.0" r="432.0" /><circle cx="2431.132805400998" cy="884.784085111995" fill-opacity="0.0" r="432.0" /><circle cx="2436.4969408579277" cy="873.432512374208" fill-opacity="0.0" r="432.0" /><circle cx="2441.578868212728" cy="861.8356708891483" fill-opacity="0.0" r="432.0" /><circle cx="2446.3716857408417" cy="850.0000000000001" fill-opacity="0.0" r="432.0" /><circle cx="2433.7252853159507" cy="848.2328662904756" fill-opacity="0.0" r="432.0" /><circle cx="2421.1411623088275" cy="846.8355237373898" fill-opacity="0.0" r="432.0" /><circle cx="2408.6283442165322" cy="845.8052149435383" fill-opacity="0.0" r="432.0" /><circle cx="2396.1957804731173" cy="845.1389805422864" fill-opacity="0.0" r="432.0" /><circle cx="2383.8523381584864" cy="844.8336610960711" fill-opacity="0.0" r="432.0" /><circle cx="2371.606797749979" cy="844.8858990830108" fill-opacity="0.0" r="432.0" /><circle cx="2359.4678489184444" cy="845.2921409707011" fill-opacity="0.0" r="432.0" /><circle cx="2347.4440863705545" cy="846.0486393762499" fill-opacity="0.0" r="432.0" /><circle cx="2335.5440057390792" cy="847.1514553115602" fill-opacity="0.0" r="432.0" /><circle cx="2323.775999522832" cy="848.5964605128459" fill-opacity="0.0" r="432.0" /><circle cx="2327.2425446824254" cy="837.2581592735123" fill-opacity="0.0" r="432.0" /><circle cx="2330.3950336814096" cy="825.7303695836339" fill-opacity="0.0" r="432.0" /><circle cx="2333.2279436314766" cy="814.0206395756256" fill-opacity="0.0" r="432.0" /><circle cx="2335.73592013546" cy="802.1366518164011" fill-opacity="0.0" r="432.0" /><circle cx="2337.9137802864843" cy="790.0862197135156" fill-opacity="0.0" r="432.0" /><circle cx="2339.7565155927787" cy="777.8772838577664" fill-opacity="0.0" r="432.0" /><circle cx="2341.2592948268743" cy="765.5179083037567" fill-opacity="0.0" r="432.0" /><circle cx="2342.4174667978978" cy="753.0162767899466" fill-opacity="0.0" r="432.0" /><circle cx="2343.226563045728" cy="740.3806888997526" fill-opacity="0.0" r="432.0" /><circle cx="2343.682300455808" cy="727.6195561652702" fill-opacity="0.0" r="432.0" /><circle cx="2331.194175972427" cy="730.2843173443631" fill-opacity="0.0" r="432.0" /><circle cx="2318.89104914329" cy="733.2752684130423" fill-opacity="0.0" r="432.0" /><circle cx="2306.7804599553806" cy="736.586730679664" fill-opacity="0.0" r="432.0" /><circle cx="2294.8698059628387" cy="740.2128623625222" fill-opacity="0.0" r="432.0" /><circle cx="2283.166338903929" cy="744.1476618415134" fill-opacity="0.0" r="432.0" /><circle cx="2271.677161388299" cy="748.3849709779834" fill-opacity="0.0" r="432.0" /><circle cx="2260.409223655861" cy="752.9184785012847" fill-opacity="0.0" r="432.0" /><circle cx="2249.369320408618" cy="757.7417234605582" fill-opacity="0.0" r="432.0" /><circle cx="2238.56408771672" cy="762.8480987402185" fill-opacity="0.0" r="432.0" /><circle cx="2228.0" cy="768.2308546376021" fill-opacity="0.0" r="432.0" /><circle cx="2227.379559491145" cy="756.3907083584236" fill-opacity="0.0" r="432.0" /><circle cx="2226.3991938586387" cy="744.4799147136077" fill-opacity="0.0" r="432.0" /><circle cx="2225.0562948984234" cy="732.5074555665366" fill-opacity="0.0" r="432.0" /><circle cx="2223.348458715631" cy="720.4823814803332" fill-opacity="0.0" r="432.0" /><circle cx="2221.273487313687" cy="708.4138073149736" fill-opacity="0.0" r="432.0" /><circle cx="2218.829390091836" cy="696.3109077901076" fill-opacity="0.0" r="432.0" /><circle cx="2216.014385250388" cy="684.1829130154506" fill-opacity="0.0" r="432.0" /><circle cx="2212.8269011030015" cy="672.0391039906135" fill-opacity="0.0" r="432.0" /><circle cx="2209.265577295385" cy="659.8888080762592" fill-opacity="0.0" r="432.0" /><circle cx="2205.3292659298077" cy="647.7413944384822" fill-opacity="0.0" r="432.0" /><circle cx="2194.5056695057206" cy="654.5166409803074" fill-opacity="0.0" r="432.0" /><circle cx="2183.967477524977" cy="661.5351328301324" fill-opacity="0.0" r="432.0" /><circle cx="2173.719833030777" cy="668.7889549358947" fill-opacity="0.0" r="432.0" /><circle cx="2163.7676894431397" cy="676.270087705906" fill-opacity="0.0" r="432.0" /><circle cx="2154.1158084920335" cy="683.970411221482" fill-opacity="0.0" r="432.0" /><circle cx="2144.768758239867" cy="691.8817094896015" fill-opacity="0.0" r="432.0" /><circle cx="2135.7309111941076" cy="699.9956747337583" fill-opacity="0.0" r="432.0" /><circle cx="2127.0064425107485" cy="708.3039117211538" fill-opacity="0.0" r="432.0" /><circle cx="2118.5993282893214" cy="716.7979421243643" fill-opacity="0.0" r="432.0" /><circle cx="2110.513343960095" cy="725.4692089156051" fill-opacity="0.0" r="432.0" /><circle cx="2105.8807520648857" cy="714.555313979799" fill-opacity="0.0" r="432.0" /><circle cx="2100.885778364825" cy="703.6981338782032" fill-opacity="0.0" r="432.0" /><circle cx="2095.5290439280075" cy="692.9070008598844" fill-opacity="0.0" r="432.0" /><circle cx="2089.8113853070613" cy="682.1912418526906" fill-opacity="0.0" r="432.0" /><circle cx="2083.7338545265397" cy="671.5601737823843" fill-opacity="0.0" r="432.0" /><circle cx="2077.2977189725325" cy="661.0230988908738" fill-opacity="0.0" r="432.0" /><circle cx="2070.504461184466" cy="650.5893000555333" fill-opacity="0.0" r="432.0" /><circle cx="2063.3557785491007" cy="640.2680361115979" fill-opacity="0.0" r="432.0" /><circle cx="2055.8535828967774" cy="630.068537179624" fill-opacity="0.0" r="432.0" /><circle cx="2048.0" cy="620.0" fill-opacity="0.0" r="432.0" /><circle cx="2040.1464171032223" cy="630.068537179624" fill-opacity="0.0" r="432.0" /><circle cx="2032.6442214508995" cy="640.2680361115979" fill-opacity="0.0" r="432.0" /><circle cx="2025.4955388155342" cy="650.5893000555333" fill-opacity="0.0" r="432.0" /><circle cx="2018.7022810274673" cy="661.0230988908738" fill-opacity="0.0" r="432.0" /><circle cx="2012.2661454734603" cy="671.5601737823843" fill-opacity="0.0" r="432.0" /><circle cx="2006.1886146929387" cy="682.1912418526906" fill-opacity="0.0" r="432.0" /><circle cx="2000.4709560719925" cy="692.9070008598844" fill-opacity="0.0" r="432.0" /><circle cx="1995.114221635175" cy="703.6981338782033" fill-opacity="0.0" r="432.0" /><circle cx="1990.1192479351146" cy="714.555313979799" fill-opacity="0.0" r="432.0" /><circle cx="1985.486656039905" cy="725.4692089156051" fill-opacity="0.0" r="432.0" /><circle cx="1977.4006717106784" cy="716.7979421243643" fill-opacity="0.0" r="432.0" /><circle cx="1968.9935574892513" cy="708.3039117211539" fill-opacity="0.0" r="432.0" /><circle cx="1960.2690888058926" cy="699.9956747337583" fill-opacity="0.0" r="432.0" /><circle cx="1951.231241760133" cy="691.8817094896015" fill-opacity="0.0" r="432.0" /><circle cx="1941.8841915079665" cy="683.970411221482" fill-opacity="0.0" r="432.0" /><circle cx="1932.2323105568605" cy="676.270087705906" fill-opacity="0.0" r="432.0" /><circle cx="1922.2801669692233" cy="668.7889549358947" fill-opacity="0.0" r="432.0" /><circle cx="1912.0325224750231" cy="661.5351328301324" fill-opacity="0.0" r="432.0" /><circle cx="1901.4943304942794" cy="654.5166409803074" fill-opacity="0.0" r="432.0" /><circle cx="1890.6707340701923" cy="647.7413944384821" fill-opacity="0.0" r="432.0" /><circle cx="1886.7344227046149" cy="659.8888080762592" fill-opacity="0.0" r="432.0" /><circle cx="1883.1730988969987" cy="672.0391039906135" fill-opacity="0.0" r="432.0" /><circle cx="1879.9856147496123" cy="684.1829130154506" fill-opacity="0.0" r="432.0" /><circle cx="1877.170609908164" cy="696.3109077901076" fill-opacity="0.0" r="432.0" /><circle cx="1874.7265126863133" cy="708.4138073149735" fill-opacity="0.0" r="432.0" /><circle cx="1872.651541284369" cy="720.4823814803333" fill-opacity="0.0" r="432.0" /><circle cx="1870.9437051015768" cy="732.5074555665365" fill-opacity="0.0" r="432.0" /><circle cx="1869.6008061413615" cy="744.4799147136077" fill-opacity="0.0" r="432.0" /><circle cx="1868.6204405088554" cy="756.3907083584236" fill-opacity="0.0" r="432.0" /><circle cx="1868.0" cy="768.2308546376021" fill-opacity="0.0" r="432.0" /><circle cx="1857.43591228328" cy="762.8480987402185" fill-opacity="0.0" r="432.0" /><circle cx="1846.6306795913822" cy="757.7417234605581" fill-opacity="0.0" r="432.0" /><circle cx="1835.5907763441394" cy="752.9184785012847" fill-opacity="0.0" r="432.0" /><circle cx="1824.3228386117014" cy="748.3849709779834" fill-opacity="0.0" r="432.0" /><circle cx="1812.833661096071" cy="744.1476618415134" fill-opacity="0.0" r="432.0" /><circle cx="1801.1301940371613" cy="740.2128623625221" fill-opacity="0.0" r="432.0" /><circle cx="1789.2195400446192" cy="736.586730679664" fill-opacity="0.0" r="432.0" /><circle cx="1777.1089508567104" cy="733.2752684130423" fill-opacity="0.0" r="432.0" /><circle cx="1764.8058240275732" cy="730.2843173443632" fill-opacity="0.0" r="432.0" /><circle cx="1752.317699544192" cy="727.6195561652701" fill-opacity="0.0" r="432.0" /><circle cx="1752.7734369542718" cy="740.3806888997526" fill-opacity="0.0" r="432.0" /><circle cx="1753.5825332021022" cy="753.0162767899465" fill-opacity="0.0" r="432.0" /><circle cx="1754.7407051731257" cy="765.5179083037567" fill-opacity="0.0" r="432.0" /><circle cx="1756.243484407221" cy="777.8772838577665" fill-opacity="0.0" r="432.0" /><circle cx="1758.0862197135157" cy="790.0862197135154" fill-opacity="0.0" r="432.0" /><circle cx="1760.2640798645396" cy="802.1366518164011" fill-opacity="0.0" r="432.0" /><circle cx="1762.7720563685234" cy="814.0206395756255" fill-opacity="0.0" r="432.0" /><circle cx="1765.6049663185902" cy="825.7303695836339" fill-opacity="0.0" r="432.0" /><circle cx="1768.7574553175743" cy="837.2581592735123" fill-opacity="0.0" r="432.0" /><circle cx="1772.224000477168" cy="848.5964605128459" fill-opacity="0.0" r="432.0" /><circle cx="1760.4559942609208" cy="847.15145531156" fill-opacity="0.0" r="432.0" /><circle cx="1748.5559136294455" cy="846.0486393762499" fill-opacity="0.0" r="432.0" /><circle cx="1736.5321510815559" cy="845.2921409707012" fill-opacity="0.0" r="432.0" /><circle cx="1724.3932022500212" cy="844.8858990830107" fill-opacity="0.0" r="432.0" /><circle cx="1712.1476618415136" cy="844.833661096071" fill-opacity="0.0" r="432.0" /><circle cx="1699.8042195268824" cy="845.1389805422864" fill-opacity="0.0" r="432.0" /><circle cx="1687.3716557834675" cy="845.8052149435384" fill-opacity="0.0" r="432.0" /><circle cx="1674.8588376911725" cy="846.8355237373898" fill-opacity="0.0" r="432.0" /><circle cx="1662.2747146840495" cy="848.2328662904755" fill-opacity="0.0" r="432.0" /><circle cx="1649.6283142591583" cy="849.9999999999998" fill-opacity="0.0" r="432.0" /><circle cx="1654.4211317872719" cy="861.8356708891484" fill-opacity="0.0" r="432.0" /><circle cx="1659.503059142072" cy="873.432512374208" fill-opacity="0.0" r="432.0" /><circle cx="1664.8671945990018" cy="884.7840851119948" fill-opacity="0.0" r="432.0" /><circle cx="1670.50650055435" cy="895.8841183485873" fill-opacity="0.0" r="432.0" /><circle cx="1676.4138073149734" cy="906.7265126863133" fill-opacity="0.0" r="432.0" /><circle cx="1682.5818169429597" cy="917.30534276968" fill-opacity="0.0" r="432.0" /><circle cx="1689.0031071535482" cy="927.6148598891832" fill-opacity="0.0" r="432.0" /><circle cx="1695.6701352646207" cy="937.6494945019533" fill-opacity="0.0" r="432.0" /><circle cx="1702.5752421960353" cy="947.4038586682387" fill-opacity="0.0" r="432.0" /><circle cx="1709.710656517073" cy="956.8727484027593" fill-opacity="0.0" r="432.0" /><circle cx="1698.1581270282527" cy="959.539782850852" fill-opacity="0.0" r="432.0" /><circle cx="1686.5985238078417" cy="962.5735421375199" fill-opacity="0.0" r="432.0" /><circle cx="1675.0411451744162" cy="965.9750351581325" fill-opacity="0.0" r="432.0" /><circle cx="1663.4953216246724" cy="969.7450576732004" fill-opacity="0.0" r="432.0" /><circle cx="1651.970411221482" cy="973.8841915079665" fill-opacity="0.0" r="432.0" /><circle cx="1640.4757949640816" cy="978.3928038481396" fill-opacity="0.0" r="432.0" /><circle cx="1629.020872142349" cy="983.271046632138" fill-opacity="0.0" r="432.0" /><circle cx="1617.6150556771256" cy="988.5188560401857" fill-opacity="0.0" r="432.0" /><circle cx="1606.2677674485512" cy="994.135952080555" fill-opacity="0.0" r="432.0" /><circle cx="1594.9884336143843" cy="1000.121838273212" fill-opacity="0.0" r="432.0" /><circle cx="1603.540246732188" cy="1009.604490731896" fill-opacity="0.0" r="432.0" /><circle cx="1612.282049753709" cy="1018.7638355775711" fill-opacity="0.0" r="432.0" /><circle cx="1621.2051547942315" cy="1027.5961823357868" fill-opacity="0.0" r="432.0" /><circle cx="1630.3008039453252" cy="1036.0980454275855" fill-opacity="0.0" r="432.0" /><circle cx="1639.5601737823843" cy="1044.26614547346" fill-opacity="0.0" r="432.0" /><circle cx="1648.9743798960703" cy="1052.0974105023497" fill-opacity="0.0" r="432.0" /><circle cx="1658.5344814457162" cy="1059.5889770652518" fill-opacity="0.0" r="432.0" /><circle cx="1668.2314857327437" cy="1066.7381912530498" fill-opacity="0.0" r="432.0" /><circle cx="1678.0563527921352" cy="1073.542609618205" fill-opacity="0.0" r="432.0" /><circle cx="1688.0" cy="1080.0" fill-opacity="0.0" r="432.0" /><circle cx="1678.0563527921352" cy="1086.4573903817948" fill-opacity="0.0" r="432.0" /><circle cx="1668.2314857327437" cy="1093.2618087469505" fill-opacity="0.0" r="432.0" /><circle cx="1658.5344814457162" cy="1100.4110229347482" fill-opacity="0.0" r="432.0" /><circle cx="1648.9743798960703" cy="1107.90258949765" fill-opacity="0.0" r="432.0" /><circle cx="1639.5601737823843" cy="1115.7338545265397" fill-opacity="0.0" r="432.0" /><circle cx="1630.3008039453252" cy="1123.9019545724143" fill-opacity="0.0" r="432.0" /><circle cx="1621.2051547942315" cy="1132.4038176642134" fill-opacity="0.0" r="432.0" /><circle cx="1612.282049753709" cy="1141.2361644224288" fill-opacity="0.0" r="432.0" /><circle cx="1603.540246732188" cy="1150.3955092681038" fill-opacity="0.0" r="432.0" /><circle cx="1594.9884336143841" cy="1159.8781617267878" fill-opacity="0.0" r="432.0" /><circle cx="1606.2677674485512" cy="1165.8640479194453" fill-opacity="0.0" r="432.0" /><circle cx="1617.6150556771256" cy="1171.481143959814" fill-opacity="0.0" r="432.0" /><circle cx="1629.0208721423487" cy="1176.728953367862" fill-opacity="0.0" r="432.0" /><circle cx="1640.4757949640814" cy="1181.6071961518603" fill-opacity="0.0" r="432.0" /><circle cx="1651.970411221482" cy="1186.1158084920332" fill-opacity="0.0" r="432.0" /><circle cx="1663.4953216246724" cy="1190.2549423267997" fill-opacity="0.0" r="432.0" /><circle cx="1675.0411451744162" cy="1194.0249648418674" fill-opacity="0.0" r="432.0" /><circle cx="1686.5985238078415" cy="1197.42645786248" fill-opacity="0.0" r="432.0" /><circle cx="1698.1581270282527" cy="1200.4602171491479" fill-opacity="0.0" r="432.0" /><circle cx="1709.710656517073" cy="1203.127251597241" fill-opacity="0.0" r="432.0" /><circle cx="1702.5752421960353" cy="1212.5961413317611" fill-opacity="0.0" r="432.0" /><circle cx="1695.6701352646207" cy="1222.3505054980465" fill-opacity="0.0" r="432.0" /><circle cx="1689.0031071535482" cy="1232.3851401108166" fill-opacity="0.0" r="432.0" /><circle cx="1682.5818169429594" cy="1242.69465723032" fill-opacity="0.0" r="432.0" /><circle cx="1676.4138073149736" cy="1253.273487313687" fill-opacity="0.0" r="432.0" /><circle cx="1670.5065005543497" cy="1264.1158816514126" fill-opacity="0.0" r="432.0" /><circle cx="1664.8671945990018" cy="1275.215914888005" fill-opacity="0.0" r="432.0" /><circle cx="1659.503059142072" cy="1286.5674876257917" fill-opacity="0.0" r="432.0" /><circle cx="1654.4211317872719" cy="1298.1643291108517" fill-opacity="0.0" r="432.0" /><circle cx="1649.6283142591583" cy="1310.0" fill-opacity="0.0" r="432.0" /><circle cx="1662.2747146840495" cy="1311.7671337095244" fill-opacity="0.0" r="432.0" /><circle cx="1674.8588376911725" cy="1313.1644762626102" fill-opacity="0.0" r="432.0" /><circle cx="1687.3716557834675" cy="1314.1947850564616" fill-opacity="0.0" r="432.0" /><circle cx="1699.8042195268824" cy="1314.8610194577138" fill-opacity="0.0" r="432.0" /><circle cx="1712.1476618415134" cy="1315.1663389039288" fill-opacity="0.0" r="432.0" /><circle cx="1724.393202250021" cy="1315.1141009169892" fill-opacity="0.0" r="432.0" /><circle cx="1736.5321510815556" cy="1314.7078590292988" fill-opacity="0.0" r="432.0" /><circle cx="1748.5559136294457" cy="1313.9513606237501" fill-opacity="0.0" r="432.0" /><circle cx="1760.4559942609208" cy="1312.84854468844" fill-opacity="0.0" r="432.0" /><circle cx="1772.224000477168" cy="1311.4035394871541" fill-opacity="0.0" r="432.0" /><circle cx="1768.7574553175743" cy="1322.7418407264877" fill-opacity="0.0" r="432.0" /><circle cx="1765.60496631859" cy="1334.269630416366" fill-opacity="0.0" r="432.0" /><circle cx="1762.7720563685236" cy="1345.9793604243746" fill-opacity="0.0" r="432.0" /><circle cx="1760.2640798645396" cy="1357.8633481835989" fill-opacity="0.0" r="432.0" /><circle cx="1758.0862197135154" cy="1369.9137802864843" fill-opacity="0.0" r="432.0" /><circle cx="1756.2434844072209" cy="1382.1227161422335" fill-opacity="0.0" r="432.0" /><circle cx="1754.7407051731257" cy="1394.4820916962435" fill-opacity="0.0" r="432.0" /><circle cx="1753.5825332021025" cy="1406.9837232100535" fill-opacity="0.0" r="432.0" /><circle cx="1752.7734369542718" cy="1419.6193111002474" fill-opacity="0.0" r="432.0" /><circle cx="1752.3176995441918" cy="1432.3804438347297" fill-opacity="0.0" r="432.0" /><circle cx="1764.805824027573" cy="1429.7156826556368" fill-opacity="0.0" r="432.0" /><circle cx="1777.1089508567104" cy="1426.7247315869577" fill-opacity="0.0" r="432.0" /><circle cx="1789.2195400446192" cy="1423.413269320336" fill-opacity="0.0" r="432.0" /><circle cx="1801.1301940371611" cy="1419.7871376374778" fill-opacity="0.0" r="432.0" /><circle cx="1812.833661096071" cy="1415.8523381584864" fill-opacity="0.0" r="432.0" /><circle cx="1824.3228386117014" cy="1411.6150290220166" fill-opacity="0.0" r="432.0" /><circle cx="1835.5907763441394" cy="1407.0815214987153" fill-opacity="0.0" r="432.0" /><circle cx="1846.630679591382" cy="1402.2582765394418" fill-opacity="0.0" r="432.0" /><circle cx="1857.4359122832798" cy="1397.1519012597814" fill-opacity="0.0" r="432.0" /><circle cx="1867.9999999999998" cy="1391.769145362398" fill-opacity="0.0" r="432.0" /><circle cx="1868.6204405088554" cy="1403.6092916415764" fill-opacity="0.0" r="432.0" /><circle cx="1869.6008061413615" cy="1415.5200852863923" fill-opacity="0.0" r="432.0" /><circle cx="1870.9437051015766" cy="1427.4925444334635" fill-opacity="0.0" r="432.0" /><circle cx="1872.651541284369" cy="1439.5176185196667" fill-opacity="0.0" r="432.0" /><circle cx="1874.7265126863133" cy="1451.5861926850266" fill-opacity="0.0" r="432.0" /><circle cx="1877.170609908164" cy="1463.6890922098924" fill-opacity="0.0" r="432.0" /><circle cx="1879.9856147496123" cy="1475.8170869845494" fill-opacity="0.0" r="432.0" /><circle cx="1883.1730988969985" cy="1487.9608960093865" fill-opacity="0.0" r="432.0" /><circle cx="1886.7344227046146" cy="1500.1111919237408" fill-opacity="0.0" r="432.0" /><circle cx="1890.6707340701923" cy="1512.258605561518" fill-opacity="0.0" r="432.0" /><circle cx="1901.4943304942794" cy="1505.4833590196927" fill-opacity="0.0" r="432.0" /><circle cx="1912.0325224750231" cy="1498.4648671698676" fill-opacity="0.0" r="432.0" /><circle cx="1922.280166969223" cy="1491.2110450641053" fill-opacity="0.0" r="432.0" /><circle cx="1932.2323105568605" cy="1483.729912294094" fill-opacity="0.0" r="432.0" /><circle cx="1941.8841915079665" cy="1476.029588778518" fill-opacity="0.0" r="432.0" /><circle cx="1951.231241760133" cy="1468.1182905103985" fill-opacity="0.0" r="432.0" /><circle cx="1960.2690888058926" cy="1460.0043252662417" fill-opacity="0.0" r="432.0" /><circle cx="1968.9935574892513" cy="1451.6960882788462" fill-opacity="0.0" r="432.0" /><circle cx="1977.4006717106786" cy="1443.2020578756355" fill-opacity="0.0" r="432.0" /><circle cx="1985.486656039905" cy="1434.5307910843949" fill-opacity="0.0" r="432.0" /><circle cx="1990.1192479351146" cy="1445.444686020201" fill-opacity="0.0" r="432.0" /><circle cx="1995.114221635175" cy="1456.3018661217966" fill-opacity="0.0" r="432.0" /><circle cx="2000.4709560719925" cy="1467.0929991401156" fill-opacity="0.0" r="432.0" /><circle cx="2006.1886146929387" cy="1477.8087581473094" fill-opacity="0.0" r="432.0" /><circle cx="2012.26614547346" cy="1488.4398262176157" fill-opacity="0.0" r="432.0" /><circle cx="2018.7022810274673" cy="1498.9769011091262" fill-opacity="0.0" r="432.0" /><circle cx="2025.495538815534" cy="1509.4106999444666" fill-opacity="0.0" r="432.0" /><circle cx="2032.6442214508997" cy="1519.731963888402" fill-opacity="0.0" r="432.0" /><circle cx="2040.1464171032223" cy="1529.931462820376" fill-opacity="0.0" r="432.0" /></g><linearGradient id="id2" x1="0" x2="1" y1="0" y2="1"><stop offset="0.0" stop-color="#aFa" /><stop offset="0.3333333333333333" stop-color="#Faa" /><stop offset="0.6666666666666666" stop-color="#aaF" /><stop offset="1" stop-color="#aFa" /></linearGradient></svg>