<?xml version="1.0" encoding="utf-8" ?>
<svg baseProfile="full" height="2160" version="1.1" width="4096" xmlns="http://www.w3.org/2000/svg" xmlns:ev="http://www.w3.org/2001/xml-events" xmlns:xlink="http://www.w3.org/1999/xlink"><defs /><g fill="none" id="shape_group" stroke="url(#id4) none" stroke-width="1"><rect fill="#000" height="2160" stroke="#000" width="4096" x="0" y="0" /><circle cx="2048.0" cy="1620.0" fill-opacity="0.0" r="360.0" /><circle cx="2057.424299476133" cy="1619.9177553844513" fill-opacity="0.0" r="360.0" /><circle cx="2066.8457282193503" cy="1619.6710465903116" fill-opacity="0.0" r="360.0" /><circle cx="2076.2614163711896" cy="1619.2599487674697" fill-opacity="0.0" r="360.0" /><circle cx="2085.6684958218275" cy="1618.6845871403052" fill-opacity="0.0" r="360.0" /><circle cx="2095.0641010837353" cy="1617.9451369695425" fill-opacity="0.0" r="360.0" /><circle cx="2104.445370164533" cy="1617.0418234988674" fill-opacity="0.0" r="360.0" /><circle cx="2113.8094454387797" cy="1615.974921886314" fill-opacity="0.0" r="360.0" /><circle cx="2123.1534745184354" cy="1614.744757120448" fill-opacity="0.0" r="360.0" /><circle cx="2132.4746111217246" cy="1613.3517039213743" fill-opacity="0.0" r="360.0" /><circle cx="2141.7700159401425" cy="1611.7961866265923" fill-opacity="0.0" r="360.0" /><circle cx="2151.036857503334" cy="1610.0786790617385" fill-opacity="0.0" r="360.0" /><circle cx="2160.27231304159" cy="1608.1997043962551" fill-opacity="0.0" r="360.0" /><circle cx="2169.473569345687" cy="1606.159834984027" fill-opacity="0.0" r="360.0" /><circle cx="2178.6378236238206" cy="1603.9596921890382" fill-opacity="0.0" r="360.0" /><circle cx="2187.7622843553613" cy="1601.5999461960969" fill-opacity="0.0" r="360.0" /><circle cx="2196.8441721411796" cy="1599.0813158066921" fill-opacity="0.0" r="360.0" /><circle cx="2205.880720550278" cy="1596.404568220039" fill-opacity="0.0" r="360.0" /><circle cx="2214.8691769624716" cy="1593.5705187993829" fill-opacity="0.0" r="360.0" /><circle cx="2223.8068034068647" cy="1590.5800308236312" fill-opacity="0.0" r="360.0" /><circle cx="2232.690877395861" cy="1587.4340152243906" fill-opacity="0.0" r="360.0" /><circle cx="2241.5186927544623" cy="1584.1334303084889" fill-opacity="0.0" r="360.0" /><circle cx="2250.2875604445926" cy="1580.6792814660653" fill-opacity="0.0" r="360.0" /><circle cx="2258.9948093842077" cy="1577.0726208643177" fill-opacity="0.0" r="360.0" /><circle cx="2267.637787260932" cy="1573.3145471270045" fill-opacity="0.0" r="360.0" /><circle cx="2276.2138613399775" cy="1569.406204999791" fill-opacity="0.0" r="360.0" /><circle cx="2284.720419266102" cy="1565.3487850015501" fill-opacity="0.0" r="360.0" /><circle cx="2293.154869859355" cy="1561.1435230617187" fill-opacity="0.0" r="360.0" /><circle cx="2301.514643904381" cy="1556.7917001438204" fill-opacity="0.0" r="360.0" /><circle cx="2309.797194933022" cy="1552.2946418552738" fill-opacity="0.0" r="360.0" /><circle cx="2318.0" cy="1547.6537180435969" fill-opacity="0.0" r="360.0" /><circle cx="2326.1205604514294" cy="1542.8703423791408" fill-opacity="0.0" r="360.0" /><circle cx="2334.1564026859305" cy="1537.94597192447" fill-opacity="0.0" r="360.0" /><circle cx="2342.1050789081146" cy="1532.8821066905289" fill-opacity="0.0" r="360.0" /><circle cx="2349.964167874203" cy="1527.6802891797224" fill-opacity="0.0" r="360.0" /><circle cx="2357.731275629565" cy="1522.3421039160555" fill-opacity="0.0" r="360.0" /><circle cx="2365.4040362379355" cy="1516.8691769624716" fill-opacity="0.0" r="360.0" /><circle cx="2372.980112502106" cy="1511.263175425538" fill-opacity="0.0" r="360.0" /><circle cx="2380.4571966758554" cy="1505.52580694763" fill-opacity="0.0" r="360.0" /><circle cx="2387.833011166912" cy="1499.6588191867643" fill-opacity="0.0" r="360.0" /><circle cx="2395.105309230731" cy="1493.6639992842481" fill-opacity="0.0" r="360.0" /><circle cx="2402.271875654874" cy="1487.5431733202968" fill-opacity="0.0" r="360.0" /><circle cx="2409.3305274337836" cy="1481.2982057577929" fill-opacity="0.0" r="360.0" /><circle cx="2416.2791144337493" cy="1474.930998874352" fill-opacity="0.0" r="360.0" /><circle cx="2423.1155200478584" cy="1468.4434921828715" fill-opacity="0.0" r="360.0" /><circle cx="2429.8376618407356" cy="1461.8376618407356" fill-opacity="0.0" r="360.0" /><circle cx="2436.4434921828715" cy="1455.1155200478586" fill-opacity="0.0" r="360.0" /><circle cx="2442.930998874352" cy="1448.279114433749" fill-opacity="0.0" r="360.0" /><circle cx="2449.298205757793" cy="1441.3305274337836" fill-opacity="0.0" r="360.0" /><circle cx="2455.543173320297" cy="1434.2718756548738" fill-opacity="0.0" r="360.0" /><circle cx="2461.6639992842483" cy="1427.1053092307313" fill-opacity="0.0" r="360.0" /><circle cx="2467.658819186764" cy="1419.8330111669122" fill-opacity="0.0" r="360.0" /><circle cx="2473.52580694763" cy="1412.4571966758554" fill-opacity="0.0" r="360.0" /><circle cx="2479.263175425538" cy="1404.980112502106" fill-opacity="0.0" r="360.0" /><circle cx="2484.8691769624716" cy="1397.4040362379355" fill-opacity="0.0" r="360.0" /><circle cx="2490.3421039160557" cy="1389.7312756295648" fill-opacity="0.0" r="360.0" /><circle cx="2495.6802891797224" cy="1381.9641678742032" fill-opacity="0.0" r="360.0" /><circle cx="2500.882106690529" cy="1374.1050789081146" fill-opacity="0.0" r="360.0" /><circle cx="2505.94597192447" cy="1366.1564026859305" fill-opacity="0.0" r="360.0" /><circle cx="2510.8703423791408" cy="1358.1205604514294" fill-opacity="0.0" r="360.0" /><circle cx="2515.6537180435967" cy="1350.0" fill-opacity="0.0" r="360.0" /><circle cx="2520.2946418552738" cy="1341.7971949330222" fill-opacity="0.0" r="360.0" /><circle cx="2524.7917001438204" cy="1333.514643904381" fill-opacity="0.0" r="360.0" /><circle cx="2529.1435230617185" cy="1325.1548698593554" fill-opacity="0.0" r="360.0" /><circle cx="2533.3487850015504" cy="1316.7204192661018" fill-opacity="0.0" r="360.0" /><circle cx="2537.406204999791" cy="1308.2138613399777" fill-opacity="0.0" r="360.0" /><circle cx="2541.3145471270045" cy="1299.637787260932" fill-opacity="0.0" r="360.0" /><circle cx="2545.0726208643177" cy="1290.9948093842079" fill-opacity="0.0" r="360.0" /><circle cx="2548.6792814660653" cy="1282.2875604445924" fill-opacity="0.0" r="360.0" /><circle cx="2552.133430308489" cy="1273.518692754462" fill-opacity="0.0" r="360.0" /><circle cx="2555.4340152243904" cy="1264.6908773958612" fill-opacity="0.0" r="360.0" /><circle cx="2558.580030823631" cy="1255.8068034068647" fill-opacity="0.0" r="360.0" /><circle cx="2561.5705187993826" cy="1246.8691769624716" fill-opacity="0.0" r="360.0" /><circle cx="2564.404568220039" cy="1237.8807205502778" fill-opacity="0.0" r="360.0" /><circle cx="2567.081315806692" cy="1228.8441721411796" fill-opacity="0.0" r="360.0" /><circle cx="2569.599946196097" cy="1219.7622843553613" fill-opacity="0.0" r="360.0" /><circle cx="2571.959692189038" cy="1210.6378236238206" fill-opacity="0.0" r="360.0" /><circle cx="2574.159834984027" cy="1201.473569345687" fill-opacity="0.0" r="360.0" /><circle cx="2576.199704396255" cy="1192.2723130415902" fill-opacity="0.0" r="360.0" /><circle cx="2578.0786790617385" cy="1183.0368575033342" fill-opacity="0.0" r="360.0" /><circle cx="2579.7961866265923" cy="1173.7700159401425" fill-opacity="0.0" r="360.0" /><circle cx="2581.3517039213743" cy="1164.4746111217246" fill-opacity="0.0" r="360.0" /><circle cx="2582.744757120448" cy="1155.1534745184354" fill-opacity="0.0" r="360.0" /><circle cx="2583.974921886314" cy="1145.8094454387797" fill-opacity="0.0" r="360.0" /><circle cx="2585.0418234988674" cy="1136.445370164533" fill-opacity="0.0" r="360.0" /><circle cx="2585.9451369695425" cy="1127.0641010837353" fill-opacity="0.0" r="360.0" /><circle cx="2586.684587140305" cy="1117.6684958218277" fill-opacity="0.0" r="360.0" /><circle cx="2587.2599487674697" cy="1108.2614163711899" fill-opacity="0.0" r="360.0" /><circle cx="2587.6710465903116" cy="1098.8457282193506" fill-opacity="0.0" r="360.0" /><circle cx="2587.917755384451" cy="1089.4242994761332" fill-opacity="0.0" r="360.0" /><circle cx="2588.0" cy="1080.0" fill-opacity="0.0" r="360.0" /><circle cx="2587.917755384451" cy="1070.575700523867" fill-opacity="0.0" r="360.0" /><circle cx="2587.6710465903116" cy="1061.1542717806494" fill-opacity="0.0" r="360.0" /><circle cx="2587.2599487674697" cy="1051.7385836288104" fill-opacity="0.0" r="360.0" /><circle cx="2586.684587140305" cy="1042.3315041781723" fill-opacity="0.0" r="360.0" /><circle cx="2585.9451369695425" cy="1032.9358989162645" fill-opacity="0.0" r="360.0" /><circle cx="2585.0418234988674" cy="1023.554629835467" fill-opacity="0.0" r="360.0" /><circle cx="2583.974921886314" cy="1014.1905545612204" fill-opacity="0.0" r="360.0" /><circle cx="2582.744757120448" cy="1004.8465254815648" fill-opacity="0.0" r="360.0" /><circle cx="2581.3517039213743" cy="995.5253888782754" fill-opacity="0.0" r="360.0" /><circle cx="2579.7961866265923" cy="986.2299840598577" fill-opacity="0.0" r="360.0" /><circle cx="2578.0786790617385" cy="976.9631424966658" fill-opacity="0.0" r="360.0" /><circle cx="2576.199704396255" cy="967.72768695841" fill-opacity="0.0" r="360.0" /><circle cx="2574.159834984027" cy="958.5264306543129" fill-opacity="0.0" r="360.0" /><circle cx="2571.959692189038" cy="949.3621763761794" fill-opacity="0.0" r="360.0" /><circle cx="2569.599946196097" cy="940.2377156446387" fill-opacity="0.0" r="360.0" /><circle cx="2567.081315806692" cy="931.1558278588205" fill-opacity="0.0" r="360.0" /><circle cx="2564.4045682200394" cy="922.1192794497222" fill-opacity="0.0" r="360.0" /><circle cx="2561.570518799383" cy="913.1308230375284" fill-opacity="0.0" r="360.0" /><circle cx="2558.580030823631" cy="904.1931965931354" fill-opacity="0.0" r="360.0" /><circle cx="2555.4340152243904" cy="895.3091226041389" fill-opacity="0.0" r="360.0" /><circle cx="2552.133430308489" cy="886.4813072455379" fill-opacity="0.0" r="360.0" /><circle cx="2548.6792814660653" cy="877.7124395554075" fill-opacity="0.0" r="360.0" /><circle cx="2545.0726208643177" cy="869.0051906157921" fill-opacity="0.0" r="360.0" /><circle cx="2541.3145471270045" cy="860.3622127390679" fill-opacity="0.0" r="360.0" /><circle cx="2537.406204999791" cy="851.7861386600224" fill-opacity="0.0" r="360.0" /><circle cx="2533.34878500155" cy="843.2795807338981" fill-opacity="0.0" r="360.0" /><circle cx="2529.1435230617185" cy="834.8451301406448" fill-opacity="0.0" r="360.0" /><circle cx="2524.7917001438204" cy="826.485356095619" fill-opacity="0.0" r="360.0" /><circle cx="2520.2946418552738" cy="818.202805066978" fill-opacity="0.0" r="360.0" /><circle cx="2515.653718043597" cy="810.0000000000001" fill-opacity="0.0" r="360.0" /><circle cx="2510.8703423791408" cy="801.8794395485706" fill-opacity="0.0" r="360.0" /><circle cx="2505.94597192447" cy="793.8435973140695" fill-opacity="0.0" r="360.0" /><circle cx="2500.882106690529" cy="785.8949210918854" fill-opacity="0.0" r="360.0" /><circle cx="2495.6802891797224" cy="778.0358321257968" fill-opacity="0.0" r="360.0" /><circle cx="2490.3421039160557" cy="770.268724370435" fill-opacity="0.0" r="360.0" /><circle cx="2484.8691769624716" cy="762.5959637620646" fill-opacity="0.0" r="360.0" /><circle cx="2479.263175425538" cy="755.0198874978939" fill-opacity="0.0" r="360.0" /><circle cx="2473.52580694763" cy="747.5428033241445" fill-opacity="0.0" r="360.0" /><circle cx="2467.6588191867645" cy="740.1669888330879" fill-opacity="0.0" r="360.0" /><circle cx="2461.6639992842483" cy="732.8946907692687" fill-opacity="0.0" r="360.0" /><circle cx="2455.543173320297" cy="725.7281243451262" fill-opacity="0.0" r="360.0" /><circle cx="2449.298205757793" cy="718.6694725662165" fill-opacity="0.0" r="360.0" /><circle cx="2442.930998874352" cy="711.7208855662509" fill-opacity="0.0" r="360.0" /><circle cx="2436.4434921828715" cy="704.8844799521414" fill-opacity="0.0" r="360.0" /><circle cx="2429.8376618407356" cy="698.1623381592644" fill-opacity="0.0" r="360.0" /><circle cx="2423.1155200478584" cy="691.5565078171282" fill-opacity="0.0" r="360.0" /><circle cx="2416.2791144337493" cy="685.0690011256479" fill-opacity="0.0" r="360.0" /><circle cx="2409.3305274337836" cy="678.7017942422071" fill-opacity="0.0" r="360.0" /><circle cx="2402.271875654874" cy="672.4568266797031" fill-opacity="0.0" r="360.0" /><circle cx="2395.105309230731" cy="666.3360007157519" fill-opacity="0.0" r="360.0" /><circle cx="2387.833011166912" cy="660.3411808132357" fill-opacity="0.0" r="360.0" /><circle cx="2380.4571966758554" cy="654.4741930523702" fill-opacity="0.0" r="360.0" /><circle cx="2372.980112502106" cy="648.7368245744618" fill-opacity="0.0" r="360.0" /><circle cx="2365.4040362379355" cy="643.1308230375284" fill-opacity="0.0" r="360.0" /><circle cx="2357.731275629565" cy="637.6578960839444" fill-opacity="0.0" r="360.0" /><circle cx="2349.964167874203" cy="632.3197108202776" fill-opacity="0.0" r="360.0" /><circle cx="2342.1050789081146" cy="627.1178933094711" fill-opacity="0.0" r="360.0" /><circle cx="2334.1564026859305" cy="622.0540280755299" fill-opacity="0.0" r="360.0" /><circle cx="2326.1205604514294" cy="617.1296576208595" fill-opacity="0.0" r="360.0" /><circle cx="2318.0" cy="612.3462819564031" fill-opacity="0.0" r="360.0" /><circle cx="2309.797194933022" cy="607.7053581447262" fill-opacity="0.0" r="360.0" /><circle cx="2301.514643904381" cy="603.2082998561795" fill-opacity="0.0" r="360.0" /><circle cx="2293.154869859355" cy="598.8564769382814" fill-opacity="0.0" r="360.0" /><circle cx="2284.7204192661015" cy="594.6512149984499" fill-opacity="0.0" r="360.0" /><circle cx="2276.213861339978" cy="590.593795000209" fill-opacity="0.0" r="360.0" /><circle cx="2267.6377872609323" cy="586.6854528729956" fill-opacity="0.0" r="360.0" /><circle cx="2258.9948093842077" cy="582.9273791356823" fill-opacity="0.0" r="360.0" /><circle cx="2250.2875604445926" cy="579.3207185339348" fill-opacity="0.0" r="360.0" /><circle cx="2241.518692754462" cy="575.8665696915111" fill-opacity="0.0" r="360.0" /><circle cx="2232.690877395861" cy="572.5659847756095" fill-opacity="0.0" r="360.0" /><circle cx="2223.8068034068647" cy="569.4199691763689" fill-opacity="0.0" r="360.0" /><circle cx="2214.8691769624716" cy="566.4294812006171" fill-opacity="0.0" r="360.0" /><circle cx="2205.8807205502776" cy="563.5954317799608" fill-opacity="0.0" r="360.0" /><circle cx="2196.8441721411796" cy="560.9186841933079" fill-opacity="0.0" r="360.0" /><circle cx="2187.7622843553613" cy="558.4000538039031" fill-opacity="0.0" r="360.0" /><circle cx="2178.6378236238206" cy="556.0403078109618" fill-opacity="0.0" r="360.0" /><circle cx="2169.4735693456873" cy="553.8401650159731" fill-opacity="0.0" r="360.0" /><circle cx="2160.27231304159" cy="551.8002956037449" fill-opacity="0.0" r="360.0" /><circle cx="2151.0368575033344" cy="549.9213209382615" fill-opacity="0.0" r="360.0" /><circle cx="2141.7700159401425" cy="548.2038133734077" fill-opacity="0.0" r="360.0" /><circle cx="2132.4746111217246" cy="546.6482960786257" fill-opacity="0.0" r="360.0" /><circle cx="2123.1534745184354" cy="545.255242879552" fill-opacity="0.0" r="360.0" /><circle cx="2113.8094454387797" cy="544.0250781136862" fill-opacity="0.0" r="360.0" /><circle cx="2104.445370164533" cy="542.9581765011325" fill-opacity="0.0" r="360.0" /><circle cx="2095.0641010837353" cy="542.0548630304575" fill-opacity="0.0" r="360.0" /><circle cx="2085.668495821828" cy="541.3154128596949" fill-opacity="0.0" r="360.0" /><circle cx="2076.2614163711896" cy="540.7400512325302" fill-opacity="0.0" r="360.0" /><circle cx="2066.845728219351" cy="540.3289534096883" fill-opacity="0.0" r="360.0" /><circle cx="2057.424299476133" cy="540.0822446155487" fill-opacity="0.0" r="360.0" /><circle cx="2048.0" cy="540.0" fill-opacity="0.0" r="360.0" /><circle cx="2038.5757005238668" cy="540.0822446155487" fill-opacity="0.0" r="360.0" /><circle cx="2029.1542717806494" cy="540.3289534096883" fill-opacity="0.0" r="360.0" /><circle cx="2019.7385836288104" cy="540.7400512325302" fill-opacity="0.0" r="360.0" /><circle cx="2010.3315041781723" cy="541.3154128596949" fill-opacity="0.0" r="360.0" /><circle cx="2000.9358989162647" cy="542.0548630304575" fill-opacity="0.0" r="360.0" /><circle cx="1991.554629835467" cy="542.9581765011325" fill-opacity="0.0" r="360.0" /><circle cx="1982.1905545612206" cy="544.025078113686" fill-opacity="0.0" r="360.0" /><circle cx="1972.8465254815646" cy="545.255242879552" fill-opacity="0.0" r="360.0" /><circle cx="1963.5253888782754" cy="546.6482960786255" fill-opacity="0.0" r="360.0" /><circle cx="1954.2299840598575" cy="548.2038133734077" fill-opacity="0.0" r="360.0" /><circle cx="1944.9631424966658" cy="549.9213209382615" fill-opacity="0.0" r="360.0" /><circle cx="1935.7276869584098" cy="551.800295603745" fill-opacity="0.0" r="360.0" /><circle cx="1926.526430654313" cy="553.840165015973" fill-opacity="0.0" r="360.0" /><circle cx="1917.3621763761796" cy="556.0403078109618" fill-opacity="0.0" r="360.0" /><circle cx="1908.2377156446387" cy="558.4000538039031" fill-opacity="0.0" r="360.0" /><circle cx="1899.1558278588204" cy="560.9186841933079" fill-opacity="0.0" r="360.0" /><circle cx="1890.1192794497222" cy="563.5954317799609" fill-opacity="0.0" r="360.0" /><circle cx="1881.1308230375284" cy="566.429481200617" fill-opacity="0.0" r="360.0" /><circle cx="1872.1931965931353" cy="569.419969176369" fill-opacity="0.0" r="360.0" /><circle cx="1863.309122604139" cy="572.5659847756094" fill-opacity="0.0" r="360.0" /><circle cx="1854.4813072455377" cy="575.8665696915111" fill-opacity="0.0" r="360.0" /><circle cx="1845.7124395554074" cy="579.3207185339347" fill-opacity="0.0" r="360.0" /><circle cx="1837.0051906157923" cy="582.9273791356823" fill-opacity="0.0" r="360.0" /><circle cx="1828.362212739068" cy="586.6854528729955" fill-opacity="0.0" r="360.0" /><circle cx="1819.7861386600225" cy="590.593795000209" fill-opacity="0.0" r="360.0" /><circle cx="1811.2795807338982" cy="594.6512149984499" fill-opacity="0.0" r="360.0" /><circle cx="1802.8451301406449" cy="598.8564769382813" fill-opacity="0.0" r="360.0" /><circle cx="1794.485356095619" cy="603.2082998561796" fill-opacity="0.0" r="360.0" /><circle cx="1786.202805066978" cy="607.7053581447262" fill-opacity="0.0" r="360.0" /><circle cx="1778.0" cy="612.3462819564031" fill-opacity="0.0" r="360.0" /><circle cx="1769.8794395485706" cy="617.1296576208593" fill-opacity="0.0" r="360.0" /><circle cx="1761.8435973140695" cy="622.0540280755299" fill-opacity="0.0" r="360.0" /><circle cx="1753.8949210918854" cy="627.117893309471" fill-opacity="0.0" r="360.0" /><circle cx="1746.0358321257968" cy="632.3197108202775" fill-opacity="0.0" r="360.0" /><circle cx="1738.268724370435" cy="637.6578960839445" fill-opacity="0.0" r="360.0" /><circle cx="1730.5959637620645" cy="643.1308230375284" fill-opacity="0.0" r="360.0" /><circle cx="1723.019887497894" cy="648.7368245744619" fill-opacity="0.0" r="360.0" /><circle cx="1715.5428033241446" cy="654.4741930523701" fill-opacity="0.0" r="360.0" /><circle cx="1708.1669888330878" cy="660.3411808132357" fill-opacity="0.0" r="360.0" /><circle cx="1700.894690769269" cy="666.3360007157519" fill-opacity="0.0" r="360.0" /><circle cx="1693.7281243451262" cy="672.456826679703" fill-opacity="0.0" r="360.0" /><circle cx="1686.6694725662164" cy="678.7017942422071" fill-opacity="0.0" r="360.0" /><circle cx="1679.720885566251" cy="685.0690011256479" fill-opacity="0.0" r="360.0" /><circle cx="1672.8844799521414" cy="691.5565078171285" fill-opacity="0.0" r="360.0" /><circle cx="1666.1623381592644" cy="698.1623381592642" fill-opacity="0.0" r="360.0" /><circle cx="1659.5565078171285" cy="704.8844799521414" fill-opacity="0.0" r="360.0" /><circle cx="1653.069001125648" cy="711.7208855662508" fill-opacity="0.0" r="360.0" /><circle cx="1646.7017942422071" cy="718.6694725662167" fill-opacity="0.0" r="360.0" /><circle cx="1640.4568266797032" cy="725.728124345126" fill-opacity="0.0" r="360.0" /><circle cx="1634.3360007157519" cy="732.8946907692687" fill-opacity="0.0" r="360.0" /><circle cx="1628.341180813236" cy="740.1669888330875" fill-opacity="0.0" r="360.0" /><circle cx="1622.47419305237" cy="747.5428033241446" fill-opacity="0.0" r="360.0" /><circle cx="1616.736824574462" cy="755.0198874978939" fill-opacity="0.0" r="360.0" /><circle cx="1611.1308230375284" cy="762.5959637620645" fill-opacity="0.0" r="360.0" /><circle cx="1605.6578960839445" cy="770.2687243704349" fill-opacity="0.0" r="360.0" /><circle cx="1600.3197108202774" cy="778.0358321257968" fill-opacity="0.0" r="360.0" /><circle cx="1595.117893309471" cy="785.8949210918854" fill-opacity="0.0" r="360.0" /><circle cx="1590.05402807553" cy="793.8435973140693" fill-opacity="0.0" r="360.0" /><circle cx="1585.1296576208595" cy="801.8794395485706" fill-opacity="0.0" r="360.0" /><circle cx="1580.3462819564033" cy="809.9999999999998" fill-opacity="0.0" r="360.0" /><circle cx="1575.7053581447262" cy="818.202805066978" fill-opacity="0.0" r="360.0" /><circle cx="1571.2082998561796" cy="826.485356095619" fill-opacity="0.0" r="360.0" /><circle cx="1566.8564769382815" cy="834.8451301406446" fill-opacity="0.0" r="360.0" /><circle cx="1562.6512149984499" cy="843.279580733898" fill-opacity="0.0" r="360.0" /><circle cx="1558.593795000209" cy="851.7861386600225" fill-opacity="0.0" r="360.0" /><circle cx="1554.6854528729955" cy="860.3622127390679" fill-opacity="0.0" r="360.0" /><circle cx="1550.9273791356823" cy="869.0051906157921" fill-opacity="0.0" r="360.0" /><circle cx="1547.3207185339347" cy="877.7124395554074" fill-opacity="0.0" r="360.0" /><circle cx="1543.8665696915111" cy="886.4813072455377" fill-opacity="0.0" r="360.0" /><circle cx="1540.5659847756094" cy="895.309122604139" fill-opacity="0.0" r="360.0" /><circle cx="1537.4199691763688" cy="904.1931965931354" fill-opacity="0.0" r="360.0" /><circle cx="1534.4294812006171" cy="913.1308230375283" fill-opacity="0.0" r="360.0" /><circle cx="1531.595431779961" cy="922.119279449722" fill-opacity="0.0" r="360.0" /><circle cx="1528.9186841933079" cy="931.1558278588207" fill-opacity="0.0" r="360.0" /><circle cx="1526.4000538039031" cy="940.2377156446389" fill-opacity="0.0" r="360.0" /><circle cx="1524.0403078109618" cy="949.3621763761794" fill-opacity="0.0" r="360.0" /><circle cx="1521.840165015973" cy="958.5264306543128" fill-opacity="0.0" r="360.0" /><circle cx="1519.8002956037449" cy="967.7276869584098" fill-opacity="0.0" r="360.0" /><circle cx="1517.9213209382615" cy="976.9631424966659" fill-opacity="0.0" r="360.0" /><circle cx="1516.2038133734077" cy="986.2299840598577" fill-opacity="0.0" r="360.0" /><circle cx="1514.6482960786257" cy="995.5253888782752" fill-opacity="0.0" r="360.0" /><circle cx="1513.255242879552" cy="1004.8465254815644" fill-opacity="0.0" r="360.0" /><circle cx="1512.025078113686" cy="1014.1905545612206" fill-opacity="0.0" r="360.0" /><circle cx="1510.9581765011324" cy="1023.5546298354672" fill-opacity="0.0" r="360.0" /><circle cx="1510.0548630304575" cy="1032.9358989162645" fill-opacity="0.0" r="360.0" /><circle cx="1509.3154128596948" cy="1042.3315041781723" fill-opacity="0.0" r="360.0" /><circle cx="1508.7400512325303" cy="1051.7385836288101" fill-opacity="0.0" r="360.0" /><circle cx="1508.3289534096884" cy="1061.1542717806497" fill-opacity="0.0" r="360.0" /><circle cx="1508.0822446155487" cy="1070.575700523867" fill-opacity="0.0" r="360.0" /><circle cx="1508.0" cy="1080.0" fill-opacity="0.0" r="360.0" /><circle cx="1508.0822446155487" cy="1089.424299476133" fill-opacity="0.0" r="360.0" /><circle cx="1508.3289534096884" cy="1098.8457282193508" fill-opacity="0.0" r="360.0" /><circle cx="1508.7400512325303" cy="1108.2614163711896" fill-opacity="0.0" r="360.0" /><circle cx="1509.3154128596948" cy="1117.6684958218277" fill-opacity="0.0" r="360.0" /><circle cx="1510.0548630304575" cy="1127.0641010837353" fill-opacity="0.0" r="360.0" /><circle cx="1510.9581765011324" cy="1136.4453701645325" fill-opacity="0.0" r="360.0" /><circle cx="1512.025078113686" cy="1145.8094454387797" fill-opacity="0.0" r="360.0" /><circle cx="1513.255242879552" cy="1155.1534745184354" fill-opacity="0.0" r="360.0" /><circle cx="1514.6482960786257" cy="1164.4746111217246" fill-opacity="0.0" r="360.0" /><circle cx="1516.2038133734077" cy="1173.7700159401422" fill-opacity="0.0" r="360.0" /><circle cx="1517.9213209382615" cy="1183.0368575033344" fill-opacity="0.0" r="360.0" /><circle cx="1519.8002956037449" cy="1192.27231304159" fill-opacity="0.0" r="360.0" /><circle cx="1521.840165015973" cy="1201.473569345687" fill-opacity="0.0" r="360.0" /><circle cx="1524.0403078109618" cy="1210.6378236238204" fill-opacity="0.0" r="360.0" /><circle cx="1526.4000538039031" cy="1219.7622843553609" fill-opacity="0.0" r="360.0" /><circle cx="1528.9186841933079" cy="1228.8441721411796" fill-opacity="0.0" r="360.0" /><circle cx="1531.595431779961" cy="1237.8807205502778" fill-opacity="0.0" r="360.0" /><circle cx="1534.429481200617" cy="1246.8691769624716" fill-opacity="0.0" r="360.0" /><circle cx="1537.4199691763688" cy="1255.8068034068644" fill-opacity="0.0" r="360.0" /><circle cx="1540.5659847756096" cy="1264.6908773958612" fill-opacity="0.0" r="360.0" /><circle cx="1543.8665696915111" cy="1273.518692754462" fill-opacity="0.0" r="360.0" /><circle cx="1547.3207185339347" cy="1282.2875604445924" fill-opacity="0.0" r="360.0" /><circle cx="1550.9273791356823" cy="1290.9948093842077" fill-opacity="0.0" r="360.0" /><circle cx="1554.6854528729955" cy="1299.6377872609319" fill-opacity="0.0" r="360.0" /><circle cx="1558.593795000209" cy="1308.2138613399777" fill-opacity="0.0" r="360.0" /><circle cx="1562.6512149984499" cy="1316.7204192661018" fill-opacity="0.0" r="360.0" /><circle cx="1566.8564769382813" cy="1325.1548698593551" fill-opacity="0.0" r="360.0" /><circle cx="1571.2082998561793" cy="1333.5146439043808" fill-opacity="0.0" r="360.0" /><circle cx="1575.7053581447262" cy="1341.7971949330222" fill-opacity="0.0" r="360.0" /><circle cx="1580.3462819564031" cy="1350.0" fill-opacity="0.0" r="360.0" /><circle cx="1585.1296576208592" cy="1358.1205604514294" fill-opacity="0.0" r="360.0" /><circle cx="1590.05402807553" cy="1366.1564026859305" fill-opacity="0.0" r="360.0" /><circle cx="1595.117893309471" cy="1374.1050789081144" fill-opacity="0.0" r="360.0" /><circle cx="1600.3197108202776" cy="1381.9641678742034" fill-opacity="0.0" r="360.0" /><circle cx="1605.6578960839445" cy="1389.7312756295648" fill-opacity="0.0" r="360.0" /><circle cx="1611.1308230375284" cy="1397.4040362379353" fill-opacity="0.0" r="360.0" /><circle cx="1616.7368245744617" cy="1404.9801125021058" fill-opacity="0.0" r="360.0" /><circle cx="1622.4741930523703" cy="1412.4571966758556" fill-opacity="0.0" r="360.0" /><circle cx="1628.3411808132357" cy="1419.8330111669122" fill-opacity="0.0" r="360.0" /><circle cx="1634.3360007157519" cy="1427.105309230731" fill-opacity="0.0" r="360.0" /><circle cx="1640.456826679703" cy="1434.2718756548738" fill-opacity="0.0" r="360.0" /><circle cx="1646.701794242207" cy="1441.3305274337831" fill-opacity="0.0" r="360.0" /><circle cx="1653.069001125648" cy="1448.2791144337493" fill-opacity="0.0" r="360.0" /><circle cx="1659.5565078171285" cy="1455.1155200478586" fill-opacity="0.0" r="360.0" /><circle cx="1666.1623381592642" cy="1461.8376618407356" fill-opacity="0.0" r="360.0" /><circle cx="1672.8844799521412" cy="1468.4434921828715" fill-opacity="0.0" r="360.0" /><circle cx="1679.720885566251" cy="1474.930998874352" fill-opacity="0.0" r="360.0" /><circle cx="1686.6694725662167" cy="1481.2982057577929" fill-opacity="0.0" r="360.0" /><circle cx="1693.728124345126" cy="1487.5431733202968" fill-opacity="0.0" r="360.0" /><circle cx="1700.8946907692687" cy="1493.663999284248" fill-opacity="0.0" r="360.0" /><circle cx="1708.1669888330875" cy="1499.658819186764" fill-opacity="0.0" r="360.0" /><circle cx="1715.5428033241446" cy="1505.52580694763" fill-opacity="0.0" r="360.0" /><circle cx="1723.019887497894" cy="1511.263175425538" fill-opacity="0.0" r="360.0" /><circle cx="1730.5959637620645" cy="1516.8691769624716" fill-opacity="0.0" r="360.0" /><circle cx="1738.268724370435" cy="1522.3421039160555" fill-opacity="0.0" r="360.0" /><circle cx="1746.0358321257968" cy="1527.6802891797226" fill-opacity="0.0" r="360.0" /><circle cx="1753.8949210918854" cy="1532.8821066905289" fill-opacity="0.0" r="360.0" /><circle cx="1761.8435973140693" cy="1537.94597192447" fill-opacity="0.0" r="360.0" /><circle cx="1769.8794395485706" cy="1542.8703423791405" fill-opacity="0.0" r="360.0" /><circle cx="1777.9999999999998" cy="1547.6537180435967" fill-opacity="0.0" r="360.0" /><circle cx="1786.202805066978" cy="1552.2946418552738" fill-opacity="0.0" r="360.0" /><circle cx="1794.485356095619" cy="1556.7917001438204" fill-opacity="0.0" r="360.0" /><circle cx="1802.8451301406446" cy="1561.1435230617185" fill-opacity="0.0" r="360.0" /><circle cx="1811.279580733898" cy="1565.3487850015501" fill-opacity="0.0" r="360.0" /><circle cx="1819.7861386600225" cy="1569.406204999791" fill-opacity="0.0" r="360.0" /><circle cx="1828.362212739068" cy="1573.3145471270045" fill-opacity="0.0" r="360.0" /><circle cx="1837.0051906157921" cy="1577.0726208643177" fill-opacity="0.0" r="360.0" /><circle cx="1845.7124395554074" cy="1580.6792814660653" fill-opacity="0.0" r="360.0" /><circle cx="1854.4813072455377" cy="1584.1334303084889" fill-opacity="0.0" r="360.0" /><circle cx="1863.309122604139" cy="1587.4340152243906" fill-opacity="0.0" r="360.0" /><circle cx="1872.1931965931353" cy="1590.5800308236312" fill-opacity="0.0" r="360.0" /><circle cx="1881.1308230375282" cy="1593.5705187993829" fill-opacity="0.0" r="360.0" /><circle cx="1890.119279449722" cy="1596.404568220039" fill-opacity="0.0" r="360.0" /><circle cx="1899.1558278588207" cy="1599.0813158066921" fill-opacity="0.0" r="360.0" /><circle cx="1908.237715644639" cy="1601.5999461960969" fill-opacity="0.0" r="360.0" /><circle cx="1917.3621763761794" cy="1603.9596921890382" fill-opacity="0.0" r="360.0" /><circle cx="1926.5264306543127" cy="1606.159834984027" fill-opacity="0.0" r="360.0" /><circle cx="1935.7276869584098" cy="1608.1997043962551" fill-opacity="0.0" r="360.0" /><circle cx="1944.9631424966658" cy="1610.0786790617385" fill-opacity="0.0" r="360.0" /><circle cx="1954.2299840598575" cy="1611.7961866265923" fill-opacity="0.0" r="360.0" /><circle cx="1963.5253888782752" cy="1613.3517039213743" fill-opacity="0.0" r="360.0" /><circle cx="1972.8465254815644" cy="1614.744757120448" fill-opacity="0.0" r="360.0" /><circle cx="1982.1905545612206" cy="1615.974921886314" fill-opacity="0.0" r="360.0" /><circle cx="1991.554629835467" cy="1617.0418234988674" fill-opacity="0.0" r="360.0" /><circle cx="2000.9358989162645" cy="1617.9451369695425" fill-opacity="0.0" r="360.0" /><circle cx="2010.331504178172" cy="1618.6845871403052" fill-opacity="0.0" r="360.0" /><circle cx="2019.7385836288101" cy="1619.2599487674697" fill-opacity="0.0" r="360.0" /><circle cx="2029.1542717806497" cy="1619.6710465903116" fill-opacity="0.0" r="360.0" /><circle cx="2038.5757005238668" cy="1619.9177553844513" fill-opacity="0.0" r="360.0" /></g><linearGradient id="id4" x1="0" x2="1" y1="0" y2="1"><stop offset="0.0" stop-color="#aFa" /><stop offset="0.3333333333333333" stop-color="#Faa" /><stop offset="0.6666666666666666" stop-color="#aaF" /><stop offset="1" stop-color="#aFa" /></linearGradient></svg>