<?xml version="1.0" encoding="utf-8" ?>
<svg baseProfile="full" height="2160" version="1.1" width="4096" xmlns="http://www.w3.org/2000/svg" xmlns:ev="http://www.w3.org/2001/xml-events" xmlns:xlink="http://www.w3.org/1999/xlink"><defs /><g fill="none" id="shape_group" stroke="url(#id8) none" stroke-width="1"><rect fill="#000" height="2160" stroke="#000" width="4096" x="0" y="0" /><circle cx="2048.0" cy="1720.0" fill-opacity="0.0" r="216.0" /><circle cx="2058.9950160554886" cy="1709.9040479485266" fill-opacity="0.0" r="216.0" /><circle cx="2069.6376879555505" cy="1699.6223127518392" fill-opacity="0.0" r="216.0" /><circle cx="2079.9249333081957" cy="1689.16401620029" fill-opacity="0.0" r="216.0" /><circle cx="2089.853884246475" cy="1678.5384301558945" fill-opacity="0.0" r="216.0" /><circle cx="2099.4218882211185" cy="1667.75487187413" fill-opacity="0.0" r="216.0" /><circle cx="2108.626508695239" cy="1656.8226993135986" fill-opacity="0.0" r="216.0" /><circle cx="2117.465525740934" cy="1645.7513064355535" fill-opacity="0.0" r="216.0" /><circle cx="2125.9369365376365" cy="1634.5501184952795" fill-opacity="0.0" r="216.0" /><circle cx="2134.038955772127" cy="1623.2285873273258" fill-opacity="0.0" r="216.0" /><circle cx="2141.7700159401425" cy="1611.7961866265923" fill-opacity="0.0" r="216.0" /><circle cx="2152.9449474570997" cy="1619.894950896215" fill-opacity="0.0" r="216.0" /><circle cx="2164.430546857945" cy="1627.7626564109312" fill-opacity="0.0" r="216.0" /><circle cx="2176.2221009760033" cy="1635.390936927584" fill-opacity="0.0" r="216.0" /><circle cx="2188.3146994478075" cy="1642.771521240078" fill-opacity="0.0" r="216.0" /><circle cx="2200.7032366104872" cy="1649.8962375105502" fill-opacity="0.0" r="216.0" /><circle cx="2213.3824134901997" cy="1656.7570175629912" fill-opacity="0.0" r="216.0" /><circle cx="2226.3467398808693" cy="1663.3459011374516" fill-opacity="0.0" r="216.0" /><circle cx="2239.590536512467" cy="1669.6550401029951" fill-opacity="0.0" r="216.0" /><circle cx="2253.107937308009" cy="1675.6767026275697" fill-opacity="0.0" r="216.0" /><circle cx="2266.892891728428" cy="1681.4032773029815" fill-opacity="0.0" r="216.0" /><circle cx="2273.7718082135393" cy="1668.1556686932372" fill-opacity="0.0" r="216.0" /><circle cx="2280.2560879178654" cy="1654.8539898314082" fill-opacity="0.0" r="216.0" /><circle cx="2286.345988378457" cy="1641.5079606059885" fill-opacity="0.0" r="216.0" /><circle cx="2292.04198584548" cy="1628.1272745855604" fill-opacity="0.0" r="216.0" /><circle cx="2297.3447744270125" cy="1614.7215943516235" fill-opacity="0.0" r="216.0" /><circle cx="2302.255265137665" cy="1601.3005468535168" fill-opacity="0.0" r="216.0" /><circle cx="2306.7745848515415" cy="1587.8737187873696" fill-opacity="0.0" r="216.0" /><circle cx="2310.9040751600987" cy="1574.450652000999" fill-opacity="0.0" r="216.0" /><circle cx="2314.6452911354854" cy="1561.0408389266677" fill-opacity="0.0" r="216.0" /><circle cx="2318.0" cy="1547.6537180435969" fill-opacity="0.0" r="216.0" /><circle cx="2331.2709412005297" cy="1551.4420153861618" fill-opacity="0.0" r="216.0" /><circle cx="2344.754787970595" cy="1554.9069338475986" fill-opacity="0.0" r="216.0" /><circle cx="2358.4442499585653" cy="1558.0422237288917" fill-opacity="0.0" r="216.0" /><circle cx="2372.3318840130332" cy="1560.8417920819243" fill-opacity="0.0" r="216.0" /><circle cx="2386.410097447117" cy="1563.2997061305052" fill-opacity="0.0" r="216.0" /><circle cx="2400.671151375484" cy="1565.4101966249684" fill-opacity="0.0" r="216.0" /><circle cx="2415.1071641227495" cy="1567.1676611288485" fill-opacity="0.0" r="216.0" /><circle cx="2429.710114701908" cy="1568.5666672361676" fill-opacity="0.0" r="216.0" /><circle cx="2444.4718463613976" cy="1569.6019557178915" fill-opacity="0.0" r="216.0" /><circle cx="2459.384070199385" cy="1570.268443596146" fill-opacity="0.0" r="216.0" /><circle cx="2461.3171882640195" cy="1555.4670355403464" fill-opacity="0.0" r="216.0" /><circle cx="2462.860975942492" cy="1540.7497917959845" fill-opacity="0.0" r="216.0" /><circle cx="2464.018999638124" cy="1526.125757987694" fill-opacity="0.0" r="216.0" /><circle cx="2464.7950222753984" cy="1511.6038802031908" fill-opacity="0.0" r="216.0" /><circle cx="2465.193000900063" cy="1497.193000900063" fill-opacity="0.0" r="216.0" /><circle cx="2465.2170841964175" cy="1482.9018548662184" fill-opacity="0.0" r="216.0" /><circle cx="2464.8716099229273" cy="1468.7390652356241" fill-opacity="0.0" r="216.0" /><circle cx="2464.1611022673405" cy="1454.7131395609606" fill-opacity="0.0" r="216.0" /><circle cx="2463.0902691225247" cy="1440.832465944779" fill-opacity="0.0" r="216.0" /><circle cx="2461.6639992842483" cy="1427.1053092307313" fill-opacity="0.0" r="216.0" /><circle cx="2475.4302788013338" cy="1426.1262150774105" fill-opacity="0.0" r="216.0" /><circle cx="2489.2860220197645" cy="1424.7704261823687" fill-opacity="0.0" r="216.0" /><circle cx="2503.222240726957" cy="1423.0345631966675" fill-opacity="0.0" r="216.0" /><circle cx="2517.2298567374696" cy="1420.9154463296345" fill-opacity="0.0" r="216.0" /><circle cx="2531.299706130505" cy="1418.410097447117" fill-opacity="0.0" r="216.0" /><circle cx="2545.422543533025" cy="1415.515742082448" fill-opacity="0.0" r="216.0" /><circle cx="2559.589046446709" cy="1412.2298113591664" fill-opacity="0.0" r="216.0" /><circle cx="2573.789819616984" cy="1408.549943824587" fill-opacity="0.0" r="216.0" /><circle cx="2588.015399442331" cy="1404.473987193334" fill-opacity="0.0" r="216.0" /><circle cx="2602.2562584220404" cy="1400.0" fill-opacity="0.0" r="216.0" /><circle cx="2599.0104154978194" cy="1385.4300607551922" fill-opacity="0.0" r="216.0" /><circle cx="2595.4275075725345" cy="1371.0723689272522" fill-opacity="0.0" r="216.0" /><circle cx="2591.5139797549045" cy="1356.9342048411236" fill-opacity="0.0" r="216.0" /><circle cx="2587.2764277795004" cy="1343.0226880734465" fill-opacity="0.0" r="216.0" /><circle cx="2582.7215943516235" cy="1329.3447744270127" fill-opacity="0.0" r="216.0" /><circle cx="2577.8563654327086" cy="1315.907252983964" fill-opacity="0.0" r="216.0" /><circle cx="2572.687766467891" cy="1302.716743238886" fill-opacity="0.0" r="216.0" /><circle cx="2567.222958557401" cy="1289.7796923129108" fill-opacity="0.0" r="216.0" /><circle cx="2561.469234573461" cy="1277.1023722499153" fill-opacity="0.0" r="216.0" /><circle cx="2555.4340152243904" cy="1264.6908773958612" fill-opacity="0.0" r="216.0" /><circle cx="2568.035216579624" cy="1259.062484951436" fill-opacity="0.0" r="216.0" /><circle cx="2580.591649125286" cy="1253.0495168499706" fill-opacity="0.0" r="216.0" /><circle cx="2593.09371089893" cy="1246.65187169196" fill-opacity="0.0" r="216.0" /><circle cx="2605.531783644225" cy="1239.8696663738594" fill-opacity="0.0" r="216.0" /><circle cx="2617.8962375105502" cy="1232.7032366104872" fill-opacity="0.0" r="216.0" /><circle cx="2630.1774357655977" cy="1225.1531373598007" fill-opacity="0.0" r="216.0" /><circle cx="2642.3657395189935" cy="1217.2201431497576" fill-opacity="0.0" r="216.0" /><circle cx="2654.4515124549594" cy="1208.9052483070109" fill-opacity="0.0" r="216.0" /><circle cx="2666.4251255720283" cy="1200.2096670872234" fill-opacity="0.0" r="216.0" /><circle cx="2678.2769619278133" cy="1191.1348337068355" fill-opacity="0.0" r="216.0" /><circle cx="2670.243654574937" cy="1178.5537129753454" fill-opacity="0.0" r="216.0" /><circle cx="2661.966202619774" cy="1166.2873225952405" fill-opacity="0.0" r="216.0" /><circle cx="2653.453152501206" cy="1154.34029947714" fill-opacity="0.0" r="216.0" /><circle cx="2644.713137220964" cy="1142.7170779605922" fill-opacity="0.0" r="216.0" /><circle cx="2635.75487187413" cy="1131.4218882211183" fill-opacity="0.0" r="216.0" /><circle cx="2626.5871491506978" cy="1120.4587547715926" fill-opacity="0.0" r="216.0" /><circle cx="2617.218834810107" cy="1109.8314950584781" fill-opacity="0.0" r="216.0" /><circle cx="2607.6588631306936" cy="1099.5437181534005" fill-opacity="0.0" r="216.0" /><circle cx="2597.916232336015" cy="1089.598823540506" fill-opacity="0.0" r="216.0" /><circle cx="2588.0" cy="1080.0" fill-opacity="0.0" r="216.0" /><circle cx="2597.916232336015" cy="1070.401176459494" fill-opacity="0.0" r="216.0" /><circle cx="2607.6588631306936" cy="1060.4562818465995" fill-opacity="0.0" r="216.0" /><circle cx="2617.218834810107" cy="1050.168504941522" fill-opacity="0.0" r="216.0" /><circle cx="2626.5871491506978" cy="1039.5412452284072" fill-opacity="0.0" r="216.0" /><circle cx="2635.75487187413" cy="1028.5781117788817" fill-opacity="0.0" r="216.0" /><circle cx="2644.713137220964" cy="1017.2829220394078" fill-opacity="0.0" r="216.0" /><circle cx="2653.453152501206" cy="1005.6597005228601" fill-opacity="0.0" r="216.0" /><circle cx="2661.966202619774" cy="993.7126774047595" fill-opacity="0.0" r="216.0" /><circle cx="2670.243654574937" cy="981.4462870246546" fill-opacity="0.0" r="216.0" /><circle cx="2678.2769619278133" cy="968.8651662931646" fill-opacity="0.0" r="216.0" /><circle cx="2666.4251255720283" cy="959.7903329127768" fill-opacity="0.0" r="216.0" /><circle cx="2654.45151245496" cy="951.0947516929892" fill-opacity="0.0" r="216.0" /><circle cx="2642.3657395189935" cy="942.7798568502424" fill-opacity="0.0" r="216.0" /><circle cx="2630.1774357655977" cy="934.8468626401993" fill-opacity="0.0" r="216.0" /><circle cx="2617.8962375105502" cy="927.2967633895128" fill-opacity="0.0" r="216.0" /><circle cx="2605.531783644225" cy="920.1303336261406" fill-opacity="0.0" r="216.0" /><circle cx="2593.09371089893" cy="913.3481283080401" fill-opacity="0.0" r="216.0" /><circle cx="2580.591649125286" cy="906.9504831500295" fill-opacity="0.0" r="216.0" /><circle cx="2568.0352165796244" cy="900.9375150485639" fill-opacity="0.0" r="216.0" /><circle cx="2555.4340152243904" cy="895.3091226041389" fill-opacity="0.0" r="216.0" /><circle cx="2561.469234573461" cy="882.8976277500849" fill-opacity="0.0" r="216.0" /><circle cx="2567.222958557401" cy="870.2203076870892" fill-opacity="0.0" r="216.0" /><circle cx="2572.687766467891" cy="857.283256761114" fill-opacity="0.0" r="216.0" /><circle cx="2577.8563654327086" cy="844.0927470160359" fill-opacity="0.0" r="216.0" /><circle cx="2582.7215943516235" cy="830.6552255729874" fill-opacity="0.0" r="216.0" /><circle cx="2587.2764277795004" cy="816.9773119265535" fill-opacity="0.0" r="216.0" /><circle cx="2591.5139797549045" cy="803.0657951588764" fill-opacity="0.0" r="216.0" /><circle cx="2595.4275075725345" cy="788.9276310727477" fill-opacity="0.0" r="216.0" /><circle cx="2599.0104154978194" cy="774.5699392448078" fill-opacity="0.0" r="216.0" /><circle cx="2602.256258422041" cy="760.0000000000001" fill-opacity="0.0" r="216.0" /><circle cx="2588.015399442331" cy="755.5260128066658" fill-opacity="0.0" r="216.0" /><circle cx="2573.789819616984" cy="751.450056175413" fill-opacity="0.0" r="216.0" /><circle cx="2559.589046446709" cy="747.7701886408335" fill-opacity="0.0" r="216.0" /><circle cx="2545.422543533025" cy="744.484257917552" fill-opacity="0.0" r="216.0" /><circle cx="2531.299706130505" cy="741.5899025528828" fill-opacity="0.0" r="216.0" /><circle cx="2517.2298567374696" cy="739.0845536703657" fill-opacity="0.0" r="216.0" /><circle cx="2503.222240726957" cy="736.9654368033324" fill-opacity="0.0" r="216.0" /><circle cx="2489.2860220197645" cy="735.2295738176314" fill-opacity="0.0" r="216.0" /><circle cx="2475.430278801334" cy="733.8737849225895" fill-opacity="0.0" r="216.0" /><circle cx="2461.6639992842483" cy="732.8946907692687" fill-opacity="0.0" r="216.0" /><circle cx="2463.0902691225247" cy="719.167534055221" fill-opacity="0.0" r="216.0" /><circle cx="2464.1611022673405" cy="705.2868604390394" fill-opacity="0.0" r="216.0" /><circle cx="2464.8716099229273" cy="691.2609347643759" fill-opacity="0.0" r="216.0" /><circle cx="2465.2170841964175" cy="677.0981451337816" fill-opacity="0.0" r="216.0" /><circle cx="2465.193000900063" cy="662.806999099937" fill-opacity="0.0" r="216.0" /><circle cx="2464.7950222753984" cy="648.3961197968092" fill-opacity="0.0" r="216.0" /><circle cx="2464.018999638124" cy="633.874242012306" fill-opacity="0.0" r="216.0" /><circle cx="2462.860975942492" cy="619.2502082040156" fill-opacity="0.0" r="216.0" /><circle cx="2461.3171882640195" cy="604.5329644596536" fill-opacity="0.0" r="216.0" /><circle cx="2459.3840701993854" cy="589.7315564038541" fill-opacity="0.0" r="216.0" /><circle cx="2444.4718463613976" cy="590.3980442821083" fill-opacity="0.0" r="216.0" /><circle cx="2429.7101147019084" cy="591.4333327638324" fill-opacity="0.0" r="216.0" /><circle cx="2415.1071641227495" cy="592.8323388711513" fill-opacity="0.0" r="216.0" /><circle cx="2400.671151375484" cy="594.5898033750316" fill-opacity="0.0" r="216.0" /><circle cx="2386.410097447117" cy="596.7002938694948" fill-opacity="0.0" r="216.0" /><circle cx="2372.3318840130332" cy="599.1582079180758" fill-opacity="0.0" r="216.0" /><circle cx="2358.4442499585657" cy="601.9577762711083" fill-opacity="0.0" r="216.0" /><circle cx="2344.754787970595" cy="605.0930661524014" fill-opacity="0.0" r="216.0" /><circle cx="2331.2709412005297" cy="608.5579846138382" fill-opacity="0.0" r="216.0" /><circle cx="2318.0" cy="612.3462819564031" fill-opacity="0.0" r="216.0" /><circle cx="2314.6452911354854" cy="598.9591610733323" fill-opacity="0.0" r="216.0" /><circle cx="2310.9040751600987" cy="585.5493479990009" fill-opacity="0.0" r="216.0" /><circle cx="2306.7745848515415" cy="572.1262812126304" fill-opacity="0.0" r="216.0" /><circle cx="2302.255265137665" cy="558.6994531464832" fill-opacity="0.0" r="216.0" /><circle cx="2297.344774427013" cy="545.2784056483765" fill-opacity="0.0" r="216.0" /><circle cx="2292.04198584548" cy="531.8727254144395" fill-opacity="0.0" r="216.0" /><circle cx="2286.345988378457" cy="518.4920393940114" fill-opacity="0.0" r="216.0" /><circle cx="2280.2560879178654" cy="505.14601016859183" fill-opacity="0.0" r="216.0" /><circle cx="2273.7718082135393" cy="491.8443313067629" fill-opacity="0.0" r="216.0" /><circle cx="2266.892891728428" cy="478.59672269701866" fill-opacity="0.0" r="216.0" /><circle cx="2253.107937308009" cy="484.3232973724304" fill-opacity="0.0" r="216.0" /><circle cx="2239.590536512467" cy="490.34495989700486" fill-opacity="0.0" r="216.0" /><circle cx="2226.3467398808693" cy="496.65409886254827" fill-opacity="0.0" r="216.0" /><circle cx="2213.3824134901997" cy="503.24298243700866" fill-opacity="0.0" r="216.0" /><circle cx="2200.7032366104872" cy="510.10376248944976" fill-opacity="0.0" r="216.0" /><circle cx="2188.3146994478075" cy="517.228478759922" fill-opacity="0.0" r="216.0" /><circle cx="2176.2221009760033" cy="524.609063072416" fill-opacity="0.0" r="216.0" /><circle cx="2164.430546857945" cy="532.2373435890688" fill-opacity="0.0" r="216.0" /><circle cx="2152.9449474570997" cy="540.1050491037848" fill-opacity="0.0" r="216.0" /><circle cx="2141.7700159401425" cy="548.2038133734077" fill-opacity="0.0" r="216.0" /><circle cx="2134.038955772127" cy="536.7714126726743" fill-opacity="0.0" r="216.0" /><circle cx="2125.9369365376365" cy="525.4498815047206" fill-opacity="0.0" r="216.0" /><circle cx="2117.465525740934" cy="514.2486935644465" fill-opacity="0.0" r="216.0" /><circle cx="2108.626508695239" cy="503.1773006864015" fill-opacity="0.0" r="216.0" /><circle cx="2099.4218882211185" cy="492.2451281258701" fill-opacity="0.0" r="216.0" /><circle cx="2089.8538842464754" cy="481.4615698441055" fill-opacity="0.0" r="216.0" /><circle cx="2079.9249333081957" cy="470.83598379971" fill-opacity="0.0" r="216.0" /><circle cx="2069.6376879555505" cy="460.37768724816067" fill-opacity="0.0" r="216.0" /><circle cx="2058.9950160554886" cy="450.09595205147355" fill-opacity="0.0" r="216.0" /><circle cx="2048.0" cy="440.0" fill-opacity="0.0" r="216.0" /><circle cx="2037.0049839445114" cy="450.09595205147355" fill-opacity="0.0" r="216.0" /><circle cx="2026.3623120444495" cy="460.37768724816067" fill-opacity="0.0" r="216.0" /><circle cx="2016.0750666918045" cy="470.83598379971" fill-opacity="0.0" r="216.0" /><circle cx="2006.1461157535248" cy="481.4615698441055" fill-opacity="0.0" r="216.0" /><circle cx="1996.5781117788817" cy="492.2451281258701" fill-opacity="0.0" r="216.0" /><circle cx="1987.373491304761" cy="503.1773006864015" fill-opacity="0.0" r="216.0" /><circle cx="1978.534474259066" cy="514.2486935644464" fill-opacity="0.0" r="216.0" /><circle cx="1970.0630634623633" cy="525.4498815047207" fill-opacity="0.0" r="216.0" /><circle cx="1961.9610442278731" cy="536.7714126726743" fill-opacity="0.0" r="216.0" /><circle cx="1954.2299840598575" cy="548.2038133734077" fill-opacity="0.0" r="216.0" /><circle cx="1943.0550525429003" cy="540.1050491037848" fill-opacity="0.0" r="216.0" /><circle cx="1931.5694531420547" cy="532.2373435890689" fill-opacity="0.0" r="216.0" /><circle cx="1919.777899023997" cy="524.6090630724159" fill-opacity="0.0" r="216.0" /><circle cx="1907.6853005521928" cy="517.228478759922" fill-opacity="0.0" r="216.0" /><circle cx="1895.2967633895128" cy="510.10376248944965" fill-opacity="0.0" r="216.0" /><circle cx="1882.6175865098005" cy="503.24298243700866" fill-opacity="0.0" r="216.0" /><circle cx="1869.6532601191307" cy="496.6540988625484" fill-opacity="0.0" r="216.0" /><circle cx="1856.4094634875328" cy="490.34495989700474" fill-opacity="0.0" r="216.0" /><circle cx="1842.8920626919912" cy="484.3232973724305" fill-opacity="0.0" r="216.0" /><circle cx="1829.107108271572" cy="478.59672269701855" fill-opacity="0.0" r="216.0" /><circle cx="1822.2281917864607" cy="491.8443313067629" fill-opacity="0.0" r="216.0" /><circle cx="1815.7439120821346" cy="505.14601016859183" fill-opacity="0.0" r="216.0" /><circle cx="1809.654011621543" cy="518.4920393940114" fill-opacity="0.0" r="216.0" /><circle cx="1803.9580141545198" cy="531.8727254144395" fill-opacity="0.0" r="216.0" /><circle cx="1798.6552255729875" cy="545.2784056483765" fill-opacity="0.0" r="216.0" /><circle cx="1793.744734862335" cy="558.6994531464832" fill-opacity="0.0" r="216.0" /><circle cx="1789.2254151484585" cy="572.1262812126304" fill-opacity="0.0" r="216.0" /><circle cx="1785.095924839901" cy="585.5493479990009" fill-opacity="0.0" r="216.0" /><circle cx="1781.3547088645146" cy="598.9591610733323" fill-opacity="0.0" r="216.0" /><circle cx="1778.0" cy="612.3462819564031" fill-opacity="0.0" r="216.0" /><circle cx="1764.7290587994703" cy="608.5579846138382" fill-opacity="0.0" r="216.0" /><circle cx="1751.2452120294054" cy="605.0930661524014" fill-opacity="0.0" r="216.0" /><circle cx="1737.5557500414345" cy="601.9577762711083" fill-opacity="0.0" r="216.0" /><circle cx="1723.668115986967" cy="599.1582079180757" fill-opacity="0.0" r="216.0" /><circle cx="1709.589902552883" cy="596.7002938694948" fill-opacity="0.0" r="216.0" /><circle cx="1695.3288486245162" cy="594.5898033750316" fill-opacity="0.0" r="216.0" /><circle cx="1680.8928358772505" cy="592.8323388711514" fill-opacity="0.0" r="216.0" /><circle cx="1666.289885298092" cy="591.4333327638324" fill-opacity="0.0" r="216.0" /><circle cx="1651.5281536386024" cy="590.3980442821085" fill-opacity="0.0" r="216.0" /><circle cx="1636.6159298006148" cy="589.731556403854" fill-opacity="0.0" r="216.0" /><circle cx="1634.6828117359805" cy="604.5329644596536" fill-opacity="0.0" r="216.0" /><circle cx="1633.1390240575079" cy="619.2502082040155" fill-opacity="0.0" r="216.0" /><circle cx="1631.9810003618759" cy="633.874242012306" fill-opacity="0.0" r="216.0" /><circle cx="1631.2049777246016" cy="648.3961197968093" fill-opacity="0.0" r="216.0" /><circle cx="1630.806999099937" cy="662.8069990999369" fill-opacity="0.0" r="216.0" /><circle cx="1630.7829158035822" cy="677.0981451337816" fill-opacity="0.0" r="216.0" /><circle cx="1631.1283900770727" cy="691.2609347643759" fill-opacity="0.0" r="216.0" /><circle cx="1631.8388977326592" cy="705.2868604390394" fill-opacity="0.0" r="216.0" /><circle cx="1632.9097308774753" cy="719.167534055221" fill-opacity="0.0" r="216.0" /><circle cx="1634.3360007157519" cy="732.8946907692687" fill-opacity="0.0" r="216.0" /><circle cx="1620.5697211986662" cy="733.8737849225893" fill-opacity="0.0" r="216.0" /><circle cx="1606.7139779802355" cy="735.2295738176315" fill-opacity="0.0" r="216.0" /><circle cx="1592.777759273043" cy="736.9654368033325" fill-opacity="0.0" r="216.0" /><circle cx="1578.7701432625306" cy="739.0845536703655" fill-opacity="0.0" r="216.0" /><circle cx="1564.700293869495" cy="741.5899025528827" fill-opacity="0.0" r="216.0" /><circle cx="1550.5774564669748" cy="744.484257917552" fill-opacity="0.0" r="216.0" /><circle cx="1536.4109535532912" cy="747.7701886408336" fill-opacity="0.0" r="216.0" /><circle cx="1522.210180383016" cy="751.4500561754129" fill-opacity="0.0" r="216.0" /><circle cx="1507.9846005576694" cy="755.5260128066657" fill-opacity="0.0" r="216.0" /><circle cx="1493.7437415779593" cy="759.9999999999998" fill-opacity="0.0" r="216.0" /><circle cx="1496.9895845021806" cy="774.5699392448078" fill-opacity="0.0" r="216.0" /><circle cx="1500.5724924274652" cy="788.9276310727478" fill-opacity="0.0" r="216.0" /><circle cx="1504.4860202450957" cy="803.0657951588764" fill-opacity="0.0" r="216.0" /><circle cx="1508.7235722205" cy="816.9773119265533" fill-opacity="0.0" r="216.0" /><circle cx="1513.2784056483765" cy="830.6552255729875" fill-opacity="0.0" r="216.0" /><circle cx="1518.1436345672914" cy="844.0927470160359" fill-opacity="0.0" r="216.0" /><circle cx="1523.312233532109" cy="857.283256761114" fill-opacity="0.0" r="216.0" /><circle cx="1528.777041442599" cy="870.2203076870891" fill-opacity="0.0" r="216.0" /><circle cx="1534.5307654265391" cy="882.8976277500847" fill-opacity="0.0" r="216.0" /><circle cx="1540.5659847756094" cy="895.309122604139" fill-opacity="0.0" r="216.0" /><circle cx="1527.9647834203756" cy="900.9375150485639" fill-opacity="0.0" r="216.0" /><circle cx="1515.408350874714" cy="906.9504831500294" fill-opacity="0.0" r="216.0" /><circle cx="1502.90628910107" cy="913.3481283080398" fill-opacity="0.0" r="216.0" /><circle cx="1490.468216355775" cy="920.1303336261407" fill-opacity="0.0" r="216.0" /><circle cx="1478.1037624894498" cy="927.2967633895128" fill-opacity="0.0" r="216.0" /><circle cx="1465.822564234402" cy="934.8468626401993" fill-opacity="0.0" r="216.0" /><circle cx="1453.6342604810065" cy="942.7798568502421" fill-opacity="0.0" r="216.0" /><circle cx="1441.5484875450406" cy="951.0947516929889" fill-opacity="0.0" r="216.0" /><circle cx="1429.5748744279717" cy="959.7903329127769" fill-opacity="0.0" r="216.0" /><circle cx="1417.723038072187" cy="968.8651662931646" fill-opacity="0.0" r="216.0" /><circle cx="1425.7563454250633" cy="981.4462870246545" fill-opacity="0.0" r="216.0" /><circle cx="1434.0337973802266" cy="993.7126774047592" fill-opacity="0.0" r="216.0" /><circle cx="1442.5468474987936" cy="1005.6597005228602" fill-opacity="0.0" r="216.0" /><circle cx="1451.2868627790358" cy="1017.2829220394079" fill-opacity="0.0" r="216.0" /><circle cx="1460.24512812587" cy="1028.5781117788815" fill-opacity="0.0" r="216.0" /><circle cx="1469.412850849302" cy="1039.5412452284072" fill-opacity="0.0" r="216.0" /><circle cx="1478.7811651898928" cy="1050.1685049415219" fill-opacity="0.0" r="216.0" /><circle cx="1488.3411368693064" cy="1060.4562818465995" fill-opacity="0.0" r="216.0" /><circle cx="1498.0837676639849" cy="1070.401176459494" fill-opacity="0.0" r="216.0" /><circle cx="1508.0" cy="1080.0" fill-opacity="0.0" r="216.0" /><circle cx="1498.0837676639849" cy="1089.5988235405057" fill-opacity="0.0" r="216.0" /><circle cx="1488.3411368693064" cy="1099.5437181534007" fill-opacity="0.0" r="216.0" /><circle cx="1478.7811651898928" cy="1109.8314950584781" fill-opacity="0.0" r="216.0" /><circle cx="1469.4128508493018" cy="1120.4587547715926" fill-opacity="0.0" r="216.0" /><circle cx="1460.24512812587" cy="1131.4218882211183" fill-opacity="0.0" r="216.0" /><circle cx="1451.2868627790358" cy="1142.7170779605917" fill-opacity="0.0" r="216.0" /><circle cx="1442.5468474987936" cy="1154.34029947714" fill-opacity="0.0" r="216.0" /><circle cx="1434.0337973802264" cy="1166.2873225952405" fill-opacity="0.0" r="216.0" /><circle cx="1425.756345425063" cy="1178.5537129753452" fill-opacity="0.0" r="216.0" /><circle cx="1417.7230380721867" cy="1191.1348337068353" fill-opacity="0.0" r="216.0" /><circle cx="1429.5748744279717" cy="1200.2096670872234" fill-opacity="0.0" r="216.0" /><circle cx="1441.5484875450406" cy="1208.9052483070109" fill-opacity="0.0" r="216.0" /><circle cx="1453.6342604810065" cy="1217.2201431497576" fill-opacity="0.0" r="216.0" /><circle cx="1465.822564234402" cy="1225.1531373598004" fill-opacity="0.0" r="216.0" /><circle cx="1478.1037624894498" cy="1232.703236610487" fill-opacity="0.0" r="216.0" /><circle cx="1490.468216355775" cy="1239.8696663738597" fill-opacity="0.0" r="216.0" /><circle cx="1502.90628910107" cy="1246.65187169196" fill-opacity="0.0" r="216.0" /><circle cx="1515.408350874714" cy="1253.0495168499704" fill-opacity="0.0" r="216.0" /><circle cx="1527.9647834203756" cy="1259.062484951436" fill-opacity="0.0" r="216.0" /><circle cx="1540.5659847756096" cy="1264.6908773958612" fill-opacity="0.0" r="216.0" /><circle cx="1534.530765426539" cy="1277.1023722499153" fill-opacity="0.0" r="216.0" /><circle cx="1528.777041442599" cy="1289.7796923129108" fill-opacity="0.0" r="216.0" /><circle cx="1523.312233532109" cy="1302.716743238886" fill-opacity="0.0" r="216.0" /><circle cx="1518.1436345672914" cy="1315.9072529839639" fill-opacity="0.0" r="216.0" /><circle cx="1513.2784056483765" cy="1329.3447744270127" fill-opacity="0.0" r="216.0" /><circle cx="1508.7235722204998" cy="1343.0226880734465" fill-opacity="0.0" r="216.0" /><circle cx="1504.4860202450955" cy="1356.9342048411236" fill-opacity="0.0" r="216.0" /><circle cx="1500.5724924274652" cy="1371.072368927252" fill-opacity="0.0" r="216.0" /><circle cx="1496.9895845021806" cy="1385.4300607551925" fill-opacity="0.0" r="216.0" /><circle cx="1493.7437415779593" cy="1400.0" fill-opacity="0.0" r="216.0" /><circle cx="1507.9846005576692" cy="1404.473987193334" fill-opacity="0.0" r="216.0" /><circle cx="1522.210180383016" cy="1408.549943824587" fill-opacity="0.0" r="216.0" /><circle cx="1536.4109535532912" cy="1412.2298113591662" fill-opacity="0.0" r="216.0" /><circle cx="1550.577456466975" cy="1415.5157420824482" fill-opacity="0.0" r="216.0" /><circle cx="1564.7002938694948" cy="1418.410097447117" fill-opacity="0.0" r="216.0" /><circle cx="1578.7701432625304" cy="1420.9154463296343" fill-opacity="0.0" r="216.0" /><circle cx="1592.777759273043" cy="1423.0345631966672" fill-opacity="0.0" r="216.0" /><circle cx="1606.7139779802358" cy="1424.7704261823687" fill-opacity="0.0" r="216.0" /><circle cx="1620.569721198666" cy="1426.1262150774105" fill-opacity="0.0" r="216.0" /><circle cx="1634.3360007157519" cy="1427.105309230731" fill-opacity="0.0" r="216.0" /><circle cx="1632.9097308774753" cy="1440.832465944779" fill-opacity="0.0" r="216.0" /><circle cx="1631.838897732659" cy="1454.7131395609604" fill-opacity="0.0" r="216.0" /><circle cx="1631.128390077073" cy="1468.7390652356241" fill-opacity="0.0" r="216.0" /><circle cx="1630.7829158035825" cy="1482.9018548662184" fill-opacity="0.0" r="216.0" /><circle cx="1630.806999099937" cy="1497.193000900063" fill-opacity="0.0" r="216.0" /><circle cx="1631.2049777246016" cy="1511.6038802031906" fill-opacity="0.0" r="216.0" /><circle cx="1631.981000361876" cy="1526.1257579876942" fill-opacity="0.0" r="216.0" /><circle cx="1633.1390240575079" cy="1540.7497917959845" fill-opacity="0.0" r="216.0" /><circle cx="1634.6828117359803" cy="1555.4670355403464" fill-opacity="0.0" r="216.0" /><circle cx="1636.6159298006146" cy="1570.2684435961457" fill-opacity="0.0" r="216.0" /><circle cx="1651.5281536386021" cy="1569.6019557178915" fill-opacity="0.0" r="216.0" /><circle cx="1666.289885298092" cy="1568.5666672361676" fill-opacity="0.0" r="216.0" /><circle cx="1680.8928358772505" cy="1567.1676611288485" fill-opacity="0.0" r="216.0" /><circle cx="1695.328848624516" cy="1565.4101966249684" fill-opacity="0.0" r="216.0" /><circle cx="1709.5899025528824" cy="1563.299706130505" fill-opacity="0.0" r="216.0" /><circle cx="1723.668115986967" cy="1560.8417920819243" fill-opacity="0.0" r="216.0" /><circle cx="1737.5557500414347" cy="1558.0422237288917" fill-opacity="0.0" r="216.0" /><circle cx="1751.2452120294051" cy="1554.9069338475983" fill-opacity="0.0" r="216.0" /><circle cx="1764.72905879947" cy="1551.4420153861615" fill-opacity="0.0" r="216.0" /><circle cx="1777.9999999999998" cy="1547.6537180435967" fill-opacity="0.0" r="216.0" /><circle cx="1781.3547088645146" cy="1561.0408389266677" fill-opacity="0.0" r="216.0" /><circle cx="1785.0959248399013" cy="1574.450652000999" fill-opacity="0.0" r="216.0" /><circle cx="1789.2254151484583" cy="1587.8737187873696" fill-opacity="0.0" r="216.0" /><circle cx="1793.744734862335" cy="1601.3005468535166" fill-opacity="0.0" r="216.0" /><circle cx="1798.6552255729875" cy="1614.7215943516235" fill-opacity="0.0" r="216.0" /><circle cx="1803.9580141545198" cy="1628.1272745855606" fill-opacity="0.0" r="216.0" /><circle cx="1809.6540116215428" cy="1641.5079606059885" fill-opacity="0.0" r="216.0" /><circle cx="1815.7439120821343" cy="1654.8539898314082" fill-opacity="0.0" r="216.0" /><circle cx="1822.2281917864605" cy="1668.155668693237" fill-opacity="0.0" r="216.0" /><circle cx="1829.107108271572" cy="1681.4032773029815" fill-opacity="0.0" r="216.0" /><circle cx="1842.8920626919912" cy="1675.6767026275697" fill-opacity="0.0" r="216.0" /><circle cx="1856.4094634875323" cy="1669.6550401029951" fill-opacity="0.0" r="216.0" /><circle cx="1869.6532601191302" cy="1663.3459011374516" fill-opacity="0.0" r="216.0" /><circle cx="1882.6175865098007" cy="1656.7570175629912" fill-opacity="0.0" r="216.0" /><circle cx="1895.2967633895128" cy="1649.8962375105502" fill-opacity="0.0" r="216.0" /><circle cx="1907.6853005521925" cy="1642.771521240078" fill-opacity="0.0" r="216.0" /><circle cx="1919.7778990239967" cy="1635.3909369275839" fill-opacity="0.0" r="216.0" /><circle cx="1931.5694531420545" cy="1627.762656410931" fill-opacity="0.0" r="216.0" /><circle cx="1943.0550525429005" cy="1619.894950896215" fill-opacity="0.0" r="216.0" /><circle cx="1954.2299840598575" cy="1611.7961866265923" fill-opacity="0.0" r="216.0" /><circle cx="1961.961044227873" cy="1623.2285873273258" fill-opacity="0.0" r="216.0" /><circle cx="1970.063063462363" cy="1634.5501184952793" fill-opacity="0.0" r="216.0" /><circle cx="1978.534474259066" cy="1645.7513064355535" fill-opacity="0.0" r="216.0" /><circle cx="1987.373491304761" cy="1656.8226993135986" fill-opacity="0.0" r="216.0" /><circle cx="1996.5781117788815" cy="1667.75487187413" fill-opacity="0.0" r="216.0" /><circle cx="2006.1461157535246" cy="1678.5384301558945" fill-opacity="0.0" r="216.0" /><circle cx="2016.0750666918038" cy="1689.16401620029" fill-opacity="0.0" r="216.0" /><circle cx="2026.3623120444495" cy="1699.6223127518392" fill-opacity="0.0" r="216.0" /><circle cx="2037.0049839445114" cy="1709.9040479485266" fill-opacity="0.0" r="216.0" /></g><linearGradient id="id8" x1="0" x2="1" y1="0" y2="1"><stop offset="0.0" stop-color="#aFa" /><stop offset="0.3333333333333333" stop-color="#Faa" /><stop offset="0.6666666666666666" stop-color="#aaF" /><stop offset="1" stop-color="#aFa" /></linearGradient></svg>