<?xml version="1.0" encoding="utf-8" ?>
<svg baseProfile="full" height="2160" version="1.1" width="2160" xmlns="http://www.w3.org/2000/svg" xmlns:ev="http://www.w3.org/2001/xml-events" xmlns:xlink="http://www.w3.org/1999/xlink"><defs /><g fill="none" id="shape_group" stroke="url(#id19) none" stroke-width="1"><rect fill="#000" height="2160" stroke="#000" width="2160" x="0" y="0" /><circle cx="1080.0" cy="1620.0" fill-opacity="0.0" r="216.0" /><circle cx="1136.445370164533" cy="1617.0418234988674" fill-opacity="0.0" r="216.0" /><circle cx="1192.27231304159" cy="1608.1997043962551" fill-opacity="0.0" r="216.0" /><circle cx="1246.8691769624716" cy="1593.5705187993829" fill-opacity="0.0" r="216.0" /><circle cx="1299.637787260932" cy="1573.3145471270045" fill-opacity="0.0" r="216.0" /><circle cx="1350.0" cy="1547.6537180435969" fill-opacity="0.0" r="216.0" /><circle cx="1397.4040362379355" cy="1516.8691769624716" fill-opacity="0.0" r="216.0" /><circle cx="1441.3305274337836" cy="1481.2982057577929" fill-opacity="0.0" r="216.0" /><circle cx="1481.2982057577929" cy="1441.3305274337836" fill-opacity="0.0" r="216.0" /><circle cx="1516.8691769624716" cy="1397.4040362379355" fill-opacity="0.0" r="216.0" /><circle cx="1547.6537180435969" cy="1350.0" fill-opacity="0.0" r="216.0" /><circle cx="1573.3145471270045" cy="1299.637787260932" fill-opacity="0.0" r="216.0" /><circle cx="1593.5705187993829" cy="1246.8691769624716" fill-opacity="0.0" r="216.0" /><circle cx="1608.1997043962551" cy="1192.2723130415902" fill-opacity="0.0" r="216.0" /><circle cx="1617.0418234988674" cy="1136.445370164533" fill-opacity="0.0" r="216.0" /><circle cx="1620.0" cy="1080.0" fill-opacity="0.0" r="216.0" /><circle cx="1617.0418234988674" cy="1023.554629835467" fill-opacity="0.0" r="216.0" /><circle cx="1608.1997043962551" cy="967.72768695841" fill-opacity="0.0" r="216.0" /><circle cx="1593.570518799383" cy="913.1308230375284" fill-opacity="0.0" r="216.0" /><circle cx="1573.3145471270045" cy="860.3622127390679" fill-opacity="0.0" r="216.0" /><circle cx="1547.6537180435969" cy="810.0000000000001" fill-opacity="0.0" r="216.0" /><circle cx="1516.8691769624716" cy="762.5959637620646" fill-opacity="0.0" r="216.0" /><circle cx="1481.2982057577929" cy="718.6694725662165" fill-opacity="0.0" r="216.0" /><circle cx="1441.3305274337836" cy="678.7017942422071" fill-opacity="0.0" r="216.0" /><circle cx="1397.4040362379355" cy="643.1308230375284" fill-opacity="0.0" r="216.0" /><circle cx="1350.0" cy="612.3462819564031" fill-opacity="0.0" r="216.0" /><circle cx="1299.6377872609323" cy="586.6854528729956" fill-opacity="0.0" r="216.0" /><circle cx="1246.8691769624716" cy="566.4294812006171" fill-opacity="0.0" r="216.0" /><circle cx="1192.27231304159" cy="551.8002956037449" fill-opacity="0.0" r="216.0" /><circle cx="1136.445370164533" cy="542.9581765011325" fill-opacity="0.0" r="216.0" /><circle cx="1080.0" cy="540.0" fill-opacity="0.0" r="216.0" /><circle cx="1023.5546298354672" cy="542.9581765011325" fill-opacity="0.0" r="216.0" /><circle cx="967.7276869584099" cy="551.800295603745" fill-opacity="0.0" r="216.0" /><circle cx="913.1308230375284" cy="566.429481200617" fill-opacity="0.0" r="216.0" /><circle cx="860.3622127390679" cy="586.6854528729955" fill-opacity="0.0" r="216.0" /><circle cx="810.0" cy="612.3462819564031" fill-opacity="0.0" r="216.0" /><circle cx="762.5959637620646" cy="643.1308230375284" fill-opacity="0.0" r="216.0" /><circle cx="718.6694725662165" cy="678.7017942422071" fill-opacity="0.0" r="216.0" /><circle cx="678.701794242207" cy="718.6694725662167" fill-opacity="0.0" r="216.0" /><circle cx="643.1308230375284" cy="762.5959637620645" fill-opacity="0.0" r="216.0" /><circle cx="612.3462819564032" cy="809.9999999999998" fill-opacity="0.0" r="216.0" /><circle cx="586.6854528729955" cy="860.3622127390679" fill-opacity="0.0" r="216.0" /><circle cx="566.4294812006171" cy="913.1308230375283" fill-opacity="0.0" r="216.0" /><circle cx="551.800295603745" cy="967.7276869584098" fill-opacity="0.0" r="216.0" /><circle cx="542.9581765011324" cy="1023.5546298354672" fill-opacity="0.0" r="216.0" /><circle cx="540.0" cy="1080.0" fill-opacity="0.0" r="216.0" /><circle cx="542.9581765011324" cy="1136.4453701645325" fill-opacity="0.0" r="216.0" /><circle cx="551.800295603745" cy="1192.27231304159" fill-opacity="0.0" r="216.0" /><circle cx="566.429481200617" cy="1246.8691769624716" fill-opacity="0.0" r="216.0" /><circle cx="586.6854528729955" cy="1299.6377872609319" fill-opacity="0.0" r="216.0" /><circle cx="612.3462819564031" cy="1350.0" fill-opacity="0.0" r="216.0" /><circle cx="643.1308230375283" cy="1397.4040362379353" fill-opacity="0.0" r="216.0" /><circle cx="678.7017942422069" cy="1441.3305274337831" fill-opacity="0.0" r="216.0" /><circle cx="718.6694725662167" cy="1481.2982057577929" fill-opacity="0.0" r="216.0" /><circle cx="762.5959637620645" cy="1516.8691769624716" fill-opacity="0.0" r="216.0" /><circle cx="809.9999999999998" cy="1547.6537180435967" fill-opacity="0.0" r="216.0" /><circle cx="860.3622127390679" cy="1573.3145471270045" fill-opacity="0.0" r="216.0" /><circle cx="913.1308230375282" cy="1593.5705187993829" fill-opacity="0.0" r="216.0" /><circle cx="967.7276869584097" cy="1608.1997043962551" fill-opacity="0.0" r="216.0" /><circle cx="1023.5546298354672" cy="1617.0418234988674" fill-opacity="0.0" r="216.0" /></g><linearGradient id="id19" x1="0" x2="1" y1="0" y2="1"><stop offset="0.0" stop-color="#aFa" /><stop offset="0.3333333333333333" stop-color="#Faa" /><stop offset="0.6666666666666666" stop-color="#aaF" /><stop offset="1" stop-color="#aFa" /></linearGradient></svg>