<?xml version="1.0" encoding="utf-8" ?>
<svg baseProfile="full" height="2160" version="1.1" width="2160" xmlns="http://www.w3.org/2000/svg" xmlns:ev="http://www.w3.org/2001/xml-events" xmlns:xlink="http://www.w3.org/1999/xlink"><defs /><g fill="none" id="shape_group" stroke="url(#id3) none" stroke-width="1"><rect fill="#000" height="2160" stroke="#000" width="2160" x="0" y="0" /><circle cx="1080.0" cy="1470.0" fill-opacity="0.0" r="432.0" /><circle cx="1086.7540812912287" cy="1466.9410580255235" fill-opacity="0.0" r="432.0" /><circle cx="1093.4014067337603" cy="1463.7660775753327" fill-opacity="0.0" r="432.0" /><circle cx="1099.9399993285615" cy="1460.4778527414926" fill-opacity="0.0" r="432.0" /><circle cx="1106.3679470752793" cy="1457.0792109982135" fill-opacity="0.0" r="432.0" /><circle cx="1112.6834035303718" cy="1453.5730117844046" fill-opacity="0.0" r="432.0" /><circle cx="1118.884588335567" cy="1449.9621450769978" fill-opacity="0.0" r="432.0" /><circle cx="1124.9697877164995" cy="1446.2495299556479" fill-opacity="0.0" r="432.0" /><circle cx="1130.937354951384" cy="1442.4381131594148" fill-opacity="0.0" r="432.0" /><circle cx="1136.7857108096039" cy="1438.530867636035" fill-opacity="0.0" r="432.0" /><circle cx="1142.513343960095" cy="1434.5307910843949" fill-opacity="0.0" r="432.0" /><circle cx="1149.2636653216857" cy="1436.330667591502" fill-opacity="0.0" r="432.0" /><circle cx="1156.0956788393" cy="1438.002021868573" fill-opacity="0.0" r="432.0" /><circle cx="1163.006939052886" cy="1439.542553905752" fill-opacity="0.0" r="432.0" /><circle cx="1169.9949451630764" cy="1440.9500101746708" fill-opacity="0.0" r="432.0" /><circle cx="1177.0571419134453" cy="1442.2221848584006" fill-opacity="0.0" r="432.0" /><circle cx="1184.1909204988258" cy="1443.3569210646847" fill-opacity="0.0" r="432.0" /><circle cx="1191.3936194993628" cy="1444.3521120219166" fill-opacity="0.0" r="432.0" /><circle cx="1198.6625258399797" cy="1445.205702257339" fill-opacity="0.0" r="432.0" /><circle cx="1205.9948757749196" cy="1445.9156887569357" fill-opacity="0.0" r="432.0" /><circle cx="1213.387855897011" cy="1446.4801221065043" fill-opacity="0.0" r="432.0" /><circle cx="1218.6883964740312" cy="1441.295625054417" fill-opacity="0.0" r="432.0" /><circle cx="1223.8489318717102" cy="1436.0386001536463" fill-opacity="0.0" r="432.0" /><circle cx="1228.8685599544133" cy="1430.7123491653797" fill-opacity="0.0" r="432.0" /><circle cx="1233.7464510826526" cy="1425.320182988903" fill-opacity="0.0" r="432.0" /><circle cx="1238.4818481527623" cy="1419.8654201387437" fill-opacity="0.0" r="432.0" /><circle cx="1243.0740666055367" cy="1414.3513852232902" fill-opacity="0.0" r="432.0" /><circle cx="1247.5224944038928" cy="1408.7814074255077" fill-opacity="0.0" r="432.0" /><circle cx="1251.826591979636" cy="1403.1588189863674" fill-opacity="0.0" r="432.0" /><circle cx="1255.9858921494204" cy="1397.4869536916008" fill-opacity="0.0" r="432.0" /><circle cx="1260.0" cy="1391.769145362398" fill-opacity="0.0" r="432.0" /><circle cx="1266.9588211923497" cy="1391.1517301548668" fill-opacity="0.0" r="432.0" /><circle cx="1273.950450709353" cy="1390.3856031932519" fill-opacity="0.0" r="432.0" /><circle cx="1280.971803920545" cy="1389.4694395718616" fill-opacity="0.0" r="432.0" /><circle cx="1288.0197600911179" cy="1388.4019769904755" fill-opacity="0.0" r="432.0" /><circle cx="1295.0911636316423" cy="1387.182016608372" fill-opacity="0.0" r="432.0" /><circle cx="1302.1828253665549" cy="1385.8084238737301" fill-opacity="0.0" r="432.0" /><circle cx="1309.2915238209305" cy="1384.2801293280186" fill-opacity="0.0" r="432.0" /><circle cx="1316.4140065250529" cy="1382.5961293849812" fill-opacity="0.0" r="432.0" /><circle cx="1323.5469913362872" cy="1380.7554870838478" fill-opacity="0.0" r="432.0" /><circle cx="1330.6871677777503" cy="1378.7573328164015" fill-opacity="0.0" r="432.0" /><circle cx="1333.8948442193264" cy="1372.0726075462128" fill-opacity="0.0" r="432.0" /><circle cx="1336.9461528418014" cy="1365.3676129833193" fill-opacity="0.0" r="432.0" /><circle cx="1339.841375183812" cy="1358.645760316904" fill-opacity="0.0" r="432.0" /><circle cx="1342.580864033501" cy="1351.9104445280102" fill-opacity="0.0" r="432.0" /><circle cx="1345.1650429449553" cy="1345.1650429449553" fill-opacity="0.0" r="432.0" /><circle cx="1347.5944057259783" cy="1338.4129138107469" fill-opacity="0.0" r="432.0" /><circle cx="1349.8695158974738" cy="1331.6573948630619" fill-opacity="0.0" r="432.0" /><circle cx="1351.9910061247263" cy="1324.9018019273421" fill-opacity="0.0" r="432.0" /><circle cx="1353.9595776208662" cy="1318.149427523554" fill-opacity="0.0" r="432.0" /><circle cx="1355.775999522832" cy="1311.4035394871541" fill-opacity="0.0" r="432.0" /><circle cx="1362.1039840088804" cy="1308.443301951091" fill-opacity="0.0" r="432.0" /><circle cx="1368.4119358200603" cy="1305.332099969191" fill-opacity="0.0" r="432.0" /><circle cx="1374.696503207451" cy="1302.069743543106" fill-opacity="0.0" r="432.0" /><circle cx="1380.9543219074803" cy="1298.6561138528" fill-opacity="0.0" r="432.0" /><circle cx="1387.182016608372" cy="1295.0911636316423" fill-opacity="0.0" r="432.0" /><circle cx="1393.3762024258058" cy="1291.3749175119424" fill-opacity="0.0" r="432.0" /><circle cx="1399.5334863872065" cy="1287.5074723407254" fill-opacity="0.0" r="432.0" /><circle cx="1405.6504689240676" cy="1283.4889974655507" fill-opacity="0.0" r="432.0" /><circle cx="1411.7237453717175" cy="1279.319734990191" fill-opacity="0.0" r="432.0" /><circle cx="1417.749907475931" cy="1275.0" fill-opacity="0.0" r="432.0" /><circle cx="1418.4778266629462" cy="1267.6213230353324" fill-opacity="0.0" r="432.0" /><circle cx="1419.0518756578278" cy="1260.2770801097822" fill-opacity="0.0" r="432.0" /><circle cx="1419.4734857157682" cy="1252.9703804007672" fill-opacity="0.0" r="432.0" /><circle cx="1419.744149501085" cy="1245.7042934862714" fill-opacity="0.0" r="432.0" /><circle cx="1419.8654201387437" cy="1238.4818481527623" fill-opacity="0.0" r="432.0" /><circle cx="1419.8389102430474" cy="1231.3060312241978" fill-opacity="0.0" r="432.0" /><circle cx="1419.6662909239506" cy="1224.179786412542" fill-opacity="0.0" r="432.0" /><circle cx="1419.3492907714442" cy="1217.1060131902238" fill-opacity="0.0" r="432.0" /><circle cx="1418.8896948184843" cy="1210.087565684944" fill-opacity="0.0" r="432.0" /><circle cx="1418.289343482927" cy="1203.1272515972407" fill-opacity="0.0" r="432.0" /><circle cx="1423.223242942552" cy="1198.1812400679478" fill-opacity="0.0" r="432.0" /><circle cx="1428.086684964026" cy="1193.1002199412308" fill-opacity="0.0" r="432.0" /><circle cx="1432.87645495036" cy="1187.8851590426898" fill-opacity="0.0" r="432.0" /><circle cx="1437.5893508890547" cy="1182.5370963639236" fill-opacity="0.0" r="432.0" /><circle cx="1442.2221848584006" cy="1177.0571419134453" fill-opacity="0.0" r="432.0" /><circle cx="1446.7717845323266" cy="1171.4464765366745" fill-opacity="0.0" r="432.0" /><circle cx="1451.2349946831746" cy="1165.7063517050126" fill-opacity="0.0" r="432.0" /><circle cx="1455.6086786817814" cy="1159.8380892740197" fill-opacity="0.0" r="432.0" /><circle cx="1459.889719994246" cy="1153.8430812107229" fill-opacity="0.0" r="432.0" /><circle cx="1464.0750236747613" cy="1147.7227892901028" fill-opacity="0.0" r="432.0" /><circle cx="1462.2353878103183" cy="1140.5401379705693" fill-opacity="0.0" r="432.0" /><circle cx="1460.262938396763" cy="1133.442470768665" fill-opacity="0.0" r="432.0" /><circle cx="1458.1600837753435" cy="1126.4322198373611" fill-opacity="0.0" r="432.0" /><circle cx="1455.9292764492072" cy="1119.511759115173" fill-opacity="0.0" r="432.0" /><circle cx="1453.5730117844046" cy="1112.6834035303718" fill-opacity="0.0" r="432.0" /><circle cx="1451.0938266966546" cy="1105.9494082328147" fill-opacity="0.0" r="432.0" /><circle cx="1448.4942983244378" cy="1099.3119678536464" fill-opacity="0.0" r="432.0" /><circle cx="1445.777042688989" cy="1092.7732157931155" fill-opacity="0.0" r="432.0" /><circle cx="1442.94471334177" cy="1086.335223536734" fill-opacity="0.0" r="432.0" /><circle cx="1440.0" cy="1080.0" fill-opacity="0.0" r="432.0" /><circle cx="1442.94471334177" cy="1073.6647764632662" fill-opacity="0.0" r="432.0" /><circle cx="1445.777042688989" cy="1067.2267842068848" fill-opacity="0.0" r="432.0" /><circle cx="1448.4942983244378" cy="1060.6880321463536" fill-opacity="0.0" r="432.0" /><circle cx="1451.0938266966546" cy="1054.0505917671853" fill-opacity="0.0" r="432.0" /><circle cx="1453.5730117844046" cy="1047.3165964696282" fill-opacity="0.0" r="432.0" /><circle cx="1455.9292764492072" cy="1040.488240884827" fill-opacity="0.0" r="432.0" /><circle cx="1458.1600837753438" cy="1033.5677801626389" fill-opacity="0.0" r="432.0" /><circle cx="1460.262938396763" cy="1026.557529231335" fill-opacity="0.0" r="432.0" /><circle cx="1462.2353878103183" cy="1019.4598620294307" fill-opacity="0.0" r="432.0" /><circle cx="1464.0750236747613" cy="1012.2772107098972" fill-opacity="0.0" r="432.0" /><circle cx="1459.889719994246" cy="1006.1569187892771" fill-opacity="0.0" r="432.0" /><circle cx="1455.6086786817814" cy="1000.1619107259804" fill-opacity="0.0" r="432.0" /><circle cx="1451.2349946831746" cy="994.2936482949874" fill-opacity="0.0" r="432.0" /><circle cx="1446.7717845323266" cy="988.5535234633255" fill-opacity="0.0" r="432.0" /><circle cx="1442.2221848584006" cy="982.9428580865547" fill-opacity="0.0" r="432.0" /><circle cx="1437.5893508890547" cy="977.4629036360764" fill-opacity="0.0" r="432.0" /><circle cx="1432.87645495036" cy="972.1148409573102" fill-opacity="0.0" r="432.0" /><circle cx="1428.0866849640263" cy="966.8997800587692" fill-opacity="0.0" r="432.0" /><circle cx="1423.2232429425521" cy="961.8187599320521" fill-opacity="0.0" r="432.0" /><circle cx="1418.289343482927" cy="956.8727484027593" fill-opacity="0.0" r="432.0" /><circle cx="1418.8896948184843" cy="949.912434315056" fill-opacity="0.0" r="432.0" /><circle cx="1419.3492907714442" cy="942.8939868097762" fill-opacity="0.0" r="432.0" /><circle cx="1419.6662909239503" cy="935.8202135874579" fill-opacity="0.0" r="432.0" /><circle cx="1419.8389102430474" cy="928.6939687758023" fill-opacity="0.0" r="432.0" /><circle cx="1419.8654201387437" cy="921.5181518472377" fill-opacity="0.0" r="432.0" /><circle cx="1419.744149501085" cy="914.2957065137286" fill-opacity="0.0" r="432.0" /><circle cx="1419.4734857157682" cy="907.0296195992327" fill-opacity="0.0" r="432.0" /><circle cx="1419.0518756578278" cy="899.7229198902179" fill-opacity="0.0" r="432.0" /><circle cx="1418.4778266629462" cy="892.3786769646676" fill-opacity="0.0" r="432.0" /><circle cx="1417.7499074759312" cy="885.0000000000001" fill-opacity="0.0" r="432.0" /><circle cx="1411.7237453717175" cy="880.680265009809" fill-opacity="0.0" r="432.0" /><circle cx="1405.6504689240676" cy="876.5110025344493" fill-opacity="0.0" r="432.0" /><circle cx="1399.5334863872065" cy="872.4925276592746" fill-opacity="0.0" r="432.0" /><circle cx="1393.3762024258058" cy="868.6250824880577" fill-opacity="0.0" r="432.0" /><circle cx="1387.182016608372" cy="864.9088363683577" fill-opacity="0.0" r="432.0" /><circle cx="1380.9543219074803" cy="861.3438861472" fill-opacity="0.0" r="432.0" /><circle cx="1374.696503207451" cy="857.9302564568941" fill-opacity="0.0" r="432.0" /><circle cx="1368.4119358200603" cy="854.667900030809" fill-opacity="0.0" r="432.0" /><circle cx="1362.1039840088806" cy="851.5566980489091" fill-opacity="0.0" r="432.0" /><circle cx="1355.775999522832" cy="848.5964605128459" fill-opacity="0.0" r="432.0" /><circle cx="1353.9595776208662" cy="841.8505724764459" fill-opacity="0.0" r="432.0" /><circle cx="1351.9910061247263" cy="835.0981980726579" fill-opacity="0.0" r="432.0" /><circle cx="1349.869515897474" cy="828.3426051369381" fill-opacity="0.0" r="432.0" /><circle cx="1347.5944057259783" cy="821.587086189253" fill-opacity="0.0" r="432.0" /><circle cx="1345.1650429449553" cy="814.8349570550447" fill-opacity="0.0" r="432.0" /><circle cx="1342.5808640335008" cy="808.0895554719898" fill-opacity="0.0" r="432.0" /><circle cx="1339.841375183812" cy="801.354239683096" fill-opacity="0.0" r="432.0" /><circle cx="1336.9461528418017" cy="794.6323870166807" fill-opacity="0.0" r="432.0" /><circle cx="1333.8948442193264" cy="787.9273924537872" fill-opacity="0.0" r="432.0" /><circle cx="1330.6871677777503" cy="781.2426671835985" fill-opacity="0.0" r="432.0" /><circle cx="1323.5469913362872" cy="779.2445129161522" fill-opacity="0.0" r="432.0" /><circle cx="1316.4140065250529" cy="777.4038706150188" fill-opacity="0.0" r="432.0" /><circle cx="1309.2915238209303" cy="775.7198706719814" fill-opacity="0.0" r="432.0" /><circle cx="1302.1828253665549" cy="774.1915761262699" fill-opacity="0.0" r="432.0" /><circle cx="1295.0911636316423" cy="772.8179833916281" fill-opacity="0.0" r="432.0" /><circle cx="1288.0197600911179" cy="771.5980230095245" fill-opacity="0.0" r="432.0" /><circle cx="1280.971803920545" cy="770.5305604281386" fill-opacity="0.0" r="432.0" /><circle cx="1273.950450709353" cy="769.6143968067481" fill-opacity="0.0" r="432.0" /><circle cx="1266.9588211923497" cy="768.8482698451332" fill-opacity="0.0" r="432.0" /><circle cx="1260.0" cy="768.2308546376021" fill-opacity="0.0" r="432.0" /><circle cx="1255.9858921494204" cy="762.5130463083993" fill-opacity="0.0" r="432.0" /><circle cx="1251.826591979636" cy="756.8411810136326" fill-opacity="0.0" r="432.0" /><circle cx="1247.5224944038928" cy="751.2185925744923" fill-opacity="0.0" r="432.0" /><circle cx="1243.0740666055367" cy="745.6486147767098" fill-opacity="0.0" r="432.0" /><circle cx="1238.4818481527623" cy="740.1345798612563" fill-opacity="0.0" r="432.0" /><circle cx="1233.7464510826526" cy="734.6798170110969" fill-opacity="0.0" r="432.0" /><circle cx="1228.8685599544133" cy="729.2876508346202" fill-opacity="0.0" r="432.0" /><circle cx="1223.8489318717102" cy="723.9613998463537" fill-opacity="0.0" r="432.0" /><circle cx="1218.6883964740312" cy="718.7043749455829" fill-opacity="0.0" r="432.0" /><circle cx="1213.387855897011" cy="713.5198778934957" fill-opacity="0.0" r="432.0" /><circle cx="1205.9948757749196" cy="714.0843112430643" fill-opacity="0.0" r="432.0" /><circle cx="1198.66252583998" cy="714.794297742661" fill-opacity="0.0" r="432.0" /><circle cx="1191.3936194993626" cy="715.6478879780834" fill-opacity="0.0" r="432.0" /><circle cx="1184.1909204988258" cy="716.6430789353154" fill-opacity="0.0" r="432.0" /><circle cx="1177.0571419134453" cy="717.7778151415994" fill-opacity="0.0" r="432.0" /><circle cx="1169.9949451630764" cy="719.0499898253292" fill-opacity="0.0" r="432.0" /><circle cx="1163.0069390528863" cy="720.4574460942482" fill-opacity="0.0" r="432.0" /><circle cx="1156.0956788392998" cy="721.9979781314271" fill-opacity="0.0" r="432.0" /><circle cx="1149.2636653216857" cy="723.6693324084979" fill-opacity="0.0" r="432.0" /><circle cx="1142.513343960095" cy="725.4692089156051" fill-opacity="0.0" r="432.0" /><circle cx="1136.7857108096039" cy="721.469132363965" fill-opacity="0.0" r="432.0" /><circle cx="1130.937354951384" cy="717.5618868405852" fill-opacity="0.0" r="432.0" /><circle cx="1124.9697877164995" cy="713.7504700443521" fill-opacity="0.0" r="432.0" /><circle cx="1118.8845883355673" cy="710.0378549230023" fill-opacity="0.0" r="432.0" /><circle cx="1112.6834035303718" cy="706.4269882155954" fill-opacity="0.0" r="432.0" /><circle cx="1106.3679470752795" cy="702.9207890017865" fill-opacity="0.0" r="432.0" /><circle cx="1099.9399993285615" cy="699.5221472585074" fill-opacity="0.0" r="432.0" /><circle cx="1093.4014067337605" cy="696.2339224246673" fill-opacity="0.0" r="432.0" /><circle cx="1086.7540812912287" cy="693.0589419744765" fill-opacity="0.0" r="432.0" /><circle cx="1080.0" cy="690.0" fill-opacity="0.0" r="432.0" /><circle cx="1073.2459187087713" cy="693.0589419744765" fill-opacity="0.0" r="432.0" /><circle cx="1066.5985932662397" cy="696.2339224246673" fill-opacity="0.0" r="432.0" /><circle cx="1060.0600006714385" cy="699.5221472585074" fill-opacity="0.0" r="432.0" /><circle cx="1053.6320529247207" cy="702.9207890017865" fill-opacity="0.0" r="432.0" /><circle cx="1047.3165964696282" cy="706.4269882155954" fill-opacity="0.0" r="432.0" /><circle cx="1041.115411664433" cy="710.0378549230023" fill-opacity="0.0" r="432.0" /><circle cx="1035.0302122835005" cy="713.7504700443521" fill-opacity="0.0" r="432.0" /><circle cx="1029.062645048616" cy="717.5618868405853" fill-opacity="0.0" r="432.0" /><circle cx="1023.2142891903962" cy="721.469132363965" fill-opacity="0.0" r="432.0" /><circle cx="1017.486656039905" cy="725.4692089156051" fill-opacity="0.0" r="432.0" /><circle cx="1010.7363346783143" cy="723.6693324084979" fill-opacity="0.0" r="432.0" /><circle cx="1003.9043211607" cy="721.9979781314271" fill-opacity="0.0" r="432.0" /><circle cx="996.9930609471138" cy="720.4574460942482" fill-opacity="0.0" r="432.0" /><circle cx="990.0050548369237" cy="719.0499898253292" fill-opacity="0.0" r="432.0" /><circle cx="982.9428580865547" cy="717.7778151415994" fill-opacity="0.0" r="432.0" /><circle cx="975.8090795011744" cy="716.6430789353154" fill-opacity="0.0" r="432.0" /><circle cx="968.6063805006373" cy="715.6478879780834" fill-opacity="0.0" r="432.0" /><circle cx="961.3374741600203" cy="714.794297742661" fill-opacity="0.0" r="432.0" /><circle cx="954.0051242250803" cy="714.0843112430643" fill-opacity="0.0" r="432.0" /><circle cx="946.6121441029892" cy="713.5198778934957" fill-opacity="0.0" r="432.0" /><circle cx="941.3116035259687" cy="718.7043749455829" fill-opacity="0.0" r="432.0" /><circle cx="936.1510681282898" cy="723.9613998463536" fill-opacity="0.0" r="432.0" /><circle cx="931.1314400455867" cy="729.2876508346202" fill-opacity="0.0" r="432.0" /><circle cx="926.2535489173475" cy="734.6798170110969" fill-opacity="0.0" r="432.0" /><circle cx="921.5181518472377" cy="740.1345798612563" fill-opacity="0.0" r="432.0" /><circle cx="916.9259333944632" cy="745.6486147767099" fill-opacity="0.0" r="432.0" /><circle cx="912.4775055961072" cy="751.2185925744923" fill-opacity="0.0" r="432.0" /><circle cx="908.1734080203639" cy="756.8411810136328" fill-opacity="0.0" r="432.0" /><circle cx="904.0141078505796" cy="762.5130463083992" fill-opacity="0.0" r="432.0" /><circle cx="900.0" cy="768.2308546376021" fill-opacity="0.0" r="432.0" /><circle cx="893.0411788076503" cy="768.8482698451332" fill-opacity="0.0" r="432.0" /><circle cx="886.0495492906471" cy="769.6143968067481" fill-opacity="0.0" r="432.0" /><circle cx="879.028196079455" cy="770.5305604281385" fill-opacity="0.0" r="432.0" /><circle cx="871.9802399088823" cy="771.5980230095245" fill-opacity="0.0" r="432.0" /><circle cx="864.9088363683577" cy="772.8179833916281" fill-opacity="0.0" r="432.0" /><circle cx="857.8171746334452" cy="774.1915761262699" fill-opacity="0.0" r="432.0" /><circle cx="850.7084761790695" cy="775.7198706719814" fill-opacity="0.0" r="432.0" /><circle cx="843.5859934749473" cy="777.4038706150187" fill-opacity="0.0" r="432.0" /><circle cx="836.4530086637128" cy="779.2445129161523" fill-opacity="0.0" r="432.0" /><circle cx="829.3128322222497" cy="781.2426671835985" fill-opacity="0.0" r="432.0" /><circle cx="826.1051557806738" cy="787.9273924537872" fill-opacity="0.0" r="432.0" /><circle cx="823.0538471581984" cy="794.6323870166806" fill-opacity="0.0" r="432.0" /><circle cx="820.1586248161882" cy="801.354239683096" fill-opacity="0.0" r="432.0" /><circle cx="817.419135966499" cy="808.0895554719899" fill-opacity="0.0" r="432.0" /><circle cx="814.8349570550447" cy="814.8349570550447" fill-opacity="0.0" r="432.0" /><circle cx="812.4055942740217" cy="821.587086189253" fill-opacity="0.0" r="432.0" /><circle cx="810.1304841025261" cy="828.342605136938" fill-opacity="0.0" r="432.0" /><circle cx="808.0089938752737" cy="835.098198072658" fill-opacity="0.0" r="432.0" /><circle cx="806.0404223791338" cy="841.8505724764459" fill-opacity="0.0" r="432.0" /><circle cx="804.2240004771679" cy="848.5964605128459" fill-opacity="0.0" r="432.0" /><circle cx="797.8960159911196" cy="851.5566980489089" fill-opacity="0.0" r="432.0" /><circle cx="791.5880641799397" cy="854.6679000308092" fill-opacity="0.0" r="432.0" /><circle cx="785.3034967925489" cy="857.9302564568942" fill-opacity="0.0" r="432.0" /><circle cx="779.0456780925197" cy="861.3438861472" fill-opacity="0.0" r="432.0" /><circle cx="772.8179833916281" cy="864.9088363683576" fill-opacity="0.0" r="432.0" /><circle cx="766.6237975741942" cy="868.6250824880578" fill-opacity="0.0" r="432.0" /><circle cx="760.4665136127934" cy="872.4925276592747" fill-opacity="0.0" r="432.0" /><circle cx="754.3495310759324" cy="876.5110025344493" fill-opacity="0.0" r="432.0" /><circle cx="748.2762546282827" cy="880.680265009809" fill-opacity="0.0" r="432.0" /><circle cx="742.250092524069" cy="884.9999999999998" fill-opacity="0.0" r="432.0" /><circle cx="741.5221733370538" cy="892.3786769646676" fill-opacity="0.0" r="432.0" /><circle cx="740.948124342172" cy="899.722919890218" fill-opacity="0.0" r="432.0" /><circle cx="740.5265142842319" cy="907.0296195992327" fill-opacity="0.0" r="432.0" /><circle cx="740.2558504989149" cy="914.2957065137286" fill-opacity="0.0" r="432.0" /><circle cx="740.1345798612563" cy="921.5181518472378" fill-opacity="0.0" r="432.0" /><circle cx="740.1610897569524" cy="928.6939687758024" fill-opacity="0.0" r="432.0" /><circle cx="740.3337090760496" cy="935.8202135874579" fill-opacity="0.0" r="432.0" /><circle cx="740.6507092285558" cy="942.8939868097762" fill-opacity="0.0" r="432.0" /><circle cx="741.1103051815157" cy="949.9124343150559" fill-opacity="0.0" r="432.0" /><circle cx="741.710656517073" cy="956.8727484027593" fill-opacity="0.0" r="432.0" /><circle cx="736.776757057448" cy="961.8187599320521" fill-opacity="0.0" r="432.0" /><circle cx="731.9133150359738" cy="966.8997800587692" fill-opacity="0.0" r="432.0" /><circle cx="727.1235450496399" cy="972.11484095731" fill-opacity="0.0" r="432.0" /><circle cx="722.4106491109453" cy="977.4629036360764" fill-opacity="0.0" r="432.0" /><circle cx="717.7778151415994" cy="982.9428580865548" fill-opacity="0.0" r="432.0" /><circle cx="713.2282154676734" cy="988.5535234633255" fill-opacity="0.0" r="432.0" /><circle cx="708.7650053168254" cy="994.2936482949873" fill-opacity="0.0" r="432.0" /><circle cx="704.3913213182186" cy="1000.1619107259803" fill-opacity="0.0" r="432.0" /><circle cx="700.110280005754" cy="1006.1569187892773" fill-opacity="0.0" r="432.0" /><circle cx="695.9249763252388" cy="1012.2772107098972" fill-opacity="0.0" r="432.0" /><circle cx="697.7646121896817" cy="1019.4598620294306" fill-opacity="0.0" r="432.0" /><circle cx="699.737061603237" cy="1026.5575292313347" fill-opacity="0.0" r="432.0" /><circle cx="701.8399162246562" cy="1033.5677801626389" fill-opacity="0.0" r="432.0" /><circle cx="704.0707235507926" cy="1040.488240884827" fill-opacity="0.0" r="432.0" /><circle cx="706.4269882155954" cy="1047.3165964696282" fill-opacity="0.0" r="432.0" /><circle cx="708.9061733033454" cy="1054.0505917671853" fill-opacity="0.0" r="432.0" /><circle cx="711.5057016755622" cy="1060.6880321463536" fill-opacity="0.0" r="432.0" /><circle cx="714.222957311011" cy="1067.2267842068848" fill-opacity="0.0" r="432.0" /><circle cx="717.05528665823" cy="1073.664776463266" fill-opacity="0.0" r="432.0" /><circle cx="720.0" cy="1080.0" fill-opacity="0.0" r="432.0" /><circle cx="717.05528665823" cy="1086.3352235367338" fill-opacity="0.0" r="432.0" /><circle cx="714.222957311011" cy="1092.7732157931155" fill-opacity="0.0" r="432.0" /><circle cx="711.5057016755622" cy="1099.3119678536464" fill-opacity="0.0" r="432.0" /><circle cx="708.9061733033454" cy="1105.9494082328147" fill-opacity="0.0" r="432.0" /><circle cx="706.4269882155954" cy="1112.6834035303716" fill-opacity="0.0" r="432.0" /><circle cx="704.0707235507926" cy="1119.511759115173" fill-opacity="0.0" r="432.0" /><circle cx="701.8399162246563" cy="1126.4322198373613" fill-opacity="0.0" r="432.0" /><circle cx="699.737061603237" cy="1133.442470768665" fill-opacity="0.0" r="432.0" /><circle cx="697.7646121896817" cy="1140.5401379705693" fill-opacity="0.0" r="432.0" /><circle cx="695.9249763252388" cy="1147.7227892901026" fill-opacity="0.0" r="432.0" /><circle cx="700.110280005754" cy="1153.8430812107229" fill-opacity="0.0" r="432.0" /><circle cx="704.3913213182186" cy="1159.8380892740197" fill-opacity="0.0" r="432.0" /><circle cx="708.7650053168254" cy="1165.7063517050126" fill-opacity="0.0" r="432.0" /><circle cx="713.2282154676733" cy="1171.4464765366743" fill-opacity="0.0" r="432.0" /><circle cx="717.7778151415994" cy="1177.057141913445" fill-opacity="0.0" r="432.0" /><circle cx="722.4106491109454" cy="1182.5370963639239" fill-opacity="0.0" r="432.0" /><circle cx="727.1235450496399" cy="1187.8851590426898" fill-opacity="0.0" r="432.0" /><circle cx="731.9133150359737" cy="1193.1002199412308" fill-opacity="0.0" r="432.0" /><circle cx="736.7767570574479" cy="1198.1812400679478" fill-opacity="0.0" r="432.0" /><circle cx="741.710656517073" cy="1203.127251597241" fill-opacity="0.0" r="432.0" /><circle cx="741.1103051815157" cy="1210.087565684944" fill-opacity="0.0" r="432.0" /><circle cx="740.6507092285558" cy="1217.1060131902238" fill-opacity="0.0" r="432.0" /><circle cx="740.3337090760494" cy="1224.179786412542" fill-opacity="0.0" r="432.0" /><circle cx="740.1610897569524" cy="1231.3060312241976" fill-opacity="0.0" r="432.0" /><circle cx="740.1345798612563" cy="1238.4818481527623" fill-opacity="0.0" r="432.0" /><circle cx="740.2558504989149" cy="1245.7042934862714" fill-opacity="0.0" r="432.0" /><circle cx="740.5265142842318" cy="1252.9703804007672" fill-opacity="0.0" r="432.0" /><circle cx="740.9481243421719" cy="1260.277080109782" fill-opacity="0.0" r="432.0" /><circle cx="741.5221733370539" cy="1267.6213230353326" fill-opacity="0.0" r="432.0" /><circle cx="742.250092524069" cy="1275.0" fill-opacity="0.0" r="432.0" /><circle cx="748.2762546282825" cy="1279.319734990191" fill-opacity="0.0" r="432.0" /><circle cx="754.3495310759324" cy="1283.4889974655507" fill-opacity="0.0" r="432.0" /><circle cx="760.4665136127933" cy="1287.5074723407251" fill-opacity="0.0" r="432.0" /><circle cx="766.6237975741942" cy="1291.3749175119424" fill-opacity="0.0" r="432.0" /><circle cx="772.8179833916281" cy="1295.0911636316423" fill-opacity="0.0" r="432.0" /><circle cx="779.0456780925194" cy="1298.6561138528" fill-opacity="0.0" r="432.0" /><circle cx="785.3034967925489" cy="1302.0697435431057" fill-opacity="0.0" r="432.0" /><circle cx="791.5880641799398" cy="1305.332099969191" fill-opacity="0.0" r="432.0" /><circle cx="797.8960159911196" cy="1308.443301951091" fill-opacity="0.0" r="432.0" /><circle cx="804.2240004771679" cy="1311.4035394871541" fill-opacity="0.0" r="432.0" /><circle cx="806.0404223791337" cy="1318.149427523554" fill-opacity="0.0" r="432.0" /><circle cx="808.0089938752735" cy="1324.901801927342" fill-opacity="0.0" r="432.0" /><circle cx="810.1304841025262" cy="1331.6573948630619" fill-opacity="0.0" r="432.0" /><circle cx="812.4055942740217" cy="1338.4129138107469" fill-opacity="0.0" r="432.0" /><circle cx="814.8349570550447" cy="1345.1650429449553" fill-opacity="0.0" r="432.0" /><circle cx="817.419135966499" cy="1351.91044452801" fill-opacity="0.0" r="432.0" /><circle cx="820.1586248161882" cy="1358.645760316904" fill-opacity="0.0" r="432.0" /><circle cx="823.0538471581986" cy="1365.3676129833193" fill-opacity="0.0" r="432.0" /><circle cx="826.1051557806736" cy="1372.0726075462128" fill-opacity="0.0" r="432.0" /><circle cx="829.3128322222495" cy="1378.7573328164012" fill-opacity="0.0" r="432.0" /><circle cx="836.4530086637128" cy="1380.7554870838476" fill-opacity="0.0" r="432.0" /><circle cx="843.5859934749473" cy="1382.5961293849814" fill-opacity="0.0" r="432.0" /><circle cx="850.7084761790696" cy="1384.2801293280186" fill-opacity="0.0" r="432.0" /><circle cx="857.8171746334451" cy="1385.8084238737301" fill-opacity="0.0" r="432.0" /><circle cx="864.9088363683576" cy="1387.182016608372" fill-opacity="0.0" r="432.0" /><circle cx="871.9802399088823" cy="1388.4019769904755" fill-opacity="0.0" r="432.0" /><circle cx="879.028196079455" cy="1389.4694395718616" fill-opacity="0.0" r="432.0" /><circle cx="886.049549290647" cy="1390.3856031932519" fill-opacity="0.0" r="432.0" /><circle cx="893.0411788076502" cy="1391.1517301548668" fill-opacity="0.0" r="432.0" /><circle cx="899.9999999999998" cy="1391.769145362398" fill-opacity="0.0" r="432.0" /><circle cx="904.0141078505796" cy="1397.4869536916008" fill-opacity="0.0" r="432.0" /><circle cx="908.1734080203639" cy="1403.1588189863674" fill-opacity="0.0" r="432.0" /><circle cx="912.4775055961072" cy="1408.7814074255077" fill-opacity="0.0" r="432.0" /><circle cx="916.9259333944631" cy="1414.35138522329" fill-opacity="0.0" r="432.0" /><circle cx="921.5181518472377" cy="1419.8654201387437" fill-opacity="0.0" r="432.0" /><circle cx="926.2535489173475" cy="1425.320182988903" fill-opacity="0.0" r="432.0" /><circle cx="931.1314400455867" cy="1430.7123491653797" fill-opacity="0.0" r="432.0" /><circle cx="936.1510681282897" cy="1436.0386001536463" fill-opacity="0.0" r="432.0" /><circle cx="941.3116035259686" cy="1441.295625054417" fill-opacity="0.0" r="432.0" /><circle cx="946.6121441029893" cy="1446.4801221065043" fill-opacity="0.0" r="432.0" /><circle cx="954.0051242250804" cy="1445.9156887569357" fill-opacity="0.0" r="432.0" /><circle cx="961.3374741600201" cy="1445.205702257339" fill-opacity="0.0" r="432.0" /><circle cx="968.6063805006371" cy="1444.3521120219166" fill-opacity="0.0" r="432.0" /><circle cx="975.8090795011744" cy="1443.3569210646847" fill-opacity="0.0" r="432.0" /><circle cx="982.9428580865548" cy="1442.2221848584006" fill-opacity="0.0" r="432.0" /><circle cx="990.0050548369236" cy="1440.9500101746708" fill-opacity="0.0" r="432.0" /><circle cx="996.9930609471137" cy="1439.542553905752" fill-opacity="0.0" r="432.0" /><circle cx="1003.9043211606999" cy="1438.002021868573" fill-opacity="0.0" r="432.0" /><circle cx="1010.7363346783143" cy="1436.330667591502" fill-opacity="0.0" r="432.0" /><circle cx="1017.486656039905" cy="1434.5307910843949" fill-opacity="0.0" r="432.0" /><circle cx="1023.2142891903961" cy="1438.530867636035" fill-opacity="0.0" r="432.0" /><circle cx="1029.0626450486159" cy="1442.4381131594146" fill-opacity="0.0" r="432.0" /><circle cx="1035.0302122835008" cy="1446.2495299556479" fill-opacity="0.0" r="432.0" /><circle cx="1041.115411664433" cy="1449.9621450769978" fill-opacity="0.0" r="432.0" /><circle cx="1047.3165964696282" cy="1453.5730117844046" fill-opacity="0.0" r="432.0" /><circle cx="1053.6320529247205" cy="1457.0792109982135" fill-opacity="0.0" r="432.0" /><circle cx="1060.0600006714383" cy="1460.4778527414926" fill-opacity="0.0" r="432.0" /><circle cx="1066.5985932662397" cy="1463.7660775753327" fill-opacity="0.0" r="432.0" /><circle cx="1073.2459187087713" cy="1466.9410580255235" fill-opacity="0.0" r="432.0" /></g><linearGradient id="id3" x1="0" x2="1" y1="0" y2="1"><stop offset="0.0" stop-color="#FF0" /><stop offset="0.3333333333333333" stop-color="#0FF" /><stop offset="0.6666666666666666" stop-color="#F0F" /><stop offset="1" stop-color="#FF0" /></linearGradient></svg>