<?xml version="1.0" encoding="utf-8" ?>
<svg baseProfile="full" height="2160" version="1.1" width="2160" xmlns="http://www.w3.org/2000/svg" xmlns:ev="http://www.w3.org/2001/xml-events" xmlns:xlink="http://www.w3.org/1999/xlink"><defs /><g fill="none" id="shape_group" stroke="url(#id1) none" stroke-width="1"><rect fill="#000" height="2160" stroke="#000" width="2160" x="0" y="0" /><circle cx="1080.0" cy="1440.0" fill-opacity="0.0" r="432.0" /><circle cx="1086.282866317422" cy="1439.9451702563008" fill-opacity="0.0" r="432.0" /><circle cx="1092.5638188129003" cy="1439.7806977268745" fill-opacity="0.0" r="432.0" /><circle cx="1098.8409442474597" cy="1439.5066325116466" fill-opacity="0.0" r="432.0" /><circle cx="1105.112330547885" cy="1439.1230580935367" fill-opacity="0.0" r="432.0" /><circle cx="1111.376067389157" cy="1438.6300913130285" fill-opacity="0.0" r="432.0" /><circle cx="1117.6302467763553" cy="1438.0278823325784" fill-opacity="0.0" r="432.0" /><circle cx="1123.8729636258531" cy="1437.3166145908758" fill-opacity="0.0" r="432.0" /><circle cx="1130.1023163456236" cy="1436.4965047469655" fill-opacity="0.0" r="432.0" /><circle cx="1136.3164074144831" cy="1435.5678026142496" fill-opacity="0.0" r="432.0" /><circle cx="1142.513343960095" cy="1434.5307910843949" fill-opacity="0.0" r="432.0" /><circle cx="1148.6912383355561" cy="1433.385786041159" fill-opacity="0.0" r="432.0" /><circle cx="1154.8482086943934" cy="1432.13313626417" fill-opacity="0.0" r="432.0" /><circle cx="1160.9823795637915" cy="1430.7732233226848" fill-opacity="0.0" r="432.0" /><circle cx="1167.0918824158803" cy="1429.3064614593586" fill-opacity="0.0" r="432.0" /><circle cx="1173.1748562369075" cy="1427.7332974640647" fill-opacity="0.0" r="432.0" /><circle cx="1179.2294480941198" cy="1426.054210537795" fill-opacity="0.0" r="432.0" /><circle cx="1185.2538137001852" cy="1424.2697121466927" fill-opacity="0.0" r="432.0" /><circle cx="1191.246117974981" cy="1422.3803458662553" fill-opacity="0.0" r="432.0" /><circle cx="1197.2045356045764" cy="1420.3866872157541" fill-opacity="0.0" r="432.0" /><circle cx="1203.1272515972407" cy="1418.289343482927" fill-opacity="0.0" r="432.0" /><circle cx="1209.0124618363081" cy="1416.0889535389927" fill-opacity="0.0" r="432.0" /><circle cx="1214.8583736297282" cy="1413.7861876440434" fill-opacity="0.0" r="432.0" /><circle cx="1220.6632062561384" cy="1411.3817472428786" fill-opacity="0.0" r="432.0" /><circle cx="1226.425191507288" cy="1408.8763647513363" fill-opacity="0.0" r="432.0" /><circle cx="1232.1425742266517" cy="1406.270803333194" fill-opacity="0.0" r="432.0" /><circle cx="1237.8136128440678" cy="1403.5658566677002" fill-opacity="0.0" r="432.0" /><circle cx="1243.4365799062368" cy="1400.7623487078124" fill-opacity="0.0" r="432.0" /><circle cx="1249.0097626029208" cy="1397.8611334292136" fill-opacity="0.0" r="432.0" /><circle cx="1254.5314632886814" cy="1394.8630945701825" fill-opacity="0.0" r="432.0" /><circle cx="1260.0" cy="1391.769145362398" fill-opacity="0.0" r="432.0" /><circle cx="1265.4137069676194" cy="1388.5802282527604" fill-opacity="0.0" r="432.0" /><circle cx="1270.7709351239537" cy="1385.2973146163133" fill-opacity="0.0" r="432.0" /><circle cx="1276.0700526054097" cy="1381.9214044603527" fill-opacity="0.0" r="432.0" /><circle cx="1281.3094452494688" cy="1378.453526119815" fill-opacity="0.0" r="432.0" /><circle cx="1286.4875170863766" cy="1374.8947359440372" fill-opacity="0.0" r="432.0" /><circle cx="1291.6026908252902" cy="1371.2461179749812" fill-opacity="0.0" r="432.0" /><circle cx="1296.6534083347374" cy="1367.5087836170255" fill-opacity="0.0" r="432.0" /><circle cx="1301.638131117237" cy="1363.68387129842" fill-opacity="0.0" r="432.0" /><circle cx="1306.5553407779414" cy="1359.7725461245095" fill-opacity="0.0" r="432.0" /><circle cx="1311.4035394871541" cy="1355.775999522832" fill-opacity="0.0" r="432.0" /><circle cx="1316.1812504365826" cy="1351.695448880198" fill-opacity="0.0" r="432.0" /><circle cx="1320.887018289189" cy="1347.532137171862" fill-opacity="0.0" r="432.0" /><circle cx="1325.5194096224996" cy="1343.2873325829014" fill-opacity="0.0" r="432.0" /><circle cx="1330.077013365239" cy="1338.9623281219144" fill-opacity="0.0" r="432.0" /><circle cx="1334.5584412271571" cy="1334.5584412271571" fill-opacity="0.0" r="432.0" /><circle cx="1338.9623281219144" cy="1330.077013365239" fill-opacity="0.0" r="432.0" /><circle cx="1343.2873325829014" cy="1325.5194096224996" fill-opacity="0.0" r="432.0" /><circle cx="1347.532137171862" cy="1320.887018289189" fill-opacity="0.0" r="432.0" /><circle cx="1351.695448880198" cy="1316.1812504365826" fill-opacity="0.0" r="432.0" /><circle cx="1355.775999522832" cy="1311.4035394871541" fill-opacity="0.0" r="432.0" /><circle cx="1359.7725461245095" cy="1306.5553407779414" fill-opacity="0.0" r="432.0" /><circle cx="1363.68387129842" cy="1301.638131117237" fill-opacity="0.0" r="432.0" /><circle cx="1367.5087836170255" cy="1296.6534083347374" fill-opacity="0.0" r="432.0" /><circle cx="1371.2461179749812" cy="1291.6026908252902" fill-opacity="0.0" r="432.0" /><circle cx="1374.8947359440372" cy="1286.4875170863766" fill-opacity="0.0" r="432.0" /><circle cx="1378.453526119815" cy="1281.3094452494688" fill-opacity="0.0" r="432.0" /><circle cx="1381.9214044603527" cy="1276.0700526054097" fill-opacity="0.0" r="432.0" /><circle cx="1385.2973146163133" cy="1270.7709351239537" fill-opacity="0.0" r="432.0" /><circle cx="1388.5802282527604" cy="1265.4137069676194" fill-opacity="0.0" r="432.0" /><circle cx="1391.769145362398" cy="1260.0" fill-opacity="0.0" r="432.0" /><circle cx="1394.8630945701825" cy="1254.5314632886814" fill-opacity="0.0" r="432.0" /><circle cx="1397.8611334292136" cy="1249.0097626029208" fill-opacity="0.0" r="432.0" /><circle cx="1400.7623487078124" cy="1243.4365799062368" fill-opacity="0.0" r="432.0" /><circle cx="1403.5658566677002" cy="1237.8136128440678" fill-opacity="0.0" r="432.0" /><circle cx="1406.270803333194" cy="1232.1425742266517" fill-opacity="0.0" r="432.0" /><circle cx="1408.8763647513363" cy="1226.425191507288" fill-opacity="0.0" r="432.0" /><circle cx="1411.3817472428786" cy="1220.6632062561384" fill-opacity="0.0" r="432.0" /><circle cx="1413.7861876440434" cy="1214.8583736297282" fill-opacity="0.0" r="432.0" /><circle cx="1416.0889535389927" cy="1209.0124618363081" fill-opacity="0.0" r="432.0" /><circle cx="1418.289343482927" cy="1203.1272515972407" fill-opacity="0.0" r="432.0" /><circle cx="1420.3866872157541" cy="1197.2045356045764" fill-opacity="0.0" r="432.0" /><circle cx="1422.3803458662553" cy="1191.2461179749812" fill-opacity="0.0" r="432.0" /><circle cx="1424.2697121466927" cy="1185.2538137001852" fill-opacity="0.0" r="432.0" /><circle cx="1426.054210537795" cy="1179.2294480941198" fill-opacity="0.0" r="432.0" /><circle cx="1427.7332974640647" cy="1173.1748562369075" fill-opacity="0.0" r="432.0" /><circle cx="1429.3064614593586" cy="1167.0918824158803" fill-opacity="0.0" r="432.0" /><circle cx="1430.7732233226848" cy="1160.9823795637913" fill-opacity="0.0" r="432.0" /><circle cx="1432.13313626417" cy="1154.8482086943934" fill-opacity="0.0" r="432.0" /><circle cx="1433.385786041159" cy="1148.6912383355561" fill-opacity="0.0" r="432.0" /><circle cx="1434.5307910843949" cy="1142.513343960095" fill-opacity="0.0" r="432.0" /><circle cx="1435.5678026142496" cy="1136.3164074144831" fill-opacity="0.0" r="432.0" /><circle cx="1436.4965047469655" cy="1130.1023163456236" fill-opacity="0.0" r="432.0" /><circle cx="1437.3166145908758" cy="1123.8729636258531" fill-opacity="0.0" r="432.0" /><circle cx="1438.0278823325784" cy="1117.6302467763553" fill-opacity="0.0" r="432.0" /><circle cx="1438.6300913130285" cy="1111.376067389157" fill-opacity="0.0" r="432.0" /><circle cx="1439.1230580935367" cy="1105.112330547885" fill-opacity="0.0" r="432.0" /><circle cx="1439.5066325116466" cy="1098.84094424746" fill-opacity="0.0" r="432.0" /><circle cx="1439.7806977268745" cy="1092.5638188129003" fill-opacity="0.0" r="432.0" /><circle cx="1439.9451702563008" cy="1086.282866317422" fill-opacity="0.0" r="432.0" /><circle cx="1440.0" cy="1080.0" fill-opacity="0.0" r="432.0" /><circle cx="1439.9451702563008" cy="1073.717133682578" fill-opacity="0.0" r="432.0" /><circle cx="1439.7806977268745" cy="1067.4361811870997" fill-opacity="0.0" r="432.0" /><circle cx="1439.5066325116466" cy="1061.1590557525403" fill-opacity="0.0" r="432.0" /><circle cx="1439.1230580935367" cy="1054.8876694521148" fill-opacity="0.0" r="432.0" /><circle cx="1438.6300913130285" cy="1048.623932610843" fill-opacity="0.0" r="432.0" /><circle cx="1438.0278823325784" cy="1042.3697532236447" fill-opacity="0.0" r="432.0" /><circle cx="1437.3166145908758" cy="1036.1270363741469" fill-opacity="0.0" r="432.0" /><circle cx="1436.4965047469655" cy="1029.8976836543766" fill-opacity="0.0" r="432.0" /><circle cx="1435.5678026142496" cy="1023.6835925855169" fill-opacity="0.0" r="432.0" /><circle cx="1434.5307910843949" cy="1017.4866560399051" fill-opacity="0.0" r="432.0" /><circle cx="1433.385786041159" cy="1011.3087616644439" fill-opacity="0.0" r="432.0" /><circle cx="1432.13313626417" cy="1005.1517913056066" fill-opacity="0.0" r="432.0" /><circle cx="1430.7732233226848" cy="999.0176204362086" fill-opacity="0.0" r="432.0" /><circle cx="1429.3064614593586" cy="992.9081175841196" fill-opacity="0.0" r="432.0" /><circle cx="1427.7332974640647" cy="986.8251437630925" fill-opacity="0.0" r="432.0" /><circle cx="1426.054210537795" cy="980.7705519058803" fill-opacity="0.0" r="432.0" /><circle cx="1424.2697121466927" cy="974.7461862998148" fill-opacity="0.0" r="432.0" /><circle cx="1422.3803458662553" cy="968.7538820250189" fill-opacity="0.0" r="432.0" /><circle cx="1420.3866872157541" cy="962.7954643954236" fill-opacity="0.0" r="432.0" /><circle cx="1418.289343482927" cy="956.8727484027593" fill-opacity="0.0" r="432.0" /><circle cx="1416.0889535389927" cy="950.9875381636919" fill-opacity="0.0" r="432.0" /><circle cx="1413.7861876440434" cy="945.1416263702716" fill-opacity="0.0" r="432.0" /><circle cx="1411.3817472428784" cy="939.3367937438614" fill-opacity="0.0" r="432.0" /><circle cx="1408.8763647513363" cy="933.5748084927119" fill-opacity="0.0" r="432.0" /><circle cx="1406.270803333194" cy="927.8574257733483" fill-opacity="0.0" r="432.0" /><circle cx="1403.5658566677" cy="922.1863871559322" fill-opacity="0.0" r="432.0" /><circle cx="1400.7623487078124" cy="916.5634200937632" fill-opacity="0.0" r="432.0" /><circle cx="1397.8611334292136" cy="910.9902373970792" fill-opacity="0.0" r="432.0" /><circle cx="1394.8630945701825" cy="905.4685367113186" fill-opacity="0.0" r="432.0" /><circle cx="1391.769145362398" cy="900.0000000000001" fill-opacity="0.0" r="432.0" /><circle cx="1388.5802282527604" cy="894.5862930323805" fill-opacity="0.0" r="432.0" /><circle cx="1385.2973146163133" cy="889.2290648760463" fill-opacity="0.0" r="432.0" /><circle cx="1381.9214044603527" cy="883.9299473945903" fill-opacity="0.0" r="432.0" /><circle cx="1378.453526119815" cy="878.6905547505312" fill-opacity="0.0" r="432.0" /><circle cx="1374.894735944037" cy="873.5124829136234" fill-opacity="0.0" r="432.0" /><circle cx="1371.2461179749812" cy="868.3973091747097" fill-opacity="0.0" r="432.0" /><circle cx="1367.5087836170253" cy="863.3465916652626" fill-opacity="0.0" r="432.0" /><circle cx="1363.68387129842" cy="858.361868882763" fill-opacity="0.0" r="432.0" /><circle cx="1359.7725461245095" cy="853.4446592220586" fill-opacity="0.0" r="432.0" /><circle cx="1355.775999522832" cy="848.5964605128459" fill-opacity="0.0" r="432.0" /><circle cx="1351.695448880198" cy="843.8187495634174" fill-opacity="0.0" r="432.0" /><circle cx="1347.532137171862" cy="839.112981710811" fill-opacity="0.0" r="432.0" /><circle cx="1343.2873325829014" cy="834.4805903775006" fill-opacity="0.0" r="432.0" /><circle cx="1338.9623281219144" cy="829.922986634761" fill-opacity="0.0" r="432.0" /><circle cx="1334.5584412271571" cy="825.4415587728429" fill-opacity="0.0" r="432.0" /><circle cx="1330.077013365239" cy="821.0376718780856" fill-opacity="0.0" r="432.0" /><circle cx="1325.5194096224996" cy="816.7126674170986" fill-opacity="0.0" r="432.0" /><circle cx="1320.887018289189" cy="812.4678628281381" fill-opacity="0.0" r="432.0" /><circle cx="1316.1812504365826" cy="808.304551119802" fill-opacity="0.0" r="432.0" /><circle cx="1311.4035394871541" cy="804.2240004771679" fill-opacity="0.0" r="432.0" /><circle cx="1306.5553407779414" cy="800.2274538754905" fill-opacity="0.0" r="432.0" /><circle cx="1301.638131117237" cy="796.31612870158" fill-opacity="0.0" r="432.0" /><circle cx="1296.6534083347374" cy="792.4912163829745" fill-opacity="0.0" r="432.0" /><circle cx="1291.6026908252904" cy="788.753882025019" fill-opacity="0.0" r="432.0" /><circle cx="1286.4875170863766" cy="785.1052640559628" fill-opacity="0.0" r="432.0" /><circle cx="1281.3094452494688" cy="781.546473880185" fill-opacity="0.0" r="432.0" /><circle cx="1276.0700526054097" cy="778.0785955396474" fill-opacity="0.0" r="432.0" /><circle cx="1270.7709351239537" cy="774.7026853836867" fill-opacity="0.0" r="432.0" /><circle cx="1265.4137069676196" cy="771.4197717472396" fill-opacity="0.0" r="432.0" /><circle cx="1260.0" cy="768.2308546376021" fill-opacity="0.0" r="432.0" /><circle cx="1254.5314632886814" cy="765.1369054298175" fill-opacity="0.0" r="432.0" /><circle cx="1249.0097626029205" cy="762.1388665707863" fill-opacity="0.0" r="432.0" /><circle cx="1243.4365799062368" cy="759.2376512921876" fill-opacity="0.0" r="432.0" /><circle cx="1237.8136128440678" cy="756.4341433322999" fill-opacity="0.0" r="432.0" /><circle cx="1232.1425742266517" cy="753.729196666806" fill-opacity="0.0" r="432.0" /><circle cx="1226.4251915072882" cy="751.1236352486637" fill-opacity="0.0" r="432.0" /><circle cx="1220.6632062561384" cy="748.6182527571215" fill-opacity="0.0" r="432.0" /><circle cx="1214.8583736297285" cy="746.2138123559566" fill-opacity="0.0" r="432.0" /><circle cx="1209.0124618363081" cy="743.9110464610073" fill-opacity="0.0" r="432.0" /><circle cx="1203.1272515972407" cy="741.710656517073" fill-opacity="0.0" r="432.0" /><circle cx="1197.2045356045764" cy="739.6133127842459" fill-opacity="0.0" r="432.0" /><circle cx="1191.2461179749812" cy="737.6196541337447" fill-opacity="0.0" r="432.0" /><circle cx="1185.2538137001852" cy="735.7302878533072" fill-opacity="0.0" r="432.0" /><circle cx="1179.2294480941198" cy="733.9457894622052" fill-opacity="0.0" r="432.0" /><circle cx="1173.1748562369075" cy="732.2667025359355" fill-opacity="0.0" r="432.0" /><circle cx="1167.0918824158803" cy="730.6935385406413" fill-opacity="0.0" r="432.0" /><circle cx="1160.9823795637915" cy="729.2267766773153" fill-opacity="0.0" r="432.0" /><circle cx="1154.8482086943934" cy="727.86686373583" fill-opacity="0.0" r="432.0" /><circle cx="1148.6912383355561" cy="726.614213958841" fill-opacity="0.0" r="432.0" /><circle cx="1142.513343960095" cy="725.4692089156051" fill-opacity="0.0" r="432.0" /><circle cx="1136.3164074144831" cy="724.4321973857504" fill-opacity="0.0" r="432.0" /><circle cx="1130.1023163456234" cy="723.5034952530347" fill-opacity="0.0" r="432.0" /><circle cx="1123.8729636258531" cy="722.6833854091241" fill-opacity="0.0" r="432.0" /><circle cx="1117.6302467763553" cy="721.9721176674216" fill-opacity="0.0" r="432.0" /><circle cx="1111.376067389157" cy="721.3699086869716" fill-opacity="0.0" r="432.0" /><circle cx="1105.1123305478852" cy="720.8769419064633" fill-opacity="0.0" r="432.0" /><circle cx="1098.8409442474597" cy="720.4933674883534" fill-opacity="0.0" r="432.0" /><circle cx="1092.5638188129003" cy="720.2193022731255" fill-opacity="0.0" r="432.0" /><circle cx="1086.282866317422" cy="720.0548297436992" fill-opacity="0.0" r="432.0" /><circle cx="1080.0" cy="720.0" fill-opacity="0.0" r="432.0" /><circle cx="1073.717133682578" cy="720.0548297436992" fill-opacity="0.0" r="432.0" /><circle cx="1067.4361811870997" cy="720.2193022731255" fill-opacity="0.0" r="432.0" /><circle cx="1061.1590557525403" cy="720.4933674883534" fill-opacity="0.0" r="432.0" /><circle cx="1054.887669452115" cy="720.8769419064633" fill-opacity="0.0" r="432.0" /><circle cx="1048.6239326108432" cy="721.3699086869716" fill-opacity="0.0" r="432.0" /><circle cx="1042.3697532236447" cy="721.9721176674216" fill-opacity="0.0" r="432.0" /><circle cx="1036.1270363741469" cy="722.6833854091241" fill-opacity="0.0" r="432.0" /><circle cx="1029.8976836543764" cy="723.5034952530348" fill-opacity="0.0" r="432.0" /><circle cx="1023.683592585517" cy="724.4321973857504" fill-opacity="0.0" r="432.0" /><circle cx="1017.486656039905" cy="725.4692089156051" fill-opacity="0.0" r="432.0" /><circle cx="1011.3087616644439" cy="726.614213958841" fill-opacity="0.0" r="432.0" /><circle cx="1005.1517913056066" cy="727.8668637358301" fill-opacity="0.0" r="432.0" /><circle cx="999.0176204362086" cy="729.2267766773152" fill-opacity="0.0" r="432.0" /><circle cx="992.9081175841197" cy="730.6935385406413" fill-opacity="0.0" r="432.0" /><circle cx="986.8251437630925" cy="732.2667025359353" fill-opacity="0.0" r="432.0" /><circle cx="980.7705519058803" cy="733.9457894622052" fill-opacity="0.0" r="432.0" /><circle cx="974.7461862998148" cy="735.7302878533072" fill-opacity="0.0" r="432.0" /><circle cx="968.753882025019" cy="737.6196541337447" fill-opacity="0.0" r="432.0" /><circle cx="962.7954643954236" cy="739.613312784246" fill-opacity="0.0" r="432.0" /><circle cx="956.8727484027593" cy="741.710656517073" fill-opacity="0.0" r="432.0" /><circle cx="950.9875381636919" cy="743.9110464610073" fill-opacity="0.0" r="432.0" /><circle cx="945.1416263702716" cy="746.2138123559565" fill-opacity="0.0" r="432.0" /><circle cx="939.3367937438616" cy="748.6182527571215" fill-opacity="0.0" r="432.0" /><circle cx="933.5748084927119" cy="751.1236352486637" fill-opacity="0.0" r="432.0" /><circle cx="927.8574257733483" cy="753.729196666806" fill-opacity="0.0" r="432.0" /><circle cx="922.1863871559322" cy="756.4341433323" fill-opacity="0.0" r="432.0" /><circle cx="916.5634200937632" cy="759.2376512921876" fill-opacity="0.0" r="432.0" /><circle cx="910.9902373970792" cy="762.1388665707864" fill-opacity="0.0" r="432.0" /><circle cx="905.4685367113187" cy="765.1369054298175" fill-opacity="0.0" r="432.0" /><circle cx="900.0" cy="768.2308546376021" fill-opacity="0.0" r="432.0" /><circle cx="894.5862930323805" cy="771.4197717472396" fill-opacity="0.0" r="432.0" /><circle cx="889.2290648760463" cy="774.7026853836867" fill-opacity="0.0" r="432.0" /><circle cx="883.9299473945903" cy="778.0785955396473" fill-opacity="0.0" r="432.0" /><circle cx="878.6905547505312" cy="781.546473880185" fill-opacity="0.0" r="432.0" /><circle cx="873.5124829136234" cy="785.105264055963" fill-opacity="0.0" r="432.0" /><circle cx="868.3973091747097" cy="788.7538820250189" fill-opacity="0.0" r="432.0" /><circle cx="863.3465916652626" cy="792.4912163829746" fill-opacity="0.0" r="432.0" /><circle cx="858.361868882763" cy="796.31612870158" fill-opacity="0.0" r="432.0" /><circle cx="853.4446592220585" cy="800.2274538754905" fill-opacity="0.0" r="432.0" /><circle cx="848.5964605128459" cy="804.2240004771679" fill-opacity="0.0" r="432.0" /><circle cx="843.8187495634174" cy="808.304551119802" fill-opacity="0.0" r="432.0" /><circle cx="839.112981710811" cy="812.4678628281381" fill-opacity="0.0" r="432.0" /><circle cx="834.4805903775006" cy="816.7126674170986" fill-opacity="0.0" r="432.0" /><circle cx="829.922986634761" cy="821.0376718780856" fill-opacity="0.0" r="432.0" /><circle cx="825.4415587728429" cy="825.4415587728429" fill-opacity="0.0" r="432.0" /><circle cx="821.0376718780856" cy="829.922986634761" fill-opacity="0.0" r="432.0" /><circle cx="816.7126674170986" cy="834.4805903775004" fill-opacity="0.0" r="432.0" /><circle cx="812.4678628281381" cy="839.112981710811" fill-opacity="0.0" r="432.0" /><circle cx="808.304551119802" cy="843.8187495634174" fill-opacity="0.0" r="432.0" /><circle cx="804.2240004771679" cy="848.5964605128459" fill-opacity="0.0" r="432.0" /><circle cx="800.2274538754906" cy="853.4446592220584" fill-opacity="0.0" r="432.0" /><circle cx="796.31612870158" cy="858.3618688827631" fill-opacity="0.0" r="432.0" /><circle cx="792.4912163829746" cy="863.3465916652626" fill-opacity="0.0" r="432.0" /><circle cx="788.753882025019" cy="868.3973091747096" fill-opacity="0.0" r="432.0" /><circle cx="785.1052640559631" cy="873.5124829136233" fill-opacity="0.0" r="432.0" /><circle cx="781.546473880185" cy="878.6905547505312" fill-opacity="0.0" r="432.0" /><circle cx="778.0785955396473" cy="883.9299473945903" fill-opacity="0.0" r="432.0" /><circle cx="774.7026853836867" cy="889.2290648760462" fill-opacity="0.0" r="432.0" /><circle cx="771.4197717472396" cy="894.5862930323804" fill-opacity="0.0" r="432.0" /><circle cx="768.2308546376021" cy="899.9999999999998" fill-opacity="0.0" r="432.0" /><circle cx="765.1369054298175" cy="905.4685367113187" fill-opacity="0.0" r="432.0" /><circle cx="762.1388665707863" cy="910.9902373970793" fill-opacity="0.0" r="432.0" /><circle cx="759.2376512921876" cy="916.5634200937632" fill-opacity="0.0" r="432.0" /><circle cx="756.4341433323" cy="922.186387155932" fill-opacity="0.0" r="432.0" /><circle cx="753.7291966668059" cy="927.8574257733483" fill-opacity="0.0" r="432.0" /><circle cx="751.1236352486637" cy="933.574808492712" fill-opacity="0.0" r="432.0" /><circle cx="748.6182527571216" cy="939.3367937438614" fill-opacity="0.0" r="432.0" /><circle cx="746.2138123559566" cy="945.1416263702715" fill-opacity="0.0" r="432.0" /><circle cx="743.9110464610073" cy="950.9875381636917" fill-opacity="0.0" r="432.0" /><circle cx="741.710656517073" cy="956.8727484027593" fill-opacity="0.0" r="432.0" /><circle cx="739.6133127842459" cy="962.7954643954236" fill-opacity="0.0" r="432.0" /><circle cx="737.6196541337447" cy="968.7538820250189" fill-opacity="0.0" r="432.0" /><circle cx="735.7302878533073" cy="974.7461862998147" fill-opacity="0.0" r="432.0" /><circle cx="733.9457894622051" cy="980.7705519058804" fill-opacity="0.0" r="432.0" /><circle cx="732.2667025359353" cy="986.8251437630926" fill-opacity="0.0" r="432.0" /><circle cx="730.6935385406413" cy="992.9081175841196" fill-opacity="0.0" r="432.0" /><circle cx="729.2267766773153" cy="999.0176204362085" fill-opacity="0.0" r="432.0" /><circle cx="727.8668637358301" cy="1005.1517913056065" fill-opacity="0.0" r="432.0" /><circle cx="726.614213958841" cy="1011.308761664444" fill-opacity="0.0" r="432.0" /><circle cx="725.4692089156051" cy="1017.486656039905" fill-opacity="0.0" r="432.0" /><circle cx="724.4321973857504" cy="1023.6835925855169" fill-opacity="0.0" r="432.0" /><circle cx="723.5034952530348" cy="1029.8976836543764" fill-opacity="0.0" r="432.0" /><circle cx="722.6833854091241" cy="1036.127036374147" fill-opacity="0.0" r="432.0" /><circle cx="721.9721176674216" cy="1042.3697532236447" fill-opacity="0.0" r="432.0" /><circle cx="721.3699086869716" cy="1048.623932610843" fill-opacity="0.0" r="432.0" /><circle cx="720.8769419064633" cy="1054.8876694521148" fill-opacity="0.0" r="432.0" /><circle cx="720.4933674883534" cy="1061.15905575254" fill-opacity="0.0" r="432.0" /><circle cx="720.2193022731255" cy="1067.4361811870997" fill-opacity="0.0" r="432.0" /><circle cx="720.0548297436992" cy="1073.717133682578" fill-opacity="0.0" r="432.0" /><circle cx="720.0" cy="1080.0" fill-opacity="0.0" r="432.0" /><circle cx="720.0548297436992" cy="1086.2828663174218" fill-opacity="0.0" r="432.0" /><circle cx="720.2193022731255" cy="1092.5638188129005" fill-opacity="0.0" r="432.0" /><circle cx="720.4933674883534" cy="1098.84094424746" fill-opacity="0.0" r="432.0" /><circle cx="720.8769419064632" cy="1105.112330547885" fill-opacity="0.0" r="432.0" /><circle cx="721.3699086869716" cy="1111.3760673891568" fill-opacity="0.0" r="432.0" /><circle cx="721.9721176674216" cy="1117.630246776355" fill-opacity="0.0" r="432.0" /><circle cx="722.6833854091241" cy="1123.8729636258531" fill-opacity="0.0" r="432.0" /><circle cx="723.5034952530347" cy="1130.1023163456236" fill-opacity="0.0" r="432.0" /><circle cx="724.4321973857504" cy="1136.3164074144831" fill-opacity="0.0" r="432.0" /><circle cx="725.4692089156051" cy="1142.5133439600947" fill-opacity="0.0" r="432.0" /><circle cx="726.614213958841" cy="1148.6912383355561" fill-opacity="0.0" r="432.0" /><circle cx="727.8668637358301" cy="1154.8482086943934" fill-opacity="0.0" r="432.0" /><circle cx="729.2267766773152" cy="1160.9823795637913" fill-opacity="0.0" r="432.0" /><circle cx="730.6935385406412" cy="1167.0918824158803" fill-opacity="0.0" r="432.0" /><circle cx="732.2667025359353" cy="1173.1748562369073" fill-opacity="0.0" r="432.0" /><circle cx="733.9457894622053" cy="1179.2294480941198" fill-opacity="0.0" r="432.0" /><circle cx="735.7302878533072" cy="1185.2538137001852" fill-opacity="0.0" r="432.0" /><circle cx="737.6196541337447" cy="1191.246117974981" fill-opacity="0.0" r="432.0" /><circle cx="739.6133127842459" cy="1197.2045356045762" fill-opacity="0.0" r="432.0" /><circle cx="741.710656517073" cy="1203.127251597241" fill-opacity="0.0" r="432.0" /><circle cx="743.9110464610073" cy="1209.0124618363081" fill-opacity="0.0" r="432.0" /><circle cx="746.2138123559565" cy="1214.8583736297282" fill-opacity="0.0" r="432.0" /><circle cx="748.6182527571214" cy="1220.6632062561384" fill-opacity="0.0" r="432.0" /><circle cx="751.1236352486636" cy="1226.425191507288" fill-opacity="0.0" r="432.0" /><circle cx="753.729196666806" cy="1232.142574226652" fill-opacity="0.0" r="432.0" /><circle cx="756.4341433322999" cy="1237.8136128440678" fill-opacity="0.0" r="432.0" /><circle cx="759.2376512921876" cy="1243.4365799062368" fill-opacity="0.0" r="432.0" /><circle cx="762.1388665707863" cy="1249.0097626029205" fill-opacity="0.0" r="432.0" /><circle cx="765.1369054298175" cy="1254.5314632886814" fill-opacity="0.0" r="432.0" /><circle cx="768.2308546376021" cy="1260.0" fill-opacity="0.0" r="432.0" /><circle cx="771.4197717472396" cy="1265.4137069676194" fill-opacity="0.0" r="432.0" /><circle cx="774.7026853836867" cy="1270.7709351239537" fill-opacity="0.0" r="432.0" /><circle cx="778.0785955396473" cy="1276.0700526054095" fill-opacity="0.0" r="432.0" /><circle cx="781.546473880185" cy="1281.3094452494688" fill-opacity="0.0" r="432.0" /><circle cx="785.105264055963" cy="1286.4875170863766" fill-opacity="0.0" r="432.0" /><circle cx="788.7538820250188" cy="1291.6026908252902" fill-opacity="0.0" r="432.0" /><circle cx="792.4912163829745" cy="1296.6534083347374" fill-opacity="0.0" r="432.0" /><circle cx="796.3161287015802" cy="1301.638131117237" fill-opacity="0.0" r="432.0" /><circle cx="800.2274538754905" cy="1306.5553407779414" fill-opacity="0.0" r="432.0" /><circle cx="804.2240004771679" cy="1311.4035394871541" fill-opacity="0.0" r="432.0" /><circle cx="808.304551119802" cy="1316.1812504365826" fill-opacity="0.0" r="432.0" /><circle cx="812.4678628281379" cy="1320.8870182891887" fill-opacity="0.0" r="432.0" /><circle cx="816.7126674170986" cy="1325.5194096224996" fill-opacity="0.0" r="432.0" /><circle cx="821.0376718780856" cy="1330.077013365239" fill-opacity="0.0" r="432.0" /><circle cx="825.4415587728429" cy="1334.5584412271571" fill-opacity="0.0" r="432.0" /><circle cx="829.9229866347608" cy="1338.9623281219142" fill-opacity="0.0" r="432.0" /><circle cx="834.4805903775007" cy="1343.2873325829014" fill-opacity="0.0" r="432.0" /><circle cx="839.112981710811" cy="1347.532137171862" fill-opacity="0.0" r="432.0" /><circle cx="843.8187495634173" cy="1351.695448880198" fill-opacity="0.0" r="432.0" /><circle cx="848.5964605128457" cy="1355.775999522832" fill-opacity="0.0" r="432.0" /><circle cx="853.4446592220584" cy="1359.7725461245095" fill-opacity="0.0" r="432.0" /><circle cx="858.361868882763" cy="1363.68387129842" fill-opacity="0.0" r="432.0" /><circle cx="863.3465916652626" cy="1367.5087836170255" fill-opacity="0.0" r="432.0" /><circle cx="868.3973091747096" cy="1371.246117974981" fill-opacity="0.0" r="432.0" /><circle cx="873.5124829136232" cy="1374.894735944037" fill-opacity="0.0" r="432.0" /><circle cx="878.6905547505312" cy="1378.453526119815" fill-opacity="0.0" r="432.0" /><circle cx="883.9299473945903" cy="1381.9214044603527" fill-opacity="0.0" r="432.0" /><circle cx="889.2290648760462" cy="1385.2973146163133" fill-opacity="0.0" r="432.0" /><circle cx="894.5862930323804" cy="1388.5802282527604" fill-opacity="0.0" r="432.0" /><circle cx="899.9999999999998" cy="1391.769145362398" fill-opacity="0.0" r="432.0" /><circle cx="905.4685367113187" cy="1394.8630945701825" fill-opacity="0.0" r="432.0" /><circle cx="910.9902373970793" cy="1397.8611334292136" fill-opacity="0.0" r="432.0" /><circle cx="916.563420093763" cy="1400.7623487078124" fill-opacity="0.0" r="432.0" /><circle cx="922.1863871559319" cy="1403.5658566677" fill-opacity="0.0" r="432.0" /><circle cx="927.8574257733483" cy="1406.270803333194" fill-opacity="0.0" r="432.0" /><circle cx="933.574808492712" cy="1408.8763647513363" fill-opacity="0.0" r="432.0" /><circle cx="939.3367937438613" cy="1411.3817472428784" fill-opacity="0.0" r="432.0" /><circle cx="945.1416263702715" cy="1413.7861876440434" fill-opacity="0.0" r="432.0" /><circle cx="950.9875381636917" cy="1416.0889535389924" fill-opacity="0.0" r="432.0" /><circle cx="956.8727484027593" cy="1418.289343482927" fill-opacity="0.0" r="432.0" /><circle cx="962.7954643954236" cy="1420.3866872157541" fill-opacity="0.0" r="432.0" /><circle cx="968.7538820250188" cy="1422.3803458662553" fill-opacity="0.0" r="432.0" /><circle cx="974.7461862998147" cy="1424.2697121466927" fill-opacity="0.0" r="432.0" /><circle cx="980.7705519058804" cy="1426.054210537795" fill-opacity="0.0" r="432.0" /><circle cx="986.8251437630926" cy="1427.7332974640647" fill-opacity="0.0" r="432.0" /><circle cx="992.9081175841195" cy="1429.3064614593586" fill-opacity="0.0" r="432.0" /><circle cx="999.0176204362085" cy="1430.7732233226848" fill-opacity="0.0" r="432.0" /><circle cx="1005.1517913056065" cy="1432.13313626417" fill-opacity="0.0" r="432.0" /><circle cx="1011.3087616644439" cy="1433.385786041159" fill-opacity="0.0" r="432.0" /><circle cx="1017.486656039905" cy="1434.5307910843949" fill-opacity="0.0" r="432.0" /><circle cx="1023.6835925855169" cy="1435.5678026142496" fill-opacity="0.0" r="432.0" /><circle cx="1029.8976836543764" cy="1436.4965047469652" fill-opacity="0.0" r="432.0" /><circle cx="1036.1270363741469" cy="1437.3166145908758" fill-opacity="0.0" r="432.0" /><circle cx="1042.3697532236447" cy="1438.0278823325784" fill-opacity="0.0" r="432.0" /><circle cx="1048.623932610843" cy="1438.6300913130285" fill-opacity="0.0" r="432.0" /><circle cx="1054.8876694521148" cy="1439.1230580935367" fill-opacity="0.0" r="432.0" /><circle cx="1061.15905575254" cy="1439.5066325116466" fill-opacity="0.0" r="432.0" /><circle cx="1067.4361811870997" cy="1439.7806977268745" fill-opacity="0.0" r="432.0" /><circle cx="1073.717133682578" cy="1439.9451702563008" fill-opacity="0.0" r="432.0" /></g><linearGradient id="id1" x1="0" x2="1" y1="0" y2="1"><stop offset="0.0" stop-color="#FF0" /><stop offset="0.3333333333333333" stop-color="#0FF" /><stop offset="0.6666666666666666" stop-color="#F0F" /><stop offset="1" stop-color="#FF0" /></linearGradient></svg>