<?xml version="1.0" encoding="utf-8" ?>
<svg baseProfile="full" height="400" version="1.1" width="1400" xmlns="http://www.w3.org/2000/svg" xmlns:ev="http://www.w3.org/2001/xml-events" xmlns:xlink="http://www.w3.org/1999/xlink"><defs /><g fill="#000" id="shape" stroke="url(#id1) none" stroke-width="1"><rect height="400" width="1400" x="0" y="0" /><linearGradient id="id1" x1="0" x2="1" y1="0" y2="1"><stop offset="0" stop-color="#FF0" /><stop offset="0.33" stop-color="#0FF" /><stop offset="0.66" stop-color="#F0F" /><stop offset="1" stop-color="#FF0" /></linearGradient><circle cx="699.8416302742118" cy="203.51666042075104" fill-opacity="0.0" r="1" /><circle cx="617.5295725326837" cy="200.9387686011104" fill-opacity="0.0" r="2.4912353277159736" /><circle cx="658.2143315067152" cy="204.17119994852163" fill-opacity="0.0" r="1" /><circle cx="1295.4058473120226" cy="200.12297784262532" fill-opacity="0.0" r="2325.176544507045" /><circle cx="784.6327977314527" cy="203.24814856267415" fill-opacity="0.0" r="2.5959784579475436" /><circle cx="928.2425973564068" cy="198.559492236974" fill-opacity="0.0" r="20.059288257186676" /><circle cx="790.2944818379075" cy="196.57552017130985" fill-opacity="0.0" r="2.883299465039754" /><circle cx="862.0891806489645" cy="203.42861530889408" fill-opacity="0.0" r="8.72154829636601" /><circle cx="812.0491861879227" cy="203.4962350983062" fill-opacity="0.0" r="4.182785118643862" /><circle cx="813.3440181520066" cy="196.06900080185403" fill-opacity="0.0" r="4.270926169982076" /><circle cx="672.9360422249625" cy="198.7683013467676" fill-opacity="0.0" r="1" /><circle cx="8.217019368575052" cy="202.0482799350305" fill-opacity="0.0" r="13575.88133664797" /><circle cx="1042.8280071498148" cy="196.1803847166037" fill-opacity="0.0" r="71.13977691210532" /><circle cx="239.3037143931371" cy="203.87030632330357" fill-opacity="0.0" r="232.7706697714257" /><circle cx="440.8743946192365" cy="197.9762546183531" fill-opacity="0.0" r="28.68248841446255" /><circle cx="1004.963480513338" cy="199.6857223281971" fill-opacity="0.0" r="47.60037503579707" /><circle cx="1010.1891650005084" cy="202.40188607222538" fill-opacity="0.0" r="50.354602445643955" /><circle cx="452.65233169698257" cy="196.79235308974236" fill-opacity="0.0" r="25.07059568310863" /><circle cx="705.6714569277375" cy="203.27863964298953" fill-opacity="0.0" r="1" /><circle cx="584.9969332066114" cy="195.6908292963144" fill-opacity="0.0" r="4.3857866616125865" /><circle cx="608.7443575546198" cy="197.67648419095184" fill-opacity="0.0" r="2.9340141975502565" /><circle cx="999.187451760866" cy="203.38862091995114" fill-opacity="0.0" r="44.71649011560438" /><circle cx="661.8178478272738" cy="201.58077338315238" fill-opacity="0.0" r="1" /><circle cx="257.2342295406854" cy="199.71275882000282" fill-opacity="0.0" r="195.335525001477" /><circle cx="117.72810144171854" cy="206.28244384033826" fill-opacity="0.0" r="1821.7571059680108" /><circle cx="950.0946770639068" cy="201.96227735179318" fill-opacity="0.0" r="25.87486813718034" /><circle cx="529.8346336694651" cy="198.95862256887753" fill-opacity="0.0" r="9.717968741503148" /><circle cx="1052.3460870580686" cy="198.13204962063426" fill-opacity="0.0" r="78.54850665079256" /><circle cx="795.720649478425" cy="200.80836171170765" fill-opacity="0.0" r="3.1772704388640896" /><circle cx="757.2611283588166" cy="201.84992195360948" fill-opacity="0.0" r="1.4516680891783735" /><circle cx="810.7810541820593" cy="193.91249080814973" fill-opacity="0.0" r="4.097721091562423" /><circle cx="669.6556411875353" cy="199.77149429464933" fill-opacity="0.0" r="1" /><circle cx="417.4571533244008" cy="198.55504974521165" fill-opacity="0.0" r="37.27087469998363" /><circle cx="278.7574872943639" cy="203.9177448896822" fill-opacity="0.0" r="157.93460174736043" /><circle cx="1324.1941036366889" cy="205.78617317609596" fill-opacity="0.0" r="3956.7637329219365" /><circle cx="663.9051297151341" cy="198.600364610599" fill-opacity="0.0" r="1" /><circle cx="927.9375636906434" cy="205.34692315979888" fill-opacity="0.0" r="19.986970963743627" /><circle cx="1248.2296422331594" cy="194.74574693630012" fill-opacity="0.0" r="963.4557970797944" /><circle cx="501.7818739161447" cy="194.57364129866738" fill-opacity="0.0" r="13.932956473854802" /><circle cx="457.658121583185" cy="203.41545367303286" fill-opacity="0.0" r="23.661556144848266" /><circle cx="966.3400345828923" cy="199.96714636225218" fill-opacity="0.0" r="31.11678650554506" /><circle cx="634.7657651120041" cy="197.97337841522472" fill-opacity="0.0" r="1.7467439177129676" /><circle cx="418.14264510531746" cy="198.49310916415308" fill-opacity="0.0" r="36.98983681120056" /><circle cx="879.8614949542999" cy="196.03339300935414" fill-opacity="0.0" r="11.03467638411528" /><circle cx="1366.9338089416206" cy="199.331677833374" fill-opacity="0.0" r="8648.112361560216" /><circle cx="1000.0016379094128" cy="201.57667278186273" fill-opacity="0.0" r="45.11312375855017" /><circle cx="1044.9023630372324" cy="203.05080716591493" fill-opacity="0.0" r="72.69690146962812" /><circle cx="653.3271127533759" cy="203.7463614528056" fill-opacity="0.0" r="1.102091672526906" /><circle cx="204.82724363564017" cy="197.81041372306908" fill-opacity="0.0" r="351.66427912279903" /><circle cx="263.465749571106" cy="203.17691185582478" fill-opacity="0.0" r="183.72217222843898" /><circle cx="796.228477271746" cy="199.19252737417267" fill-opacity="0.0" r="3.2057527199877844" /><circle cx="943.4048894649226" cy="199.1092001864455" fill-opacity="0.0" r="23.954795093685913" /><circle cx="627.7586207790583" cy="197.46290310540948" fill-opacity="0.0" r="2.030866241432936" /><circle cx="749.536324205078" cy="197.5808145656914" fill-opacity="0.0" r="1.1921438550607886" /><circle cx="689.9498278705546" cy="206.7005094761912" fill-opacity="0.0" r="1" /><circle cx="726.3593746925501" cy="196.74808096785878" fill-opacity="0.0" r="1" /><circle cx="1010.2439589143721" cy="200.82428019966116" fill-opacity="0.0" r="50.38423771828555" /><circle cx="381.752031992779" cy="204.81178890553758" fill-opacity="0.0" r="54.88882236249352" /><circle cx="395.92466270947284" cy="198.8473659733624" fill-opacity="0.0" r="47.14618875244029" /><circle cx="573.9303441597447" cy="203.5194833566266" fill-opacity="0.0" r="5.210053952999631" /><circle cx="979.6459757766112" cy="198.0684871304417" fill-opacity="0.0" r="36.096192460606865" /><circle cx="795.1971806369096" cy="200.608938957707" fill-opacity="0.0" r="3.148087633162855" /><circle cx="417.25862520903314" cy="204.80775144821433" fill-opacity="0.0" r="37.35262622820846" /><circle cx="796.3801897173216" cy="207.90754025460814" fill-opacity="0.0" r="3.2142946299302" /><circle cx="289.1338811554112" cy="201.01642157399272" fill-opacity="0.0" r="142.42920109595977" /><circle cx="636.0495873953251" cy="198.48519691026513" fill-opacity="0.0" r="1.6972633017620709" /><circle cx="665.5761205039962" cy="200.83950886470748" fill-opacity="0.0" r="1" /><circle cx="886.7107946291399" cy="203.46130370945198" fill-opacity="0.0" r="12.050644285635027" /><circle cx="866.573288788219" cy="201.28599169750103" fill-opacity="0.0" r="9.264017868343117" /><circle cx="-187.22967125725143" cy="199.44445331976235" fill-opacity="0.0" r="437594.3646997531" /><circle cx="477.8573202629778" cy="201.75739068492442" fill-opacity="0.0" r="18.65546166594179" /><circle cx="983.3740585316843" cy="197.77278405941007" fill-opacity="0.0" r="37.61423872165319" /><circle cx="1029.3963996203343" cy="200.09034395553775" fill-opacity="0.0" r="61.78042618738407" /><circle cx="848.4875156636883" cy="195.83689071778446" fill-opacity="0.0" r="7.229259681998481" /><circle cx="1078.300643520759" cy="200.11841033491322" fill-opacity="0.0" r="102.5598475914932" /><circle cx="890.5453269384841" cy="203.40384654847975" fill-opacity="0.0" r="12.652591091094841" /><circle cx="897.2200052067924" cy="196.01428335239655" fill-opacity="0.0" r="13.760475158952591" /><circle cx="465.7215963368011" cy="200.34145245174506" fill-opacity="0.0" r="21.537914630266187" /><circle cx="544.32758255307" cy="203.23366157635567" fill-opacity="0.0" r="7.98985945561687" /><circle cx="465.3484871799381" cy="195.87911390069246" fill-opacity="0.0" r="21.63235969608197" /><circle cx="278.25845815341665" cy="195.39987026675337" fill-opacity="0.0" r="158.7191019467487" /><circle cx="504.52855862635437" cy="197.46286109957617" fill-opacity="0.0" r="13.462651900703813" /><circle cx="887.955124646104" cy="201.45230752990037" fill-opacity="0.0" r="12.243301392296372" /><circle cx="557.5740438983603" cy="197.80074186561728" fill-opacity="0.0" r="6.632738404432975" /><circle cx="207.73036172214637" cy="200.49215371574542" fill-opacity="0.0" r="332.5999053461775" /><circle cx="565.6468815474943" cy="200.40569471433238" fill-opacity="0.0" r="5.898058659171748" /><circle cx="739.1171686285613" cy="198.67049104504682" fill-opacity="0.0" r="1" /><circle cx="965.01494666854" cy="200.1875858107136" fill-opacity="0.0" r="30.65631863259612" /><circle cx="798.417374097163" cy="201.06575165631781" fill-opacity="0.0" r="3.330474355588108" /><circle cx="509.05436301869923" cy="200.96966016033383" fill-opacity="0.0" r="12.716854569183484" /><circle cx="867.2456588320878" cy="197.05470121781178" fill-opacity="0.0" r="9.347654157781513" /><circle cx="926.2919650677542" cy="200.91429328055955" fill-opacity="0.0" r="19.600728946552216" /><circle cx="364.4110511285983" cy="198.23175186953986" fill-opacity="0.0" r="65.94427433199756" /><circle cx="798.3224142609897" cy="202.09704539841462" fill-opacity="0.0" r="3.3249971986899123" /><circle cx="984.9390797953383" cy="203.25253110247903" fill-opacity="0.0" r="38.26849164936717" /><circle cx="518.3615690599113" cy="201.84813262219572" fill-opacity="0.0" r="11.291165853222015" /><circle cx="976.9736094671623" cy="200.74301427764323" fill-opacity="0.0" r="35.04223773969188" /><circle cx="598.6503002685438" cy="204.12233891191588" fill-opacity="0.0" r="3.502625225862508" /><circle cx="685.9462713143633" cy="200.52609226440552" fill-opacity="0.0" r="1" /><circle cx="413.0625413373431" cy="205.9697445236233" fill-opacity="0.0" r="39.118849755155274" /><circle cx="613.9310479623259" cy="205.96947348771556" fill-opacity="0.0" r="2.667047139344687" /><circle cx="207.6476969292433" cy="200.74088911323597" fill-opacity="0.0" r="333.12848817952363" /><circle cx="95.65247533820946" cy="198.80754076077227" fill-opacity="0.0" r="2743.892261378209" /><circle cx="585.7964252237924" cy="200.82627851436732" fill-opacity="0.0" r="4.33016346738819" /><circle cx="952.2101047154143" cy="199.63469355764457" fill-opacity="0.0" r="26.509693287112896" /><circle cx="380.2032710752208" cy="196.81539361397319" fill-opacity="0.0" r="55.80195421374932" /><circle cx="817.7610040894583" cy="204.9800120833231" fill-opacity="0.0" r="4.5816098203286995" /><circle cx="694.8750817293607" cy="202.4357461417303" fill-opacity="0.0" r="1" /><circle cx="873.9905590359415" cy="203.25035976108188" fill-opacity="0.0" r="10.221106773686216" /><circle cx="751.2431320112532" cy="197.11934360630906" fill-opacity="0.0" r="1.2473671962399193" /><circle cx="777.2395618603499" cy="198.81229149730544" fill-opacity="0.0" r="2.248759512000944" /><circle cx="647.5736208817724" cy="201.33198625367854" fill-opacity="0.0" r="1.2863435206230096" /><circle cx="621.3377127342656" cy="204.27803872545996" fill-opacity="0.0" r="2.3132142639300874" /><circle cx="252.30280137868385" cy="200.78386484407656" fill-opacity="0.0" r="205.01665769153453" /><circle cx="545.8975549328453" cy="194.5677987600666" fill-opacity="0.0" r="7.818507652733542" /><circle cx="790.6969764076644" cy="198.7246220678369" fill-opacity="0.0" r="2.9044668162736205" /><circle cx="194.48932383842833" cy="198.59371176736883" fill-opacity="0.0" r="428.6447827381676" /><circle cx="1243.0640709092495" cy="198.30444394464158" fill-opacity="0.0" r="874.143858348623" /><circle cx="630.5677549366412" cy="203.0144914995471" fill-opacity="0.0" r="1.9140530050995066" /><circle cx="554.9111218950412" cy="196.47942010178664" fill-opacity="0.0" r="6.889885518278075" /><circle cx="336.7963328336289" cy="195.93220197180682" fill-opacity="0.0" r="87.87222025537648" /><circle cx="179.39397379693946" cy="197.508385041224" fill-opacity="0.0" r="571.49579691049" /><circle cx="422.71902255353575" cy="194.05597722862902" fill-opacity="0.0" r="35.16203427871866" /><circle cx="986.2490728242494" cy="192.89275933050843" fill-opacity="0.0" r="38.82401588137847" /><circle cx="1038.9545090327406" cy="202.37889783234482" fill-opacity="0.0" r="68.31447009511936" /><circle cx="520.8662248956939" cy="203.53778859808364" fill-opacity="0.0" r="10.931032457109803" /><circle cx="497.4421162507949" cy="203.5832540476958" fill-opacity="0.0" r="14.704309489075996" /><circle cx="1396.5067160672522" cy="202.71179271526037" fill-opacity="0.0" r="14786.824888228346" /><circle cx="1174.8859686808146" cy="203.97165838251084" fill-opacity="0.0" r="267.1425674128525" /><circle cx="237.84125440839227" cy="198.55430172183844" fill-opacity="0.0" r="236.1080337960664" /><circle cx="1133.8503017859473" cy="199.94500020303366" fill-opacity="0.0" r="178.9248150522189" /><circle cx="755.2822688344336" cy="204.3083464426213" fill-opacity="0.0" r="1.3828045209399917" /><circle cx="764.2398474773987" cy="196.29201353859116" fill-opacity="0.0" r="1.7083509624207718" /><circle cx="438.557840344379" cy="198.98940733916885" fill-opacity="0.0" r="29.44494194906706" /><circle cx="323.80528584324605" cy="201.09236575961577" fill-opacity="0.0" r="100.38167329375848" /><circle cx="1042.2097021134573" cy="194.9143570545752" fill-opacity="0.0" r="70.68165420717041" /><circle cx="760.5046486511376" cy="198.7839111072529" fill-opacity="0.0" r="1.5682361618901834" /><circle cx="1293.3522659692512" cy="203.84513804878188" fill-opacity="0.0" r="2238.28023491941" /><circle cx="701.8302715289054" cy="204.36262006883663" fill-opacity="0.0" r="1" /><circle cx="890.253348003953" cy="201.0468158925043" fill-opacity="0.0" r="12.605890054493237" /><circle cx="912.9701438816885" cy="196.89133026111742" fill-opacity="0.0" r="16.704491634691074" /><circle cx="375.7666012461489" cy="199.1236086025689" fill-opacity="0.0" r="58.495553246684906" /><circle cx="798.4980549537338" cy="203.95725134763128" fill-opacity="0.0" r="3.3351326907615517" /><circle cx="275.66580216416014" cy="196.18871481214512" fill-opacity="0.0" r="162.85457136850553" /><circle cx="857.6212066376796" cy="200.4647209016461" fill-opacity="0.0" r="8.206688196651665" /><circle cx="1037.8256394074208" cy="200.52254426685946" fill-opacity="0.0" r="67.51082845148318" /><circle cx="868.9272873983102" cy="198.0841085097054" fill-opacity="0.0" r="9.559513075046896" /><circle cx="1200.304585383004" cy="202.6278771273128" fill-opacity="0.0" r="388.0146805138626" /><circle cx="852.6310814047763" cy="198.44788861476266" fill-opacity="0.0" r="7.660570243694012" /><circle cx="103.23402142562645" cy="204.40519492660025" fill-opacity="0.0" r="2384.5492710707676" /><circle cx="874.2139506340378" cy="200.41834119105374" fill-opacity="0.0" r="10.25113486783092" /><circle cx="791.2662245982609" cy="204.44584450220418" fill-opacity="0.0" r="2.93457575759511" /><circle cx="886.1790967318867" cy="191.31244856266764" fill-opacity="0.0" r="11.96909620530143" /><circle cx="81.98230106574954" cy="196.6179548729873" fill-opacity="0.0" r="3531.493925983097" /><circle cx="777.818559546605" cy="196.49464719865878" fill-opacity="0.0" r="2.27485763235138" /><circle cx="1264.288910612819" cy="204.09703971646292" fill-opacity="0.0" r="1302.3199306235758" /><circle cx="614.7445319274165" cy="198.77916270455785" fill-opacity="0.0" r="2.6266428216459166" /><circle cx="569.0948261640076" cy="202.11681107638503" fill-opacity="0.0" r="5.603889283098479" /><circle cx="755.3899040521547" cy="198.97864553213483" fill-opacity="0.0" r="1.3865070793534473" /><circle cx="1076.7727111487366" cy="199.91218035817872" fill-opacity="0.0" r="100.97514861667402" /><circle cx="669.6859358774959" cy="199.01297544666198" fill-opacity="0.0" r="1" /><circle cx="503.4430915108985" cy="199.8737356626747" fill-opacity="0.0" r="13.646886758124625" /><circle cx="921.73863546757" cy="210.40723814440344" fill-opacity="0.0" r="18.56556124485633" /><circle cx="534.9536794019954" cy="200.24151630594577" fill-opacity="0.0" r="9.076323199021628" /><circle cx="1096.9925312543285" cy="201.96108384090246" fill-opacity="0.0" r="123.93148473000456" /><circle cx="595.2182231918664" cy="201.28468788648692" fill-opacity="0.0" r="3.711710160099894" /><circle cx="717.3945276161771" cy="203.07667900072653" fill-opacity="0.0" r="1" /><circle cx="727.5040886513145" cy="200.7388721674027" fill-opacity="0.0" r="1" /><circle cx="993.0842462506334" cy="203.78723870886824" fill-opacity="0.0" r="41.84276106465636" /><circle cx="703.3170774634287" cy="196.18116805764186" fill-opacity="0.0" r="1" /><circle cx="539.473710644002" cy="194.33658251221618" fill-opacity="0.0" r="8.538596389294062" /><circle cx="855.3581433596855" cy="198.31799009165823" fill-opacity="0.0" r="7.955322586358623" /><circle cx="557.2826674689677" cy="201.89422202056448" fill-opacity="0.0" r="6.660507494833743" /><circle cx="366.87119405565153" cy="202.84409381501064" fill-opacity="0.0" r="64.26003053008908" /><circle cx="1074.7216757556541" cy="198.05425972715116" fill-opacity="0.0" r="98.88390824833097" /><circle cx="1142.36787872676" cy="201.53601799750354" fill-opacity="0.0" r="194.57363687559808" /><circle cx="909.7531323696347" cy="196.25105277996943" fill-opacity="0.0" r="16.06312858665599" /><circle cx="930.2827557391774" cy="198.38869526932814" fill-opacity="0.0" r="20.54885030901938" /><circle cx="312.5778182906865" cy="203.87790615604612" fill-opacity="0.0" r="112.51554453810309" /><circle cx="532.9378488441058" cy="200.7115189187566" fill-opacity="0.0" r="9.324767211065295" /><circle cx="652.7288128885748" cy="199.4536710155665" fill-opacity="0.0" r="1.120643051673236" /><circle cx="881.4543218558706" cy="199.18230977076522" fill-opacity="0.0" r="11.26436426032613" /><circle cx="117.78772117135247" cy="199.2449889918637" fill-opacity="0.0" r="1819.7365312989948" /><circle cx="456.9821145714261" cy="205.10242493500004" fill-opacity="0.0" r="23.847669238080375" /><circle cx="805.3992737442875" cy="198.9088024881315" fill-opacity="0.0" r="3.7502191365554953" /><circle cx="893.0471137820283" cy="206.10747792264053" fill-opacity="0.0" r="13.05871736071466" /><circle cx="420.59315926600397" cy="205.532572379791" fill-opacity="0.0" r="36.000730602328595" /><circle cx="1194.9537773333145" cy="201.9785991893183" fill-opacity="0.0" r="350.18973145325884" /><circle cx="834.533700912457" cy="197.22741901221292" fill-opacity="0.0" r="5.913780492285307" /><circle cx="773.5283547483128" cy="198.47083725587714" fill-opacity="0.0" r="2.0857229385484586" /><circle cx="574.5783365390228" cy="198.74613377019344" fill-opacity="0.0" r="5.158888433351594" /><circle cx="933.7931081158778" cy="196.29297116547826" fill-opacity="0.0" r="21.415611289464795" /><circle cx="312.38280940122434" cy="203.67844264176992" fill-opacity="0.0" r="112.73796096788641" /><circle cx="700.442117827716" cy="201.54467657536983" fill-opacity="0.0" r="1" /><circle cx="951.3927667202821" cy="198.67366500149222" fill-opacity="0.0" r="26.262799825322006" /><circle cx="273.3679275353901" cy="204.65870207406758" fill-opacity="0.0" r="166.6048844332586" /><circle cx="498.89526754169964" cy="198.47906454006676" fill-opacity="0.0" r="14.44209774475941" /><circle cx="612.7770409127145" cy="202.33126670027735" fill-opacity="0.0" r="2.7250374057279467" /><circle cx="849.5670653834422" cy="203.49945840548847" fill-opacity="0.0" r="7.339746393277841" /><circle cx="759.0788524866646" cy="201.24814431176432" fill-opacity="0.0" r="1.5164215675756534" /><circle cx="568.3981868556496" cy="201.00532349495307" fill-opacity="0.0" r="5.662412256190373" /><circle cx="721.1872955848117" cy="203.31560815677935" fill-opacity="0.0" r="1" /><circle cx="771.2056071796163" cy="199.56123197050348" fill-opacity="0.0" r="1.987332358605838" /><circle cx="547.4894556032173" cy="201.90059898797864" fill-opacity="0.0" r="7.647744224906982" /><circle cx="591.6835855220012" cy="200.47290064877828" fill-opacity="0.0" r="3.935901962436935" /><circle cx="318.34271086007374" cy="200.2641474314484" fill-opacity="0.0" r="106.12332354098912" /><circle cx="711.9828452219296" cy="199.93508818649332" fill-opacity="0.0" r="1" /><circle cx="1122.1663877782053" cy="199.57362062933674" fill-opacity="0.0" r="159.38988531332674" /><circle cx="584.5997504084396" cy="194.16461200663323" fill-opacity="0.0" r="4.413609492713996" /><circle cx="861.6593920465748" cy="196.244250111173" fill-opacity="0.0" r="8.670927000601653" /><circle cx="865.4474205262602" cy="195.1212798162037" fill-opacity="0.0" r="9.125326198201632" /><circle cx="439.44609478398525" cy="206.07414506888267" fill-opacity="0.0" r="29.150480681625076" /><circle cx="223.10931539115762" cy="198.85644573438694" fill-opacity="0.0" r="272.3726575402752" /><circle cx="626.9666514040682" cy="203.50976890918827" fill-opacity="0.0" r="2.0645226119553097" /><circle cx="800.1805332476835" cy="201.90374557438065" fill-opacity="0.0" r="3.4332804346201695" /><circle cx="792.1802100215168" cy="195.81144829962514" fill-opacity="0.0" r="2.983342884667646" /><circle cx="559.2280026311679" cy="199.44061100572492" fill-opacity="0.0" r="6.476799395857625" /><circle cx="813.7554450143843" cy="197.74188644977153" fill-opacity="0.0" r="4.299207398267761" /><circle cx="805.0231345533438" cy="198.92792607202975" fill-opacity="0.0" r="3.726729217575467" /><circle cx="694.1294611304991" cy="198.12349360917563" fill-opacity="0.0" r="1" /><circle cx="1025.0859193691842" cy="204.96577821201404" fill-opacity="0.0" r="59.02662853123058" /><circle cx="766.0235739713407" cy="205.8622882895092" fill-opacity="0.0" r="1.7775533896254267" /><circle cx="1054.2933809086007" cy="202.08530887883938" fill-opacity="0.0" r="80.14986935502262" /><circle cx="822.15238037985" cy="204.15848550763423" fill-opacity="0.0" r="4.906382861898859" /><circle cx="1069.267836995546" cy="200.47646015055165" fill-opacity="0.0" r="93.51842716087623" /><circle cx="233.6833544163199" cy="196.6791144120513" fill-opacity="0.0" r="245.84743788346861" /><circle cx="620.0296177768395" cy="197.43350292925047" fill-opacity="0.0" r="2.3734530737772315" /><circle cx="915.1132719456089" cy="197.4489400094396" fill-opacity="0.0" r="17.143839068198456" /><circle cx="461.0192572787706" cy="202.09339102148712" fill-opacity="0.0" r="22.755020578735085" /><circle cx="1383.3620647745463" cy="198.80778372180907" fill-opacity="0.0" r="11655.273823366942" /><circle cx="129.97959554738998" cy="195.949787870349" fill-opacity="0.0" r="1449.6612493552452" /><circle cx="1313.689673017565" cy="197.35804341304103" fill-opacity="0.0" r="3260.66342660999" /><circle cx="1328.6230572902557" cy="203.68474748882838" fill-opacity="0.0" r="4292.405086662036" /><circle cx="761.2719190887336" cy="198.98799858815892" fill-opacity="0.0" r="1.596497103076395" /><circle cx="859.4396053816754" cy="200.43970488801946" fill-opacity="0.0" r="8.413210345432633" /><circle cx="889.2230604869573" cy="196.0136552264073" fill-opacity="0.0" r="12.442249044983216" /><circle cx="684.289009309594" cy="199.2576342256317" fill-opacity="0.0" r="1" /><circle cx="1337.0150306725168" cy="201.75673869407612" fill-opacity="0.0" r="5007.14305507861" /><circle cx="496.2367271011487" cy="198.94815201004576" fill-opacity="0.0" r="14.924868649978405" /><circle cx="1013.6758430487967" cy="197.47036541485755" fill-opacity="0.0" r="52.27248652788911" /><circle cx="1072.7483665026775" cy="195.05947670636817" fill-opacity="0.0" r="96.91020497421364" /><circle cx="473.7660977082727" cy="199.66001641482347" fill-opacity="0.0" r="19.587220197919798" /><circle cx="474.76360054101553" cy="199.9770782340267" fill-opacity="0.0" r="19.35640236600754" /><circle cx="938.3248749077571" cy="201.8641010600882" fill-opacity="0.0" r="22.581726879394335" /><circle cx="1010.791891843443" cy="199.1738722801997" fill-opacity="0.0" r="50.68146551883848" /><circle cx="1080.1069472939703" cy="200.00455296319518" fill-opacity="0.0" r="104.46328297254495" /><circle cx="474.6627807106711" cy="195.14767410512874" fill-opacity="0.0" r="19.379623886565476" /><circle cx="1180.5996528373541" cy="201.96617063022333" fill-opacity="0.0" r="282.3079566301137" /><circle cx="1178.1718350127005" cy="199.59946792553342" fill-opacity="0.0" r="275.7661175074882" /><circle cx="1488.2102034208528" cy="200.86649130183264" fill-opacity="0.0" r="76435.18584970298" /><circle cx="1126.5419642758884" cy="202.43803742733027" fill-opacity="0.0" r="166.45629338159372" /><circle cx="563.4740659815392" cy="196.59149927722524" fill-opacity="0.0" r="6.089348654698069" /><circle cx="679.2211211702191" cy="197.19732677040025" fill-opacity="0.0" r="1" /><circle cx="721.7465141602127" cy="202.15980630994088" fill-opacity="0.0" r="1" /><circle cx="844.8901462242459" cy="195.73509899982852" fill-opacity="0.0" r="6.8704321958041445" /><circle cx="894.5308099833484" cy="197.15757587284463" fill-opacity="0.0" r="13.304697486266079" /><circle cx="425.99412133721745" cy="199.29975581024848" fill-opacity="0.0" r="33.90430224849253" /><circle cx="572.1070618440004" cy="197.71303662176354" fill-opacity="0.0" r="5.356042642884899" /><circle cx="691.9659904324471" cy="198.16399762927273" fill-opacity="0.0" r="1" /><circle cx="721.2720284606838" cy="202.30878539342513" fill-opacity="0.0" r="1" /><circle cx="462.5899283745446" cy="200.831180352705" fill-opacity="0.0" r="22.341950392135743" /><circle cx="194.0331903938153" cy="201.07897169585505" fill-opacity="0.0" r="432.3969835793896" /><circle cx="198.52411202286106" cy="200.7624036305517" fill-opacity="0.0" r="396.8134915589202" /><circle cx="669.3583527073962" cy="194.6465083870942" fill-opacity="0.0" r="1" /><circle cx="372.9241037350437" cy="203.09056681969756" fill-opacity="0.0" r="60.283588457200885" /><circle cx="539.7159516107188" cy="201.8792828615148" fill-opacity="0.0" r="8.510517026875155" /><circle cx="560.4096578140816" cy="198.51589806753643" fill-opacity="0.0" r="6.367130329192363" /><circle cx="529.3653588109776" cy="198.63305935745637" fill-opacity="0.0" r="9.778584125071687" /><circle cx="400.72781945992716" cy="200.7446853834018" fill-opacity="0.0" r="44.75761759360237" /><circle cx="282.12876688789265" cy="196.2227428957943" fill-opacity="0.0" r="152.73003700663497" /><circle cx="890.7917378733181" cy="205.8921621559348" fill-opacity="0.0" r="12.69211624121575" /><circle cx="541.3266779719434" cy="198.627943792883" fill-opacity="0.0" r="8.325681401031039" /><circle cx="933.815085765722" cy="204.64836563243946" fill-opacity="0.0" r="21.421136907807547" /><circle cx="863.9783120097504" cy="205.0625999985588" fill-opacity="0.0" r="8.946876858879147" /><circle cx="1062.823013809555" cy="204.12916500601506" fill-opacity="0.0" r="87.52862918028312" /><circle cx="1227.067088481014" cy="201.5493437900708" fill-opacity="0.0" r="646.0476241082529" /><circle cx="242.07981208200835" cy="202.01182969384894" fill-opacity="0.0" r="226.55879328584393" /><circle cx="295.19869608057803" cy="201.26871144479986" fill-opacity="0.0" r="134.0440320675774" /><circle cx="595.8847110894837" cy="199.67133911312843" fill-opacity="0.0" r="3.670453629953783" /><circle cx="718.8107667048737" cy="202.72001620327217" fill-opacity="0.0" r="1" /><circle cx="596.5538786852939" cy="197.1483399405949" fill-opacity="0.0" r="3.629350410946398" /><circle cx="964.9294917451468" cy="198.13662993938993" fill-opacity="0.0" r="30.626833143096242" /><circle cx="933.5678723538003" cy="197.23109988207588" fill-opacity="0.0" r="21.35905428741106" /><circle cx="103.59278239598518" cy="202.77217417101198" fill-opacity="0.0" r="2368.7451932863187" /><circle cx="374.4831402014221" cy="199.12827687190654" fill-opacity="0.0" r="59.29676600140627" /><circle cx="317.61747317005353" cy="207.5380294885879" fill-opacity="0.0" r="106.9083323854218" /><circle cx="562.1580018700076" cy="204.63371189469504" fill-opacity="0.0" r="6.207486799756879" /><circle cx="765.0485016293245" cy="201.76958902063404" fill-opacity="0.0" r="1.7395373849826696" /><circle cx="1083.1427670524017" cy="202.66273444807328" fill-opacity="0.0" r="107.73706800342345" /><circle cx="669.5813796082256" cy="203.69621269859448" fill-opacity="0.0" r="1" /><circle cx="961.2656047679977" cy="199.638100769206" fill-opacity="0.0" r="29.3862028518363" /><circle cx="817.659425132128" cy="197.1960898294583" fill-opacity="0.0" r="4.574287588199639" /><circle cx="923.0035372602165" cy="199.36409303816004" fill-opacity="0.0" r="18.848260874154306" /><circle cx="787.9164834727775" cy="199.91500863358763" fill-opacity="0.0" r="2.7602710706948064" /><circle cx="1210.874120999775" cy="202.98618059604982" fill-opacity="0.0" r="474.8567617609747" /><circle cx="368.46562889481265" cy="199.05285933371297" fill-opacity="0.0" r="63.18975880179191" /><circle cx="870.0183089057217" cy="197.92628235595654" fill-opacity="0.0" r="9.699036630573852" /><circle cx="-114.40178416108279" cy="198.04488320322625" fill-opacity="0.0" r="121584.3075055778" /><circle cx="536.6601117953692" cy="193.81133380588903" fill-opacity="0.0" r="8.870210596786082" /><circle cx="750.6375392270452" cy="192.7689391451796" fill-opacity="0.0" r="1.2276392241753609" /><circle cx="742.7277935913195" cy="204.3829912188685" fill-opacity="0.0" r="1" /><circle cx="805.4629270389478" cy="196.64046140572307" fill-opacity="0.0" r="3.7542044091254954" /><circle cx="954.2545169557854" cy="199.02460756439646" fill-opacity="0.0" r="27.136278979546702" /><circle cx="804.9582854744785" cy="200.1153106138021" fill-opacity="0.0" r="3.722689708094666" /><circle cx="-55.21759721283104" cy="200.3534784140775" fill-opacity="0.0" r="42467.79474105023" /><circle cx="206.86202875250467" cy="198.9627580182201" fill-opacity="0.0" r="338.193499374342" /><circle cx="576.5619546806864" cy="198.61253163899426" fill-opacity="0.0" r="5.0045695696200445" /><circle cx="578.9152294064669" cy="200.11991598133986" fill-opacity="0.0" r="4.825929184250533" /><circle cx="657.4024752000773" cy="201.45105082801064" fill-opacity="0.0" r="1" /><circle cx="690.536321350295" cy="202.20736970737408" fill-opacity="0.0" r="1" /><circle cx="458.74876381011256" cy="198.96292054997085" fill-opacity="0.0" r="23.36398146172154" /><circle cx="844.733098683049" cy="196.817259995071" fill-opacity="0.0" r="6.855089435473433" /><circle cx="329.05119130218594" cy="201.33127555993912" fill-opacity="0.0" r="95.14244465904588" /><circle cx="561.2020645945627" cy="200.79526600552975" fill-opacity="0.0" r="6.294389824454069" /><circle cx="820.7795531960835" cy="196.46176230295845" fill-opacity="0.0" r="4.8031069162421876" /><circle cx="486.87544659926044" cy="196.4754245215906" fill-opacity="0.0" r="16.735819592280606" /><circle cx="127.21754505756735" cy="198.69698848311063" fill-opacity="0.0" r="1526.4018319581573" /><circle cx="198.4794050952982" cy="201.0795242739309" fill-opacity="0.0" r="397.15317250328746" /><circle cx="69.96105780842765" cy="196.26648906037155" fill-opacity="0.0" r="4405.51210807266" /><circle cx="111.54965996516444" cy="201.74491426483968" fill-opacity="0.0" r="2043.570656159433" /><circle cx="731.3039731543314" cy="194.84156916859448" fill-opacity="0.0" r="1" /><circle cx="336.26866081805144" cy="201.15249486361216" fill-opacity="0.0" r="88.35059496362743" /><circle cx="442.2584508724848" cy="195.0134276045166" fill-opacity="0.0" r="28.235384455281707" /><circle cx="543.3734530238889" cy="208.0270442627169" fill-opacity="0.0" r="8.095442461810695" /><circle cx="672.0612153028154" cy="203.86470237364412" fill-opacity="0.0" r="1" /><circle cx="350.89223364511423" cy="199.23340402982993" fill-opacity="0.0" r="75.95110295464085" /><circle cx="578.2291436296678" cy="198.84875835818085" fill-opacity="0.0" r="4.8775198161551865" /><circle cx="319.4869952580455" cy="196.05610431316813" fill-opacity="0.0" r="104.8957052246775" /><circle cx="974.1597947441076" cy="200.51042626133122" fill-opacity="0.0" r="33.96249254599515" /><circle cx="715.0604821868851" cy="203.72982682777993" fill-opacity="0.0" r="1" /><circle cx="864.6488715880012" cy="203.65274464335414" fill-opacity="0.0" r="9.02797584324135" /><circle cx="619.6514326068875" cy="197.96717801886564" fill-opacity="0.0" r="2.391045191504511" /><circle cx="610.9973650569359" cy="197.11096643630384" fill-opacity="0.0" r="2.816035766503064" /><circle cx="713.5021080570425" cy="198.6812839828344" fill-opacity="0.0" r="1" /><circle cx="837.3591960531669" cy="207.21284598390042" fill-opacity="0.0" r="6.163946147709444" /><circle cx="862.6379554077604" cy="199.09364174834246" fill-opacity="0.0" r="8.786528546590219" /><circle cx="680.379456399758" cy="201.85909407269972" fill-opacity="0.0" r="1" /><circle cx="467.83134876868564" cy="198.30542185705642" fill-opacity="0.0" r="21.010621504038916" /><circle cx="930.0836326139373" cy="206.44167020596947" fill-opacity="0.0" r="20.50061439766985" /><circle cx="390.31151331781024" cy="198.8006400365899" fill-opacity="0.0" r="50.08454793034069" /><circle cx="40.80900901514747" cy="205.20999691616979" fill-opacity="0.0" r="7510.463563168569" /><circle cx="761.8460411798287" cy="201.6165659175224" fill-opacity="0.0" r="1.6178184215698175" /><circle cx="925.8278322681836" cy="199.60078886244463" fill-opacity="0.0" r="19.492970655421995" /><circle cx="886.1505287452103" cy="208.13219780115082" fill-opacity="0.0" r="11.964727684329205" /><circle cx="407.59217870491796" cy="201.99801301903312" fill-opacity="0.0" r="41.53481390577006" /><circle cx="1428.7470016217505" cy="201.49700749170512" fill-opacity="0.0" r="26433.091813539246" /><circle cx="587.728347518901" cy="195.32010621290036" fill-opacity="0.0" r="4.19783579460313" /><circle cx="690.4645894812832" cy="202.60123159252151" fill-opacity="0.0" r="1" /><circle cx="972.5061734634711" cy="203.47079714860013" fill-opacity="0.0" r="33.341983737534065" /><circle cx="887.5873056225495" cy="199.52550815316843" fill-opacity="0.0" r="12.186087373417475" /><circle cx="559.0269164241479" cy="205.84770294000467" fill-opacity="0.0" r="6.495605841064988" /><circle cx="841.6541951039419" cy="201.3914851186574" fill-opacity="0.0" r="6.559618993364509" /><circle cx="723.7457400056447" cy="198.17499756058103" fill-opacity="0.0" r="1" /><circle cx="753.5094273249513" cy="204.80977039666834" fill-opacity="0.0" r="1.3225239370548696" /><circle cx="497.7348307718747" cy="201.2748528296341" fill-opacity="0.0" r="14.651168850186794" /><circle cx="971.6342972685195" cy="200.36080987483135" fill-opacity="0.0" r="33.01893241022767" /><circle cx="663.1136818985321" cy="201.96704348445837" fill-opacity="0.0" r="1" /><circle cx="320.2474325289328" cy="197.2495523409452" fill-opacity="0.0" r="104.08725850796819" /><circle cx="824.6183991142613" cy="197.70096300030147" fill-opacity="0.0" r="5.095980046805047" /><circle cx="564.141068893868" cy="197.01013806194211" fill-opacity="0.0" r="6.030132889779351" /><circle cx="784.4578549216602" cy="199.80880112359594" fill-opacity="0.0" r="2.5874038695556196" /><circle cx="882.1146347844899" cy="196.33982825531143" fill-opacity="0.0" r="11.360733784118146" /><circle cx="330.35741708108714" cy="195.0366633033806" fill-opacity="0.0" r="93.87821756073957" /><circle cx="702.1431871748164" cy="199.00565756463254" fill-opacity="0.0" r="1" /><circle cx="484.3969251072946" cy="201.07863853062673" fill-opacity="0.0" r="17.24563201092584" /><circle cx="720.8064749944325" cy="201.22029833186082" fill-opacity="0.0" r="1" /><circle cx="825.9044569364637" cy="196.8669637727701" fill-opacity="0.0" r="5.196974282551948" /><circle cx="1343.8382379718576" cy="197.162783288539" fill-opacity="0.0" r="5673.741068601696" /><circle cx="1064.589762572278" cy="195.89495478994078" fill-opacity="0.0" r="89.13401109938195" /><circle cx="501.1422880867592" cy="195.12416117671253" fill-opacity="0.0" r="14.04443755682601" /><circle cx="1125.0564039718631" cy="197.30637396592687" fill-opacity="0.0" r="164.02457120819733" /><circle cx="821.635010028652" cy="203.46083282039953" fill-opacity="0.0" r="4.867272872039521" /><circle cx="1029.9633812270388" cy="202.2411072378482" fill-opacity="0.0" r="62.151324905937535" /><circle cx="1000.9354887470545" cy="201.50666108287533" fill-opacity="0.0" r="45.57199357224152" /><circle cx="458.88880195749704" cy="198.17630357019542" fill-opacity="0.0" r="23.32601234212443" /><circle cx="569.0903492775674" cy="205.31301063148396" fill-opacity="0.0" r="5.604263917334206" /><circle cx="392.7223375069474" cy="202.26420563613027" fill-opacity="0.0" r="48.80263950102428" /><circle cx="1175.7422723966367" cy="200.03097400077587" fill-opacity="0.0" r="269.36472768056257" /><circle cx="573.4916352875888" cy="202.47301224952966" fill-opacity="0.0" r="5.244907394173563" /><circle cx="886.2577167918287" cy="197.9970680676895" fill-opacity="0.0" r="11.981125375183655" /><circle cx="651.4145700980647" cy="197.70777127688083" fill-opacity="0.0" r="1.161882407819038" /><circle cx="697.3773641987328" cy="199.23130287390558" fill-opacity="0.0" r="1" /><circle cx="187.71154823629092" cy="203.1123415364088" fill-opacity="0.0" r="487.83477664400505" /><circle cx="720.237684832057" cy="199.13722595712179" fill-opacity="0.0" r="1" /><circle cx="533.1312385478927" cy="200.1877690362303" fill-opacity="0.0" r="9.300696888780719" /><circle cx="501.18500635842213" cy="198.37679933982912" fill-opacity="0.0" r="14.036968266134618" /><circle cx="795.917771568825" cy="200.2970099210647" fill-opacity="0.0" r="3.1883062259972017" /><circle cx="603.567392129843" cy="198.44404347661091" fill-opacity="0.0" r="3.2172494703335106" /><circle cx="503.1375149222825" cy="202.00149504634976" fill-opacity="0.0" r="13.699133381193063" /><circle cx="920.6615257048616" cy="196.53176769994656" fill-opacity="0.0" r="18.32773093740301" /><circle cx="646.1026416696492" cy="200.82065495576921" fill-opacity="0.0" r="1.3356016977266334" /><circle cx="486.51428219616116" cy="198.03105183505312" fill-opacity="0.0" r="16.809292704644697" /><circle cx="774.1345717020073" cy="198.48606204998518" fill-opacity="0.0" r="2.111859289708377" /><circle cx="871.5308311032702" cy="200.25851934997803" fill-opacity="0.0" r="9.895198597330241" /><circle cx="452.63458626541444" cy="196.8325116779664" fill-opacity="0.0" r="25.075719495730155" /><circle cx="1047.4160917732547" cy="204.85807754828386" fill-opacity="0.0" r="74.62615551207736" /><circle cx="1182.5829923102551" cy="206.17323388697474" fill-opacity="0.0" r="287.76195903124494" /><circle cx="577.7971775606466" cy="202.00178384579308" fill-opacity="0.0" r="4.910208253174123" /><circle cx="598.0194119753943" cy="198.7840605648096" fill-opacity="0.0" r="3.540437444402068" /><circle cx="611.3403459664809" cy="203.9655942550163" fill-opacity="0.0" r="2.7983491885030483" /><circle cx="866.8926847413151" cy="197.69954742696768" fill-opacity="0.0" r="9.30367178188893" /><circle cx="967.7782548387397" cy="201.0233435632502" fill-opacity="0.0" r="31.623557176766905" /><circle cx="752.3230098115694" cy="199.1230379997893" fill-opacity="0.0" r="1.2829156726750637" /><circle cx="754.7480227066936" cy="199.16952760244746" fill-opacity="0.0" r="1.364499627537047" /><circle cx="500.52644862492855" cy="197.4882594059552" fill-opacity="0.0" r="14.152491000668684" /><circle cx="269.6380828445952" cy="194.5203218873304" fill-opacity="0.0" r="172.86690694218365" /><circle cx="1111.9651623634888" cy="201.8949812415837" fill-opacity="0.0" r="144.0007223466058" /><circle cx="1381.8839091706977" cy="203.31561877456457" fill-opacity="0.0" r="11347.006527517764" /><circle cx="445.16844993525933" cy="201.14708754931948" fill-opacity="0.0" r="27.31549229405806" /><circle cx="631.8910137844579" cy="190.40346204297396" fill-opacity="0.0" r="1.8603906359996387" /><circle cx="326.6537773739259" cy="203.73155630397716" fill-opacity="0.0" r="97.5042571675146" /><circle cx="369.5340134412584" cy="199.5082014699238" fill-opacity="0.0" r="62.48182583566827" /><circle cx="609.675579250777" cy="199.23791753141572" fill-opacity="0.0" r="2.88487050861029" /><circle cx="513.586316275923" cy="201.66085153669798" fill-opacity="0.0" r="12.005018692581366" /><circle cx="1380.818260071545" cy="205.97689187886806" fill-opacity="0.0" r="11129.775603138645" /><circle cx="787.1541174274092" cy="202.3121543033829" fill-opacity="0.0" r="2.721555744932842" /><circle cx="1058.4114632243743" cy="195.63358350365095" fill-opacity="0.0" r="83.63685043235452" /><circle cx="831.8987128326385" cy="200.1422541153066" fill-opacity="0.0" r="5.687493342428729" /><circle cx="1067.7847164529908" cy="200.75099503236328" fill-opacity="0.0" r="92.10708637670868" /><circle cx="945.5843685437305" cy="200.20727181531586" fill-opacity="0.0" r="24.56604493696384" /><circle cx="1133.5164188624772" cy="202.65270501901284" fill-opacity="0.0" r="178.33640109156954" /><circle cx="689.1032391383784" cy="199.16952280385766" fill-opacity="0.0" r="1" /><circle cx="266.7262609259333" cy="200.5760074522565" fill-opacity="0.0" r="177.9098695604348" /><circle cx="699.0410091479717" cy="198.23799178225323" fill-opacity="0.0" r="1" /><circle cx="962.4748479941571" cy="201.15364653667388" fill-opacity="0.0" r="29.79061465445684" /><circle cx="943.4071013196315" cy="198.06717981220945" fill-opacity="0.0" r="23.95540856845532" /><circle cx="541.364886083744" cy="201.13462868034668" fill-opacity="0.0" r="8.32133617077819" /><circle cx="539.9773583897519" cy="199.32753711168752" fill-opacity="0.0" r="8.480298993119014" /><circle cx="689.1689470819939" cy="199.21267913228132" fill-opacity="0.0" r="1" /><circle cx="618.6628676982069" cy="202.2099664198341" fill-opacity="0.0" r="2.4374077272266494" /><circle cx="1142.315672347921" cy="205.1101368176031" fill-opacity="0.0" r="194.47388113594806" /><circle cx="755.3985099104157" cy="202.9392653058996" fill-opacity="0.0" r="1.3868033260589283" /><circle cx="1124.6757628881326" cy="196.3317946461804" fill-opacity="0.0" r="163.40693113641296" /><circle cx="665.9761512604696" cy="201.2535585336033" fill-opacity="0.0" r="1" /><circle cx="1192.59173699356" cy="199.84336947891546" fill-opacity="0.0" r="334.6641425800115" /><circle cx="163.83110769892312" cy="204.19071463294011" fill-opacity="0.0" r="767.487098754145" /><circle cx="521.3702576610394" cy="196.1795740999885" fill-opacity="0.0" r="10.859718137017717" /><circle cx="557.2403344026154" cy="198.63890647670152" fill-opacity="0.0" r="6.664549432060021" /><circle cx="669.5497490938766" cy="199.44553936846447" fill-opacity="0.0" r="1" /><circle cx="585.1171579248542" cy="199.67299525590246" fill-opacity="0.0" r="4.377389733701955" /><circle cx="892.268754118064" cy="197.6353240536185" fill-opacity="0.0" r="12.931208649220281" /><circle cx="645.0959649819034" cy="198.4307998632422" fill-opacity="0.0" r="1.3698325933513569" /><circle cx="198.02725036910448" cy="199.0546738654235" fill-opacity="0.0" r="400.60466552918166" /><circle cx="974.7856375902961" cy="203.2555363041988" fill-opacity="0.0" r="34.20002699897106" /><circle cx="955.7633276317316" cy="200.53612203580136" fill-opacity="0.0" r="27.607099540067292" /><circle cx="499.31271900346536" cy="198.8857732787257" fill-opacity="0.0" r="14.367508261023781" /><circle cx="581.7884763685902" cy="196.69751338514007" fill-opacity="0.0" r="4.614187432918835" /><circle cx="485.0292077650701" cy="206.0293643940615" fill-opacity="0.0" r="17.114325483899357" /><circle cx="1013.7751378365697" cy="199.47264167451965" fill-opacity="0.0" r="52.328070876649335" /><circle cx="1339.8013823417486" cy="201.31089554421413" fill-opacity="0.0" r="5269.472183501368" /><circle cx="987.0639474992864" cy="197.43160292498018" fill-opacity="0.0" r="39.17324427290057" /><circle cx="936.343256557497" cy="200.2746786588642" fill-opacity="0.0" r="22.06515108153149" /><circle cx="729.7711804517112" cy="205.54824131937795" fill-opacity="0.0" r="1" /><circle cx="823.9497923776609" cy="197.96834062029663" fill-opacity="0.0" r="5.044051170412254" /><circle cx="537.4393891118666" cy="202.925497700901" fill-opacity="0.0" r="8.777346741798285" /><circle cx="864.5007046989692" cy="198.02050123269586" fill-opacity="0.0" r="9.010005427784945" /><circle cx="985.3538373170545" cy="204.60246135825312" fill-opacity="0.0" r="38.44359423120445" /><circle cx="734.1944498013086" cy="199.14753282571039" fill-opacity="0.0" r="1" /><circle cx="1039.0560447529906" cy="197.68971990917333" fill-opacity="0.0" r="68.3871851609965" /><circle cx="940.7036506963144" cy="202.33171433842665" fill-opacity="0.0" r="23.215820717297913" /><circle cx="1286.1579943775766" cy="200.45337085197502" fill-opacity="0.0" r="1958.3333275393875" /><circle cx="81.38735456250174" cy="200.4085928606559" fill-opacity="0.0" r="3570.4154000574435" /><circle cx="1007.2131961451889" cy="201.5460251451366" fill-opacity="0.0" r="48.76877603263025" /><circle cx="52.79833637411605" cy="202.86605263022597" fill-opacity="0.0" r="6033.812098900257" /><circle cx="702.6618004298525" cy="200.72121020951423" fill-opacity="0.0" r="1" /><circle cx="428.00596754323567" cy="199.25592171595468" fill-opacity="0.0" r="33.15188120198818" /><circle cx="926.5560521728187" cy="198.09919007323617" fill-opacity="0.0" r="19.662272972749236" /><circle cx="1171.617970983023" cy="201.552986790234" fill-opacity="0.0" r="258.82172488238615" /><circle cx="492.7738619875674" cy="203.265902262171" fill-opacity="0.0" r="15.574212486127003" /><circle cx="854.4035503671823" cy="206.26764110065017" fill-opacity="0.0" r="7.851143496348802" /><circle cx="1071.922635839046" cy="203.84452686645196" fill-opacity="0.0" r="96.09528864728935" /><circle cx="915.1816732016297" cy="200.35347217217407" fill-opacity="0.0" r="17.15802340176313" /><circle cx="927.2265756956007" cy="199.6874601434356" fill-opacity="0.0" r="19.81928953322876" /><circle cx="737.9738383581008" cy="209.50617034256328" fill-opacity="0.0" r="1" /><circle cx="77.84235060068966" cy="205.88007840874292" fill-opacity="0.0" r="3811.2483118263335" /><circle cx="616.1697883859595" cy="197.0802915931305" fill-opacity="0.0" r="2.5567871133012283" /><circle cx="1383.056531748475" cy="200.95732167033302" fill-opacity="0.0" r="11590.884565817509" /><circle cx="533.8262608868221" cy="202.81208389765257" fill-opacity="0.0" r="9.214605185315769" /><circle cx="814.3554356824726" cy="193.11109327498818" fill-opacity="0.0" r="4.340689826458787" /><circle cx="538.7150214514604" cy="197.74568644776596" fill-opacity="0.0" r="8.62702021271505" /><circle cx="338.97052399586585" cy="199.45523141409726" fill-opacity="0.0" r="85.92649763820741" /><circle cx="474.433944493151" cy="202.8499859976174" fill-opacity="0.0" r="19.432420747356737" /><circle cx="554.9472960755988" cy="202.18764250373815" fill-opacity="0.0" r="6.886341344994113" /><circle cx="595.6601151323308" cy="199.30289750897416" fill-opacity="0.0" r="3.684320880427771" /><circle cx="1162.5045313852947" cy="200.1950008513788" fill-opacity="0.0" r="236.90376315716222" /><circle cx="551.6419338229082" cy="195.16950425821182" fill-opacity="0.0" r="7.216099094198308" /><circle cx="155.59208632881393" cy="200.50475102726637" fill-opacity="0.0" r="896.5638915752508" /><circle cx="820.5607716116074" cy="204.06335745746492" fill-opacity="0.0" r="4.786796362181134" /><circle cx="444.7629113794255" cy="195.78739223873012" fill-opacity="0.0" r="27.442071030988043" /><circle cx="561.0916208931974" cy="203.38028638287994" fill-opacity="0.0" r="6.30448981551707" /><circle cx="964.0481514815817" cy="200.80210020210245" fill-opacity="0.0" r="30.32420860126081" /><circle cx="-152.23643927674368" cy="202.98783759176692" fill-opacity="0.0" r="236907.70602956542" /><circle cx="518.1809711330399" cy="202.7108348871076" fill-opacity="0.0" r="11.317507534918793" /><circle cx="729.5851510790695" cy="196.36263907878777" fill-opacity="0.0" r="1" /><circle cx="546.5768407725373" cy="196.53423404287332" fill-opacity="0.0" r="7.745276060324274" /><circle cx="1248.0305265306301" cy="200.00380880026609" fill-opacity="0.0" r="959.85273296783" /><circle cx="656.7236305926375" cy="201.724148551724" fill-opacity="0.0" r="1" /><circle cx="565.2842339229899" cy="197.7000419366907" fill-opacity="0.0" r="5.9296635634798935" /><circle cx="155.2909865136611" cy="204.8231005413541" fill-opacity="0.0" r="901.6642011342271" /><circle cx="386.0244794835839" cy="194.46596032305095" fill-opacity="0.0" r="52.44040820979429" /><circle cx="568.8492303218561" cy="203.26900931551134" fill-opacity="0.0" r="5.624469025244642" /><circle cx="727.001002024428" cy="200.7707492809237" fill-opacity="0.0" r="1" /><circle cx="955.461275462054" cy="206.1115529483154" fill-opacity="0.0" r="27.512268606000013" /><circle cx="412.5250864654968" cy="203.14016686066208" fill-opacity="0.0" r="39.35044625607687" /><circle cx="818.1769014675914" cy="199.94957556614145" fill-opacity="0.0" r="4.611677929897247" /><circle cx="602.3862258939469" cy="202.99648638685866" fill-opacity="0.0" r="3.2843149104927556" /><circle cx="659.634009739337" cy="199.6393681617053" fill-opacity="0.0" r="1" /><circle cx="368.5592750721271" cy="199.15490351990064" fill-opacity="0.0" r="63.127412523781395" /><circle cx="972.0617773806307" cy="205.0677129164131" fill-opacity="0.0" r="33.176971626371284" /><circle cx="557.7749499874577" cy="199.20402953076126" fill-opacity="0.0" r="6.613643575915089" /><circle cx="547.0056939372821" cy="203.5338339288103" fill-opacity="0.0" r="7.699322666243466" /><circle cx="506.2273004617538" cy="201.10673382563422" fill-opacity="0.0" r="13.17852953734892" /><circle cx="1108.2155603005442" cy="199.9561455585688" fill-opacity="0.0" r="138.70547607827092" /><circle cx="609.0735665894825" cy="196.3342362616983" fill-opacity="0.0" r="2.9165790737776884" /><circle cx="748.254891036038" cy="201.13568635440672" fill-opacity="0.0" r="1.1514468731788206" /><circle cx="466.3381150846935" cy="200.185890342722" fill-opacity="0.0" r="21.38264507900093" /><circle cx="615.9853881251694" cy="195.3505797545445" fill-opacity="0.0" r="2.565758557371702" /><circle cx="988.6503573749346" cy="194.69453743983644" fill-opacity="0.0" r="39.861289890503926" /><circle cx="610.7052160915373" cy="198.23808530360228" fill-opacity="0.0" r="2.831157703379085" /><circle cx="321.39545858254826" cy="195.36993262237186" fill-opacity="0.0" r="102.87779843305626" /><circle cx="584.8675958262719" cy="196.78492116410993" fill-opacity="0.0" r="4.394832942143459" /><circle cx="1066.9998571853764" cy="208.07899022274654" fill-opacity="0.0" r="91.36828084236404" /><circle cx="512.3380960103214" cy="205.33383546464063" fill-opacity="0.0" r="12.197673044171685" /><circle cx="1015.9894085355746" cy="200.67561956080547" fill-opacity="0.0" r="53.58175371254032" /><circle cx="492.00254434022725" cy="199.62908852430846" fill-opacity="0.0" r="15.722078819882666" /><circle cx="843.2438974941979" cy="195.52976947646636" fill-opacity="0.0" r="6.710918686127135" /><circle cx="1422.4584156764608" cy="198.36441362410645" fill-opacity="0.0" r="23608.728498048426" /><circle cx="917.162855939871" cy="202.38977810436455" fill-opacity="0.0" r="17.57326464686527" /><circle cx="337.9912316515457" cy="200.4877313650916" fill-opacity="0.0" r="86.79786154876128" /><circle cx="562.6483273342292" cy="193.02257418126598" fill-opacity="0.0" r="6.163269515421842" /><circle cx="1450.3748315481084" cy="203.20355305094776" fill-opacity="0.0" r="38946.3090202819" /><circle cx="697.0599747736726" cy="199.89343971021057" fill-opacity="0.0" r="1" /><circle cx="1079.7366531385328" cy="200.74668372338036" fill-opacity="0.0" r="104.0704019418033" /><circle cx="503.3935792885463" cy="197.49949496904" fill-opacity="0.0" r="13.655340796762108" /><circle cx="496.43209063455055" cy="197.5411178362808" fill-opacity="0.0" r="14.888931923426156" /><circle cx="769.555750092504" cy="202.88506923651107" fill-opacity="0.0" r="1.919105643120671" /><circle cx="1015.9423015532001" cy="202.71547321939107" fill-opacity="0.0" r="53.55479848611381" /><circle cx="444.390554978608" cy="200.01142282954547" fill-opacity="0.0" r="27.55875104604126" /><circle cx="1042.1893352448792" cy="199.7343443888074" fill-opacity="0.0" r="70.66661028934325" /><circle cx="388.9870980202854" cy="204.51386491771905" fill-opacity="0.0" r="50.801806295029515" /><circle cx="976.6009940170122" cy="197.36888984365353" fill-opacity="0.0" r="34.89750343903338" /><circle cx="938.7344194896338" cy="205.67372220294877" fill-opacity="0.0" r="22.689800633071734" /><circle cx="873.6918177397087" cy="201.14210823354145" fill-opacity="0.0" r="10.181062737921481" /><circle cx="666.6689096321584" cy="197.21029063624476" fill-opacity="0.0" r="1" /><circle cx="1081.8950026747223" cy="201.0637038877891" fill-opacity="0.0" r="106.38003149181361" /><circle cx="613.1521677005348" cy="197.05028328571467" fill-opacity="0.0" r="2.70609976694717" /><circle cx="670.2647485234507" cy="199.63642522406994" fill-opacity="0.0" r="1" /><circle cx="300.1779334331321" cy="198.02793334435168" fill-opacity="0.0" r="127.50982190210735" /><circle cx="409.8726685176779" cy="202.66180377970664" fill-opacity="0.0" r="40.51168544630933" /><circle cx="1033.1229766032866" cy="201.11805400712475" fill-opacity="0.0" r="64.2560872820213" /><circle cx="510.8684350982687" cy="202.99981733513823" fill-opacity="0.0" r="12.427803003716404" /><circle cx="894.955450061249" cy="197.10071225777688" fill-opacity="0.0" r="13.37581050268979" /><circle cx="848.3304176369027" cy="200.72139298653096" fill-opacity="0.0" r="7.213290613462237" /><circle cx="627.0638856080895" cy="203.3900856682888" fill-opacity="0.0" r="2.060373088667166" /><circle cx="193.19805308652667" cy="199.22727426847575" fill-opacity="0.0" r="439.3504791880856" /><circle cx="880.3917411972212" cy="200.9306624996656" fill-opacity="0.0" r="11.11070502179152" /><circle cx="1096.485595130973" cy="196.07902187864684" fill-opacity="0.0" r="123.30045773438884" /><circle cx="243.54849920052897" cy="194.95985105893445" fill-opacity="0.0" r="223.33660278876073" /><circle cx="754.152504841175" cy="203.4515205944722" fill-opacity="0.0" r="1.3442373787030257" /><circle cx="482.55636597286275" cy="203.01361145896135" fill-opacity="0.0" r="17.632807724280216" /><circle cx="639.7922732136766" cy="196.31107030956605" fill-opacity="0.0" r="1.55737083363692" /><circle cx="915.4511917495969" cy="202.3643795221006" fill-opacity="0.0" r="17.214011568304446" /><circle cx="579.5396936175158" cy="199.30134182368576" fill-opacity="0.0" r="4.779320063784466" /><circle cx="387.10509719319145" cy="204.63293602030984" fill-opacity="0.0" r="51.83720405771646" /><circle cx="689.8442956807962" cy="199.92181015982732" fill-opacity="0.0" r="1" /><circle cx="433.94156544497355" cy="199.8133547104591" fill-opacity="0.0" r="31.018416562217265" /><circle cx="928.3005291030591" cy="196.7686304837478" fill-opacity="0.0" r="20.073048384882792" /><circle cx="453.3061696235552" cy="196.718358216638" fill-opacity="0.0" r="24.882449849681805" /><circle cx="955.0866623708764" cy="193.45719082031044" fill-opacity="0.0" r="27.395058619000114" /><circle cx="559.5468519647725" cy="199.33133898748835" fill-opacity="0.0" r="6.44706515931538" /><circle cx="671.5411281938343" cy="198.65049069582972" fill-opacity="0.0" r="1" /><circle cx="126.63284498535438" cy="202.8469434347532" fill-opacity="0.0" r="1543.1522544823833" /><circle cx="650.5775796671361" cy="200.0367493620728" fill-opacity="0.0" r="1.1885000553449205" /><circle cx="862.8169998182719" cy="200.9488482550633" fill-opacity="0.0" r="8.807813068344851" /><circle cx="854.782399610936" cy="199.0786205812222" fill-opacity="0.0" r="7.89235886254055" /><circle cx="260.7426485614621" cy="205.48403774108772" fill-opacity="0.0" r="188.71405810850695" /><circle cx="511.1029151133667" cy="198.20106261864186" fill-opacity="0.0" r="12.390845399242565" /><circle cx="835.6049032497999" cy="200.02246479936028" fill-opacity="0.0" r="6.007696205726434" /><circle cx="1013.3025975160917" cy="199.61196399169853" fill-opacity="0.0" r="52.064030195636064" /><circle cx="468.3522438422144" cy="204.15657364689253" fill-opacity="0.0" r="20.882181961271083" /><circle cx="912.087721786014" cy="201.85651627134772" fill-opacity="0.0" r="16.526421266448192" /><circle cx="681.7284497934936" cy="203.29860749731193" fill-opacity="0.0" r="1" /><circle cx="1012.139054242094" cy="199.33845825002166" fill-opacity="0.0" r="51.41906964744163" /><circle cx="331.18370676043736" cy="201.06141499328234" fill-opacity="0.0" r="93.08661406331682" /><circle cx="967.5959402397463" cy="198.28499110211604" fill-opacity="0.0" r="31.558910915165782" /><circle cx="974.8095507844175" cy="199.50628648281673" fill-opacity="0.0" r="34.20913262099796" /><circle cx="1052.4203073790914" cy="194.10659084402766" fill-opacity="0.0" r="78.60899301103166" /><circle cx="909.1669666316366" cy="195.6729717496314" fill-opacity="0.0" r="15.948566776038966" /><circle cx="1048.0407658350189" cy="202.88392657564478" fill-opacity="0.0" r="75.11289339850946" /><circle cx="639.2876735323133" cy="201.75098232895647" fill-opacity="0.0" r="1.575859334653881" /><circle cx="343.3695366942558" cy="198.41846685479342" fill-opacity="0.0" r="82.11182836457994" /><circle cx="234.60162781604885" cy="200.5318880991351" fill-opacity="0.0" r="243.66408446426698" /><circle cx="525.4326146295275" cy="199.8422611971456" fill-opacity="0.0" r="10.298790697779173" /><circle cx="716.033865886548" cy="205.33254238249157" fill-opacity="0.0" r="1" /><circle cx="1219.7650550145877" cy="192.70830924686422" fill-opacity="0.0" r="562.4352744976389" /><circle cx="627.3319468651874" cy="202.1085819213512" fill-opacity="0.0" r="2.0489586229511123" /><circle cx="519.5371076062443" cy="200.77306487886236" fill-opacity="0.0" r="11.120939763993071" /><circle cx="505.71481157670837" cy="201.07642598328331" fill-opacity="0.0" r="13.263709414108456" /><circle cx="1165.1114505475198" cy="198.92865683072156" fill-opacity="0.0" r="242.9856786408943" /><circle cx="851.1560552496372" cy="202.64234082051016" fill-opacity="0.0" r="7.504776883186269" /><circle cx="1117.8671760044695" cy="198.8065996352828" fill-opacity="0.0" r="152.72387248287987" /><circle cx="673.8144075755448" cy="197.3256979963471" fill-opacity="0.0" r="1" /><circle cx="888.0723255108476" cy="198.33122541177008" fill-opacity="0.0" r="12.26157890619245" /><circle cx="400.37956821438655" cy="202.28795608473501" fill-opacity="0.0" r="44.927021000082064" /><circle cx="360.888419103362" cy="201.83356100535187" fill-opacity="0.0" r="68.42698778537395" /><circle cx="1107.6865690203135" cy="202.6165082233338" fill-opacity="0.0" r="137.9733819405973" /><circle cx="1020.7879134278166" cy="199.81410690699164" fill-opacity="0.0" r="56.39364125631742" /><circle cx="663.9241082310971" cy="197.95790254059503" fill-opacity="0.0" r="1" /><circle cx="774.8764361117173" cy="199.71308302532051" fill-opacity="0.0" r="2.1441048683429416" /><circle cx="936.5600286419613" cy="202.15441103361036" fill-opacity="0.0" r="22.121151004444712" /><circle cx="719.2434772620472" cy="202.99799425812373" fill-opacity="0.0" r="1" /><circle cx="773.0884743419231" cy="201.51506872556257" fill-opacity="0.0" r="2.0668772979600956" /><circle cx="334.93370775914866" cy="198.9932629044588" fill-opacity="0.0" r="89.57169336654032" /><circle cx="353.44088491991863" cy="198.70107888968272" fill-opacity="0.0" r="73.96316816811043" /><circle cx="470.0286614404812" cy="203.02576423692366" fill-opacity="0.0" r="20.473455628976645" /><circle cx="957.3871745158066" cy="201.2381263003946" fill-opacity="0.0" r="28.121909179712816" /><circle cx="992.5059524632559" cy="201.24337439161516" fill-opacity="0.0" r="41.579360944564336" /><circle cx="746.7358432448806" cy="195.4556019257062" fill-opacity="0.0" r="1.1040372296453635" /><circle cx="711.2347195229071" cy="197.54339281339873" fill-opacity="0.0" r="1" /><circle cx="899.213079140517" cy="197.36193898741223" fill-opacity="0.0" r="14.106703835182534" /><circle cx="923.208510372876" cy="203.2351151586638" fill-opacity="0.0" r="18.89442044709107" /><circle cx="514.3455362550692" cy="198.2539639398888" fill-opacity="0.0" r="11.889082314742664" /><circle cx="638.9060184327273" cy="204.01339760037467" fill-opacity="0.0" r="1.5899194013515563" /><circle cx="613.9386222042576" cy="201.96827156430888" fill-opacity="0.0" r="2.6666691387227384" /><circle cx="578.6928399730365" cy="200.04152240125308" fill-opacity="0.0" r="4.842607935677379" /><circle cx="510.318526870209" cy="199.23104575033634" fill-opacity="0.0" r="12.514838251636565" /><circle cx="809.6874947215465" cy="203.48796833953847" fill-opacity="0.0" r="4.025355483871124" /><circle cx="254.4583448854309" cy="202.6471750885596" fill-opacity="0.0" r="200.73021242889067" /><circle cx="735.0559939398304" cy="203.1827242010901" fill-opacity="0.0" r="1" /><circle cx="511.3435360985317" cy="194.65432823819486" fill-opacity="0.0" r="12.353015341532517" /><circle cx="794.2498592436524" cy="202.7234832156345" fill-opacity="0.0" r="3.0957285178684226" /><circle cx="668.1071661102867" cy="201.7946650955232" fill-opacity="0.0" r="1" /><circle cx="513.5998859685885" cy="199.63032097736476" fill-opacity="0.0" r="12.002938312817971" /><circle cx="588.360042326564" cy="196.88198696403268" fill-opacity="0.0" r="4.1551993840897525" /><circle cx="482.7293518288962" cy="193.55633234825973" fill-opacity="0.0" r="17.596103042651606" /><circle cx="860.643118749312" cy="199.51603498539407" fill-opacity="0.0" r="8.55216514836497" /><circle cx="1258.0938365887407" cy="201.86972652261963" fill-opacity="0.0" r="1159.59956535336" /><circle cx="449.6281549639276" cy="199.42058284838743" fill-opacity="0.0" r="25.957270786751845" /><circle cx="440.50398364265374" cy="198.97227138481392" fill-opacity="0.0" r="28.803209103096837" /><circle cx="823.4122554442628" cy="196.49910039541066" fill-opacity="0.0" r="5.002585908414751" /><circle cx="711.2854317484406" cy="194.45530124465895" fill-opacity="0.0" r="1" /><circle cx="1256.68201199287" cy="201.742501617695" fill-opacity="0.0" r="1129.2908453233106" /><circle cx="376.4781127998032" cy="193.72673398753977" fill-opacity="0.0" r="58.05568721654779" /><circle cx="588.8308725197929" cy="196.0276861561976" fill-opacity="0.0" r="4.123620985810535" /><circle cx="851.4920546399154" cy="197.25453868088255" fill-opacity="0.0" r="7.540043895196586" /><circle cx="673.3304851462075" cy="197.8811470711247" fill-opacity="0.0" r="1" /><circle cx="1266.7790731613443" cy="201.5149413139819" fill-opacity="0.0" r="1364.432714285599" /><circle cx="850.3832214879158" cy="206.79045030274284" fill-opacity="0.0" r="7.424151324472245" /><circle cx="463.7629929974412" cy="200.9533517777941" fill-opacity="0.0" r="22.037748414369737" /><circle cx="541.6493668307983" cy="203.02093791340403" fill-opacity="0.0" r="8.289040347448513" /><circle cx="687.1549659574459" cy="201.75105095076853" fill-opacity="0.0" r="1" /><circle cx="354.1541561798946" cy="194.79986079230198" fill-opacity="0.0" r="73.41552485577763" /><circle cx="697.6503695359579" cy="200.49953717311246" fill-opacity="0.0" r="1" /><circle cx="544.5049035536488" cy="200.53881670073477" fill-opacity="0.0" r="7.970358333709027" /><circle cx="432.9420773091136" cy="197.29790215175154" fill-opacity="0.0" r="31.36882594689378" /><circle cx="501.2405703858538" cy="196.72592257265265" fill-opacity="0.0" r="14.027257917719725" /><circle cx="169.41922961508828" cy="195.18625531557" fill-opacity="0.0" r="690.5128006132974" /><circle cx="1220.6699213382442" cy="197.12094206345958" fill-opacity="0.0" r="572.190016108193" /><circle cx="344.10144682238075" cy="198.16156247310357" fill-opacity="0.0" r="81.49264569876095" /><circle cx="344.2898057901923" cy="202.92468391204497" fill-opacity="0.0" r="81.33400145160978" /><circle cx="862.0818403656825" cy="200.0977622053898" fill-opacity="0.0" r="8.720681758368253" /><circle cx="777.720857900021" cy="198.63991905983283" fill-opacity="0.0" r="2.270441040539815" /><circle cx="783.6920422101938" cy="198.17304127925792" fill-opacity="0.0" r="2.5500777787105844" /><circle cx="371.31204720348876" cy="202.4165355366209" fill-opacity="0.0" r="61.31985258155544" /><circle cx="-126.78274569522307" cy="198.0762241231343" fill-opacity="0.0" r="151309.91133284173" /><circle cx="903.9461643053817" cy="197.67299436007366" fill-opacity="0.0" r="14.958577920029432" /><circle cx="552.8671645612669" cy="198.4353147060049" fill-opacity="0.0" r="7.092460156073136" /><circle cx="706.824645581967" cy="200.22105470525253" fill-opacity="0.0" r="1" /><circle cx="311.84894502208175" cy="202.57851182367446" fill-opacity="0.0" r="113.34896997022794" /><circle cx="665.7745735315794" cy="197.4769031448863" fill-opacity="0.0" r="1" /><circle cx="1016.6211788213245" cy="197.43622589134011" fill-opacity="0.0" r="53.94446477625066" /><circle cx="607.0301239290507" cy="197.5456460226666" fill-opacity="0.0" r="3.0259010496841214" /><circle cx="191.9077698612934" cy="200.10051536136646" fill-opacity="0.0" r="450.3095140697116" /><circle cx="509.6235022857248" cy="197.07722893887924" fill-opacity="0.0" r="12.625569814883914" /><circle cx="846.3496442908186" cy="198.11535590563489" fill-opacity="0.0" r="7.014298293185373" /><circle cx="858.928127733232" cy="203.60327792215355" fill-opacity="0.0" r="8.3547055859206" /><circle cx="234.57312107803676" cy="195.91766413149642" fill-opacity="0.0" r="243.73158516667172" /><circle cx="796.0239137653243" cy="204.04088563072725" fill-opacity="0.0" r="3.1942591030930365" /><circle cx="428.66126889552027" cy="200.50473907628856" fill-opacity="0.0" r="32.91005688071129" /><circle cx="558.0004454959942" cy="200.41298552003568" fill-opacity="0.0" r="6.592262263274133" /><circle cx="1066.0667879443404" cy="197.0319190387828" fill-opacity="0.0" r="90.49715665572911" /><circle cx="732.3800132216041" cy="202.97691106481636" fill-opacity="0.0" r="1" /><circle cx="905.1609937911347" cy="200.51295497631153" fill-opacity="0.0" r="15.184134056500366" /><circle cx="608.0669831744057" cy="202.41570520991604" fill-opacity="0.0" r="2.970101707234099" /><circle cx="337.53493556417544" cy="203.5157802700827" fill-opacity="0.0" r="87.20667409781218" /><circle cx="678.3115615463802" cy="200.22760453074542" fill-opacity="0.0" r="1" /><circle cx="731.1632164470294" cy="206.26885217333185" fill-opacity="0.0" r="1" /><circle cx="282.2625546045378" cy="197.89620234202434" fill-opacity="0.0" r="152.5268787813239" /><circle cx="877.3601482454936" cy="193.03436792729704" fill-opacity="0.0" r="10.68178250124567" /><circle cx="351.0143496387711" cy="200.18939517596135" fill-opacity="0.0" r="75.8547337500565" /><circle cx="773.8438531562149" cy="200.21064122283366" fill-opacity="0.0" r="2.099301448107446" /><circle cx="833.2600272978872" cy="200.71522903347943" fill-opacity="0.0" r="5.803566827422767" /><circle cx="58.799972686073374" cy="194.1500154370651" fill-opacity="0.0" r="5406.214792508999" /><circle cx="1163.8411870460257" cy="202.1746701116532" fill-opacity="0.0" r="240.00380652226397" /><circle cx="728.6826627542562" cy="205.4712793395094" fill-opacity="0.0" r="1" /><circle cx="1027.4353438646212" cy="203.70285149637465" fill-opacity="0.0" r="60.513241885981714" /><circle cx="565.45816337373" cy="201.81145562803366" fill-opacity="0.0" r="5.91448954933975" /><circle cx="886.6624517405455" cy="198.2949222214886" fill-opacity="0.0" r="12.04321073099308" /><circle cx="992.7923933369071" cy="199.56389310674467" fill-opacity="0.0" r="41.709639894181734" /><circle cx="1344.764436699983" cy="198.25296945931512" fill-opacity="0.0" r="5770.72471334355" /><circle cx="370.2524088730545" cy="200.1223637325564" fill-opacity="0.0" r="62.00992167577" /><circle cx="738.0222215236814" cy="198.99455076277746" fill-opacity="0.0" r="1" /><circle cx="732.9868573402584" cy="203.8364424475483" fill-opacity="0.0" r="1" /><circle cx="700.4208288194524" cy="200.7479898699074" fill-opacity="0.0" r="1" /><circle cx="713.7778180744481" cy="200.93174698239102" fill-opacity="0.0" r="1" /><circle cx="444.9106880291787" cy="197.90458935413946" fill-opacity="0.0" r="27.395886074173372" /><circle cx="133.78575389698926" cy="199.06966974003794" fill-opacity="0.0" r="1350.09361185029" /><circle cx="305.45829215945804" cy="197.37150242289746" fill-opacity="0.0" r="120.90862880056584" /><circle cx="593.0860273357714" cy="203.9619448783612" fill-opacity="0.0" r="3.845852718193759" /><circle cx="760.0011542166167" cy="195.7020168585531" fill-opacity="0.0" r="1.549835011608814" /><circle cx="716.5653653895822" cy="200.15007088289306" fill-opacity="0.0" r="1" /><circle cx="860.9367254064261" cy="201.5648577942801" fill-opacity="0.0" r="8.58634134180536" /><circle cx="446.2421077682002" cy="201.32609912020723" fill-opacity="0.0" r="26.98287471163922" /><circle cx="651.3635911512608" cy="194.53649115821227" fill-opacity="0.0" r="1.1634957039359661" /><circle cx="555.1636373975232" cy="198.23946867569455" fill-opacity="0.0" r="6.865174805679332" /><circle cx="759.9873394973168" cy="203.00568879946982" fill-opacity="0.0" r="1.5493317287511672" /><circle cx="530.0690942363582" cy="199.27384430452676" fill-opacity="0.0" r="9.687798604876429" /><circle cx="863.7354961014045" cy="198.27698899804676" fill-opacity="0.0" r="8.917655287892874" /><circle cx="1112.0549206096957" cy="203.9200896021887" fill-opacity="0.0" r="144.12978777589825" /><circle cx="706.143275516928" cy="194.34771212115572" fill-opacity="0.0" r="1" /></g></svg>