<?xml version="1.0" encoding="utf-8" ?>
<svg baseProfile="full" height="2160" version="1.1" width="2160" xmlns="http://www.w3.org/2000/svg" xmlns:ev="http://www.w3.org/2001/xml-events" xmlns:xlink="http://www.w3.org/1999/xlink"><defs /><g fill="none" id="shape_group" stroke="url(#id17) none" stroke-width="1"><rect fill="#000" height="2160" stroke="#000" width="2160" x="0" y="0" /><circle cx="1080.0" cy="1720.0" fill-opacity="0.0" r="360.0" /><circle cx="1140.626508695239" cy="1656.8226993135986" fill-opacity="0.0" r="360.0" /><circle cx="1196.4305468579453" cy="1627.7626564109312" fill-opacity="0.0" r="360.0" /><circle cx="1271.5905365124675" cy="1669.6550401029951" fill-opacity="0.0" r="360.0" /><circle cx="1324.0419858454802" cy="1628.1272745855604" fill-opacity="0.0" r="360.0" /><circle cx="1350.0" cy="1547.6537180435969" fill-opacity="0.0" r="360.0" /><circle cx="1432.671151375484" cy="1565.4101966249684" fill-opacity="0.0" r="360.0" /><circle cx="1494.8609759424921" cy="1540.7497917959845" fill-opacity="0.0" r="360.0" /><circle cx="1496.1611022673408" cy="1454.7131395609606" fill-opacity="0.0" r="360.0" /><circle cx="1549.2298567374696" cy="1420.9154463296345" fill-opacity="0.0" r="360.0" /><circle cx="1634.2562584220407" cy="1400.0" fill-opacity="0.0" r="360.0" /><circle cx="1609.8563654327086" cy="1315.907252983964" fill-opacity="0.0" r="360.0" /><circle cx="1612.591649125286" cy="1253.0495168499706" fill-opacity="0.0" r="360.0" /><circle cx="1686.4515124549594" cy="1208.9052483070109" fill-opacity="0.0" r="360.0" /><circle cx="1676.713137220964" cy="1142.7170779605922" fill-opacity="0.0" r="360.0" /><circle cx="1620.0" cy="1080.0" fill-opacity="0.0" r="360.0" /><circle cx="1676.713137220964" cy="1017.2829220394078" fill-opacity="0.0" r="360.0" /><circle cx="1686.4515124549596" cy="951.0947516929892" fill-opacity="0.0" r="360.0" /><circle cx="1612.591649125286" cy="906.9504831500295" fill-opacity="0.0" r="360.0" /><circle cx="1609.8563654327086" cy="844.0927470160359" fill-opacity="0.0" r="360.0" /><circle cx="1634.256258422041" cy="760.0000000000001" fill-opacity="0.0" r="360.0" /><circle cx="1549.2298567374696" cy="739.0845536703657" fill-opacity="0.0" r="360.0" /><circle cx="1496.1611022673408" cy="705.2868604390394" fill-opacity="0.0" r="360.0" /><circle cx="1494.8609759424921" cy="619.2502082040156" fill-opacity="0.0" r="360.0" /><circle cx="1432.671151375484" cy="594.5898033750316" fill-opacity="0.0" r="360.0" /><circle cx="1350.0" cy="612.3462819564031" fill-opacity="0.0" r="360.0" /><circle cx="1324.0419858454802" cy="531.8727254144395" fill-opacity="0.0" r="360.0" /><circle cx="1271.5905365124675" cy="490.34495989700486" fill-opacity="0.0" r="360.0" /><circle cx="1196.4305468579453" cy="532.2373435890688" fill-opacity="0.0" r="360.0" /><circle cx="1140.6265086952392" cy="503.1773006864015" fill-opacity="0.0" r="360.0" /><circle cx="1080.0" cy="440.0" fill-opacity="0.0" r="360.0" /><circle cx="1019.3734913047609" cy="503.1773006864015" fill-opacity="0.0" r="360.0" /><circle cx="963.5694531420547" cy="532.2373435890689" fill-opacity="0.0" r="360.0" /><circle cx="888.4094634875327" cy="490.34495989700474" fill-opacity="0.0" r="360.0" /><circle cx="835.9580141545199" cy="531.8727254144395" fill-opacity="0.0" r="360.0" /><circle cx="810.0" cy="612.3462819564031" fill-opacity="0.0" r="360.0" /><circle cx="727.3288486245162" cy="594.5898033750316" fill-opacity="0.0" r="360.0" /><circle cx="665.1390240575079" cy="619.2502082040155" fill-opacity="0.0" r="360.0" /><circle cx="663.8388977326592" cy="705.2868604390394" fill-opacity="0.0" r="360.0" /><circle cx="610.7701432625306" cy="739.0845536703655" fill-opacity="0.0" r="360.0" /><circle cx="525.7437415779593" cy="759.9999999999998" fill-opacity="0.0" r="360.0" /><circle cx="550.1436345672914" cy="844.0927470160359" fill-opacity="0.0" r="360.0" /><circle cx="547.4083508747141" cy="906.9504831500294" fill-opacity="0.0" r="360.0" /><circle cx="473.54848754504053" cy="951.0947516929889" fill-opacity="0.0" r="360.0" /><circle cx="483.2868627790359" cy="1017.2829220394079" fill-opacity="0.0" r="360.0" /><circle cx="540.0" cy="1080.0" fill-opacity="0.0" r="360.0" /><circle cx="483.2868627790359" cy="1142.7170779605917" fill-opacity="0.0" r="360.0" /><circle cx="473.54848754504053" cy="1208.9052483070109" fill-opacity="0.0" r="360.0" /><circle cx="547.408350874714" cy="1253.0495168499704" fill-opacity="0.0" r="360.0" /><circle cx="550.1436345672913" cy="1315.9072529839639" fill-opacity="0.0" r="360.0" /><circle cx="525.7437415779593" cy="1400.0" fill-opacity="0.0" r="360.0" /><circle cx="610.7701432625304" cy="1420.9154463296343" fill-opacity="0.0" r="360.0" /><circle cx="663.838897732659" cy="1454.7131395609604" fill-opacity="0.0" r="360.0" /><circle cx="665.139024057508" cy="1540.7497917959845" fill-opacity="0.0" r="360.0" /><circle cx="727.328848624516" cy="1565.4101966249684" fill-opacity="0.0" r="360.0" /><circle cx="809.9999999999998" cy="1547.6537180435967" fill-opacity="0.0" r="360.0" /><circle cx="835.9580141545199" cy="1628.1272745855606" fill-opacity="0.0" r="360.0" /><circle cx="888.4094634875324" cy="1669.6550401029951" fill-opacity="0.0" r="360.0" /><circle cx="963.5694531420545" cy="1627.762656410931" fill-opacity="0.0" r="360.0" /><circle cx="1019.373491304761" cy="1656.8226993135986" fill-opacity="0.0" r="360.0" /></g><linearGradient id="id17" x1="0" x2="1" y1="0" y2="1"><stop offset="0.0" stop-color="#aFa" /><stop offset="0.3333333333333333" stop-color="#Faa" /><stop offset="0.6666666666666666" stop-color="#aaF" /><stop offset="1" stop-color="#aFa" /></linearGradient></svg>