<?xml version="1.0" encoding="utf-8" ?>
<svg baseProfile="full" height="2160" version="1.1" width="2160" xmlns="http://www.w3.org/2000/svg" xmlns:ev="http://www.w3.org/2001/xml-events" xmlns:xlink="http://www.w3.org/1999/xlink"><defs /><g fill="none" id="shape_group" stroke="url(#id4) none" stroke-width="1"><rect fill="#000" height="2160" stroke="#000" width="2160" x="0" y="0" /><circle cx="1080.0" cy="1620.0" fill-opacity="0.0" r="360.0" /><circle cx="1089.424299476133" cy="1619.9177553844513" fill-opacity="0.0" r="360.0" /><circle cx="1098.8457282193506" cy="1619.6710465903116" fill-opacity="0.0" r="360.0" /><circle cx="1108.2614163711896" cy="1619.2599487674697" fill-opacity="0.0" r="360.0" /><circle cx="1117.6684958218277" cy="1618.6845871403052" fill-opacity="0.0" r="360.0" /><circle cx="1127.0641010837353" cy="1617.9451369695425" fill-opacity="0.0" r="360.0" /><circle cx="1136.445370164533" cy="1617.0418234988674" fill-opacity="0.0" r="360.0" /><circle cx="1145.8094454387797" cy="1615.974921886314" fill-opacity="0.0" r="360.0" /><circle cx="1155.1534745184354" cy="1614.744757120448" fill-opacity="0.0" r="360.0" /><circle cx="1164.4746111217246" cy="1613.3517039213743" fill-opacity="0.0" r="360.0" /><circle cx="1173.7700159401425" cy="1611.7961866265923" fill-opacity="0.0" r="360.0" /><circle cx="1183.0368575033342" cy="1610.0786790617385" fill-opacity="0.0" r="360.0" /><circle cx="1192.27231304159" cy="1608.1997043962551" fill-opacity="0.0" r="360.0" /><circle cx="1201.473569345687" cy="1606.159834984027" fill-opacity="0.0" r="360.0" /><circle cx="1210.6378236238206" cy="1603.9596921890382" fill-opacity="0.0" r="360.0" /><circle cx="1219.7622843553613" cy="1601.5999461960969" fill-opacity="0.0" r="360.0" /><circle cx="1228.8441721411796" cy="1599.0813158066921" fill-opacity="0.0" r="360.0" /><circle cx="1237.8807205502778" cy="1596.404568220039" fill-opacity="0.0" r="360.0" /><circle cx="1246.8691769624716" cy="1593.5705187993829" fill-opacity="0.0" r="360.0" /><circle cx="1255.8068034068647" cy="1590.5800308236312" fill-opacity="0.0" r="360.0" /><circle cx="1264.6908773958612" cy="1587.4340152243906" fill-opacity="0.0" r="360.0" /><circle cx="1273.518692754462" cy="1584.1334303084889" fill-opacity="0.0" r="360.0" /><circle cx="1282.2875604445926" cy="1580.6792814660653" fill-opacity="0.0" r="360.0" /><circle cx="1290.9948093842079" cy="1577.0726208643177" fill-opacity="0.0" r="360.0" /><circle cx="1299.637787260932" cy="1573.3145471270045" fill-opacity="0.0" r="360.0" /><circle cx="1308.2138613399777" cy="1569.406204999791" fill-opacity="0.0" r="360.0" /><circle cx="1316.7204192661018" cy="1565.3487850015501" fill-opacity="0.0" r="360.0" /><circle cx="1325.1548698593551" cy="1561.1435230617187" fill-opacity="0.0" r="360.0" /><circle cx="1333.514643904381" cy="1556.7917001438204" fill-opacity="0.0" r="360.0" /><circle cx="1341.797194933022" cy="1552.2946418552738" fill-opacity="0.0" r="360.0" /><circle cx="1350.0" cy="1547.6537180435969" fill-opacity="0.0" r="360.0" /><circle cx="1358.1205604514294" cy="1542.8703423791408" fill-opacity="0.0" r="360.0" /><circle cx="1366.1564026859305" cy="1537.94597192447" fill-opacity="0.0" r="360.0" /><circle cx="1374.1050789081146" cy="1532.8821066905289" fill-opacity="0.0" r="360.0" /><circle cx="1381.9641678742032" cy="1527.6802891797224" fill-opacity="0.0" r="360.0" /><circle cx="1389.7312756295648" cy="1522.3421039160555" fill-opacity="0.0" r="360.0" /><circle cx="1397.4040362379355" cy="1516.8691769624716" fill-opacity="0.0" r="360.0" /><circle cx="1404.980112502106" cy="1511.263175425538" fill-opacity="0.0" r="360.0" /><circle cx="1412.4571966758554" cy="1505.52580694763" fill-opacity="0.0" r="360.0" /><circle cx="1419.8330111669122" cy="1499.6588191867643" fill-opacity="0.0" r="360.0" /><circle cx="1427.105309230731" cy="1493.6639992842481" fill-opacity="0.0" r="360.0" /><circle cx="1434.2718756548738" cy="1487.5431733202968" fill-opacity="0.0" r="360.0" /><circle cx="1441.3305274337836" cy="1481.2982057577929" fill-opacity="0.0" r="360.0" /><circle cx="1448.279114433749" cy="1474.930998874352" fill-opacity="0.0" r="360.0" /><circle cx="1455.1155200478586" cy="1468.4434921828715" fill-opacity="0.0" r="360.0" /><circle cx="1461.8376618407356" cy="1461.8376618407356" fill-opacity="0.0" r="360.0" /><circle cx="1468.4434921828715" cy="1455.1155200478586" fill-opacity="0.0" r="360.0" /><circle cx="1474.930998874352" cy="1448.279114433749" fill-opacity="0.0" r="360.0" /><circle cx="1481.2982057577929" cy="1441.3305274337836" fill-opacity="0.0" r="360.0" /><circle cx="1487.5431733202968" cy="1434.2718756548738" fill-opacity="0.0" r="360.0" /><circle cx="1493.6639992842481" cy="1427.1053092307313" fill-opacity="0.0" r="360.0" /><circle cx="1499.6588191867643" cy="1419.8330111669122" fill-opacity="0.0" r="360.0" /><circle cx="1505.52580694763" cy="1412.4571966758554" fill-opacity="0.0" r="360.0" /><circle cx="1511.263175425538" cy="1404.980112502106" fill-opacity="0.0" r="360.0" /><circle cx="1516.8691769624716" cy="1397.4040362379355" fill-opacity="0.0" r="360.0" /><circle cx="1522.3421039160555" cy="1389.7312756295648" fill-opacity="0.0" r="360.0" /><circle cx="1527.6802891797224" cy="1381.9641678742032" fill-opacity="0.0" r="360.0" /><circle cx="1532.8821066905289" cy="1374.1050789081146" fill-opacity="0.0" r="360.0" /><circle cx="1537.94597192447" cy="1366.1564026859305" fill-opacity="0.0" r="360.0" /><circle cx="1542.8703423791408" cy="1358.1205604514294" fill-opacity="0.0" r="360.0" /><circle cx="1547.6537180435969" cy="1350.0" fill-opacity="0.0" r="360.0" /><circle cx="1552.2946418552738" cy="1341.7971949330222" fill-opacity="0.0" r="360.0" /><circle cx="1556.7917001438204" cy="1333.514643904381" fill-opacity="0.0" r="360.0" /><circle cx="1561.1435230617185" cy="1325.1548698593554" fill-opacity="0.0" r="360.0" /><circle cx="1565.3487850015501" cy="1316.7204192661018" fill-opacity="0.0" r="360.0" /><circle cx="1569.406204999791" cy="1308.2138613399777" fill-opacity="0.0" r="360.0" /><circle cx="1573.3145471270045" cy="1299.637787260932" fill-opacity="0.0" r="360.0" /><circle cx="1577.0726208643177" cy="1290.9948093842079" fill-opacity="0.0" r="360.0" /><circle cx="1580.6792814660653" cy="1282.2875604445924" fill-opacity="0.0" r="360.0" /><circle cx="1584.1334303084889" cy="1273.518692754462" fill-opacity="0.0" r="360.0" /><circle cx="1587.4340152243904" cy="1264.6908773958612" fill-opacity="0.0" r="360.0" /><circle cx="1590.580030823631" cy="1255.8068034068647" fill-opacity="0.0" r="360.0" /><circle cx="1593.5705187993829" cy="1246.8691769624716" fill-opacity="0.0" r="360.0" /><circle cx="1596.404568220039" cy="1237.8807205502778" fill-opacity="0.0" r="360.0" /><circle cx="1599.0813158066921" cy="1228.8441721411796" fill-opacity="0.0" r="360.0" /><circle cx="1601.5999461960969" cy="1219.7622843553613" fill-opacity="0.0" r="360.0" /><circle cx="1603.9596921890382" cy="1210.6378236238206" fill-opacity="0.0" r="360.0" /><circle cx="1606.159834984027" cy="1201.473569345687" fill-opacity="0.0" r="360.0" /><circle cx="1608.1997043962551" cy="1192.2723130415902" fill-opacity="0.0" r="360.0" /><circle cx="1610.0786790617385" cy="1183.0368575033342" fill-opacity="0.0" r="360.0" /><circle cx="1611.7961866265923" cy="1173.7700159401425" fill-opacity="0.0" r="360.0" /><circle cx="1613.3517039213743" cy="1164.4746111217246" fill-opacity="0.0" r="360.0" /><circle cx="1614.744757120448" cy="1155.1534745184354" fill-opacity="0.0" r="360.0" /><circle cx="1615.974921886314" cy="1145.8094454387797" fill-opacity="0.0" r="360.0" /><circle cx="1617.0418234988674" cy="1136.445370164533" fill-opacity="0.0" r="360.0" /><circle cx="1617.9451369695425" cy="1127.0641010837353" fill-opacity="0.0" r="360.0" /><circle cx="1618.6845871403052" cy="1117.6684958218277" fill-opacity="0.0" r="360.0" /><circle cx="1619.2599487674697" cy="1108.2614163711899" fill-opacity="0.0" r="360.0" /><circle cx="1619.6710465903116" cy="1098.8457282193506" fill-opacity="0.0" r="360.0" /><circle cx="1619.9177553844513" cy="1089.4242994761332" fill-opacity="0.0" r="360.0" /><circle cx="1620.0" cy="1080.0" fill-opacity="0.0" r="360.0" /><circle cx="1619.9177553844513" cy="1070.575700523867" fill-opacity="0.0" r="360.0" /><circle cx="1619.6710465903116" cy="1061.1542717806494" fill-opacity="0.0" r="360.0" /><circle cx="1619.2599487674697" cy="1051.7385836288104" fill-opacity="0.0" r="360.0" /><circle cx="1618.6845871403052" cy="1042.3315041781723" fill-opacity="0.0" r="360.0" /><circle cx="1617.9451369695425" cy="1032.9358989162645" fill-opacity="0.0" r="360.0" /><circle cx="1617.0418234988674" cy="1023.554629835467" fill-opacity="0.0" r="360.0" /><circle cx="1615.974921886314" cy="1014.1905545612204" fill-opacity="0.0" r="360.0" /><circle cx="1614.744757120448" cy="1004.8465254815648" fill-opacity="0.0" r="360.0" /><circle cx="1613.3517039213743" cy="995.5253888782754" fill-opacity="0.0" r="360.0" /><circle cx="1611.7961866265923" cy="986.2299840598577" fill-opacity="0.0" r="360.0" /><circle cx="1610.0786790617385" cy="976.9631424966658" fill-opacity="0.0" r="360.0" /><circle cx="1608.1997043962551" cy="967.72768695841" fill-opacity="0.0" r="360.0" /><circle cx="1606.159834984027" cy="958.5264306543129" fill-opacity="0.0" r="360.0" /><circle cx="1603.9596921890382" cy="949.3621763761794" fill-opacity="0.0" r="360.0" /><circle cx="1601.5999461960969" cy="940.2377156446387" fill-opacity="0.0" r="360.0" /><circle cx="1599.0813158066921" cy="931.1558278588205" fill-opacity="0.0" r="360.0" /><circle cx="1596.4045682200392" cy="922.1192794497222" fill-opacity="0.0" r="360.0" /><circle cx="1593.570518799383" cy="913.1308230375284" fill-opacity="0.0" r="360.0" /><circle cx="1590.5800308236312" cy="904.1931965931354" fill-opacity="0.0" r="360.0" /><circle cx="1587.4340152243906" cy="895.3091226041389" fill-opacity="0.0" r="360.0" /><circle cx="1584.1334303084889" cy="886.4813072455379" fill-opacity="0.0" r="360.0" /><circle cx="1580.6792814660653" cy="877.7124395554075" fill-opacity="0.0" r="360.0" /><circle cx="1577.0726208643177" cy="869.0051906157921" fill-opacity="0.0" r="360.0" /><circle cx="1573.3145471270045" cy="860.3622127390679" fill-opacity="0.0" r="360.0" /><circle cx="1569.406204999791" cy="851.7861386600224" fill-opacity="0.0" r="360.0" /><circle cx="1565.3487850015501" cy="843.2795807338981" fill-opacity="0.0" r="360.0" /><circle cx="1561.1435230617187" cy="834.8451301406448" fill-opacity="0.0" r="360.0" /><circle cx="1556.7917001438204" cy="826.485356095619" fill-opacity="0.0" r="360.0" /><circle cx="1552.2946418552738" cy="818.202805066978" fill-opacity="0.0" r="360.0" /><circle cx="1547.6537180435969" cy="810.0000000000001" fill-opacity="0.0" r="360.0" /><circle cx="1542.8703423791408" cy="801.8794395485706" fill-opacity="0.0" r="360.0" /><circle cx="1537.94597192447" cy="793.8435973140695" fill-opacity="0.0" r="360.0" /><circle cx="1532.8821066905289" cy="785.8949210918854" fill-opacity="0.0" r="360.0" /><circle cx="1527.6802891797224" cy="778.0358321257968" fill-opacity="0.0" r="360.0" /><circle cx="1522.3421039160555" cy="770.268724370435" fill-opacity="0.0" r="360.0" /><circle cx="1516.8691769624716" cy="762.5959637620646" fill-opacity="0.0" r="360.0" /><circle cx="1511.263175425538" cy="755.0198874978939" fill-opacity="0.0" r="360.0" /><circle cx="1505.52580694763" cy="747.5428033241445" fill-opacity="0.0" r="360.0" /><circle cx="1499.6588191867643" cy="740.1669888330879" fill-opacity="0.0" r="360.0" /><circle cx="1493.6639992842481" cy="732.8946907692687" fill-opacity="0.0" r="360.0" /><circle cx="1487.543173320297" cy="725.7281243451262" fill-opacity="0.0" r="360.0" /><circle cx="1481.2982057577929" cy="718.6694725662165" fill-opacity="0.0" r="360.0" /><circle cx="1474.930998874352" cy="711.7208855662509" fill-opacity="0.0" r="360.0" /><circle cx="1468.4434921828715" cy="704.8844799521414" fill-opacity="0.0" r="360.0" /><circle cx="1461.8376618407356" cy="698.1623381592644" fill-opacity="0.0" r="360.0" /><circle cx="1455.1155200478584" cy="691.5565078171282" fill-opacity="0.0" r="360.0" /><circle cx="1448.279114433749" cy="685.0690011256479" fill-opacity="0.0" r="360.0" /><circle cx="1441.3305274337836" cy="678.7017942422071" fill-opacity="0.0" r="360.0" /><circle cx="1434.2718756548738" cy="672.4568266797031" fill-opacity="0.0" r="360.0" /><circle cx="1427.1053092307313" cy="666.3360007157519" fill-opacity="0.0" r="360.0" /><circle cx="1419.8330111669122" cy="660.3411808132357" fill-opacity="0.0" r="360.0" /><circle cx="1412.4571966758556" cy="654.4741930523702" fill-opacity="0.0" r="360.0" /><circle cx="1404.980112502106" cy="648.7368245744618" fill-opacity="0.0" r="360.0" /><circle cx="1397.4040362379355" cy="643.1308230375284" fill-opacity="0.0" r="360.0" /><circle cx="1389.7312756295648" cy="637.6578960839444" fill-opacity="0.0" r="360.0" /><circle cx="1381.9641678742032" cy="632.3197108202776" fill-opacity="0.0" r="360.0" /><circle cx="1374.1050789081148" cy="627.1178933094711" fill-opacity="0.0" r="360.0" /><circle cx="1366.1564026859305" cy="622.0540280755299" fill-opacity="0.0" r="360.0" /><circle cx="1358.1205604514294" cy="617.1296576208595" fill-opacity="0.0" r="360.0" /><circle cx="1350.0" cy="612.3462819564031" fill-opacity="0.0" r="360.0" /><circle cx="1341.7971949330222" cy="607.7053581447262" fill-opacity="0.0" r="360.0" /><circle cx="1333.514643904381" cy="603.2082998561795" fill-opacity="0.0" r="360.0" /><circle cx="1325.1548698593554" cy="598.8564769382814" fill-opacity="0.0" r="360.0" /><circle cx="1316.7204192661018" cy="594.6512149984499" fill-opacity="0.0" r="360.0" /><circle cx="1308.2138613399777" cy="590.593795000209" fill-opacity="0.0" r="360.0" /><circle cx="1299.6377872609323" cy="586.6854528729956" fill-opacity="0.0" r="360.0" /><circle cx="1290.9948093842079" cy="582.9273791356823" fill-opacity="0.0" r="360.0" /><circle cx="1282.2875604445926" cy="579.3207185339348" fill-opacity="0.0" r="360.0" /><circle cx="1273.518692754462" cy="575.8665696915111" fill-opacity="0.0" r="360.0" /><circle cx="1264.6908773958612" cy="572.5659847756095" fill-opacity="0.0" r="360.0" /><circle cx="1255.8068034068647" cy="569.4199691763689" fill-opacity="0.0" r="360.0" /><circle cx="1246.8691769624716" cy="566.4294812006171" fill-opacity="0.0" r="360.0" /><circle cx="1237.8807205502778" cy="563.5954317799608" fill-opacity="0.0" r="360.0" /><circle cx="1228.8441721411796" cy="560.9186841933079" fill-opacity="0.0" r="360.0" /><circle cx="1219.7622843553613" cy="558.4000538039031" fill-opacity="0.0" r="360.0" /><circle cx="1210.6378236238206" cy="556.0403078109618" fill-opacity="0.0" r="360.0" /><circle cx="1201.473569345687" cy="553.8401650159731" fill-opacity="0.0" r="360.0" /><circle cx="1192.27231304159" cy="551.8002956037449" fill-opacity="0.0" r="360.0" /><circle cx="1183.0368575033342" cy="549.9213209382615" fill-opacity="0.0" r="360.0" /><circle cx="1173.7700159401425" cy="548.2038133734077" fill-opacity="0.0" r="360.0" /><circle cx="1164.4746111217248" cy="546.6482960786257" fill-opacity="0.0" r="360.0" /><circle cx="1155.1534745184354" cy="545.255242879552" fill-opacity="0.0" r="360.0" /><circle cx="1145.8094454387797" cy="544.0250781136862" fill-opacity="0.0" r="360.0" /><circle cx="1136.445370164533" cy="542.9581765011325" fill-opacity="0.0" r="360.0" /><circle cx="1127.0641010837355" cy="542.0548630304575" fill-opacity="0.0" r="360.0" /><circle cx="1117.6684958218277" cy="541.3154128596949" fill-opacity="0.0" r="360.0" /><circle cx="1108.2614163711896" cy="540.7400512325302" fill-opacity="0.0" r="360.0" /><circle cx="1098.8457282193506" cy="540.3289534096883" fill-opacity="0.0" r="360.0" /><circle cx="1089.424299476133" cy="540.0822446155487" fill-opacity="0.0" r="360.0" /><circle cx="1080.0" cy="540.0" fill-opacity="0.0" r="360.0" /><circle cx="1070.5757005238668" cy="540.0822446155487" fill-opacity="0.0" r="360.0" /><circle cx="1061.1542717806494" cy="540.3289534096883" fill-opacity="0.0" r="360.0" /><circle cx="1051.7385836288104" cy="540.7400512325302" fill-opacity="0.0" r="360.0" /><circle cx="1042.3315041781723" cy="541.3154128596949" fill-opacity="0.0" r="360.0" /><circle cx="1032.9358989162647" cy="542.0548630304575" fill-opacity="0.0" r="360.0" /><circle cx="1023.5546298354672" cy="542.9581765011325" fill-opacity="0.0" r="360.0" /><circle cx="1014.1905545612204" cy="544.025078113686" fill-opacity="0.0" r="360.0" /><circle cx="1004.8465254815646" cy="545.255242879552" fill-opacity="0.0" r="360.0" /><circle cx="995.5253888782754" cy="546.6482960786255" fill-opacity="0.0" r="360.0" /><circle cx="986.2299840598575" cy="548.2038133734077" fill-opacity="0.0" r="360.0" /><circle cx="976.9631424966658" cy="549.9213209382615" fill-opacity="0.0" r="360.0" /><circle cx="967.7276869584099" cy="551.800295603745" fill-opacity="0.0" r="360.0" /><circle cx="958.5264306543129" cy="553.840165015973" fill-opacity="0.0" r="360.0" /><circle cx="949.3621763761796" cy="556.0403078109618" fill-opacity="0.0" r="360.0" /><circle cx="940.2377156446388" cy="558.4000538039031" fill-opacity="0.0" r="360.0" /><circle cx="931.1558278588205" cy="560.9186841933079" fill-opacity="0.0" r="360.0" /><circle cx="922.1192794497222" cy="563.5954317799609" fill-opacity="0.0" r="360.0" /><circle cx="913.1308230375284" cy="566.429481200617" fill-opacity="0.0" r="360.0" /><circle cx="904.1931965931353" cy="569.419969176369" fill-opacity="0.0" r="360.0" /><circle cx="895.3091226041389" cy="572.5659847756094" fill-opacity="0.0" r="360.0" /><circle cx="886.4813072455378" cy="575.8665696915111" fill-opacity="0.0" r="360.0" /><circle cx="877.7124395554075" cy="579.3207185339347" fill-opacity="0.0" r="360.0" /><circle cx="869.0051906157923" cy="582.9273791356823" fill-opacity="0.0" r="360.0" /><circle cx="860.3622127390679" cy="586.6854528729955" fill-opacity="0.0" r="360.0" /><circle cx="851.7861386600224" cy="590.593795000209" fill-opacity="0.0" r="360.0" /><circle cx="843.2795807338982" cy="594.6512149984499" fill-opacity="0.0" r="360.0" /><circle cx="834.8451301406449" cy="598.8564769382813" fill-opacity="0.0" r="360.0" /><circle cx="826.485356095619" cy="603.2082998561796" fill-opacity="0.0" r="360.0" /><circle cx="818.202805066978" cy="607.7053581447262" fill-opacity="0.0" r="360.0" /><circle cx="810.0" cy="612.3462819564031" fill-opacity="0.0" r="360.0" /><circle cx="801.8794395485708" cy="617.1296576208593" fill-opacity="0.0" r="360.0" /><circle cx="793.8435973140695" cy="622.0540280755299" fill-opacity="0.0" r="360.0" /><circle cx="785.8949210918854" cy="627.117893309471" fill-opacity="0.0" r="360.0" /><circle cx="778.0358321257968" cy="632.3197108202775" fill-opacity="0.0" r="360.0" /><circle cx="770.268724370435" cy="637.6578960839445" fill-opacity="0.0" r="360.0" /><circle cx="762.5959637620646" cy="643.1308230375284" fill-opacity="0.0" r="360.0" /><circle cx="755.0198874978939" cy="648.7368245744619" fill-opacity="0.0" r="360.0" /><circle cx="747.5428033241446" cy="654.4741930523701" fill-opacity="0.0" r="360.0" /><circle cx="740.1669888330878" cy="660.3411808132357" fill-opacity="0.0" r="360.0" /><circle cx="732.8946907692688" cy="666.3360007157519" fill-opacity="0.0" r="360.0" /><circle cx="725.7281243451262" cy="672.456826679703" fill-opacity="0.0" r="360.0" /><circle cx="718.6694725662165" cy="678.7017942422071" fill-opacity="0.0" r="360.0" /><circle cx="711.7208855662509" cy="685.0690011256479" fill-opacity="0.0" r="360.0" /><circle cx="704.8844799521414" cy="691.5565078171285" fill-opacity="0.0" r="360.0" /><circle cx="698.1623381592644" cy="698.1623381592642" fill-opacity="0.0" r="360.0" /><circle cx="691.5565078171284" cy="704.8844799521414" fill-opacity="0.0" r="360.0" /><circle cx="685.0690011256479" cy="711.7208855662508" fill-opacity="0.0" r="360.0" /><circle cx="678.701794242207" cy="718.6694725662167" fill-opacity="0.0" r="360.0" /><circle cx="672.4568266797031" cy="725.728124345126" fill-opacity="0.0" r="360.0" /><circle cx="666.3360007157519" cy="732.8946907692687" fill-opacity="0.0" r="360.0" /><circle cx="660.341180813236" cy="740.1669888330875" fill-opacity="0.0" r="360.0" /><circle cx="654.4741930523701" cy="747.5428033241446" fill-opacity="0.0" r="360.0" /><circle cx="648.7368245744619" cy="755.0198874978939" fill-opacity="0.0" r="360.0" /><circle cx="643.1308230375284" cy="762.5959637620645" fill-opacity="0.0" r="360.0" /><circle cx="637.6578960839445" cy="770.2687243704349" fill-opacity="0.0" r="360.0" /><circle cx="632.3197108202774" cy="778.0358321257968" fill-opacity="0.0" r="360.0" /><circle cx="627.1178933094709" cy="785.8949210918854" fill-opacity="0.0" r="360.0" /><circle cx="622.0540280755299" cy="793.8435973140693" fill-opacity="0.0" r="360.0" /><circle cx="617.1296576208595" cy="801.8794395485706" fill-opacity="0.0" r="360.0" /><circle cx="612.3462819564032" cy="809.9999999999998" fill-opacity="0.0" r="360.0" /><circle cx="607.7053581447262" cy="818.202805066978" fill-opacity="0.0" r="360.0" /><circle cx="603.2082998561795" cy="826.485356095619" fill-opacity="0.0" r="360.0" /><circle cx="598.8564769382814" cy="834.8451301406446" fill-opacity="0.0" r="360.0" /><circle cx="594.6512149984499" cy="843.279580733898" fill-opacity="0.0" r="360.0" /><circle cx="590.593795000209" cy="851.7861386600225" fill-opacity="0.0" r="360.0" /><circle cx="586.6854528729955" cy="860.3622127390679" fill-opacity="0.0" r="360.0" /><circle cx="582.9273791356823" cy="869.0051906157921" fill-opacity="0.0" r="360.0" /><circle cx="579.3207185339348" cy="877.7124395554074" fill-opacity="0.0" r="360.0" /><circle cx="575.8665696915111" cy="886.4813072455377" fill-opacity="0.0" r="360.0" /><circle cx="572.5659847756094" cy="895.309122604139" fill-opacity="0.0" r="360.0" /><circle cx="569.4199691763689" cy="904.1931965931354" fill-opacity="0.0" r="360.0" /><circle cx="566.4294812006171" cy="913.1308230375283" fill-opacity="0.0" r="360.0" /><circle cx="563.5954317799609" cy="922.119279449722" fill-opacity="0.0" r="360.0" /><circle cx="560.9186841933077" cy="931.1558278588207" fill-opacity="0.0" r="360.0" /><circle cx="558.4000538039031" cy="940.2377156446389" fill-opacity="0.0" r="360.0" /><circle cx="556.0403078109618" cy="949.3621763761794" fill-opacity="0.0" r="360.0" /><circle cx="553.8401650159731" cy="958.5264306543128" fill-opacity="0.0" r="360.0" /><circle cx="551.800295603745" cy="967.7276869584098" fill-opacity="0.0" r="360.0" /><circle cx="549.9213209382615" cy="976.9631424966659" fill-opacity="0.0" r="360.0" /><circle cx="548.2038133734077" cy="986.2299840598577" fill-opacity="0.0" r="360.0" /><circle cx="546.6482960786257" cy="995.5253888782752" fill-opacity="0.0" r="360.0" /><circle cx="545.255242879552" cy="1004.8465254815644" fill-opacity="0.0" r="360.0" /><circle cx="544.025078113686" cy="1014.1905545612206" fill-opacity="0.0" r="360.0" /><circle cx="542.9581765011324" cy="1023.5546298354672" fill-opacity="0.0" r="360.0" /><circle cx="542.0548630304575" cy="1032.9358989162645" fill-opacity="0.0" r="360.0" /><circle cx="541.3154128596949" cy="1042.3315041781723" fill-opacity="0.0" r="360.0" /><circle cx="540.7400512325302" cy="1051.7385836288101" fill-opacity="0.0" r="360.0" /><circle cx="540.3289534096883" cy="1061.1542717806497" fill-opacity="0.0" r="360.0" /><circle cx="540.0822446155487" cy="1070.575700523867" fill-opacity="0.0" r="360.0" /><circle cx="540.0" cy="1080.0" fill-opacity="0.0" r="360.0" /><circle cx="540.0822446155487" cy="1089.424299476133" fill-opacity="0.0" r="360.0" /><circle cx="540.3289534096883" cy="1098.8457282193508" fill-opacity="0.0" r="360.0" /><circle cx="540.7400512325302" cy="1108.2614163711896" fill-opacity="0.0" r="360.0" /><circle cx="541.3154128596949" cy="1117.6684958218277" fill-opacity="0.0" r="360.0" /><circle cx="542.0548630304575" cy="1127.0641010837353" fill-opacity="0.0" r="360.0" /><circle cx="542.9581765011324" cy="1136.4453701645325" fill-opacity="0.0" r="360.0" /><circle cx="544.0250781136862" cy="1145.8094454387797" fill-opacity="0.0" r="360.0" /><circle cx="545.255242879552" cy="1155.1534745184354" fill-opacity="0.0" r="360.0" /><circle cx="546.6482960786255" cy="1164.4746111217246" fill-opacity="0.0" r="360.0" /><circle cx="548.2038133734076" cy="1173.7700159401422" fill-opacity="0.0" r="360.0" /><circle cx="549.9213209382615" cy="1183.0368575033344" fill-opacity="0.0" r="360.0" /><circle cx="551.800295603745" cy="1192.27231304159" fill-opacity="0.0" r="360.0" /><circle cx="553.840165015973" cy="1201.473569345687" fill-opacity="0.0" r="360.0" /><circle cx="556.0403078109618" cy="1210.6378236238204" fill-opacity="0.0" r="360.0" /><circle cx="558.400053803903" cy="1219.7622843553609" fill-opacity="0.0" r="360.0" /><circle cx="560.9186841933079" cy="1228.8441721411796" fill-opacity="0.0" r="360.0" /><circle cx="563.5954317799609" cy="1237.8807205502778" fill-opacity="0.0" r="360.0" /><circle cx="566.429481200617" cy="1246.8691769624716" fill-opacity="0.0" r="360.0" /><circle cx="569.4199691763688" cy="1255.8068034068644" fill-opacity="0.0" r="360.0" /><circle cx="572.5659847756095" cy="1264.6908773958612" fill-opacity="0.0" r="360.0" /><circle cx="575.8665696915111" cy="1273.518692754462" fill-opacity="0.0" r="360.0" /><circle cx="579.3207185339347" cy="1282.2875604445924" fill-opacity="0.0" r="360.0" /><circle cx="582.9273791356821" cy="1290.9948093842077" fill-opacity="0.0" r="360.0" /><circle cx="586.6854528729955" cy="1299.6377872609319" fill-opacity="0.0" r="360.0" /><circle cx="590.5937950002091" cy="1308.2138613399777" fill-opacity="0.0" r="360.0" /><circle cx="594.6512149984499" cy="1316.7204192661018" fill-opacity="0.0" r="360.0" /><circle cx="598.8564769382813" cy="1325.1548698593551" fill-opacity="0.0" r="360.0" /><circle cx="603.2082998561793" cy="1333.5146439043808" fill-opacity="0.0" r="360.0" /><circle cx="607.7053581447263" cy="1341.7971949330222" fill-opacity="0.0" r="360.0" /><circle cx="612.3462819564031" cy="1350.0" fill-opacity="0.0" r="360.0" /><circle cx="617.1296576208593" cy="1358.1205604514294" fill-opacity="0.0" r="360.0" /><circle cx="622.0540280755299" cy="1366.1564026859305" fill-opacity="0.0" r="360.0" /><circle cx="627.1178933094709" cy="1374.1050789081144" fill-opacity="0.0" r="360.0" /><circle cx="632.3197108202776" cy="1381.9641678742034" fill-opacity="0.0" r="360.0" /><circle cx="637.6578960839445" cy="1389.7312756295648" fill-opacity="0.0" r="360.0" /><circle cx="643.1308230375283" cy="1397.4040362379353" fill-opacity="0.0" r="360.0" /><circle cx="648.7368245744617" cy="1404.9801125021058" fill-opacity="0.0" r="360.0" /><circle cx="654.4741930523703" cy="1412.4571966758556" fill-opacity="0.0" r="360.0" /><circle cx="660.3411808132357" cy="1419.8330111669122" fill-opacity="0.0" r="360.0" /><circle cx="666.3360007157519" cy="1427.105309230731" fill-opacity="0.0" r="360.0" /><circle cx="672.456826679703" cy="1434.2718756548738" fill-opacity="0.0" r="360.0" /><circle cx="678.7017942422069" cy="1441.3305274337831" fill-opacity="0.0" r="360.0" /><circle cx="685.069001125648" cy="1448.2791144337493" fill-opacity="0.0" r="360.0" /><circle cx="691.5565078171285" cy="1455.1155200478586" fill-opacity="0.0" r="360.0" /><circle cx="698.1623381592642" cy="1461.8376618407356" fill-opacity="0.0" r="360.0" /><circle cx="704.8844799521413" cy="1468.4434921828715" fill-opacity="0.0" r="360.0" /><circle cx="711.7208855662509" cy="1474.930998874352" fill-opacity="0.0" r="360.0" /><circle cx="718.6694725662167" cy="1481.2982057577929" fill-opacity="0.0" r="360.0" /><circle cx="725.7281243451259" cy="1487.5431733202968" fill-opacity="0.0" r="360.0" /><circle cx="732.8946907692687" cy="1493.663999284248" fill-opacity="0.0" r="360.0" /><circle cx="740.1669888330875" cy="1499.658819186764" fill-opacity="0.0" r="360.0" /><circle cx="747.5428033241446" cy="1505.52580694763" fill-opacity="0.0" r="360.0" /><circle cx="755.0198874978939" cy="1511.263175425538" fill-opacity="0.0" r="360.0" /><circle cx="762.5959637620645" cy="1516.8691769624716" fill-opacity="0.0" r="360.0" /><circle cx="770.2687243704349" cy="1522.3421039160555" fill-opacity="0.0" r="360.0" /><circle cx="778.0358321257968" cy="1527.6802891797226" fill-opacity="0.0" r="360.0" /><circle cx="785.8949210918854" cy="1532.8821066905289" fill-opacity="0.0" r="360.0" /><circle cx="793.8435973140693" cy="1537.94597192447" fill-opacity="0.0" r="360.0" /><circle cx="801.8794395485706" cy="1542.8703423791405" fill-opacity="0.0" r="360.0" /><circle cx="809.9999999999998" cy="1547.6537180435967" fill-opacity="0.0" r="360.0" /><circle cx="818.202805066978" cy="1552.2946418552738" fill-opacity="0.0" r="360.0" /><circle cx="826.485356095619" cy="1556.7917001438204" fill-opacity="0.0" r="360.0" /><circle cx="834.8451301406446" cy="1561.1435230617185" fill-opacity="0.0" r="360.0" /><circle cx="843.279580733898" cy="1565.3487850015501" fill-opacity="0.0" r="360.0" /><circle cx="851.7861386600224" cy="1569.406204999791" fill-opacity="0.0" r="360.0" /><circle cx="860.3622127390679" cy="1573.3145471270045" fill-opacity="0.0" r="360.0" /><circle cx="869.0051906157921" cy="1577.0726208643177" fill-opacity="0.0" r="360.0" /><circle cx="877.7124395554074" cy="1580.6792814660653" fill-opacity="0.0" r="360.0" /><circle cx="886.4813072455376" cy="1584.1334303084889" fill-opacity="0.0" r="360.0" /><circle cx="895.309122604139" cy="1587.4340152243906" fill-opacity="0.0" r="360.0" /><circle cx="904.1931965931353" cy="1590.5800308236312" fill-opacity="0.0" r="360.0" /><circle cx="913.1308230375282" cy="1593.5705187993829" fill-opacity="0.0" r="360.0" /><circle cx="922.119279449722" cy="1596.404568220039" fill-opacity="0.0" r="360.0" /><circle cx="931.1558278588205" cy="1599.0813158066921" fill-opacity="0.0" r="360.0" /><circle cx="940.2377156446388" cy="1601.5999461960969" fill-opacity="0.0" r="360.0" /><circle cx="949.3621763761794" cy="1603.9596921890382" fill-opacity="0.0" r="360.0" /><circle cx="958.5264306543127" cy="1606.159834984027" fill-opacity="0.0" r="360.0" /><circle cx="967.7276869584097" cy="1608.1997043962551" fill-opacity="0.0" r="360.0" /><circle cx="976.9631424966659" cy="1610.0786790617385" fill-opacity="0.0" r="360.0" /><circle cx="986.2299840598575" cy="1611.7961866265923" fill-opacity="0.0" r="360.0" /><circle cx="995.5253888782752" cy="1613.3517039213743" fill-opacity="0.0" r="360.0" /><circle cx="1004.8465254815644" cy="1614.744757120448" fill-opacity="0.0" r="360.0" /><circle cx="1014.1905545612206" cy="1615.974921886314" fill-opacity="0.0" r="360.0" /><circle cx="1023.5546298354672" cy="1617.0418234988674" fill-opacity="0.0" r="360.0" /><circle cx="1032.9358989162645" cy="1617.9451369695425" fill-opacity="0.0" r="360.0" /><circle cx="1042.331504178172" cy="1618.6845871403052" fill-opacity="0.0" r="360.0" /><circle cx="1051.7385836288101" cy="1619.2599487674697" fill-opacity="0.0" r="360.0" /><circle cx="1061.1542717806497" cy="1619.6710465903116" fill-opacity="0.0" r="360.0" /><circle cx="1070.5757005238668" cy="1619.9177553844513" fill-opacity="0.0" r="360.0" /></g><linearGradient id="id4" x1="0" x2="1" y1="0" y2="1"><stop offset="0.0" stop-color="#FF0" /><stop offset="0.3333333333333333" stop-color="#0FF" /><stop offset="0.6666666666666666" stop-color="#F0F" /><stop offset="1" stop-color="#FF0" /></linearGradient></svg>