<?xml version="1.0" encoding="utf-8" ?>
<svg baseProfile="full" height="2160" version="1.1" width="2160" xmlns="http://www.w3.org/2000/svg" xmlns:ev="http://www.w3.org/2001/xml-events" xmlns:xlink="http://www.w3.org/1999/xlink"><defs /><g fill="none" id="shape_group" stroke="url(#id12) none" stroke-width="1"><rect fill="#000" height="2160" stroke="#000" width="2160" x="0" y="0" /><circle cx="1080.0" cy="1650.0" fill-opacity="0.0" r="216.0" /><circle cx="1089.8955144499398" cy="1646.913643153674" fill-opacity="0.0" r="360.0" /><circle cx="1099.6833161402105" cy="1643.65642643877" fill-opacity="0.0" r="216.0" /><circle cx="1109.3604714522914" cy="1640.2311689973158" fill-opacity="0.0" r="360.0" /><circle cx="1118.924112349222" cy="1636.640740044982" fill-opacity="0.0" r="216.0" /><circle cx="1128.3714372249503" cy="1632.8880574409188" fill-opacity="0.0" r="360.0" /><circle cx="1137.6997117237447" cy="1628.9760862432868" fill-opacity="0.0" r="216.0" /><circle cx="1146.906269529426" cy="1624.9078372510858" fill-opacity="0.0" r="360.0" /><circle cx="1155.9885131241958" cy="1620.6863655328975" fill-opacity="0.0" r="216.0" /><circle cx="1164.9439145168453" cy="1616.3147689431598" fill-opacity="0.0" r="360.0" /><circle cx="1173.7700159401425" cy="1611.7961866265923" fill-opacity="0.0" r="216.0" /><circle cx="1183.6092844894638" cy="1613.0235606120814" fill-opacity="0.0" r="360.0" /><circle cx="1193.5197831864966" cy="1614.0685900006579" fill-opacity="0.0" r="216.0" /><circle cx="1203.498128834782" cy="1614.929165567094" fill-opacity="0.0" r="360.0" /><circle cx="1213.5408863710165" cy="1615.60324090435" fill-opacity="0.0" r="216.0" /><circle cx="1223.644570031899" cy="1616.0888335904328" fill-opacity="0.0" r="360.0" /><circle cx="1233.8056445458856" cy="1616.384026333582" fill-opacity="0.0" r="216.0" /><circle cx="1244.0205263494554" cy="1616.486968095263" fill-opacity="0.0" r="360.0" /><circle cx="1254.2855848274703" cy="1616.3958751904665" fill-opacity="0.0" r="216.0" /><circle cx="1264.5971435772078" cy="1616.1090323648127" fill-opacity="0.0" r="360.0" /><circle cx="1274.9514816956312" cy="1615.6247938479678" fill-opacity="0.0" r="216.0" /><circle cx="1283.1946273921853" cy="1609.3401018239133" fill-opacity="0.0" r="360.0" /><circle cx="1291.2781186865743" cy="1602.9316939756682" fill-opacity="0.0" r="216.0" /><circle cx="1299.2001630824825" cy="1596.403222786819" fill-opacity="0.0" r="360.0" /><circle cx="1306.9590468362965" cy="1589.7583653645713" fill-opacity="0.0" r="216.0" /><circle cx="1314.5531352660882" cy="1583.0008218053408" fill-opacity="0.0" r="360.0" /><circle cx="1321.9808730275709" cy="1576.13431355714" fill-opacity="0.0" r="216.0" /><circle cx="1329.240784357011" cy="1569.162581779414" fill-opacity="0.0" r="360.0" /><circle cx="1336.3314732810964" cy="1562.0893857009742" fill-opacity="0.0" r="216.0" /><circle cx="1343.2516237937612" cy="1554.9185009766918" fill-opacity="0.0" r="360.0" /><circle cx="1350.0" cy="1547.6537180435969" fill-opacity="0.0" r="216.0" /><circle cx="1359.6656746761594" cy="1545.441844281247" fill-opacity="0.0" r="360.0" /><circle cx="1369.3359182713298" cy="1543.0342605014087" fill-opacity="0.0" r="216.0" /><circle cx="1379.0068302232498" cy="1540.4301418020377" fill-opacity="0.0" r="360.0" /><circle cx="1388.6744827158523" cy="1537.628740050383" fill-opacity="0.0" r="216.0" /><circle cx="1398.3349221748306" cy="1534.6293845803905" fill-opacity="0.0" r="360.0" /><circle cx="1407.9841707792" cy="1531.4314828612207" fill-opacity="0.0" r="216.0" /><circle cx="1417.6182279882992" cy="1528.0345211365313" fill-opacity="0.0" r="360.0" /><circle cx="1427.2330720836712" cy="1524.4380650341911" fill-opacity="0.0" r="216.0" /><circle cx="1436.8246617252578" cy="1520.6417601461026" fill-opacity="0.0" r="360.0" /><circle cx="1446.3889375213273" cy="1516.6453325778175" fill-opacity="0.0" r="216.0" /><circle cx="1451.9854694376177" cy="1507.9203319863118" fill-opacity="0.0" r="360.0" /><circle cx="1457.389661986396" cy="1499.1336815692503" fill-opacity="0.0" r="216.0" /><circle cx="1462.6010799950616" cy="1490.2894266083547" fill-opacity="0.0" r="360.0" /><circle cx="1467.6193707161206" cy="1481.3916085889673" fill-opacity="0.0" r="216.0" /><circle cx="1472.444263558534" cy="1472.444263558534" fill-opacity="0.0" r="360.0" /><circle cx="1477.0755697869354" cy="1463.4514204933664" fill-opacity="0.0" r="216.0" /><circle cx="1481.5131821889245" cy="1454.4170996743117" fill-opacity="0.0" r="360.0" /><circle cx="1485.7570747106572" cy="1445.3453110719365" fill-opacity="0.0" r="216.0" /><circle cx="1489.8073020609652" cy="1436.2400527418454" fill-opacity="0.0" r="360.0" /><circle cx="1493.6639992842481" cy="1427.1053092307313" fill-opacity="0.0" r="216.0" /><circle cx="1501.9902570711351" cy="1421.7209723400617" fill-opacity="0.0" r="360.0" /><circle cx="1510.2538714692703" cy="1416.1511655278096" fill-opacity="0.0" r="216.0" /><circle cx="1518.4508950159639" cy="1410.3964477104746" fill-opacity="0.0" r="360.0" /><circle cx="1526.577380894971" cy="1404.457459265445" fill-opacity="0.0" r="216.0" /><circle cx="1534.6293845803905" cy="1398.3349221748306" fill-opacity="0.0" r="360.0" /><circle cx="1542.6029654857134" cy="1392.0296401366768" fill-opacity="0.0" r="216.0" /><circle cx="1550.4941886173829" cy="1385.5424986434302" fill-opacity="0.0" r="360.0" /><circle cx="1558.2991262322244" cy="1378.8744650275275" fill-opacity="0.0" r="216.0" /><circle cx="1566.0138594980976" cy="1372.0265884740006" fill-opacity="0.0" r="360.0" /><circle cx="1573.63448015713" cy="1365.0" fill-opacity="0.0" r="216.0" /><circle cx="1575.9093739480375" cy="1354.8870546796732" fill-opacity="0.0" r="360.0" /><circle cx="1577.982442372435" cy="1344.7819614112425" fill-opacity="0.0" r="216.0" /><circle cx="1579.8546600696743" cy="1334.6886703538858" fill-opacity="0.0" r="360.0" /><circle cx="1581.5270778349352" cy="1324.6110999083053" fill-opacity="0.0" r="216.0" /><circle cx="1583.0008218053408" cy="1314.5531352660882" fill-opacity="0.0" r="360.0" /><circle cx="1584.2770926187156" cy="1304.5186269778417" fill-opacity="0.0" r="216.0" /><circle cx="1585.3571645453899" cy="1294.5113895406112" fill-opacity="0.0" r="360.0" /><circle cx="1586.2423845934659" cy="1284.535200005088" fill-opacity="0.0" r="216.0" /><circle cx="1586.9341715879805" cy="1274.593796603098" fill-opacity="0.0" r="360.0" /><circle cx="1587.4340152243904" cy="1264.6908773958612" fill-opacity="0.0" r="216.0" /><circle cx="1593.416586550429" cy="1256.783507870236" fill-opacity="0.0" r="360.0" /><circle cx="1599.2768578971538" cy="1248.7232789287214" fill-opacity="0.0" r="216.0" /><circle cx="1605.0113110237064" cy="1240.5120658927824" fill-opacity="0.0" r="360.0" /><circle cx="1610.6164561579521" cy="1232.1518204109834" fill-opacity="0.0" r="216.0" /><circle cx="1616.0888335904328" cy="1223.644570031899" fill-opacity="0.0" r="360.0" /><circle cx="1621.4250152620061" cy="1214.9924177446146" fill-opacity="0.0" r="216.0" /><circle cx="1626.621606344517" cy="1206.1975414869082" fill-opacity="0.0" r="360.0" /><circle cx="1631.6752468138664" cy="1197.2621936212163" fill-opacity="0.0" r="216.0" /><circle cx="1636.5826130148255" cy="1188.188700378501" fill-opacity="0.0" r="360.0" /><circle cx="1641.3404192169587" cy="1178.9794612701503" fill-opacity="0.0" r="216.0" /><circle cx="1640.0192891174431" cy="1168.698341677811" fill-opacity="0.0" r="360.0" /><circle cx="1638.5111907702458" cy="1158.493628941477" fill-opacity="0.0" r="216.0" /><circle cx="1636.8183910707817" cy="1148.3687016502877" fill-opacity="0.0" r="360.0" /><circle cx="1634.9432176154965" cy="1138.3268825033506" fill-opacity="0.0" r="216.0" /><circle cx="1632.8880574409188" cy="1128.3714372249503" fill-opacity="0.0" r="360.0" /><circle cx="1630.6553557434231" cy="1118.5055735067572" fill-opacity="0.0" r="216.0" /><circle cx="1628.2476145802611" cy="1108.7324399773763" fill-opacity="0.0" r="360.0" /><circle cx="1625.6673915524261" cy="1099.0551251995655" fill-opacity="0.0" r="216.0" /><circle cx="1622.9172984699203" cy="1089.476656695445" fill-opacity="0.0" r="360.0" /><circle cx="1620.0" cy="1080.0" fill-opacity="0.0" r="216.0" /><circle cx="1622.9172984699203" cy="1070.523343304555" fill-opacity="0.0" r="360.0" /><circle cx="1625.6673915524261" cy="1060.9448748004345" fill-opacity="0.0" r="216.0" /><circle cx="1628.2476145802611" cy="1051.267560022624" fill-opacity="0.0" r="360.0" /><circle cx="1630.6553557434231" cy="1041.4944264932428" fill-opacity="0.0" r="216.0" /><circle cx="1632.8880574409188" cy="1031.6285627750497" fill-opacity="0.0" r="360.0" /><circle cx="1634.9432176154965" cy="1021.6731174966493" fill-opacity="0.0" r="216.0" /><circle cx="1636.8183910707817" cy="1011.6312983497123" fill-opacity="0.0" r="360.0" /><circle cx="1638.5111907702458" cy="1001.5063710585232" fill-opacity="0.0" r="216.0" /><circle cx="1640.0192891174431" cy="991.3016583221892" fill-opacity="0.0" r="360.0" /><circle cx="1641.3404192169587" cy="981.0205387298497" fill-opacity="0.0" r="216.0" /><circle cx="1636.5826130148255" cy="971.8112996214991" fill-opacity="0.0" r="360.0" /><circle cx="1631.6752468138664" cy="962.7378063787837" fill-opacity="0.0" r="216.0" /><circle cx="1626.621606344517" cy="953.8024585130918" fill-opacity="0.0" r="360.0" /><circle cx="1621.4250152620061" cy="945.0075822553854" fill-opacity="0.0" r="216.0" /><circle cx="1616.0888335904328" cy="936.3554299681009" fill-opacity="0.0" r="360.0" /><circle cx="1610.6164561579521" cy="927.8481795890166" fill-opacity="0.0" r="216.0" /><circle cx="1605.0113110237066" cy="919.4879341072176" fill-opacity="0.0" r="360.0" /><circle cx="1599.2768578971538" cy="911.2767210712788" fill-opacity="0.0" r="216.0" /><circle cx="1593.4165865504292" cy="903.216492129764" fill-opacity="0.0" r="360.0" /><circle cx="1587.4340152243906" cy="895.3091226041389" fill-opacity="0.0" r="216.0" /><circle cx="1586.9341715879805" cy="885.4062033969019" fill-opacity="0.0" r="360.0" /><circle cx="1586.2423845934659" cy="875.464799994912" fill-opacity="0.0" r="216.0" /><circle cx="1585.3571645453897" cy="865.4886104593886" fill-opacity="0.0" r="360.0" /><circle cx="1584.2770926187156" cy="855.4813730221583" fill-opacity="0.0" r="216.0" /><circle cx="1583.0008218053408" cy="845.4468647339119" fill-opacity="0.0" r="360.0" /><circle cx="1581.5270778349352" cy="835.3889000916947" fill-opacity="0.0" r="216.0" /><circle cx="1579.8546600696743" cy="825.3113296461142" fill-opacity="0.0" r="360.0" /><circle cx="1577.982442372435" cy="815.2180385887575" fill-opacity="0.0" r="216.0" /><circle cx="1575.9093739480375" cy="805.1129453203268" fill-opacity="0.0" r="360.0" /><circle cx="1573.63448015713" cy="795.0000000000001" fill-opacity="0.0" r="216.0" /><circle cx="1566.0138594980976" cy="787.9734115259992" fill-opacity="0.0" r="360.0" /><circle cx="1558.2991262322244" cy="781.1255349724725" fill-opacity="0.0" r="216.0" /><circle cx="1550.4941886173829" cy="774.4575013565698" fill-opacity="0.0" r="360.0" /><circle cx="1542.6029654857134" cy="767.9703598633233" fill-opacity="0.0" r="216.0" /><circle cx="1534.6293845803903" cy="761.6650778251694" fill-opacity="0.0" r="360.0" /><circle cx="1526.577380894971" cy="755.5425407345549" fill-opacity="0.0" r="216.0" /><circle cx="1518.4508950159636" cy="749.6035522895254" fill-opacity="0.0" r="360.0" /><circle cx="1510.2538714692703" cy="743.8488344721906" fill-opacity="0.0" r="216.0" /><circle cx="1501.9902570711351" cy="738.2790276599384" fill-opacity="0.0" r="360.0" /><circle cx="1493.6639992842481" cy="732.8946907692687" fill-opacity="0.0" r="216.0" /><circle cx="1489.8073020609652" cy="723.7599472581546" fill-opacity="0.0" r="360.0" /><circle cx="1485.7570747106572" cy="714.6546889280635" fill-opacity="0.0" r="216.0" /><circle cx="1481.5131821889247" cy="705.5829003256883" fill-opacity="0.0" r="360.0" /><circle cx="1477.0755697869354" cy="696.5485795066335" fill-opacity="0.0" r="216.0" /><circle cx="1472.444263558534" cy="687.5557364414661" fill-opacity="0.0" r="360.0" /><circle cx="1467.6193707161203" cy="678.6083914110326" fill-opacity="0.0" r="216.0" /><circle cx="1462.6010799950616" cy="669.7105733916453" fill-opacity="0.0" r="360.0" /><circle cx="1457.389661986396" cy="660.8663184307497" fill-opacity="0.0" r="216.0" /><circle cx="1451.9854694376177" cy="652.0796680136882" fill-opacity="0.0" r="360.0" /><circle cx="1446.3889375213275" cy="643.3546674221826" fill-opacity="0.0" r="216.0" /><circle cx="1436.8246617252578" cy="639.3582398538974" fill-opacity="0.0" r="360.0" /><circle cx="1427.2330720836712" cy="635.5619349658089" fill-opacity="0.0" r="216.0" /><circle cx="1417.618227988299" cy="631.9654788634687" fill-opacity="0.0" r="360.0" /><circle cx="1407.9841707792002" cy="628.5685171387794" fill-opacity="0.0" r="216.0" /><circle cx="1398.3349221748304" cy="625.3706154196095" fill-opacity="0.0" r="360.0" /><circle cx="1388.6744827158523" cy="622.3712599496171" fill-opacity="0.0" r="216.0" /><circle cx="1379.00683022325" cy="619.5698581979623" fill-opacity="0.0" r="360.0" /><circle cx="1369.3359182713298" cy="616.9657394985913" fill-opacity="0.0" r="216.0" /><circle cx="1359.6656746761596" cy="614.5581557187531" fill-opacity="0.0" r="360.0" /><circle cx="1350.0" cy="612.3462819564031" fill-opacity="0.0" r="216.0" /><circle cx="1343.2516237937612" cy="605.0814990233082" fill-opacity="0.0" r="360.0" /><circle cx="1336.3314732810964" cy="597.9106142990258" fill-opacity="0.0" r="216.0" /><circle cx="1329.2407843570113" cy="590.8374182205861" fill-opacity="0.0" r="360.0" /><circle cx="1321.9808730275706" cy="583.8656864428598" fill-opacity="0.0" r="216.0" /><circle cx="1314.5531352660882" cy="576.9991781946593" fill-opacity="0.0" r="360.0" /><circle cx="1306.9590468362967" cy="570.2416346354288" fill-opacity="0.0" r="216.0" /><circle cx="1299.2001630824825" cy="563.596777213181" fill-opacity="0.0" r="360.0" /><circle cx="1291.2781186865745" cy="557.068306024332" fill-opacity="0.0" r="216.0" /><circle cx="1283.1946273921853" cy="550.6598981760866" fill-opacity="0.0" r="360.0" /><circle cx="1274.9514816956312" cy="544.3752061520322" fill-opacity="0.0" r="216.0" /><circle cx="1264.5971435772078" cy="543.8909676351874" fill-opacity="0.0" r="360.0" /><circle cx="1254.2855848274703" cy="543.6041248095335" fill-opacity="0.0" r="216.0" /><circle cx="1244.0205263494552" cy="543.5130319047371" fill-opacity="0.0" r="360.0" /><circle cx="1233.8056445458856" cy="543.6159736664181" fill-opacity="0.0" r="216.0" /><circle cx="1223.644570031899" cy="543.9111664095672" fill-opacity="0.0" r="360.0" /><circle cx="1213.5408863710165" cy="544.3967590956499" fill-opacity="0.0" r="216.0" /><circle cx="1203.498128834782" cy="545.0708344329059" fill-opacity="0.0" r="360.0" /><circle cx="1193.5197831864966" cy="545.9314099993421" fill-opacity="0.0" r="216.0" /><circle cx="1183.609284489464" cy="546.9764393879185" fill-opacity="0.0" r="360.0" /><circle cx="1173.7700159401425" cy="548.2038133734077" fill-opacity="0.0" r="216.0" /><circle cx="1164.9439145168453" cy="543.6852310568403" fill-opacity="0.0" r="360.0" /><circle cx="1155.9885131241956" cy="539.3136344671026" fill-opacity="0.0" r="216.0" /><circle cx="1146.906269529426" cy="535.0921627489142" fill-opacity="0.0" r="360.0" /><circle cx="1137.699711723745" cy="531.0239137567131" fill-opacity="0.0" r="216.0" /><circle cx="1128.3714372249503" cy="527.1119425590812" fill-opacity="0.0" r="360.0" /><circle cx="1118.924112349222" cy="523.359259955018" fill-opacity="0.0" r="216.0" /><circle cx="1109.3604714522914" cy="519.7688310026841" fill-opacity="0.0" r="360.0" /><circle cx="1099.6833161402105" cy="516.34357356123" fill-opacity="0.0" r="216.0" /><circle cx="1089.8955144499398" cy="513.0863568463261" fill-opacity="0.0" r="360.0" /><circle cx="1080.0" cy="510.0" fill-opacity="0.0" r="216.0" /><circle cx="1070.1044855500602" cy="513.0863568463261" fill-opacity="0.0" r="360.0" /><circle cx="1060.3166838597895" cy="516.34357356123" fill-opacity="0.0" r="216.0" /><circle cx="1050.6395285477086" cy="519.7688310026841" fill-opacity="0.0" r="360.0" /><circle cx="1041.075887650778" cy="523.359259955018" fill-opacity="0.0" r="216.0" /><circle cx="1031.6285627750499" cy="527.1119425590812" fill-opacity="0.0" r="360.0" /><circle cx="1022.3002882762553" cy="531.0239137567131" fill-opacity="0.0" r="216.0" /><circle cx="1013.0937304705741" cy="535.0921627489141" fill-opacity="0.0" r="360.0" /><circle cx="1004.0114868758042" cy="539.3136344671026" fill-opacity="0.0" r="216.0" /><circle cx="995.0560854831547" cy="543.6852310568402" fill-opacity="0.0" r="360.0" /><circle cx="986.2299840598575" cy="548.2038133734077" fill-opacity="0.0" r="216.0" /><circle cx="976.3907155105362" cy="546.9764393879185" fill-opacity="0.0" r="360.0" /><circle cx="966.4802168135033" cy="545.9314099993421" fill-opacity="0.0" r="216.0" /><circle cx="956.5018711652182" cy="545.0708344329058" fill-opacity="0.0" r="360.0" /><circle cx="946.4591136289836" cy="544.3967590956499" fill-opacity="0.0" r="216.0" /><circle cx="936.3554299681009" cy="543.911166409567" fill-opacity="0.0" r="360.0" /><circle cx="926.1943554541145" cy="543.6159736664181" fill-opacity="0.0" r="216.0" /><circle cx="915.9794736505446" cy="543.5130319047371" fill-opacity="0.0" r="360.0" /><circle cx="905.7144151725297" cy="543.6041248095333" fill-opacity="0.0" r="216.0" /><circle cx="895.4028564227922" cy="543.8909676351874" fill-opacity="0.0" r="360.0" /><circle cx="885.0485183043688" cy="544.3752061520322" fill-opacity="0.0" r="216.0" /><circle cx="876.8053726078147" cy="550.6598981760866" fill-opacity="0.0" r="360.0" /><circle cx="868.7218813134257" cy="557.068306024332" fill-opacity="0.0" r="216.0" /><circle cx="860.7998369175175" cy="563.596777213181" fill-opacity="0.0" r="360.0" /><circle cx="853.0409531637035" cy="570.2416346354287" fill-opacity="0.0" r="216.0" /><circle cx="845.4468647339119" cy="576.9991781946592" fill-opacity="0.0" r="360.0" /><circle cx="838.0191269724293" cy="583.8656864428599" fill-opacity="0.0" r="216.0" /><circle cx="830.7592156429889" cy="590.837418220586" fill-opacity="0.0" r="360.0" /><circle cx="823.6685267189036" cy="597.910614299026" fill-opacity="0.0" r="216.0" /><circle cx="816.7483762062391" cy="605.081499023308" fill-opacity="0.0" r="360.0" /><circle cx="810.0" cy="612.3462819564031" fill-opacity="0.0" r="216.0" /><circle cx="800.3343253238406" cy="614.558155718753" fill-opacity="0.0" r="360.0" /><circle cx="790.6640817286702" cy="616.9657394985913" fill-opacity="0.0" r="216.0" /><circle cx="780.9931697767502" cy="619.5698581979623" fill-opacity="0.0" r="360.0" /><circle cx="771.3255172841478" cy="622.371259949617" fill-opacity="0.0" r="216.0" /><circle cx="761.6650778251694" cy="625.3706154196095" fill-opacity="0.0" r="360.0" /><circle cx="752.0158292208" cy="628.5685171387793" fill-opacity="0.0" r="216.0" /><circle cx="742.3817720117008" cy="631.9654788634687" fill-opacity="0.0" r="360.0" /><circle cx="732.7669279163288" cy="635.5619349658089" fill-opacity="0.0" r="216.0" /><circle cx="723.175338274742" cy="639.3582398538975" fill-opacity="0.0" r="360.0" /><circle cx="713.6110624786727" cy="643.3546674221825" fill-opacity="0.0" r="216.0" /><circle cx="708.0145305623826" cy="652.0796680136882" fill-opacity="0.0" r="360.0" /><circle cx="702.610338013604" cy="660.8663184307496" fill-opacity="0.0" r="216.0" /><circle cx="697.3989200049384" cy="669.7105733916453" fill-opacity="0.0" r="360.0" /><circle cx="692.3806292838796" cy="678.6083914110327" fill-opacity="0.0" r="216.0" /><circle cx="687.5557364414661" cy="687.555736441466" fill-opacity="0.0" r="360.0" /><circle cx="682.9244302130646" cy="696.5485795066336" fill-opacity="0.0" r="216.0" /><circle cx="678.4868178110754" cy="705.5829003256883" fill-opacity="0.0" r="360.0" /><circle cx="674.2429252893427" cy="714.6546889280635" fill-opacity="0.0" r="216.0" /><circle cx="670.1926979390348" cy="723.7599472581546" fill-opacity="0.0" r="360.0" /><circle cx="666.3360007157519" cy="732.8946907692687" fill-opacity="0.0" r="216.0" /><circle cx="658.009742928865" cy="738.279027659938" fill-opacity="0.0" r="360.0" /><circle cx="649.7461285307297" cy="743.8488344721907" fill-opacity="0.0" r="216.0" /><circle cx="641.5491049840363" cy="749.6035522895255" fill-opacity="0.0" r="360.0" /><circle cx="633.4226191050291" cy="755.5425407345548" fill-opacity="0.0" r="216.0" /><circle cx="625.3706154196097" cy="761.6650778251692" fill-opacity="0.0" r="360.0" /><circle cx="617.3970345142866" cy="767.9703598633234" fill-opacity="0.0" r="216.0" /><circle cx="609.505811382617" cy="774.4575013565699" fill-opacity="0.0" r="360.0" /><circle cx="601.7008737677758" cy="781.1255349724725" fill-opacity="0.0" r="216.0" /><circle cx="593.9861405019024" cy="787.9734115259992" fill-opacity="0.0" r="360.0" /><circle cx="586.3655198428701" cy="794.9999999999998" fill-opacity="0.0" r="216.0" /><circle cx="584.0906260519625" cy="805.1129453203271" fill-opacity="0.0" r="360.0" /><circle cx="582.0175576275651" cy="815.2180385887576" fill-opacity="0.0" r="216.0" /><circle cx="580.1453399303257" cy="825.3113296461142" fill-opacity="0.0" r="360.0" /><circle cx="578.4729221650649" cy="835.3889000916946" fill-opacity="0.0" r="216.0" /><circle cx="576.9991781946592" cy="845.446864733912" fill-opacity="0.0" r="360.0" /><circle cx="575.7229073812842" cy="855.4813730221583" fill-opacity="0.0" r="216.0" /><circle cx="574.6428354546103" cy="865.4886104593886" fill-opacity="0.0" r="360.0" /><circle cx="573.7576154065341" cy="875.4647999949119" fill-opacity="0.0" r="216.0" /><circle cx="573.0658284120195" cy="885.4062033969017" fill-opacity="0.0" r="360.0" /><circle cx="572.5659847756094" cy="895.309122604139" fill-opacity="0.0" r="216.0" /><circle cx="566.5834134495709" cy="903.216492129764" fill-opacity="0.0" r="360.0" /><circle cx="560.7231421028462" cy="911.2767210712786" fill-opacity="0.0" r="216.0" /><circle cx="554.9886889762936" cy="919.4879341072174" fill-opacity="0.0" r="360.0" /><circle cx="549.3835438420479" cy="927.8481795890166" fill-opacity="0.0" r="216.0" /><circle cx="543.911166409567" cy="936.355429968101" fill-opacity="0.0" r="360.0" /><circle cx="538.574984737994" cy="945.0075822553854" fill-opacity="0.0" r="216.0" /><circle cx="533.3783936554831" cy="953.8024585130916" fill-opacity="0.0" r="360.0" /><circle cx="528.3247531861336" cy="962.7378063787835" fill-opacity="0.0" r="216.0" /><circle cx="523.4173869851745" cy="971.8112996214992" fill-opacity="0.0" r="360.0" /><circle cx="518.6595807830414" cy="981.0205387298497" fill-opacity="0.0" r="216.0" /><circle cx="519.980710882557" cy="991.301658322189" fill-opacity="0.0" r="360.0" /><circle cx="521.4888092297543" cy="1001.5063710585229" fill-opacity="0.0" r="216.0" /><circle cx="523.1816089292183" cy="1011.6312983497124" fill-opacity="0.0" r="360.0" /><circle cx="525.0567823845034" cy="1021.6731174966494" fill-opacity="0.0" r="216.0" /><circle cx="527.1119425590812" cy="1031.6285627750497" fill-opacity="0.0" r="360.0" /><circle cx="529.344644256577" cy="1041.4944264932426" fill-opacity="0.0" r="216.0" /><circle cx="531.752385419739" cy="1051.2675600226237" fill-opacity="0.0" r="360.0" /><circle cx="534.3326084475738" cy="1060.9448748004345" fill-opacity="0.0" r="216.0" /><circle cx="537.0827015300796" cy="1070.523343304555" fill-opacity="0.0" r="360.0" /><circle cx="540.0" cy="1080.0" fill-opacity="0.0" r="216.0" /><circle cx="537.0827015300796" cy="1089.4766566954447" fill-opacity="0.0" r="360.0" /><circle cx="534.3326084475738" cy="1099.0551251995657" fill-opacity="0.0" r="216.0" /><circle cx="531.752385419739" cy="1108.7324399773763" fill-opacity="0.0" r="360.0" /><circle cx="529.344644256577" cy="1118.5055735067572" fill-opacity="0.0" r="216.0" /><circle cx="527.1119425590812" cy="1128.3714372249501" fill-opacity="0.0" r="360.0" /><circle cx="525.0567823845034" cy="1138.3268825033504" fill-opacity="0.0" r="216.0" /><circle cx="523.1816089292183" cy="1148.368701650288" fill-opacity="0.0" r="360.0" /><circle cx="521.4888092297543" cy="1158.493628941477" fill-opacity="0.0" r="216.0" /><circle cx="519.9807108825569" cy="1168.6983416778107" fill-opacity="0.0" r="360.0" /><circle cx="518.6595807830414" cy="1178.97946127015" fill-opacity="0.0" r="216.0" /><circle cx="523.4173869851746" cy="1188.1887003785012" fill-opacity="0.0" r="360.0" /><circle cx="528.3247531861336" cy="1197.2621936212163" fill-opacity="0.0" r="216.0" /><circle cx="533.378393655483" cy="1206.1975414869082" fill-opacity="0.0" r="360.0" /><circle cx="538.5749847379939" cy="1214.9924177446144" fill-opacity="0.0" r="216.0" /><circle cx="543.911166409567" cy="1223.6445700318986" fill-opacity="0.0" r="360.0" /><circle cx="549.3835438420481" cy="1232.1518204109836" fill-opacity="0.0" r="216.0" /><circle cx="554.9886889762936" cy="1240.5120658927824" fill-opacity="0.0" r="360.0" /><circle cx="560.7231421028462" cy="1248.7232789287211" fill-opacity="0.0" r="216.0" /><circle cx="566.5834134495709" cy="1256.7835078702358" fill-opacity="0.0" r="360.0" /><circle cx="572.5659847756095" cy="1264.6908773958612" fill-opacity="0.0" r="216.0" /><circle cx="573.0658284120195" cy="1274.593796603098" fill-opacity="0.0" r="360.0" /><circle cx="573.7576154065341" cy="1284.535200005088" fill-opacity="0.0" r="216.0" /><circle cx="574.6428354546101" cy="1294.5113895406112" fill-opacity="0.0" r="360.0" /><circle cx="575.7229073812841" cy="1304.5186269778414" fill-opacity="0.0" r="216.0" /><circle cx="576.9991781946594" cy="1314.5531352660882" fill-opacity="0.0" r="360.0" /><circle cx="578.4729221650648" cy="1324.6110999083053" fill-opacity="0.0" r="216.0" /><circle cx="580.1453399303255" cy="1334.6886703538858" fill-opacity="0.0" r="360.0" /><circle cx="582.0175576275651" cy="1344.7819614112423" fill-opacity="0.0" r="216.0" /><circle cx="584.0906260519627" cy="1354.8870546796732" fill-opacity="0.0" r="360.0" /><circle cx="586.3655198428701" cy="1365.0" fill-opacity="0.0" r="216.0" /><circle cx="593.9861405019024" cy="1372.0265884740006" fill-opacity="0.0" r="360.0" /><circle cx="601.7008737677756" cy="1378.8744650275275" fill-opacity="0.0" r="216.0" /><circle cx="609.5058113826169" cy="1385.54249864343" fill-opacity="0.0" r="360.0" /><circle cx="617.3970345142868" cy="1392.0296401366768" fill-opacity="0.0" r="216.0" /><circle cx="625.3706154196095" cy="1398.3349221748306" fill-opacity="0.0" r="360.0" /><circle cx="633.422619105029" cy="1404.457459265445" fill-opacity="0.0" r="216.0" /><circle cx="641.5491049840361" cy="1410.3964477104744" fill-opacity="0.0" r="360.0" /><circle cx="649.74612853073" cy="1416.1511655278096" fill-opacity="0.0" r="216.0" /><circle cx="658.0097429288649" cy="1421.7209723400617" fill-opacity="0.0" r="360.0" /><circle cx="666.3360007157519" cy="1427.105309230731" fill-opacity="0.0" r="216.0" /><circle cx="670.1926979390347" cy="1436.2400527418454" fill-opacity="0.0" r="360.0" /><circle cx="674.2429252893426" cy="1445.3453110719363" fill-opacity="0.0" r="216.0" /><circle cx="678.4868178110755" cy="1454.4170996743117" fill-opacity="0.0" r="360.0" /><circle cx="682.9244302130646" cy="1463.4514204933664" fill-opacity="0.0" r="216.0" /><circle cx="687.555736441466" cy="1472.4442635585337" fill-opacity="0.0" r="360.0" /><circle cx="692.3806292838793" cy="1481.3916085889673" fill-opacity="0.0" r="216.0" /><circle cx="697.3989200049384" cy="1490.2894266083547" fill-opacity="0.0" r="360.0" /><circle cx="702.610338013604" cy="1499.1336815692503" fill-opacity="0.0" r="216.0" /><circle cx="708.0145305623823" cy="1507.9203319863118" fill-opacity="0.0" r="360.0" /><circle cx="713.6110624786725" cy="1516.6453325778173" fill-opacity="0.0" r="216.0" /><circle cx="723.175338274742" cy="1520.6417601461023" fill-opacity="0.0" r="360.0" /><circle cx="732.7669279163288" cy="1524.4380650341911" fill-opacity="0.0" r="216.0" /><circle cx="742.381772011701" cy="1528.0345211365313" fill-opacity="0.0" r="360.0" /><circle cx="752.0158292207998" cy="1531.4314828612205" fill-opacity="0.0" r="216.0" /><circle cx="761.6650778251692" cy="1534.6293845803903" fill-opacity="0.0" r="360.0" /><circle cx="771.325517284148" cy="1537.6287400503832" fill-opacity="0.0" r="216.0" /><circle cx="780.9931697767502" cy="1540.4301418020377" fill-opacity="0.0" r="360.0" /><circle cx="790.66408172867" cy="1543.0342605014084" fill-opacity="0.0" r="216.0" /><circle cx="800.3343253238404" cy="1545.4418442812469" fill-opacity="0.0" r="360.0" /><circle cx="809.9999999999998" cy="1547.6537180435967" fill-opacity="0.0" r="216.0" /><circle cx="816.7483762062391" cy="1554.918500976692" fill-opacity="0.0" r="360.0" /><circle cx="823.6685267189036" cy="1562.0893857009742" fill-opacity="0.0" r="216.0" /><circle cx="830.7592156429887" cy="1569.1625817794138" fill-opacity="0.0" r="360.0" /><circle cx="838.019126972429" cy="1576.13431355714" fill-opacity="0.0" r="216.0" /><circle cx="845.446864733912" cy="1583.0008218053408" fill-opacity="0.0" r="360.0" /><circle cx="853.0409531637035" cy="1589.7583653645713" fill-opacity="0.0" r="216.0" /><circle cx="860.7998369175174" cy="1596.403222786819" fill-opacity="0.0" r="360.0" /><circle cx="868.7218813134255" cy="1602.9316939756682" fill-opacity="0.0" r="216.0" /><circle cx="876.8053726078144" cy="1609.3401018239133" fill-opacity="0.0" r="360.0" /><circle cx="885.0485183043688" cy="1615.6247938479678" fill-opacity="0.0" r="216.0" /><circle cx="895.4028564227922" cy="1616.1090323648127" fill-opacity="0.0" r="360.0" /><circle cx="905.7144151725295" cy="1616.3958751904665" fill-opacity="0.0" r="216.0" /><circle cx="915.9794736505445" cy="1616.486968095263" fill-opacity="0.0" r="360.0" /><circle cx="926.1943554541147" cy="1616.384026333582" fill-opacity="0.0" r="216.0" /><circle cx="936.355429968101" cy="1616.0888335904328" fill-opacity="0.0" r="360.0" /><circle cx="946.4591136289833" cy="1615.60324090435" fill-opacity="0.0" r="216.0" /><circle cx="956.501871165218" cy="1614.929165567094" fill-opacity="0.0" r="360.0" /><circle cx="966.4802168135031" cy="1614.0685900006579" fill-opacity="0.0" r="216.0" /><circle cx="976.3907155105362" cy="1613.0235606120814" fill-opacity="0.0" r="360.0" /><circle cx="986.2299840598575" cy="1611.7961866265923" fill-opacity="0.0" r="216.0" /><circle cx="995.0560854831546" cy="1616.3147689431598" fill-opacity="0.0" r="360.0" /><circle cx="1004.011486875804" cy="1620.6863655328975" fill-opacity="0.0" r="216.0" /><circle cx="1013.0937304705742" cy="1624.9078372510858" fill-opacity="0.0" r="360.0" /><circle cx="1022.3002882762553" cy="1628.9760862432868" fill-opacity="0.0" r="216.0" /><circle cx="1031.6285627750497" cy="1632.8880574409188" fill-opacity="0.0" r="360.0" /><circle cx="1041.075887650778" cy="1636.640740044982" fill-opacity="0.0" r="216.0" /><circle cx="1050.6395285477083" cy="1640.2311689973158" fill-opacity="0.0" r="360.0" /><circle cx="1060.3166838597895" cy="1643.65642643877" fill-opacity="0.0" r="216.0" /><circle cx="1070.1044855500602" cy="1646.913643153674" fill-opacity="0.0" r="360.0" /></g><linearGradient id="id12" x1="0" x2="1" y1="0" y2="1"><stop offset="0.0" stop-color="#FF0" /><stop offset="0.3333333333333333" stop-color="#0FF" /><stop offset="0.6666666666666666" stop-color="#F0F" /><stop offset="1" stop-color="#FF0" /></linearGradient></svg>