<?xml version="1.0" encoding="utf-8" ?>
<svg baseProfile="full" height="2160" version="1.1" width="2160" xmlns="http://www.w3.org/2000/svg" xmlns:ev="http://www.w3.org/2001/xml-events" xmlns:xlink="http://www.w3.org/1999/xlink"><defs /><g fill="none" id="shape_group" stroke="url(#id15) none" stroke-width="1"><rect fill="#000" height="2160" stroke="#000" width="2160" x="0" y="0" /><circle cx="1080.0" cy="1470.0" fill-opacity="0.0" r="432.0" /><circle cx="1118.884588335567" cy="1449.9621450769978" fill-opacity="0.0" r="432.0" /><circle cx="1156.0956788393" cy="1438.002021868573" fill-opacity="0.0" r="432.0" /><circle cx="1198.6625258399797" cy="1445.205702257339" fill-opacity="0.0" r="432.0" /><circle cx="1233.7464510826526" cy="1425.320182988903" fill-opacity="0.0" r="432.0" /><circle cx="1260.0" cy="1391.769145362398" fill-opacity="0.0" r="432.0" /><circle cx="1302.1828253665549" cy="1385.8084238737301" fill-opacity="0.0" r="432.0" /><circle cx="1336.9461528418014" cy="1365.3676129833193" fill-opacity="0.0" r="432.0" /><circle cx="1351.9910061247263" cy="1324.9018019273421" fill-opacity="0.0" r="432.0" /><circle cx="1380.9543219074803" cy="1298.6561138528" fill-opacity="0.0" r="432.0" /><circle cx="1417.749907475931" cy="1275.0" fill-opacity="0.0" r="432.0" /><circle cx="1419.8389102430474" cy="1231.3060312241978" fill-opacity="0.0" r="432.0" /><circle cx="1428.086684964026" cy="1193.1002199412308" fill-opacity="0.0" r="432.0" /><circle cx="1455.6086786817814" cy="1159.8380892740197" fill-opacity="0.0" r="432.0" /><circle cx="1455.9292764492072" cy="1119.511759115173" fill-opacity="0.0" r="432.0" /><circle cx="1440.0" cy="1080.0" fill-opacity="0.0" r="432.0" /><circle cx="1455.9292764492072" cy="1040.488240884827" fill-opacity="0.0" r="432.0" /><circle cx="1455.6086786817814" cy="1000.1619107259804" fill-opacity="0.0" r="432.0" /><circle cx="1428.0866849640263" cy="966.8997800587692" fill-opacity="0.0" r="432.0" /><circle cx="1419.8389102430474" cy="928.6939687758023" fill-opacity="0.0" r="432.0" /><circle cx="1417.7499074759312" cy="885.0000000000001" fill-opacity="0.0" r="432.0" /><circle cx="1380.9543219074803" cy="861.3438861472" fill-opacity="0.0" r="432.0" /><circle cx="1351.9910061247263" cy="835.0981980726579" fill-opacity="0.0" r="432.0" /><circle cx="1336.9461528418017" cy="794.6323870166807" fill-opacity="0.0" r="432.0" /><circle cx="1302.1828253665549" cy="774.1915761262699" fill-opacity="0.0" r="432.0" /><circle cx="1260.0" cy="768.2308546376021" fill-opacity="0.0" r="432.0" /><circle cx="1233.7464510826526" cy="734.6798170110969" fill-opacity="0.0" r="432.0" /><circle cx="1198.66252583998" cy="714.794297742661" fill-opacity="0.0" r="432.0" /><circle cx="1156.0956788392998" cy="721.9979781314271" fill-opacity="0.0" r="432.0" /><circle cx="1118.8845883355673" cy="710.0378549230023" fill-opacity="0.0" r="432.0" /><circle cx="1080.0" cy="690.0" fill-opacity="0.0" r="432.0" /><circle cx="1041.115411664433" cy="710.0378549230023" fill-opacity="0.0" r="432.0" /><circle cx="1003.9043211607" cy="721.9979781314271" fill-opacity="0.0" r="432.0" /><circle cx="961.3374741600203" cy="714.794297742661" fill-opacity="0.0" r="432.0" /><circle cx="926.2535489173475" cy="734.6798170110969" fill-opacity="0.0" r="432.0" /><circle cx="900.0" cy="768.2308546376021" fill-opacity="0.0" r="432.0" /><circle cx="857.8171746334452" cy="774.1915761262699" fill-opacity="0.0" r="432.0" /><circle cx="823.0538471581984" cy="794.6323870166806" fill-opacity="0.0" r="432.0" /><circle cx="808.0089938752737" cy="835.098198072658" fill-opacity="0.0" r="432.0" /><circle cx="779.0456780925197" cy="861.3438861472" fill-opacity="0.0" r="432.0" /><circle cx="742.250092524069" cy="884.9999999999998" fill-opacity="0.0" r="432.0" /><circle cx="740.1610897569524" cy="928.6939687758024" fill-opacity="0.0" r="432.0" /><circle cx="731.9133150359738" cy="966.8997800587692" fill-opacity="0.0" r="432.0" /><circle cx="704.3913213182186" cy="1000.1619107259803" fill-opacity="0.0" r="432.0" /><circle cx="704.0707235507926" cy="1040.488240884827" fill-opacity="0.0" r="432.0" /><circle cx="720.0" cy="1080.0" fill-opacity="0.0" r="432.0" /><circle cx="704.0707235507926" cy="1119.511759115173" fill-opacity="0.0" r="432.0" /><circle cx="704.3913213182186" cy="1159.8380892740197" fill-opacity="0.0" r="432.0" /><circle cx="731.9133150359737" cy="1193.1002199412308" fill-opacity="0.0" r="432.0" /><circle cx="740.1610897569524" cy="1231.3060312241976" fill-opacity="0.0" r="432.0" /><circle cx="742.250092524069" cy="1275.0" fill-opacity="0.0" r="432.0" /><circle cx="779.0456780925194" cy="1298.6561138528" fill-opacity="0.0" r="432.0" /><circle cx="808.0089938752735" cy="1324.901801927342" fill-opacity="0.0" r="432.0" /><circle cx="823.0538471581986" cy="1365.3676129833193" fill-opacity="0.0" r="432.0" /><circle cx="857.8171746334451" cy="1385.8084238737301" fill-opacity="0.0" r="432.0" /><circle cx="899.9999999999998" cy="1391.769145362398" fill-opacity="0.0" r="432.0" /><circle cx="926.2535489173475" cy="1425.320182988903" fill-opacity="0.0" r="432.0" /><circle cx="961.3374741600201" cy="1445.205702257339" fill-opacity="0.0" r="432.0" /><circle cx="1003.9043211606999" cy="1438.002021868573" fill-opacity="0.0" r="432.0" /><circle cx="1041.115411664433" cy="1449.9621450769978" fill-opacity="0.0" r="432.0" /></g><linearGradient id="id15" x1="0" x2="1" y1="0" y2="1"><stop offset="0.0" stop-color="#aFa" /><stop offset="0.3333333333333333" stop-color="#Faa" /><stop offset="0.6666666666666666" stop-color="#aaF" /><stop offset="1" stop-color="#aFa" /></linearGradient></svg>