<?xml version="1.0" encoding="utf-8" ?>
<svg baseProfile="full" height="2160" version="1.1" width="2160" xmlns="http://www.w3.org/2000/svg" xmlns:ev="http://www.w3.org/2001/xml-events" xmlns:xlink="http://www.w3.org/1999/xlink"><defs /><g fill="none" id="shape_group" stroke="url(#id13) none" stroke-width="1"><rect fill="#000" height="2160" stroke="#000" width="2160" x="0" y="0" /><circle cx="1080.0" cy="1440.0" fill-opacity="0.0" r="432.0" /><circle cx="1117.6302467763553" cy="1438.0278823325784" fill-opacity="0.0" r="432.0" /><circle cx="1154.8482086943934" cy="1432.13313626417" fill-opacity="0.0" r="432.0" /><circle cx="1191.246117974981" cy="1422.3803458662553" fill-opacity="0.0" r="432.0" /><circle cx="1226.425191507288" cy="1408.8763647513363" fill-opacity="0.0" r="432.0" /><circle cx="1260.0" cy="1391.769145362398" fill-opacity="0.0" r="432.0" /><circle cx="1291.6026908252902" cy="1371.2461179749812" fill-opacity="0.0" r="432.0" /><circle cx="1320.887018289189" cy="1347.532137171862" fill-opacity="0.0" r="432.0" /><circle cx="1347.532137171862" cy="1320.887018289189" fill-opacity="0.0" r="432.0" /><circle cx="1371.2461179749812" cy="1291.6026908252902" fill-opacity="0.0" r="432.0" /><circle cx="1391.769145362398" cy="1260.0" fill-opacity="0.0" r="432.0" /><circle cx="1408.8763647513363" cy="1226.425191507288" fill-opacity="0.0" r="432.0" /><circle cx="1422.3803458662553" cy="1191.2461179749812" fill-opacity="0.0" r="432.0" /><circle cx="1432.13313626417" cy="1154.8482086943934" fill-opacity="0.0" r="432.0" /><circle cx="1438.0278823325784" cy="1117.6302467763553" fill-opacity="0.0" r="432.0" /><circle cx="1440.0" cy="1080.0" fill-opacity="0.0" r="432.0" /><circle cx="1438.0278823325784" cy="1042.3697532236447" fill-opacity="0.0" r="432.0" /><circle cx="1432.13313626417" cy="1005.1517913056066" fill-opacity="0.0" r="432.0" /><circle cx="1422.3803458662553" cy="968.7538820250189" fill-opacity="0.0" r="432.0" /><circle cx="1408.8763647513363" cy="933.5748084927119" fill-opacity="0.0" r="432.0" /><circle cx="1391.769145362398" cy="900.0000000000001" fill-opacity="0.0" r="432.0" /><circle cx="1371.2461179749812" cy="868.3973091747097" fill-opacity="0.0" r="432.0" /><circle cx="1347.532137171862" cy="839.112981710811" fill-opacity="0.0" r="432.0" /><circle cx="1320.887018289189" cy="812.4678628281381" fill-opacity="0.0" r="432.0" /><circle cx="1291.6026908252904" cy="788.753882025019" fill-opacity="0.0" r="432.0" /><circle cx="1260.0" cy="768.2308546376021" fill-opacity="0.0" r="432.0" /><circle cx="1226.4251915072882" cy="751.1236352486637" fill-opacity="0.0" r="432.0" /><circle cx="1191.2461179749812" cy="737.6196541337447" fill-opacity="0.0" r="432.0" /><circle cx="1154.8482086943934" cy="727.86686373583" fill-opacity="0.0" r="432.0" /><circle cx="1117.6302467763553" cy="721.9721176674216" fill-opacity="0.0" r="432.0" /><circle cx="1080.0" cy="720.0" fill-opacity="0.0" r="432.0" /><circle cx="1042.3697532236447" cy="721.9721176674216" fill-opacity="0.0" r="432.0" /><circle cx="1005.1517913056066" cy="727.8668637358301" fill-opacity="0.0" r="432.0" /><circle cx="968.753882025019" cy="737.6196541337447" fill-opacity="0.0" r="432.0" /><circle cx="933.5748084927119" cy="751.1236352486637" fill-opacity="0.0" r="432.0" /><circle cx="900.0" cy="768.2308546376021" fill-opacity="0.0" r="432.0" /><circle cx="868.3973091747097" cy="788.7538820250189" fill-opacity="0.0" r="432.0" /><circle cx="839.112981710811" cy="812.4678628281381" fill-opacity="0.0" r="432.0" /><circle cx="812.4678628281381" cy="839.112981710811" fill-opacity="0.0" r="432.0" /><circle cx="788.753882025019" cy="868.3973091747096" fill-opacity="0.0" r="432.0" /><circle cx="768.2308546376021" cy="899.9999999999998" fill-opacity="0.0" r="432.0" /><circle cx="751.1236352486637" cy="933.574808492712" fill-opacity="0.0" r="432.0" /><circle cx="737.6196541337447" cy="968.7538820250189" fill-opacity="0.0" r="432.0" /><circle cx="727.8668637358301" cy="1005.1517913056065" fill-opacity="0.0" r="432.0" /><circle cx="721.9721176674216" cy="1042.3697532236447" fill-opacity="0.0" r="432.0" /><circle cx="720.0" cy="1080.0" fill-opacity="0.0" r="432.0" /><circle cx="721.9721176674216" cy="1117.630246776355" fill-opacity="0.0" r="432.0" /><circle cx="727.8668637358301" cy="1154.8482086943934" fill-opacity="0.0" r="432.0" /><circle cx="737.6196541337447" cy="1191.246117974981" fill-opacity="0.0" r="432.0" /><circle cx="751.1236352486636" cy="1226.425191507288" fill-opacity="0.0" r="432.0" /><circle cx="768.2308546376021" cy="1260.0" fill-opacity="0.0" r="432.0" /><circle cx="788.7538820250188" cy="1291.6026908252902" fill-opacity="0.0" r="432.0" /><circle cx="812.4678628281379" cy="1320.8870182891887" fill-opacity="0.0" r="432.0" /><circle cx="839.112981710811" cy="1347.532137171862" fill-opacity="0.0" r="432.0" /><circle cx="868.3973091747096" cy="1371.246117974981" fill-opacity="0.0" r="432.0" /><circle cx="899.9999999999998" cy="1391.769145362398" fill-opacity="0.0" r="432.0" /><circle cx="933.574808492712" cy="1408.8763647513363" fill-opacity="0.0" r="432.0" /><circle cx="968.7538820250188" cy="1422.3803458662553" fill-opacity="0.0" r="432.0" /><circle cx="1005.1517913056065" cy="1432.13313626417" fill-opacity="0.0" r="432.0" /><circle cx="1042.3697532236447" cy="1438.0278823325784" fill-opacity="0.0" r="432.0" /></g><linearGradient id="id13" x1="0" x2="1" y1="0" y2="1"><stop offset="0.0" stop-color="#aFa" /><stop offset="0.3333333333333333" stop-color="#Faa" /><stop offset="0.6666666666666666" stop-color="#aaF" /><stop offset="1" stop-color="#aFa" /></linearGradient></svg>