<?xml version="1.0" encoding="utf-8" ?>
<svg baseProfile="full" height="2160" version="1.1" width="2160" xmlns="http://www.w3.org/2000/svg" xmlns:ev="http://www.w3.org/2001/xml-events" xmlns:xlink="http://www.w3.org/1999/xlink"><defs /><g fill="none" id="shape_group" stroke="url(#id8) none" stroke-width="1"><rect fill="#000" height="2160" stroke="#000" width="2160" x="0" y="0" /><circle cx="1080.0" cy="1720.0" fill-opacity="0.0" r="216.0" /><circle cx="1090.9950160554886" cy="1709.9040479485266" fill-opacity="0.0" r="216.0" /><circle cx="1101.6376879555505" cy="1699.6223127518392" fill-opacity="0.0" r="216.0" /><circle cx="1111.9249333081957" cy="1689.16401620029" fill-opacity="0.0" r="216.0" /><circle cx="1121.8538842464752" cy="1678.5384301558945" fill-opacity="0.0" r="216.0" /><circle cx="1131.4218882211183" cy="1667.75487187413" fill-opacity="0.0" r="216.0" /><circle cx="1140.626508695239" cy="1656.8226993135986" fill-opacity="0.0" r="216.0" /><circle cx="1149.465525740934" cy="1645.7513064355535" fill-opacity="0.0" r="216.0" /><circle cx="1157.9369365376367" cy="1634.5501184952795" fill-opacity="0.0" r="216.0" /><circle cx="1166.0389557721269" cy="1623.2285873273258" fill-opacity="0.0" r="216.0" /><circle cx="1173.7700159401425" cy="1611.7961866265923" fill-opacity="0.0" r="216.0" /><circle cx="1184.9449474570997" cy="1619.894950896215" fill-opacity="0.0" r="216.0" /><circle cx="1196.4305468579453" cy="1627.7626564109312" fill-opacity="0.0" r="216.0" /><circle cx="1208.222100976003" cy="1635.390936927584" fill-opacity="0.0" r="216.0" /><circle cx="1220.3146994478072" cy="1642.771521240078" fill-opacity="0.0" r="216.0" /><circle cx="1232.7032366104872" cy="1649.8962375105502" fill-opacity="0.0" r="216.0" /><circle cx="1245.3824134901995" cy="1656.7570175629912" fill-opacity="0.0" r="216.0" /><circle cx="1258.3467398808693" cy="1663.3459011374516" fill-opacity="0.0" r="216.0" /><circle cx="1271.5905365124675" cy="1669.6550401029951" fill-opacity="0.0" r="216.0" /><circle cx="1285.1079373080088" cy="1675.6767026275697" fill-opacity="0.0" r="216.0" /><circle cx="1298.892891728428" cy="1681.4032773029815" fill-opacity="0.0" r="216.0" /><circle cx="1305.771808213539" cy="1668.1556686932372" fill-opacity="0.0" r="216.0" /><circle cx="1312.2560879178654" cy="1654.8539898314082" fill-opacity="0.0" r="216.0" /><circle cx="1318.345988378457" cy="1641.5079606059885" fill-opacity="0.0" r="216.0" /><circle cx="1324.0419858454802" cy="1628.1272745855604" fill-opacity="0.0" r="216.0" /><circle cx="1329.3447744270127" cy="1614.7215943516235" fill-opacity="0.0" r="216.0" /><circle cx="1334.255265137665" cy="1601.3005468535168" fill-opacity="0.0" r="216.0" /><circle cx="1338.7745848515417" cy="1587.8737187873696" fill-opacity="0.0" r="216.0" /><circle cx="1342.9040751600987" cy="1574.450652000999" fill-opacity="0.0" r="216.0" /><circle cx="1346.6452911354854" cy="1561.0408389266677" fill-opacity="0.0" r="216.0" /><circle cx="1350.0" cy="1547.6537180435969" fill-opacity="0.0" r="216.0" /><circle cx="1363.2709412005297" cy="1551.4420153861618" fill-opacity="0.0" r="216.0" /><circle cx="1376.7547879705949" cy="1554.9069338475986" fill-opacity="0.0" r="216.0" /><circle cx="1390.4442499585655" cy="1558.0422237288917" fill-opacity="0.0" r="216.0" /><circle cx="1404.3318840130332" cy="1560.8417920819243" fill-opacity="0.0" r="216.0" /><circle cx="1418.410097447117" cy="1563.2997061305052" fill-opacity="0.0" r="216.0" /><circle cx="1432.671151375484" cy="1565.4101966249684" fill-opacity="0.0" r="216.0" /><circle cx="1447.1071641227495" cy="1567.1676611288485" fill-opacity="0.0" r="216.0" /><circle cx="1461.7101147019082" cy="1568.5666672361676" fill-opacity="0.0" r="216.0" /><circle cx="1476.4718463613976" cy="1569.6019557178915" fill-opacity="0.0" r="216.0" /><circle cx="1491.3840701993852" cy="1570.268443596146" fill-opacity="0.0" r="216.0" /><circle cx="1493.3171882640195" cy="1555.4670355403464" fill-opacity="0.0" r="216.0" /><circle cx="1494.8609759424921" cy="1540.7497917959845" fill-opacity="0.0" r="216.0" /><circle cx="1496.0189996381241" cy="1526.125757987694" fill-opacity="0.0" r="216.0" /><circle cx="1496.7950222753984" cy="1511.6038802031908" fill-opacity="0.0" r="216.0" /><circle cx="1497.193000900063" cy="1497.193000900063" fill-opacity="0.0" r="216.0" /><circle cx="1497.2170841964178" cy="1482.9018548662184" fill-opacity="0.0" r="216.0" /><circle cx="1496.8716099229273" cy="1468.7390652356241" fill-opacity="0.0" r="216.0" /><circle cx="1496.1611022673408" cy="1454.7131395609606" fill-opacity="0.0" r="216.0" /><circle cx="1495.0902691225247" cy="1440.832465944779" fill-opacity="0.0" r="216.0" /><circle cx="1493.6639992842481" cy="1427.1053092307313" fill-opacity="0.0" r="216.0" /><circle cx="1507.430278801334" cy="1426.1262150774105" fill-opacity="0.0" r="216.0" /><circle cx="1521.2860220197645" cy="1424.7704261823687" fill-opacity="0.0" r="216.0" /><circle cx="1535.222240726957" cy="1423.0345631966675" fill-opacity="0.0" r="216.0" /><circle cx="1549.2298567374696" cy="1420.9154463296345" fill-opacity="0.0" r="216.0" /><circle cx="1563.2997061305052" cy="1418.410097447117" fill-opacity="0.0" r="216.0" /><circle cx="1577.422543533025" cy="1415.515742082448" fill-opacity="0.0" r="216.0" /><circle cx="1591.5890464467086" cy="1412.2298113591664" fill-opacity="0.0" r="216.0" /><circle cx="1605.789819616984" cy="1408.549943824587" fill-opacity="0.0" r="216.0" /><circle cx="1620.0153994423308" cy="1404.473987193334" fill-opacity="0.0" r="216.0" /><circle cx="1634.2562584220407" cy="1400.0" fill-opacity="0.0" r="216.0" /><circle cx="1631.0104154978194" cy="1385.4300607551922" fill-opacity="0.0" r="216.0" /><circle cx="1627.4275075725345" cy="1371.0723689272522" fill-opacity="0.0" r="216.0" /><circle cx="1623.5139797549043" cy="1356.9342048411236" fill-opacity="0.0" r="216.0" /><circle cx="1619.2764277795002" cy="1343.0226880734465" fill-opacity="0.0" r="216.0" /><circle cx="1614.7215943516235" cy="1329.3447744270127" fill-opacity="0.0" r="216.0" /><circle cx="1609.8563654327086" cy="1315.907252983964" fill-opacity="0.0" r="216.0" /><circle cx="1604.687766467891" cy="1302.716743238886" fill-opacity="0.0" r="216.0" /><circle cx="1599.222958557401" cy="1289.7796923129108" fill-opacity="0.0" r="216.0" /><circle cx="1593.469234573461" cy="1277.1023722499153" fill-opacity="0.0" r="216.0" /><circle cx="1587.4340152243904" cy="1264.6908773958612" fill-opacity="0.0" r="216.0" /><circle cx="1600.0352165796241" cy="1259.062484951436" fill-opacity="0.0" r="216.0" /><circle cx="1612.591649125286" cy="1253.0495168499706" fill-opacity="0.0" r="216.0" /><circle cx="1625.09371089893" cy="1246.65187169196" fill-opacity="0.0" r="216.0" /><circle cx="1637.531783644225" cy="1239.8696663738594" fill-opacity="0.0" r="216.0" /><circle cx="1649.8962375105502" cy="1232.7032366104872" fill-opacity="0.0" r="216.0" /><circle cx="1662.177435765598" cy="1225.1531373598007" fill-opacity="0.0" r="216.0" /><circle cx="1674.3657395189935" cy="1217.2201431497576" fill-opacity="0.0" r="216.0" /><circle cx="1686.4515124549594" cy="1208.9052483070109" fill-opacity="0.0" r="216.0" /><circle cx="1698.4251255720283" cy="1200.2096670872234" fill-opacity="0.0" r="216.0" /><circle cx="1710.276961927813" cy="1191.1348337068355" fill-opacity="0.0" r="216.0" /><circle cx="1702.243654574937" cy="1178.5537129753454" fill-opacity="0.0" r="216.0" /><circle cx="1693.9662026197736" cy="1166.2873225952405" fill-opacity="0.0" r="216.0" /><circle cx="1685.4531525012064" cy="1154.34029947714" fill-opacity="0.0" r="216.0" /><circle cx="1676.713137220964" cy="1142.7170779605922" fill-opacity="0.0" r="216.0" /><circle cx="1667.75487187413" cy="1131.4218882211183" fill-opacity="0.0" r="216.0" /><circle cx="1658.587149150698" cy="1120.4587547715926" fill-opacity="0.0" r="216.0" /><circle cx="1649.2188348101072" cy="1109.8314950584781" fill-opacity="0.0" r="216.0" /><circle cx="1639.6588631306936" cy="1099.5437181534005" fill-opacity="0.0" r="216.0" /><circle cx="1629.9162323360151" cy="1089.598823540506" fill-opacity="0.0" r="216.0" /><circle cx="1620.0" cy="1080.0" fill-opacity="0.0" r="216.0" /><circle cx="1629.9162323360151" cy="1070.401176459494" fill-opacity="0.0" r="216.0" /><circle cx="1639.6588631306936" cy="1060.4562818465995" fill-opacity="0.0" r="216.0" /><circle cx="1649.2188348101072" cy="1050.168504941522" fill-opacity="0.0" r="216.0" /><circle cx="1658.587149150698" cy="1039.5412452284072" fill-opacity="0.0" r="216.0" /><circle cx="1667.75487187413" cy="1028.5781117788817" fill-opacity="0.0" r="216.0" /><circle cx="1676.713137220964" cy="1017.2829220394078" fill-opacity="0.0" r="216.0" /><circle cx="1685.4531525012064" cy="1005.6597005228601" fill-opacity="0.0" r="216.0" /><circle cx="1693.9662026197736" cy="993.7126774047595" fill-opacity="0.0" r="216.0" /><circle cx="1702.243654574937" cy="981.4462870246546" fill-opacity="0.0" r="216.0" /><circle cx="1710.276961927813" cy="968.8651662931646" fill-opacity="0.0" r="216.0" /><circle cx="1698.4251255720283" cy="959.7903329127768" fill-opacity="0.0" r="216.0" /><circle cx="1686.4515124549596" cy="951.0947516929892" fill-opacity="0.0" r="216.0" /><circle cx="1674.3657395189935" cy="942.7798568502424" fill-opacity="0.0" r="216.0" /><circle cx="1662.177435765598" cy="934.8468626401993" fill-opacity="0.0" r="216.0" /><circle cx="1649.8962375105502" cy="927.2967633895128" fill-opacity="0.0" r="216.0" /><circle cx="1637.531783644225" cy="920.1303336261406" fill-opacity="0.0" r="216.0" /><circle cx="1625.09371089893" cy="913.3481283080401" fill-opacity="0.0" r="216.0" /><circle cx="1612.591649125286" cy="906.9504831500295" fill-opacity="0.0" r="216.0" /><circle cx="1600.0352165796244" cy="900.9375150485639" fill-opacity="0.0" r="216.0" /><circle cx="1587.4340152243906" cy="895.3091226041389" fill-opacity="0.0" r="216.0" /><circle cx="1593.469234573461" cy="882.8976277500849" fill-opacity="0.0" r="216.0" /><circle cx="1599.222958557401" cy="870.2203076870892" fill-opacity="0.0" r="216.0" /><circle cx="1604.687766467891" cy="857.283256761114" fill-opacity="0.0" r="216.0" /><circle cx="1609.8563654327086" cy="844.0927470160359" fill-opacity="0.0" r="216.0" /><circle cx="1614.7215943516235" cy="830.6552255729874" fill-opacity="0.0" r="216.0" /><circle cx="1619.2764277795002" cy="816.9773119265535" fill-opacity="0.0" r="216.0" /><circle cx="1623.5139797549045" cy="803.0657951588764" fill-opacity="0.0" r="216.0" /><circle cx="1627.4275075725345" cy="788.9276310727477" fill-opacity="0.0" r="216.0" /><circle cx="1631.0104154978194" cy="774.5699392448078" fill-opacity="0.0" r="216.0" /><circle cx="1634.256258422041" cy="760.0000000000001" fill-opacity="0.0" r="216.0" /><circle cx="1620.0153994423308" cy="755.5260128066658" fill-opacity="0.0" r="216.0" /><circle cx="1605.789819616984" cy="751.450056175413" fill-opacity="0.0" r="216.0" /><circle cx="1591.5890464467086" cy="747.7701886408335" fill-opacity="0.0" r="216.0" /><circle cx="1577.422543533025" cy="744.484257917552" fill-opacity="0.0" r="216.0" /><circle cx="1563.299706130505" cy="741.5899025528828" fill-opacity="0.0" r="216.0" /><circle cx="1549.2298567374696" cy="739.0845536703657" fill-opacity="0.0" r="216.0" /><circle cx="1535.222240726957" cy="736.9654368033324" fill-opacity="0.0" r="216.0" /><circle cx="1521.2860220197645" cy="735.2295738176314" fill-opacity="0.0" r="216.0" /><circle cx="1507.430278801334" cy="733.8737849225895" fill-opacity="0.0" r="216.0" /><circle cx="1493.6639992842481" cy="732.8946907692687" fill-opacity="0.0" r="216.0" /><circle cx="1495.0902691225247" cy="719.167534055221" fill-opacity="0.0" r="216.0" /><circle cx="1496.1611022673408" cy="705.2868604390394" fill-opacity="0.0" r="216.0" /><circle cx="1496.8716099229273" cy="691.2609347643759" fill-opacity="0.0" r="216.0" /><circle cx="1497.2170841964175" cy="677.0981451337816" fill-opacity="0.0" r="216.0" /><circle cx="1497.193000900063" cy="662.806999099937" fill-opacity="0.0" r="216.0" /><circle cx="1496.7950222753984" cy="648.3961197968092" fill-opacity="0.0" r="216.0" /><circle cx="1496.0189996381241" cy="633.874242012306" fill-opacity="0.0" r="216.0" /><circle cx="1494.8609759424921" cy="619.2502082040156" fill-opacity="0.0" r="216.0" /><circle cx="1493.3171882640195" cy="604.5329644596536" fill-opacity="0.0" r="216.0" /><circle cx="1491.3840701993854" cy="589.7315564038541" fill-opacity="0.0" r="216.0" /><circle cx="1476.4718463613976" cy="590.3980442821083" fill-opacity="0.0" r="216.0" /><circle cx="1461.7101147019082" cy="591.4333327638324" fill-opacity="0.0" r="216.0" /><circle cx="1447.1071641227495" cy="592.8323388711513" fill-opacity="0.0" r="216.0" /><circle cx="1432.671151375484" cy="594.5898033750316" fill-opacity="0.0" r="216.0" /><circle cx="1418.410097447117" cy="596.7002938694948" fill-opacity="0.0" r="216.0" /><circle cx="1404.3318840130332" cy="599.1582079180758" fill-opacity="0.0" r="216.0" /><circle cx="1390.4442499585657" cy="601.9577762711083" fill-opacity="0.0" r="216.0" /><circle cx="1376.7547879705949" cy="605.0930661524014" fill-opacity="0.0" r="216.0" /><circle cx="1363.27094120053" cy="608.5579846138382" fill-opacity="0.0" r="216.0" /><circle cx="1350.0" cy="612.3462819564031" fill-opacity="0.0" r="216.0" /><circle cx="1346.6452911354854" cy="598.9591610733323" fill-opacity="0.0" r="216.0" /><circle cx="1342.9040751600987" cy="585.5493479990009" fill-opacity="0.0" r="216.0" /><circle cx="1338.7745848515417" cy="572.1262812126304" fill-opacity="0.0" r="216.0" /><circle cx="1334.2552651376648" cy="558.6994531464832" fill-opacity="0.0" r="216.0" /><circle cx="1329.3447744270127" cy="545.2784056483765" fill-opacity="0.0" r="216.0" /><circle cx="1324.0419858454802" cy="531.8727254144395" fill-opacity="0.0" r="216.0" /><circle cx="1318.345988378457" cy="518.4920393940114" fill-opacity="0.0" r="216.0" /><circle cx="1312.2560879178657" cy="505.14601016859183" fill-opacity="0.0" r="216.0" /><circle cx="1305.771808213539" cy="491.8443313067629" fill-opacity="0.0" r="216.0" /><circle cx="1298.8928917284281" cy="478.59672269701866" fill-opacity="0.0" r="216.0" /><circle cx="1285.1079373080086" cy="484.3232973724304" fill-opacity="0.0" r="216.0" /><circle cx="1271.5905365124675" cy="490.34495989700486" fill-opacity="0.0" r="216.0" /><circle cx="1258.3467398808693" cy="496.65409886254827" fill-opacity="0.0" r="216.0" /><circle cx="1245.3824134901995" cy="503.24298243700866" fill-opacity="0.0" r="216.0" /><circle cx="1232.7032366104875" cy="510.10376248944976" fill-opacity="0.0" r="216.0" /><circle cx="1220.3146994478072" cy="517.228478759922" fill-opacity="0.0" r="216.0" /><circle cx="1208.2221009760033" cy="524.609063072416" fill-opacity="0.0" r="216.0" /><circle cx="1196.4305468579453" cy="532.2373435890688" fill-opacity="0.0" r="216.0" /><circle cx="1184.9449474570997" cy="540.1050491037848" fill-opacity="0.0" r="216.0" /><circle cx="1173.7700159401425" cy="548.2038133734077" fill-opacity="0.0" r="216.0" /><circle cx="1166.038955772127" cy="536.7714126726743" fill-opacity="0.0" r="216.0" /><circle cx="1157.9369365376365" cy="525.4498815047206" fill-opacity="0.0" r="216.0" /><circle cx="1149.465525740934" cy="514.2486935644465" fill-opacity="0.0" r="216.0" /><circle cx="1140.6265086952392" cy="503.1773006864015" fill-opacity="0.0" r="216.0" /><circle cx="1131.4218882211183" cy="492.2451281258701" fill-opacity="0.0" r="216.0" /><circle cx="1121.8538842464752" cy="481.4615698441055" fill-opacity="0.0" r="216.0" /><circle cx="1111.9249333081957" cy="470.83598379971" fill-opacity="0.0" r="216.0" /><circle cx="1101.6376879555507" cy="460.37768724816067" fill-opacity="0.0" r="216.0" /><circle cx="1090.9950160554886" cy="450.09595205147355" fill-opacity="0.0" r="216.0" /><circle cx="1080.0" cy="440.0" fill-opacity="0.0" r="216.0" /><circle cx="1069.0049839445114" cy="450.09595205147355" fill-opacity="0.0" r="216.0" /><circle cx="1058.3623120444495" cy="460.37768724816067" fill-opacity="0.0" r="216.0" /><circle cx="1048.0750666918045" cy="470.83598379971" fill-opacity="0.0" r="216.0" /><circle cx="1038.1461157535248" cy="481.4615698441055" fill-opacity="0.0" r="216.0" /><circle cx="1028.5781117788817" cy="492.2451281258701" fill-opacity="0.0" r="216.0" /><circle cx="1019.3734913047609" cy="503.1773006864015" fill-opacity="0.0" r="216.0" /><circle cx="1010.534474259066" cy="514.2486935644464" fill-opacity="0.0" r="216.0" /><circle cx="1002.0630634623633" cy="525.4498815047207" fill-opacity="0.0" r="216.0" /><circle cx="993.9610442278731" cy="536.7714126726743" fill-opacity="0.0" r="216.0" /><circle cx="986.2299840598575" cy="548.2038133734077" fill-opacity="0.0" r="216.0" /><circle cx="975.0550525429004" cy="540.1050491037848" fill-opacity="0.0" r="216.0" /><circle cx="963.5694531420547" cy="532.2373435890689" fill-opacity="0.0" r="216.0" /><circle cx="951.777899023997" cy="524.6090630724159" fill-opacity="0.0" r="216.0" /><circle cx="939.6853005521929" cy="517.228478759922" fill-opacity="0.0" r="216.0" /><circle cx="927.2967633895128" cy="510.10376248944965" fill-opacity="0.0" r="216.0" /><circle cx="914.6175865098006" cy="503.24298243700866" fill-opacity="0.0" r="216.0" /><circle cx="901.6532601191306" cy="496.6540988625484" fill-opacity="0.0" r="216.0" /><circle cx="888.4094634875327" cy="490.34495989700474" fill-opacity="0.0" r="216.0" /><circle cx="874.8920626919912" cy="484.3232973724305" fill-opacity="0.0" r="216.0" /><circle cx="861.1071082715721" cy="478.59672269701855" fill-opacity="0.0" r="216.0" /><circle cx="854.2281917864607" cy="491.8443313067629" fill-opacity="0.0" r="216.0" /><circle cx="847.7439120821346" cy="505.14601016859183" fill-opacity="0.0" r="216.0" /><circle cx="841.6540116215431" cy="518.4920393940114" fill-opacity="0.0" r="216.0" /><circle cx="835.9580141545199" cy="531.8727254144395" fill-opacity="0.0" r="216.0" /><circle cx="830.6552255729874" cy="545.2784056483765" fill-opacity="0.0" r="216.0" /><circle cx="825.744734862335" cy="558.6994531464832" fill-opacity="0.0" r="216.0" /><circle cx="821.2254151484584" cy="572.1262812126304" fill-opacity="0.0" r="216.0" /><circle cx="817.095924839901" cy="585.5493479990009" fill-opacity="0.0" r="216.0" /><circle cx="813.3547088645147" cy="598.9591610733323" fill-opacity="0.0" r="216.0" /><circle cx="810.0" cy="612.3462819564031" fill-opacity="0.0" r="216.0" /><circle cx="796.7290587994703" cy="608.5579846138382" fill-opacity="0.0" r="216.0" /><circle cx="783.2452120294054" cy="605.0930661524014" fill-opacity="0.0" r="216.0" /><circle cx="769.5557500414345" cy="601.9577762711083" fill-opacity="0.0" r="216.0" /><circle cx="755.668115986967" cy="599.1582079180757" fill-opacity="0.0" r="216.0" /><circle cx="741.5899025528828" cy="596.7002938694948" fill-opacity="0.0" r="216.0" /><circle cx="727.3288486245162" cy="594.5898033750316" fill-opacity="0.0" r="216.0" /><circle cx="712.8928358772505" cy="592.8323388711514" fill-opacity="0.0" r="216.0" /><circle cx="698.2898852980919" cy="591.4333327638324" fill-opacity="0.0" r="216.0" /><circle cx="683.5281536386024" cy="590.3980442821085" fill-opacity="0.0" r="216.0" /><circle cx="668.6159298006148" cy="589.731556403854" fill-opacity="0.0" r="216.0" /><circle cx="666.6828117359805" cy="604.5329644596536" fill-opacity="0.0" r="216.0" /><circle cx="665.1390240575079" cy="619.2502082040155" fill-opacity="0.0" r="216.0" /><circle cx="663.981000361876" cy="633.874242012306" fill-opacity="0.0" r="216.0" /><circle cx="663.2049777246016" cy="648.3961197968093" fill-opacity="0.0" r="216.0" /><circle cx="662.806999099937" cy="662.8069990999369" fill-opacity="0.0" r="216.0" /><circle cx="662.7829158035822" cy="677.0981451337816" fill-opacity="0.0" r="216.0" /><circle cx="663.1283900770728" cy="691.2609347643759" fill-opacity="0.0" r="216.0" /><circle cx="663.8388977326592" cy="705.2868604390394" fill-opacity="0.0" r="216.0" /><circle cx="664.9097308774753" cy="719.167534055221" fill-opacity="0.0" r="216.0" /><circle cx="666.3360007157519" cy="732.8946907692687" fill-opacity="0.0" r="216.0" /><circle cx="652.5697211986662" cy="733.8737849225893" fill-opacity="0.0" r="216.0" /><circle cx="638.7139779802355" cy="735.2295738176315" fill-opacity="0.0" r="216.0" /><circle cx="624.7777592730431" cy="736.9654368033325" fill-opacity="0.0" r="216.0" /><circle cx="610.7701432625306" cy="739.0845536703655" fill-opacity="0.0" r="216.0" /><circle cx="596.700293869495" cy="741.5899025528827" fill-opacity="0.0" r="216.0" /><circle cx="582.5774564669748" cy="744.484257917552" fill-opacity="0.0" r="216.0" /><circle cx="568.4109535532913" cy="747.7701886408336" fill-opacity="0.0" r="216.0" /><circle cx="554.2101803830159" cy="751.4500561754129" fill-opacity="0.0" r="216.0" /><circle cx="539.9846005576694" cy="755.5260128066657" fill-opacity="0.0" r="216.0" /><circle cx="525.7437415779593" cy="759.9999999999998" fill-opacity="0.0" r="216.0" /><circle cx="528.9895845021806" cy="774.5699392448078" fill-opacity="0.0" r="216.0" /><circle cx="532.5724924274652" cy="788.9276310727478" fill-opacity="0.0" r="216.0" /><circle cx="536.4860202450957" cy="803.0657951588764" fill-opacity="0.0" r="216.0" /><circle cx="540.7235722204999" cy="816.9773119265533" fill-opacity="0.0" r="216.0" /><circle cx="545.2784056483764" cy="830.6552255729875" fill-opacity="0.0" r="216.0" /><circle cx="550.1436345672914" cy="844.0927470160359" fill-opacity="0.0" r="216.0" /><circle cx="555.3122335321091" cy="857.283256761114" fill-opacity="0.0" r="216.0" /><circle cx="560.777041442599" cy="870.2203076870891" fill-opacity="0.0" r="216.0" /><circle cx="566.5307654265391" cy="882.8976277500847" fill-opacity="0.0" r="216.0" /><circle cx="572.5659847756094" cy="895.309122604139" fill-opacity="0.0" r="216.0" /><circle cx="559.9647834203757" cy="900.9375150485639" fill-opacity="0.0" r="216.0" /><circle cx="547.4083508747141" cy="906.9504831500294" fill-opacity="0.0" r="216.0" /><circle cx="534.9062891010699" cy="913.3481283080398" fill-opacity="0.0" r="216.0" /><circle cx="522.468216355775" cy="920.1303336261407" fill-opacity="0.0" r="216.0" /><circle cx="510.10376248944965" cy="927.2967633895128" fill-opacity="0.0" r="216.0" /><circle cx="497.8225642344021" cy="934.8468626401993" fill-opacity="0.0" r="216.0" /><circle cx="485.63426048100655" cy="942.7798568502421" fill-opacity="0.0" r="216.0" /><circle cx="473.54848754504053" cy="951.0947516929889" fill-opacity="0.0" r="216.0" /><circle cx="461.57487442797174" cy="959.7903329127769" fill-opacity="0.0" r="216.0" /><circle cx="449.7230380721869" cy="968.8651662931646" fill-opacity="0.0" r="216.0" /><circle cx="457.7563454250633" cy="981.4462870246545" fill-opacity="0.0" r="216.0" /><circle cx="466.0337973802265" cy="993.7126774047592" fill-opacity="0.0" r="216.0" /><circle cx="474.54684749879357" cy="1005.6597005228602" fill-opacity="0.0" r="216.0" /><circle cx="483.2868627790359" cy="1017.2829220394079" fill-opacity="0.0" r="216.0" /><circle cx="492.2451281258701" cy="1028.5781117788815" fill-opacity="0.0" r="216.0" /><circle cx="501.412850849302" cy="1039.5412452284072" fill-opacity="0.0" r="216.0" /><circle cx="510.78116518989293" cy="1050.1685049415219" fill-opacity="0.0" r="216.0" /><circle cx="520.3411368693064" cy="1060.4562818465995" fill-opacity="0.0" r="216.0" /><circle cx="530.0837676639848" cy="1070.401176459494" fill-opacity="0.0" r="216.0" /><circle cx="540.0" cy="1080.0" fill-opacity="0.0" r="216.0" /><circle cx="530.0837676639848" cy="1089.5988235405057" fill-opacity="0.0" r="216.0" /><circle cx="520.3411368693064" cy="1099.5437181534007" fill-opacity="0.0" r="216.0" /><circle cx="510.78116518989293" cy="1109.8314950584781" fill-opacity="0.0" r="216.0" /><circle cx="501.4128508493019" cy="1120.4587547715926" fill-opacity="0.0" r="216.0" /><circle cx="492.2451281258701" cy="1131.4218882211183" fill-opacity="0.0" r="216.0" /><circle cx="483.2868627790359" cy="1142.7170779605917" fill-opacity="0.0" r="216.0" /><circle cx="474.54684749879357" cy="1154.34029947714" fill-opacity="0.0" r="216.0" /><circle cx="466.03379738022636" cy="1166.2873225952405" fill-opacity="0.0" r="216.0" /><circle cx="457.75634542506316" cy="1178.5537129753452" fill-opacity="0.0" r="216.0" /><circle cx="449.7230380721868" cy="1191.1348337068353" fill-opacity="0.0" r="216.0" /><circle cx="461.57487442797174" cy="1200.2096670872234" fill-opacity="0.0" r="216.0" /><circle cx="473.54848754504053" cy="1208.9052483070109" fill-opacity="0.0" r="216.0" /><circle cx="485.63426048100655" cy="1217.2201431497576" fill-opacity="0.0" r="216.0" /><circle cx="497.8225642344021" cy="1225.1531373598004" fill-opacity="0.0" r="216.0" /><circle cx="510.10376248944965" cy="1232.703236610487" fill-opacity="0.0" r="216.0" /><circle cx="522.4682163557751" cy="1239.8696663738597" fill-opacity="0.0" r="216.0" /><circle cx="534.9062891010698" cy="1246.65187169196" fill-opacity="0.0" r="216.0" /><circle cx="547.408350874714" cy="1253.0495168499704" fill-opacity="0.0" r="216.0" /><circle cx="559.9647834203756" cy="1259.062484951436" fill-opacity="0.0" r="216.0" /><circle cx="572.5659847756095" cy="1264.6908773958612" fill-opacity="0.0" r="216.0" /><circle cx="566.530765426539" cy="1277.1023722499153" fill-opacity="0.0" r="216.0" /><circle cx="560.777041442599" cy="1289.7796923129108" fill-opacity="0.0" r="216.0" /><circle cx="555.312233532109" cy="1302.716743238886" fill-opacity="0.0" r="216.0" /><circle cx="550.1436345672913" cy="1315.9072529839639" fill-opacity="0.0" r="216.0" /><circle cx="545.2784056483766" cy="1329.3447744270127" fill-opacity="0.0" r="216.0" /><circle cx="540.7235722204998" cy="1343.0226880734465" fill-opacity="0.0" r="216.0" /><circle cx="536.4860202450955" cy="1356.9342048411236" fill-opacity="0.0" r="216.0" /><circle cx="532.5724924274652" cy="1371.072368927252" fill-opacity="0.0" r="216.0" /><circle cx="528.9895845021807" cy="1385.4300607551925" fill-opacity="0.0" r="216.0" /><circle cx="525.7437415779593" cy="1400.0" fill-opacity="0.0" r="216.0" /><circle cx="539.9846005576692" cy="1404.473987193334" fill-opacity="0.0" r="216.0" /><circle cx="554.2101803830159" cy="1408.549943824587" fill-opacity="0.0" r="216.0" /><circle cx="568.4109535532912" cy="1412.2298113591662" fill-opacity="0.0" r="216.0" /><circle cx="582.577456466975" cy="1415.5157420824482" fill-opacity="0.0" r="216.0" /><circle cx="596.7002938694948" cy="1418.410097447117" fill-opacity="0.0" r="216.0" /><circle cx="610.7701432625304" cy="1420.9154463296343" fill-opacity="0.0" r="216.0" /><circle cx="624.777759273043" cy="1423.0345631966672" fill-opacity="0.0" r="216.0" /><circle cx="638.7139779802358" cy="1424.7704261823687" fill-opacity="0.0" r="216.0" /><circle cx="652.569721198666" cy="1426.1262150774105" fill-opacity="0.0" r="216.0" /><circle cx="666.3360007157519" cy="1427.105309230731" fill-opacity="0.0" r="216.0" /><circle cx="664.9097308774753" cy="1440.832465944779" fill-opacity="0.0" r="216.0" /><circle cx="663.838897732659" cy="1454.7131395609604" fill-opacity="0.0" r="216.0" /><circle cx="663.1283900770729" cy="1468.7390652356241" fill-opacity="0.0" r="216.0" /><circle cx="662.7829158035825" cy="1482.9018548662184" fill-opacity="0.0" r="216.0" /><circle cx="662.8069990999369" cy="1497.193000900063" fill-opacity="0.0" r="216.0" /><circle cx="663.2049777246015" cy="1511.6038802031906" fill-opacity="0.0" r="216.0" /><circle cx="663.9810003618761" cy="1526.1257579876942" fill-opacity="0.0" r="216.0" /><circle cx="665.139024057508" cy="1540.7497917959845" fill-opacity="0.0" r="216.0" /><circle cx="666.6828117359803" cy="1555.4670355403464" fill-opacity="0.0" r="216.0" /><circle cx="668.6159298006146" cy="1570.2684435961457" fill-opacity="0.0" r="216.0" /><circle cx="683.5281536386021" cy="1569.6019557178915" fill-opacity="0.0" r="216.0" /><circle cx="698.2898852980919" cy="1568.5666672361676" fill-opacity="0.0" r="216.0" /><circle cx="712.8928358772505" cy="1567.1676611288485" fill-opacity="0.0" r="216.0" /><circle cx="727.328848624516" cy="1565.4101966249684" fill-opacity="0.0" r="216.0" /><circle cx="741.5899025528826" cy="1563.299706130505" fill-opacity="0.0" r="216.0" /><circle cx="755.668115986967" cy="1560.8417920819243" fill-opacity="0.0" r="216.0" /><circle cx="769.5557500414346" cy="1558.0422237288917" fill-opacity="0.0" r="216.0" /><circle cx="783.2452120294051" cy="1554.9069338475983" fill-opacity="0.0" r="216.0" /><circle cx="796.7290587994701" cy="1551.4420153861615" fill-opacity="0.0" r="216.0" /><circle cx="809.9999999999998" cy="1547.6537180435967" fill-opacity="0.0" r="216.0" /><circle cx="813.3547088645147" cy="1561.0408389266677" fill-opacity="0.0" r="216.0" /><circle cx="817.0959248399012" cy="1574.450652000999" fill-opacity="0.0" r="216.0" /><circle cx="821.2254151484583" cy="1587.8737187873696" fill-opacity="0.0" r="216.0" /><circle cx="825.7447348623349" cy="1601.3005468535166" fill-opacity="0.0" r="216.0" /><circle cx="830.6552255729874" cy="1614.7215943516235" fill-opacity="0.0" r="216.0" /><circle cx="835.9580141545199" cy="1628.1272745855606" fill-opacity="0.0" r="216.0" /><circle cx="841.654011621543" cy="1641.5079606059885" fill-opacity="0.0" r="216.0" /><circle cx="847.7439120821343" cy="1654.8539898314082" fill-opacity="0.0" r="216.0" /><circle cx="854.2281917864605" cy="1668.155668693237" fill-opacity="0.0" r="216.0" /><circle cx="861.1071082715721" cy="1681.4032773029815" fill-opacity="0.0" r="216.0" /><circle cx="874.8920626919912" cy="1675.6767026275697" fill-opacity="0.0" r="216.0" /><circle cx="888.4094634875324" cy="1669.6550401029951" fill-opacity="0.0" r="216.0" /><circle cx="901.6532601191303" cy="1663.3459011374516" fill-opacity="0.0" r="216.0" /><circle cx="914.6175865098006" cy="1656.7570175629912" fill-opacity="0.0" r="216.0" /><circle cx="927.2967633895128" cy="1649.8962375105502" fill-opacity="0.0" r="216.0" /><circle cx="939.6853005521926" cy="1642.771521240078" fill-opacity="0.0" r="216.0" /><circle cx="951.7778990239967" cy="1635.3909369275839" fill-opacity="0.0" r="216.0" /><circle cx="963.5694531420545" cy="1627.762656410931" fill-opacity="0.0" r="216.0" /><circle cx="975.0550525429004" cy="1619.894950896215" fill-opacity="0.0" r="216.0" /><circle cx="986.2299840598575" cy="1611.7961866265923" fill-opacity="0.0" r="216.0" /><circle cx="993.9610442278729" cy="1623.2285873273258" fill-opacity="0.0" r="216.0" /><circle cx="1002.0630634623631" cy="1634.5501184952793" fill-opacity="0.0" r="216.0" /><circle cx="1010.5344742590661" cy="1645.7513064355535" fill-opacity="0.0" r="216.0" /><circle cx="1019.373491304761" cy="1656.8226993135986" fill-opacity="0.0" r="216.0" /><circle cx="1028.5781117788815" cy="1667.75487187413" fill-opacity="0.0" r="216.0" /><circle cx="1038.1461157535246" cy="1678.5384301558945" fill-opacity="0.0" r="216.0" /><circle cx="1048.0750666918038" cy="1689.16401620029" fill-opacity="0.0" r="216.0" /><circle cx="1058.3623120444495" cy="1699.6223127518392" fill-opacity="0.0" r="216.0" /><circle cx="1069.0049839445114" cy="1709.9040479485266" fill-opacity="0.0" r="216.0" /></g><linearGradient id="id8" x1="0" x2="1" y1="0" y2="1"><stop offset="0.0" stop-color="#FF0" /><stop offset="0.3333333333333333" stop-color="#0FF" /><stop offset="0.6666666666666666" stop-color="#F0F" /><stop offset="1" stop-color="#FF0" /></linearGradient></svg>