<?xml version="1.0" encoding="utf-8" ?>
<svg baseProfile="full" height="2160" version="1.1" width="2160" xmlns="http://www.w3.org/2000/svg" xmlns:ev="http://www.w3.org/2001/xml-events" xmlns:xlink="http://www.w3.org/1999/xlink"><defs /><g fill="none" id="shape_group" stroke="url(#id14) none" stroke-width="1"><rect fill="#000" height="2160" stroke="#000" width="2160" x="0" y="0" /><circle cx="1080.0" cy="1540.0" fill-opacity="0.0" r="432.0" /><circle cx="1121.8113853070613" cy="1477.8087581473094" fill-opacity="0.0" r="432.0" /><circle cx="1159.0064425107485" cy="1451.6960882788462" fill-opacity="0.0" r="432.0" /><circle cx="1215.9674775249769" cy="1498.4648671698676" fill-opacity="0.0" r="432.0" /><circle cx="1250.829390091836" cy="1463.6890922098924" fill-opacity="0.0" r="432.0" /><circle cx="1260.0" cy="1391.769145362398" fill-opacity="0.0" r="432.0" /><circle cx="1326.8698059628387" cy="1419.7871376374778" fill-opacity="0.0" r="432.0" /><circle cx="1374.4174667978978" cy="1406.9837232100535" fill-opacity="0.0" r="432.0" /><circle cx="1362.3950336814098" cy="1334.2696304163662" fill-opacity="0.0" r="432.0" /><circle cx="1403.606797749979" cy="1315.1141009169892" fill-opacity="0.0" r="432.0" /><circle cx="1478.3716857408417" cy="1310.0" fill-opacity="0.0" r="432.0" /><circle cx="1445.4181830570403" cy="1242.69465723032" fill-opacity="0.0" r="432.0" /><circle cx="1441.4014761921583" cy="1197.42645786248" fill-opacity="0.0" r="432.0" /><circle cx="1510.3849443228744" cy="1171.481143959814" fill-opacity="0.0" r="432.0" /><circle cx="1497.6991960546748" cy="1123.9019545724145" fill-opacity="0.0" r="432.0" /><circle cx="1440.0" cy="1080.0" fill-opacity="0.0" r="432.0" /><circle cx="1497.6991960546748" cy="1036.0980454275855" fill-opacity="0.0" r="432.0" /><circle cx="1510.3849443228746" cy="988.5188560401859" fill-opacity="0.0" r="432.0" /><circle cx="1441.4014761921585" cy="962.57354213752" fill-opacity="0.0" r="432.0" /><circle cx="1445.4181830570403" cy="917.3053427696799" fill-opacity="0.0" r="432.0" /><circle cx="1478.3716857408417" cy="850.0000000000001" fill-opacity="0.0" r="432.0" /><circle cx="1403.606797749979" cy="844.8858990830108" fill-opacity="0.0" r="432.0" /><circle cx="1362.3950336814098" cy="825.7303695836339" fill-opacity="0.0" r="432.0" /><circle cx="1374.4174667978978" cy="753.0162767899466" fill-opacity="0.0" r="432.0" /><circle cx="1326.8698059628387" cy="740.2128623625222" fill-opacity="0.0" r="432.0" /><circle cx="1260.0" cy="768.2308546376021" fill-opacity="0.0" r="432.0" /><circle cx="1250.829390091836" cy="696.3109077901076" fill-opacity="0.0" r="432.0" /><circle cx="1215.9674775249769" cy="661.5351328301324" fill-opacity="0.0" r="432.0" /><circle cx="1159.0064425107485" cy="708.3039117211538" fill-opacity="0.0" r="432.0" /><circle cx="1121.8113853070615" cy="682.1912418526906" fill-opacity="0.0" r="432.0" /><circle cx="1080.0" cy="620.0" fill-opacity="0.0" r="432.0" /><circle cx="1038.1886146929387" cy="682.1912418526906" fill-opacity="0.0" r="432.0" /><circle cx="1000.9935574892514" cy="708.3039117211539" fill-opacity="0.0" r="432.0" /><circle cx="944.0325224750231" cy="661.5351328301324" fill-opacity="0.0" r="432.0" /><circle cx="909.1706099081639" cy="696.3109077901076" fill-opacity="0.0" r="432.0" /><circle cx="900.0" cy="768.2308546376021" fill-opacity="0.0" r="432.0" /><circle cx="833.1301940371613" cy="740.2128623625221" fill-opacity="0.0" r="432.0" /><circle cx="785.5825332021024" cy="753.0162767899465" fill-opacity="0.0" r="432.0" /><circle cx="797.6049663185902" cy="825.7303695836339" fill-opacity="0.0" r="432.0" /><circle cx="756.3932022500211" cy="844.8858990830107" fill-opacity="0.0" r="432.0" /><circle cx="681.6283142591583" cy="849.9999999999998" fill-opacity="0.0" r="432.0" /><circle cx="714.5818169429597" cy="917.30534276968" fill-opacity="0.0" r="432.0" /><circle cx="718.5985238078417" cy="962.5735421375199" fill-opacity="0.0" r="432.0" /><circle cx="649.6150556771256" cy="988.5188560401857" fill-opacity="0.0" r="432.0" /><circle cx="662.3008039453252" cy="1036.0980454275855" fill-opacity="0.0" r="432.0" /><circle cx="720.0" cy="1080.0" fill-opacity="0.0" r="432.0" /><circle cx="662.3008039453252" cy="1123.9019545724143" fill-opacity="0.0" r="432.0" /><circle cx="649.6150556771256" cy="1171.481143959814" fill-opacity="0.0" r="432.0" /><circle cx="718.5985238078416" cy="1197.42645786248" fill-opacity="0.0" r="432.0" /><circle cx="714.5818169429596" cy="1242.69465723032" fill-opacity="0.0" r="432.0" /><circle cx="681.6283142591583" cy="1310.0" fill-opacity="0.0" r="432.0" /><circle cx="756.393202250021" cy="1315.1141009169892" fill-opacity="0.0" r="432.0" /><circle cx="797.6049663185901" cy="1334.269630416366" fill-opacity="0.0" r="432.0" /><circle cx="785.5825332021025" cy="1406.9837232100535" fill-opacity="0.0" r="432.0" /><circle cx="833.1301940371611" cy="1419.7871376374778" fill-opacity="0.0" r="432.0" /><circle cx="899.9999999999998" cy="1391.769145362398" fill-opacity="0.0" r="432.0" /><circle cx="909.1706099081639" cy="1463.6890922098924" fill-opacity="0.0" r="432.0" /><circle cx="944.032522475023" cy="1498.4648671698676" fill-opacity="0.0" r="432.0" /><circle cx="1000.9935574892512" cy="1451.6960882788462" fill-opacity="0.0" r="432.0" /><circle cx="1038.1886146929387" cy="1477.8087581473094" fill-opacity="0.0" r="432.0" /></g><linearGradient id="id14" x1="0" x2="1" y1="0" y2="1"><stop offset="0.0" stop-color="#aFa" /><stop offset="0.3333333333333333" stop-color="#Faa" /><stop offset="0.6666666666666666" stop-color="#aaF" /><stop offset="1" stop-color="#aFa" /></linearGradient></svg>