<?xml version="1.0" encoding="utf-8" ?>
<svg baseProfile="full" height="2160" version="1.1" width="2160" xmlns="http://www.w3.org/2000/svg" xmlns:ev="http://www.w3.org/2001/xml-events" xmlns:xlink="http://www.w3.org/1999/xlink"><defs /><g fill="none" id="shape_group" stroke="url(#id18) none" stroke-width="1"><rect fill="#000" height="2160" stroke="#000" width="2160" x="0" y="0" /><circle cx="1080.0" cy="1650.0" fill-opacity="0.0" r="360.0" /><circle cx="1137.6997117237447" cy="1628.9760862432868" fill-opacity="0.0" r="360.0" /><circle cx="1193.5197831864966" cy="1614.0685900006579" fill-opacity="0.0" r="360.0" /><circle cx="1254.2855848274703" cy="1616.3958751904665" fill-opacity="0.0" r="360.0" /><circle cx="1306.9590468362965" cy="1589.7583653645713" fill-opacity="0.0" r="360.0" /><circle cx="1350.0" cy="1547.6537180435969" fill-opacity="0.0" r="360.0" /><circle cx="1407.9841707792" cy="1531.4314828612207" fill-opacity="0.0" r="360.0" /><circle cx="1457.389661986396" cy="1499.1336815692503" fill-opacity="0.0" r="360.0" /><circle cx="1485.7570747106572" cy="1445.3453110719365" fill-opacity="0.0" r="360.0" /><circle cx="1526.577380894971" cy="1404.457459265445" fill-opacity="0.0" r="360.0" /><circle cx="1573.63448015713" cy="1365.0" fill-opacity="0.0" r="360.0" /><circle cx="1584.2770926187156" cy="1304.5186269778417" fill-opacity="0.0" r="360.0" /><circle cx="1599.2768578971538" cy="1248.7232789287214" fill-opacity="0.0" r="360.0" /><circle cx="1631.6752468138664" cy="1197.2621936212163" fill-opacity="0.0" r="360.0" /><circle cx="1634.9432176154965" cy="1138.3268825033506" fill-opacity="0.0" r="360.0" /><circle cx="1620.0" cy="1080.0" fill-opacity="0.0" r="360.0" /><circle cx="1634.9432176154965" cy="1021.6731174966493" fill-opacity="0.0" r="360.0" /><circle cx="1631.6752468138664" cy="962.7378063787837" fill-opacity="0.0" r="360.0" /><circle cx="1599.2768578971538" cy="911.2767210712788" fill-opacity="0.0" r="360.0" /><circle cx="1584.2770926187156" cy="855.4813730221583" fill-opacity="0.0" r="360.0" /><circle cx="1573.63448015713" cy="795.0000000000001" fill-opacity="0.0" r="360.0" /><circle cx="1526.577380894971" cy="755.5425407345549" fill-opacity="0.0" r="360.0" /><circle cx="1485.7570747106572" cy="714.6546889280635" fill-opacity="0.0" r="360.0" /><circle cx="1457.389661986396" cy="660.8663184307497" fill-opacity="0.0" r="360.0" /><circle cx="1407.9841707792002" cy="628.5685171387794" fill-opacity="0.0" r="360.0" /><circle cx="1350.0" cy="612.3462819564031" fill-opacity="0.0" r="360.0" /><circle cx="1306.9590468362967" cy="570.2416346354288" fill-opacity="0.0" r="360.0" /><circle cx="1254.2855848274703" cy="543.6041248095335" fill-opacity="0.0" r="360.0" /><circle cx="1193.5197831864966" cy="545.9314099993421" fill-opacity="0.0" r="360.0" /><circle cx="1137.699711723745" cy="531.0239137567131" fill-opacity="0.0" r="360.0" /><circle cx="1080.0" cy="510.0" fill-opacity="0.0" r="360.0" /><circle cx="1022.3002882762553" cy="531.0239137567131" fill-opacity="0.0" r="360.0" /><circle cx="966.4802168135033" cy="545.9314099993421" fill-opacity="0.0" r="360.0" /><circle cx="905.7144151725297" cy="543.6041248095333" fill-opacity="0.0" r="360.0" /><circle cx="853.0409531637035" cy="570.2416346354287" fill-opacity="0.0" r="360.0" /><circle cx="810.0" cy="612.3462819564031" fill-opacity="0.0" r="360.0" /><circle cx="752.0158292208" cy="628.5685171387793" fill-opacity="0.0" r="360.0" /><circle cx="702.610338013604" cy="660.8663184307496" fill-opacity="0.0" r="360.0" /><circle cx="674.2429252893427" cy="714.6546889280635" fill-opacity="0.0" r="360.0" /><circle cx="633.4226191050291" cy="755.5425407345548" fill-opacity="0.0" r="360.0" /><circle cx="586.3655198428701" cy="794.9999999999998" fill-opacity="0.0" r="360.0" /><circle cx="575.7229073812842" cy="855.4813730221583" fill-opacity="0.0" r="360.0" /><circle cx="560.7231421028462" cy="911.2767210712786" fill-opacity="0.0" r="360.0" /><circle cx="528.3247531861336" cy="962.7378063787835" fill-opacity="0.0" r="360.0" /><circle cx="525.0567823845034" cy="1021.6731174966494" fill-opacity="0.0" r="360.0" /><circle cx="540.0" cy="1080.0" fill-opacity="0.0" r="360.0" /><circle cx="525.0567823845034" cy="1138.3268825033504" fill-opacity="0.0" r="360.0" /><circle cx="528.3247531861336" cy="1197.2621936212163" fill-opacity="0.0" r="360.0" /><circle cx="560.7231421028462" cy="1248.7232789287211" fill-opacity="0.0" r="360.0" /><circle cx="575.7229073812841" cy="1304.5186269778414" fill-opacity="0.0" r="360.0" /><circle cx="586.3655198428701" cy="1365.0" fill-opacity="0.0" r="360.0" /><circle cx="633.422619105029" cy="1404.457459265445" fill-opacity="0.0" r="360.0" /><circle cx="674.2429252893426" cy="1445.3453110719363" fill-opacity="0.0" r="360.0" /><circle cx="702.610338013604" cy="1499.1336815692503" fill-opacity="0.0" r="360.0" /><circle cx="752.0158292207998" cy="1531.4314828612205" fill-opacity="0.0" r="360.0" /><circle cx="809.9999999999998" cy="1547.6537180435967" fill-opacity="0.0" r="360.0" /><circle cx="853.0409531637035" cy="1589.7583653645713" fill-opacity="0.0" r="360.0" /><circle cx="905.7144151725295" cy="1616.3958751904665" fill-opacity="0.0" r="360.0" /><circle cx="966.4802168135031" cy="1614.0685900006579" fill-opacity="0.0" r="360.0" /><circle cx="1022.3002882762553" cy="1628.9760862432868" fill-opacity="0.0" r="360.0" /></g><linearGradient id="id18" x1="0" x2="1" y1="0" y2="1"><stop offset="0.0" stop-color="#aFa" /><stop offset="0.3333333333333333" stop-color="#Faa" /><stop offset="0.6666666666666666" stop-color="#aaF" /><stop offset="1" stop-color="#aFa" /></linearGradient></svg>